<?xml version="1.0" encoding="UTF-8" standalone="no"?>
<!DOCTYPE svg PUBLIC "-//W3C//DTD SVG 1.1//EN"
 "http://www.w3.org/Graphics/SVG/1.1/DTD/svg11.dtd">
<!-- Generated by graphviz version 12.2.1 (20241206.2353)
 -->
<!-- Pages: 1 -->
<svg width="617pt" height="684pt"
 viewBox="0.00 0.00 617.30 683.50" xmlns="http://www.w3.org/2000/svg" xmlns:xlink="http://www.w3.org/1999/xlink">
<g id="graph0" class="graph" transform="scale(1 1) rotate(0) translate(4 679.5)">
<polygon fill="white" stroke="none" points="-4,4 -4,-679.5 613.3,-679.5 613.3,4 -4,4"/>
<g id="clust1" class="cluster">
<title>cluster_legend</title>
<polygon fill="none" stroke="#bdbdbd" stroke-dasharray="5,2" points="293.3,-523 293.3,-667.5 601.3,-667.5 601.3,-523 293.3,-523"/>
</g>
<!-- 0 -->
<g id="node1" class="node">
<title>0</title>
<ellipse fill="none" stroke="black" cx="275.3" cy="-106.5" rx="56.98" ry="18"/>
<text text-anchor="middle" x="275.3" y="-101.45" font-family="Times,serif" font-size="14.00">O_Accepted</text>
</g>
<!-- 8 -->
<g id="node9" class="node">
<title>8</title>
<ellipse fill="none" stroke="black" cx="275.3" cy="-18" rx="27" ry="18"/>
<text text-anchor="middle" x="275.3" y="-12.95" font-family="Times,serif" font-size="14.00">■</text>
</g>
<!-- 0&#45;&gt;8 -->
<g id="edge8" class="edge">
<title>0&#45;&gt;8</title>
<path fill="none" stroke="#9e9e9e" d="M275.3,-88.41C275.3,-76.76 275.3,-61.05 275.3,-47.52"/>
<polygon fill="#9e9e9e" stroke="#9e9e9e" points="278.8,-47.86 275.3,-37.86 271.8,-47.86 278.8,-47.86"/>
<text text-anchor="start" x="275.3" y="-57.2" font-family="Times,serif" font-size="14.00" fill="#0c8599">&#45;49%</text>
</g>
<!-- 1 -->
<g id="node2" class="node">
<title>1</title>
<ellipse fill="none" stroke="black" cx="409.3" cy="-106.5" rx="59.03" ry="18"/>
<text text-anchor="middle" x="409.3" y="-101.45" font-family="Times,serif" font-size="14.00">O_Cancelled</text>
</g>
<!-- 1&#45;&gt;8 -->
<g id="edge5" class="edge">
<title>1&#45;&gt;8</title>
<path fill="none" stroke="#9e9e9e" d="M385.03,-89.84C362.2,-75.1 328,-53.02 303.86,-37.44"/>
<polygon fill="#9e9e9e" stroke="#9e9e9e" points="305.76,-34.5 295.47,-32.02 301.97,-40.38 305.76,-34.5"/>
<text text-anchor="start" x="354.3" y="-57.2" font-family="Times,serif" font-size="14.00" fill="#0c8599">&#45;27%</text>
</g>
<!-- 2 -->
<g id="node3" class="node">
<title>2</title>
<ellipse fill="none" stroke="black" cx="256.3" cy="-460.5" rx="68.75" ry="18"/>
<text text-anchor="middle" x="256.3" y="-455.45" font-family="Times,serif" font-size="14.00">O_Create Offer</text>
</g>
<!-- 3 -->
<g id="node4" class="node">
<title>3</title>
<ellipse fill="none" stroke="black" cx="256.3" cy="-372" rx="50.84" ry="18"/>
<text text-anchor="middle" x="256.3" y="-366.95" font-family="Times,serif" font-size="14.00">O_Created</text>
</g>
<!-- 2&#45;&gt;3 -->
<g id="edge2" class="edge">
<title>2&#45;&gt;3</title>
<path fill="none" stroke="#9e9e9e" d="M256.3,-442.41C256.3,-430.76 256.3,-415.05 256.3,-401.52"/>
<polygon fill="#9e9e9e" stroke="#9e9e9e" points="259.8,-401.86 256.3,-391.86 252.8,-401.86 259.8,-401.86"/>
<text text-anchor="start" x="256.3" y="-411.2" font-family="Times,serif" font-size="14.00" fill="#e8590c">+31%</text>
</g>
<!-- 3&#45;&gt;1 -->
<g id="edge9" class="edge">
<title>3&#45;&gt;1</title>
<path fill="none" stroke="#9e9e9e" d="M302,-363.67C362.31,-352.95 463.4,-331.04 485.3,-301.5 524.96,-248.01 468.29,-171.14 433.31,-132.17"/>
<polygon fill="#9e9e9e" stroke="#9e9e9e" points="436.17,-130.11 426.83,-125.12 431.02,-134.85 436.17,-130.11"/>
<text text-anchor="start" x="497.92" y="-234.2" font-family="Times,serif" font-size="14.00" fill="#e8590c">+57%</text>
</g>
<!-- 4 -->
<g id="node5" class="node">
<title>4</title>
<ellipse fill="none" stroke="black" cx="75.3" cy="-106.5" rx="52.38" ry="18"/>
<text text-anchor="middle" x="75.3" y="-101.45" font-family="Times,serif" font-size="14.00">O_Refused</text>
</g>
<!-- 3&#45;&gt;4 -->
<g id="edge19" class="edge">
<title>3&#45;&gt;4</title>
<path fill="none" stroke="#ffb300" stroke-width="2.5" stroke-dasharray="5,2" d="M208.32,-365.54C145.27,-355.31 38.76,-326.57 6.55,-247.5 -6.44,-215.62 0.48,-193.66 34.3,-142.5 36.72,-138.83 39.64,-135.33 42.79,-132.06"/>
<polygon fill="#ffb300" stroke="#ffb300" stroke-width="2.5" points="44.87,-134.9 49.86,-125.55 40.13,-129.74 44.87,-134.9"/>
<text text-anchor="start" x="6.55" y="-234.2" font-family="Times,serif" font-size="14.00" fill="#0c8599">&#45;100%</text>
</g>
<!-- 6 -->
<g id="node7" class="node">
<title>6</title>
<ellipse fill="none" stroke="black" cx="370.3" cy="-283.5" rx="105.6" ry="18"/>
<text text-anchor="middle" x="370.3" y="-278.45" font-family="Times,serif" font-size="14.00">O_Sent (mail and online)</text>
</g>
<!-- 3&#45;&gt;6 -->
<g id="edge3" class="edge">
<title>3&#45;&gt;6</title>
<path fill="none" stroke="#9e9e9e" d="M277.21,-355.13C294.52,-342 319.38,-323.14 339.05,-308.21"/>
<polygon fill="#9e9e9e" stroke="#9e9e9e" points="340.91,-311.2 346.76,-302.36 336.67,-305.62 340.91,-311.2"/>
<text text-anchor="start" x="323.51" y="-322.7" font-family="Times,serif" font-size="14.00" fill="#e8590c">+34%</text>
</g>
<!-- 7 -->
<g id="node8" class="node">
<title>7</title>
<ellipse fill="none" stroke="black" cx="157.3" cy="-283.5" rx="89.23" ry="18"/>
<text text-anchor="middle" x="157.3" y="-278.45" font-family="Times,serif" font-size="14.00">O_Sent (online only)</text>
</g>
<!-- 3&#45;&gt;7 -->
<g id="edge10" class="edge">
<title>3&#45;&gt;7</title>
<path fill="none" stroke="#9e9e9e" d="M238.14,-355.13C223.31,-342.18 202.1,-323.65 185.13,-308.82"/>
<polygon fill="#9e9e9e" stroke="#9e9e9e" points="187.67,-306.39 177.83,-302.44 183.06,-311.66 187.67,-306.39"/>
<text text-anchor="start" x="215.66" y="-322.7" font-family="Times,serif" font-size="14.00" fill="#e8590c">+2%</text>
</g>
<!-- 4&#45;&gt;8 -->
<g id="edge13" class="edge">
<title>4&#45;&gt;8</title>
<path fill="none" stroke="#9e9e9e" d="M87.68,-88.66C96.98,-77.2 110.72,-62.6 126.05,-54 160.62,-34.59 205.49,-25.92 236.98,-22.06"/>
<polygon fill="#9e9e9e" stroke="#9e9e9e" points="237.28,-25.55 246.83,-20.97 236.51,-18.59 237.28,-25.55"/>
<text text-anchor="start" x="126.05" y="-57.2" font-family="Times,serif" font-size="14.00" fill="#0c8599">&#45;8%</text>
</g>
<!-- 5 -->
<g id="node6" class="node">
<title>5</title>
<ellipse fill="none" stroke="black" cx="214.3" cy="-195" rx="55.96" ry="18"/>
<text text-anchor="middle" x="214.3" y="-189.95" font-family="Times,serif" font-size="14.00">O_Returned</text>
</g>
<!-- 5&#45;&gt;0 -->
<g id="edge7" class="edge">
<title>5&#45;&gt;0</title>
<path fill="none" stroke="#9e9e9e" d="M210.67,-176.62C209.41,-166.04 209.55,-152.67 215.55,-142.5 219.15,-136.38 224.28,-131.23 230.02,-126.91"/>
<polygon fill="#9e9e9e" stroke="#9e9e9e" points="231.68,-130.01 238.17,-121.63 227.87,-124.13 231.68,-130.01"/>
<text text-anchor="start" x="215.55" y="-145.7" font-family="Times,serif" font-size="14.00" fill="#e8590c">+30%</text>
</g>
<!-- 5&#45;&gt;1 -->
<g id="edge15" class="edge">
<title>5&#45;&gt;1</title>
<path fill="none" stroke="#9e9e9e" d="M231.11,-177.52C244.89,-164.33 263.54,-147.27 272.55,-142.5 274.48,-141.48 316.86,-130.69 353.94,-121.36"/>
<polygon fill="#9e9e9e" stroke="#9e9e9e" points="354.4,-124.85 363.25,-119.02 352.7,-118.06 354.4,-124.85"/>
<text text-anchor="start" x="272.55" y="-145.7" font-family="Times,serif" font-size="14.00" fill="#e8590c">+38%</text>
</g>
<!-- 5&#45;&gt;4 -->
<g id="edge12" class="edge">
<title>5&#45;&gt;4</title>
<path fill="none" stroke="#9e9e9e" d="M172.06,-182.8C155.44,-177.22 136.75,-169.4 121.55,-159 111.28,-151.98 101.76,-142.22 94.05,-133.08"/>
<polygon fill="#9e9e9e" stroke="#9e9e9e" points="96.93,-131.07 87.94,-125.45 91.46,-135.44 96.93,-131.07"/>
<text text-anchor="start" x="121.55" y="-145.7" font-family="Times,serif" font-size="14.00" fill="#e8590c">+41%</text>
</g>
<!-- 5&#45;&gt;8 -->
<g id="edge17" class="edge">
<title>5&#45;&gt;8</title>
<path fill="none" stroke="#ffb300" stroke-width="2.5" stroke-dasharray="5,2" d="M198.94,-177.41C181.25,-156.2 156.57,-118.6 172.55,-88.5 186.61,-62.02 215.76,-43.78 239.44,-32.66"/>
<polygon fill="#ffb300" stroke="#ffb300" stroke-width="2.5" points="240.67,-35.94 248.43,-28.72 237.86,-29.53 240.67,-35.94"/>
<text text-anchor="start" x="172.55" y="-101.45" font-family="Times,serif" font-size="14.00" fill="#0c8599">&#45;100%</text>
</g>
<!-- 6&#45;&gt;1 -->
<g id="edge4" class="edge">
<title>6&#45;&gt;1</title>
<path fill="none" stroke="#9e9e9e" d="M374.18,-265.08C380.93,-234.81 394.87,-172.26 403.01,-135.72"/>
<polygon fill="#9e9e9e" stroke="#9e9e9e" points="406.34,-136.85 405.1,-126.33 399.51,-135.33 406.34,-136.85"/>
<text text-anchor="start" x="393.67" y="-189.95" font-family="Times,serif" font-size="14.00" fill="#e8590c">+125%</text>
</g>
<!-- 6&#45;&gt;4 -->
<g id="edge14" class="edge">
<title>6&#45;&gt;4</title>
<path fill="none" stroke="#9e9e9e" d="M291.15,-271.21C245.01,-264.14 191.63,-254.98 169.3,-247.5 137.44,-236.83 122.98,-239.28 102.05,-213 84.59,-191.07 78.38,-159.14 76.25,-136.15"/>
<polygon fill="#9e9e9e" stroke="#9e9e9e" points="79.74,-135.98 75.56,-126.24 72.76,-136.46 79.74,-135.98"/>
<text text-anchor="start" x="102.05" y="-189.95" font-family="Times,serif" font-size="14.00" fill="#e8590c">+1200%</text>
</g>
<!-- 6&#45;&gt;5 -->
<g id="edge6" class="edge">
<title>6&#45;&gt;5</title>
<path fill="none" stroke="#9e9e9e" d="M340.22,-265.82C314.94,-251.8 278.69,-231.71 251.58,-216.67"/>
<polygon fill="#9e9e9e" stroke="#9e9e9e" points="253.44,-213.7 243,-211.91 250.04,-219.82 253.44,-213.7"/>
<text text-anchor="start" x="306.27" y="-234.2" font-family="Times,serif" font-size="14.00" fill="#e8590c">+910%</text>
</g>
<!-- 6&#45;&gt;8 -->
<g id="edge20" class="edge">
<title>6&#45;&gt;8</title>
<path fill="none" stroke="#ffb300" stroke-width="2.5" stroke-dasharray="5,2" d="M392.52,-265.51C434.98,-230.96 519.79,-150.54 477.3,-88.5 441.61,-36.39 364.02,-22.86 316.07,-19.63"/>
<polygon fill="#ffb300" stroke="#ffb300" stroke-width="2.5" points="316.45,-16.15 306.29,-19.13 316.09,-23.14 316.45,-16.15"/>
<text text-anchor="start" x="486.68" y="-145.7" font-family="Times,serif" font-size="14.00" fill="#0c8599">&#45;100%</text>
</g>
<!-- 7&#45;&gt;1 -->
<g id="edge16" class="edge">
<title>7&#45;&gt;1</title>
<path fill="none" stroke="#9e9e9e" d="M220.15,-270.33C257.59,-262.62 299.2,-253.09 306.3,-247.5 333.85,-225.78 321.45,-205.58 341.8,-177 353.48,-160.59 369.01,-144.32 382.22,-131.66"/>
<polygon fill="#9e9e9e" stroke="#9e9e9e" points="384.5,-134.31 389.4,-124.92 379.71,-129.21 384.5,-134.31"/>
<text text-anchor="start" x="341.8" y="-189.95" font-family="Times,serif" font-size="14.00" fill="#e8590c">+225%</text>
</g>
<!-- 7&#45;&gt;4 -->
<g id="edge18" class="edge">
<title>7&#45;&gt;4</title>
<path fill="none" stroke="#ffb300" stroke-width="2.5" stroke-dasharray="5,2" d="M105.34,-268.48C78.35,-258.1 48.22,-240.8 34.55,-213 21.84,-187.16 37.06,-156.31 52.39,-134.66"/>
<polygon fill="#ffb300" stroke="#ffb300" stroke-width="2.5" points="54.96,-137.06 58.21,-126.98 49.38,-132.83 54.96,-137.06"/>
<text text-anchor="start" x="34.55" y="-189.95" font-family="Times,serif" font-size="14.00" fill="#0c8599">&#45;100%</text>
</g>
<!-- 7&#45;&gt;5 -->
<g id="edge11" class="edge">
<title>7&#45;&gt;5</title>
<path fill="none" stroke="#9e9e9e" d="M164.79,-265.2C169.57,-254.91 176.22,-241.8 183.55,-231 185.8,-227.69 188.32,-224.35 190.94,-221.11"/>
<polygon fill="#9e9e9e" stroke="#9e9e9e" points="193.57,-223.42 197.4,-213.55 188.25,-218.88 193.57,-223.42"/>
<text text-anchor="start" x="183.55" y="-234.2" font-family="Times,serif" font-size="14.00" fill="#e8590c">+29%</text>
</g>
<!-- 9 -->
<g id="node10" class="node">
<title>9</title>
<ellipse fill="none" stroke="black" cx="256.3" cy="-595.25" rx="27" ry="18"/>
<text text-anchor="middle" x="256.3" y="-590.58" font-family="Times,serif" font-size="14.00">▶</text>
</g>
<!-- 9&#45;&gt;2 -->
<g id="edge1" class="edge">
<title>9&#45;&gt;2</title>
<path fill="none" stroke="#9e9e9e" d="M256.3,-576.9C256.3,-554.83 256.3,-516.44 256.3,-490.04"/>
<polygon fill="#9e9e9e" stroke="#9e9e9e" points="259.8,-490.37 256.3,-480.37 252.8,-490.37 259.8,-490.37"/>
<text text-anchor="start" x="256.3" y="-499.7" font-family="Times,serif" font-size="14.00" fill="#e8590c">+31%</text>
</g>
<!-- _legend -->
<g id="node11" class="node">
<title>_legend</title>
<text text-anchor="start" x="425.92" y="-638.2" font-family="Times,serif" font-weight="bold" font-size="14.00">Legend</text>
<text text-anchor="start" x="314.05" y="-614.7" font-family="Times,serif" font-size="14.00" fill="#555555">edge label: </text>
<text text-anchor="start" x="377.05" y="-614.7" font-family="Times,serif" font-size="14.00" fill="#e8590c">over</text>
<text text-anchor="start" x="401.05" y="-614.7" font-family="Times,serif" font-size="14.00" fill="#555555"> / </text>
<text text-anchor="start" x="412.3" y="-614.7" font-family="Times,serif" font-size="14.00" fill="#0c8599">under</text>
<text text-anchor="start" x="443.05" y="-614.7" font-family="Times,serif" font-size="14.00" fill="#555555">&#45;forecast %</text>
<text text-anchor="start" x="314.05" y="-590.2" font-family="Times,serif" font-size="14.00" fill="#9e9e9e">─────</text>
<text text-anchor="start" x="369.8" y="-590.2" font-family="Times,serif" font-size="14.00">matched</text>
<text text-anchor="start" x="314.05" y="-566.7" font-family="Times,serif" font-size="14.00" fill="#ffb300">– – –</text>
<text text-anchor="start" x="369.8" y="-566.7" font-family="Times,serif" font-size="14.00">happened — forecast missed it</text>
<text text-anchor="start" x="314.05" y="-543.2" font-family="Times,serif" font-size="14.00" fill="#e53935">– – –</text>
<text text-anchor="start" x="369.8" y="-543.2" font-family="Times,serif" font-size="14.00">forecast predicted it — did not happen</text>
</g>
</g>
</svg>
