<?xml version="1.0" encoding="UTF-8" standalone="no"?>
<!DOCTYPE svg PUBLIC "-//W3C//DTD SVG 1.1//EN"
 "http://www.w3.org/Graphics/SVG/1.1/DTD/svg11.dtd">
<!-- Generated by graphviz version 12.2.1 (20241206.2353)
 -->
<!-- Pages: 1 -->
<svg width="446pt" height="575pt"
 viewBox="0.00 0.00 445.53 575.00" xmlns="http://www.w3.org/2000/svg" xmlns:xlink="http://www.w3.org/1999/xlink">
<g id="graph0" class="graph" transform="scale(1 1) rotate(0) translate(4 571)">
<polygon fill="white" stroke="none" points="-4,4 -4,-571 441.53,-571 441.53,4 -4,4"/>
<!-- 0 -->
<g id="node1" class="node">
<title>0</title>
<ellipse fill="none" stroke="black" cx="318.6" cy="-549" rx="27" ry="18"/>
<text text-anchor="middle" x="318.6" y="-544.33" font-family="Times,serif" font-size="14.00">▶</text>
</g>
<!-- 2 -->
<g id="node3" class="node">
<title>2</title>
<ellipse fill="none" stroke="black" cx="318.6" cy="-460.5" rx="68.75" ry="18"/>
<text text-anchor="middle" x="318.6" y="-455.45" font-family="Times,serif" font-size="14.00">O_Create Offer</text>
</g>
<!-- 0&#45;&gt;2 -->
<g id="edge1" class="edge">
<title>0&#45;&gt;2</title>
<path fill="none" stroke="black" d="M318.6,-530.91C318.6,-519.26 318.6,-503.55 318.6,-490.02"/>
<polygon fill="black" stroke="black" points="322.1,-490.36 318.6,-480.36 315.1,-490.36 322.1,-490.36"/>
<text text-anchor="middle" x="328.73" y="-499.7" font-family="Times,serif" font-size="14.00">815</text>
</g>
<!-- 1 -->
<g id="node2" class="node">
<title>1</title>
<ellipse fill="none" stroke="black" cx="197.6" cy="-18" rx="27" ry="18"/>
<text text-anchor="middle" x="197.6" y="-12.95" font-family="Times,serif" font-size="14.00">■</text>
</g>
<!-- 3 -->
<g id="node4" class="node">
<title>3</title>
<ellipse fill="none" stroke="black" cx="318.6" cy="-372" rx="50.84" ry="18"/>
<text text-anchor="middle" x="318.6" y="-366.95" font-family="Times,serif" font-size="14.00">O_Created</text>
</g>
<!-- 2&#45;&gt;3 -->
<g id="edge2" class="edge">
<title>2&#45;&gt;3</title>
<path fill="none" stroke="black" d="M318.6,-442.41C318.6,-430.76 318.6,-415.05 318.6,-401.52"/>
<polygon fill="black" stroke="black" points="322.1,-401.86 318.6,-391.86 315.1,-401.86 322.1,-401.86"/>
<text text-anchor="middle" x="328.73" y="-411.2" font-family="Times,serif" font-size="14.00">815</text>
</g>
<!-- 4 -->
<g id="node5" class="node">
<title>4</title>
<ellipse fill="none" stroke="black" cx="105.6" cy="-283.5" rx="105.6" ry="18"/>
<text text-anchor="middle" x="105.6" y="-278.45" font-family="Times,serif" font-size="14.00">O_Sent (mail and online)</text>
</g>
<!-- 3&#45;&gt;4 -->
<g id="edge3" class="edge">
<title>3&#45;&gt;4</title>
<path fill="none" stroke="black" d="M286.25,-357.86C251.53,-343.76 195.94,-321.19 155.59,-304.8"/>
<polygon fill="black" stroke="black" points="157.14,-301.65 146.56,-301.13 154.51,-308.14 157.14,-301.65"/>
<text text-anchor="middle" x="241.31" y="-322.7" font-family="Times,serif" font-size="14.00">745</text>
</g>
<!-- 5 -->
<g id="node6" class="node">
<title>5</title>
<ellipse fill="none" stroke="black" cx="331.6" cy="-106.5" rx="59.03" ry="18"/>
<text text-anchor="middle" x="331.6" y="-101.45" font-family="Times,serif" font-size="14.00">O_Cancelled</text>
</g>
<!-- 3&#45;&gt;5 -->
<g id="edge9" class="edge">
<title>3&#45;&gt;5</title>
<path fill="none" stroke="black" d="M351.03,-357.82C373.94,-346.58 402.91,-328 416.6,-301.5 447.23,-242.22 391.74,-169.51 356.82,-132.19"/>
<polygon fill="black" stroke="black" points="359.38,-129.8 349.92,-125.01 354.33,-134.65 359.38,-129.8"/>
<text text-anchor="middle" x="430.78" y="-234.2" font-family="Times,serif" font-size="14.00">22</text>
</g>
<!-- 8 -->
<g id="node9" class="node">
<title>8</title>
<ellipse fill="none" stroke="black" cx="318.6" cy="-283.5" rx="89.23" ry="18"/>
<text text-anchor="middle" x="318.6" y="-278.45" font-family="Times,serif" font-size="14.00">O_Sent (online only)</text>
</g>
<!-- 3&#45;&gt;8 -->
<g id="edge10" class="edge">
<title>3&#45;&gt;8</title>
<path fill="none" stroke="black" d="M318.6,-353.91C318.6,-342.26 318.6,-326.55 318.6,-313.02"/>
<polygon fill="black" stroke="black" points="322.1,-313.36 318.6,-303.36 315.1,-313.36 322.1,-313.36"/>
<text text-anchor="middle" x="325.35" y="-322.7" font-family="Times,serif" font-size="14.00">41</text>
</g>
<!-- 4&#45;&gt;5 -->
<g id="edge4" class="edge">
<title>4&#45;&gt;5</title>
<path fill="none" stroke="black" d="M187.17,-271.78C220.71,-265.99 254.71,-257.87 267.6,-247.5 276.96,-239.97 304.73,-173.99 320.44,-135.35"/>
<polygon fill="black" stroke="black" points="323.64,-136.78 324.15,-126.2 317.15,-134.16 323.64,-136.78"/>
<text text-anchor="middle" x="309.43" y="-189.95" font-family="Times,serif" font-size="14.00">45</text>
</g>
<!-- 6 -->
<g id="node7" class="node">
<title>6</title>
<ellipse fill="none" stroke="black" cx="189.6" cy="-195" rx="55.96" ry="18"/>
<text text-anchor="middle" x="189.6" y="-189.95" font-family="Times,serif" font-size="14.00">O_Returned</text>
</g>
<!-- 4&#45;&gt;6 -->
<g id="edge6" class="edge">
<title>4&#45;&gt;6</title>
<path fill="none" stroke="black" d="M122.2,-265.41C134.67,-252.57 151.93,-234.8 165.86,-220.45"/>
<polygon fill="black" stroke="black" points="168.1,-223.17 172.56,-213.55 163.08,-218.29 168.1,-223.17"/>
<text text-anchor="middle" x="165.25" y="-234.2" font-family="Times,serif" font-size="14.00">313</text>
</g>
<!-- 9 -->
<g id="node10" class="node">
<title>9</title>
<ellipse fill="none" stroke="black" cx="70.6" cy="-106.5" rx="52.38" ry="18"/>
<text text-anchor="middle" x="70.6" y="-101.45" font-family="Times,serif" font-size="14.00">O_Refused</text>
</g>
<!-- 4&#45;&gt;9 -->
<g id="edge14" class="edge">
<title>4&#45;&gt;9</title>
<path fill="none" stroke="black" d="M102.12,-265.08C96.07,-234.81 83.55,-172.26 76.25,-135.72"/>
<polygon fill="black" stroke="black" points="79.76,-135.45 74.37,-126.33 72.9,-136.83 79.76,-135.45"/>
<text text-anchor="middle" x="98.33" y="-189.95" font-family="Times,serif" font-size="14.00">13</text>
</g>
<!-- 5&#45;&gt;1 -->
<g id="edge5" class="edge">
<title>5&#45;&gt;1</title>
<path fill="none" stroke="black" d="M307.34,-89.84C284.5,-75.1 250.31,-53.02 226.17,-37.44"/>
<polygon fill="black" stroke="black" points="228.07,-34.5 217.77,-32.02 224.27,-40.38 228.07,-34.5"/>
<text text-anchor="middle" x="286.73" y="-57.2" font-family="Times,serif" font-size="14.00">374</text>
</g>
<!-- 6&#45;&gt;5 -->
<g id="edge15" class="edge">
<title>6&#45;&gt;5</title>
<path fill="none" stroke="black" d="M207.6,-177.6C220.06,-166.77 237.36,-152.74 254.1,-142.5 264.02,-136.43 275.17,-130.79 285.86,-125.88"/>
<polygon fill="black" stroke="black" points="287.22,-129.1 294.94,-121.84 284.38,-122.7 287.22,-129.1"/>
<text text-anchor="middle" x="260.85" y="-145.7" font-family="Times,serif" font-size="14.00">22</text>
</g>
<!-- 7 -->
<g id="node8" class="node">
<title>7</title>
<ellipse fill="none" stroke="black" cx="197.6" cy="-106.5" rx="56.98" ry="18"/>
<text text-anchor="middle" x="197.6" y="-101.45" font-family="Times,serif" font-size="14.00">O_Accepted</text>
</g>
<!-- 6&#45;&gt;7 -->
<g id="edge7" class="edge">
<title>6&#45;&gt;7</title>
<path fill="none" stroke="black" d="M191.18,-176.91C192.26,-165.26 193.71,-149.55 194.97,-136.02"/>
<polygon fill="black" stroke="black" points="198.42,-136.64 195.86,-126.36 191.45,-135.99 198.42,-136.64"/>
<text text-anchor="middle" x="204.44" y="-145.7" font-family="Times,serif" font-size="14.00">304</text>
</g>
<!-- 6&#45;&gt;9 -->
<g id="edge12" class="edge">
<title>6&#45;&gt;9</title>
<path fill="none" stroke="black" d="M167.78,-178.13C149.16,-164.6 122.18,-144.99 101.37,-129.86"/>
<polygon fill="black" stroke="black" points="103.66,-127.2 93.52,-124.15 99.55,-132.87 103.66,-127.2"/>
<text text-anchor="middle" x="147.51" y="-145.7" font-family="Times,serif" font-size="14.00">72</text>
</g>
<!-- 7&#45;&gt;1 -->
<g id="edge8" class="edge">
<title>7&#45;&gt;1</title>
<path fill="none" stroke="black" d="M197.6,-88.41C197.6,-76.76 197.6,-61.05 197.6,-47.52"/>
<polygon fill="black" stroke="black" points="201.1,-47.86 197.6,-37.86 194.1,-47.86 201.1,-47.86"/>
<text text-anchor="middle" x="207.73" y="-57.2" font-family="Times,serif" font-size="14.00">277</text>
</g>
<!-- 8&#45;&gt;5 -->
<g id="edge16" class="edge">
<title>8&#45;&gt;5</title>
<path fill="none" stroke="black" d="M319.9,-265.08C322.14,-234.94 326.75,-172.8 329.47,-136.2"/>
<polygon fill="black" stroke="black" points="332.95,-136.59 330.2,-126.36 325.97,-136.07 332.95,-136.59"/>
<text text-anchor="middle" x="333.15" y="-189.95" font-family="Times,serif" font-size="14.00">13</text>
</g>
<!-- 8&#45;&gt;6 -->
<g id="edge11" class="edge">
<title>8&#45;&gt;6</title>
<path fill="none" stroke="black" d="M293.73,-265.82C273.45,-252.22 244.63,-232.9 222.46,-218.03"/>
<polygon fill="black" stroke="black" points="224.61,-215.26 214.35,-212.6 220.71,-221.07 224.61,-215.26"/>
<text text-anchor="middle" x="272.41" y="-234.2" font-family="Times,serif" font-size="14.00">22</text>
</g>
<!-- 9&#45;&gt;1 -->
<g id="edge13" class="edge">
<title>9&#45;&gt;1</title>
<path fill="none" stroke="black" d="M93.31,-90.04C114.69,-75.47 146.77,-53.62 169.7,-38.01"/>
<polygon fill="black" stroke="black" points="171.67,-40.9 177.96,-32.38 167.73,-35.11 171.67,-40.9"/>
<text text-anchor="middle" x="152.23" y="-57.2" font-family="Times,serif" font-size="14.00">93</text>
</g>
</g>
</svg>
