<?xml version="1.0" encoding="UTF-8" standalone="no"?>
<!DOCTYPE svg PUBLIC "-//W3C//DTD SVG 1.1//EN"
 "http://www.w3.org/Graphics/SVG/1.1/DTD/svg11.dtd">
<!-- Generated by graphviz version 12.2.1 (20241206.2353)
 -->
<!-- Pages: 1 -->
<svg width="490pt" height="575pt"
 viewBox="0.00 0.00 489.95 575.00" xmlns="http://www.w3.org/2000/svg" xmlns:xlink="http://www.w3.org/1999/xlink">
<g id="graph0" class="graph" transform="scale(1 1) rotate(0) translate(4 571)">
<polygon fill="white" stroke="none" points="-4,4 -4,-571 485.95,-571 485.95,4 -4,4"/>
<!-- 0 -->
<g id="node1" class="node">
<title>0</title>
<ellipse fill="none" stroke="black" cx="270.03" cy="-549" rx="27" ry="18"/>
<text text-anchor="middle" x="270.03" y="-544.33" font-family="Times,serif" font-size="14.00">▶</text>
</g>
<!-- 2 -->
<g id="node3" class="node">
<title>2</title>
<ellipse fill="none" stroke="black" cx="270.03" cy="-460.5" rx="68.75" ry="18"/>
<text text-anchor="middle" x="270.03" y="-455.45" font-family="Times,serif" font-size="14.00">O_Create Offer</text>
</g>
<!-- 0&#45;&gt;2 -->
<g id="edge1" class="edge">
<title>0&#45;&gt;2</title>
<path fill="none" stroke="black" d="M270.03,-530.91C270.03,-519.26 270.03,-503.55 270.03,-490.02"/>
<polygon fill="black" stroke="black" points="273.53,-490.36 270.03,-480.36 266.53,-490.36 273.53,-490.36"/>
<text text-anchor="middle" x="280.15" y="-499.7" font-family="Times,serif" font-size="14.00">622</text>
</g>
<!-- 1 -->
<g id="node2" class="node">
<title>1</title>
<ellipse fill="none" stroke="black" cx="286.03" cy="-18" rx="27" ry="18"/>
<text text-anchor="middle" x="286.03" y="-12.95" font-family="Times,serif" font-size="14.00">■</text>
</g>
<!-- 3 -->
<g id="node4" class="node">
<title>3</title>
<ellipse fill="none" stroke="black" cx="270.03" cy="-372" rx="50.84" ry="18"/>
<text text-anchor="middle" x="270.03" y="-366.95" font-family="Times,serif" font-size="14.00">O_Created</text>
</g>
<!-- 2&#45;&gt;3 -->
<g id="edge2" class="edge">
<title>2&#45;&gt;3</title>
<path fill="none" stroke="black" d="M270.03,-442.41C270.03,-430.76 270.03,-415.05 270.03,-401.52"/>
<polygon fill="black" stroke="black" points="273.53,-401.86 270.03,-391.86 266.53,-401.86 273.53,-401.86"/>
<text text-anchor="middle" x="280.15" y="-411.2" font-family="Times,serif" font-size="14.00">622</text>
</g>
<!-- 4 -->
<g id="node5" class="node">
<title>4</title>
<ellipse fill="none" stroke="black" cx="350.03" cy="-283.5" rx="105.6" ry="18"/>
<text text-anchor="middle" x="350.03" y="-278.45" font-family="Times,serif" font-size="14.00">O_Sent (mail and online)</text>
</g>
<!-- 3&#45;&gt;4 -->
<g id="edge3" class="edge">
<title>3&#45;&gt;4</title>
<path fill="none" stroke="black" d="M285.08,-354.73C296.81,-342.05 313.3,-324.21 326.73,-309.69"/>
<polygon fill="black" stroke="black" points="328.98,-312.41 333.2,-302.7 323.84,-307.66 328.98,-312.41"/>
<text text-anchor="middle" x="327.32" y="-322.7" font-family="Times,serif" font-size="14.00">558</text>
</g>
<!-- 5 -->
<g id="node6" class="node">
<title>5</title>
<ellipse fill="none" stroke="black" cx="59.03" cy="-106.5" rx="59.03" ry="18"/>
<text text-anchor="middle" x="59.03" y="-101.45" font-family="Times,serif" font-size="14.00">O_Cancelled</text>
</g>
<!-- 3&#45;&gt;5 -->
<g id="edge9" class="edge">
<title>3&#45;&gt;5</title>
<path fill="none" stroke="black" d="M224.19,-363.77C163.39,-353.14 61.17,-331.29 39.03,-301.5 2.47,-252.32 27.6,-175.72 45.47,-135.04"/>
<polygon fill="black" stroke="black" points="48.65,-136.5 49.62,-125.95 42.28,-133.59 48.65,-136.5"/>
<text text-anchor="middle" x="27.3" y="-234.2" font-family="Times,serif" font-size="14.00">14</text>
</g>
<!-- 8 -->
<g id="node9" class="node">
<title>8</title>
<ellipse fill="none" stroke="black" cx="137.03" cy="-283.5" rx="89.23" ry="18"/>
<text text-anchor="middle" x="137.03" y="-278.45" font-family="Times,serif" font-size="14.00">O_Sent (online only)</text>
</g>
<!-- 3&#45;&gt;8 -->
<g id="edge10" class="edge">
<title>3&#45;&gt;8</title>
<path fill="none" stroke="black" d="M246.56,-355.73C225.94,-342.32 195.65,-322.62 172.14,-307.34"/>
<polygon fill="black" stroke="black" points="174.09,-304.43 163.8,-301.91 170.28,-310.3 174.09,-304.43"/>
<text text-anchor="middle" x="222.19" y="-322.7" font-family="Times,serif" font-size="14.00">40</text>
</g>
<!-- 9 -->
<g id="node10" class="node">
<title>9</title>
<ellipse fill="none" stroke="black" cx="363.03" cy="-106.5" rx="52.38" ry="18"/>
<text text-anchor="middle" x="363.03" y="-101.45" font-family="Times,serif" font-size="14.00">O_Refused</text>
</g>
<!-- 3&#45;&gt;9 -->
<g id="edge19" class="edge">
<title>3&#45;&gt;9</title>
<path fill="none" stroke="black" d="M320.37,-368.55C366.53,-363.31 432.51,-347.61 465.03,-301.5 505.57,-244.02 434.38,-168.4 391.68,-130.8"/>
<polygon fill="black" stroke="black" points="394.06,-128.24 384.2,-124.37 389.49,-133.54 394.06,-128.24"/>
<text text-anchor="middle" x="478.58" y="-234.2" font-family="Times,serif" font-size="14.00">1</text>
</g>
<!-- 4&#45;&gt;1 -->
<g id="edge20" class="edge">
<title>4&#45;&gt;1</title>
<path fill="none" stroke="black" d="M366.41,-265.45C397.98,-230.44 461,-148.71 424.03,-88.5 402.24,-53.02 356.15,-35.02 323.23,-26.34"/>
<polygon fill="black" stroke="black" points="324.22,-22.98 313.67,-24 322.55,-29.78 324.22,-22.98"/>
<text text-anchor="middle" x="437.79" y="-145.7" font-family="Times,serif" font-size="14.00">4</text>
</g>
<!-- 4&#45;&gt;5 -->
<g id="edge4" class="edge">
<title>4&#45;&gt;5</title>
<path fill="none" stroke="black" d="M270.67,-271.28C234.2,-265.11 195.62,-256.81 180.03,-247.5 127.75,-216.29 132.49,-188 92.03,-142.5 89.05,-139.16 85.88,-135.68 82.72,-132.27"/>
<polygon fill="black" stroke="black" points="85.44,-130.05 76.04,-125.15 80.33,-134.84 85.44,-130.05"/>
<text text-anchor="middle" x="146.43" y="-189.95" font-family="Times,serif" font-size="14.00">20</text>
</g>
<!-- 6 -->
<g id="node7" class="node">
<title>6</title>
<ellipse fill="none" stroke="black" cx="251.03" cy="-195" rx="55.96" ry="18"/>
<text text-anchor="middle" x="251.03" y="-189.95" font-family="Times,serif" font-size="14.00">O_Returned</text>
</g>
<!-- 4&#45;&gt;6 -->
<g id="edge6" class="edge">
<title>4&#45;&gt;6</title>
<path fill="none" stroke="black" d="M330.47,-265.41C315.4,-252.25 294.41,-233.9 277.78,-219.38"/>
<polygon fill="black" stroke="black" points="280.52,-217.12 270.68,-213.17 275.91,-222.39 280.52,-217.12"/>
<text text-anchor="middle" x="316.15" y="-234.2" font-family="Times,serif" font-size="14.00">31</text>
</g>
<!-- 4&#45;&gt;9 -->
<g id="edge14" class="edge">
<title>4&#45;&gt;9</title>
<path fill="none" stroke="black" d="M355.29,-265.21C356.77,-259.61 358.2,-253.34 359.03,-247.5 364.41,-209.33 364.66,-164.74 364.07,-136.33"/>
<polygon fill="black" stroke="black" points="367.57,-136.26 363.81,-126.36 360.57,-136.45 367.57,-136.26"/>
<text text-anchor="middle" x="367.46" y="-189.95" font-family="Times,serif" font-size="14.00">1</text>
</g>
<!-- 5&#45;&gt;1 -->
<g id="edge5" class="edge">
<title>5&#45;&gt;1</title>
<path fill="none" stroke="black" d="M95,-91.79C138.26,-75.31 210.32,-47.85 252.48,-31.79"/>
<polygon fill="black" stroke="black" points="253.51,-35.14 261.6,-28.31 251.01,-28.6 253.51,-35.14"/>
<text text-anchor="middle" x="202.99" y="-57.2" font-family="Times,serif" font-size="14.00">510</text>
</g>
<!-- 6&#45;&gt;1 -->
<g id="edge17" class="edge">
<title>6&#45;&gt;1</title>
<path fill="none" stroke="black" d="M254.51,-176.58C260.57,-146.31 273.08,-83.76 280.38,-47.22"/>
<polygon fill="black" stroke="black" points="283.73,-48.33 282.26,-37.83 276.87,-46.95 283.73,-48.33"/>
<text text-anchor="middle" x="275.38" y="-101.45" font-family="Times,serif" font-size="14.00">3</text>
</g>
<!-- 6&#45;&gt;5 -->
<g id="edge15" class="edge">
<title>6&#45;&gt;5</title>
<path fill="none" stroke="black" d="M227.76,-178.38C210.65,-167.35 186.54,-152.77 164.03,-142.5 147.61,-135.01 129.1,-128.3 112.25,-122.81"/>
<polygon fill="black" stroke="black" points="113.49,-119.53 102.9,-119.84 111.37,-126.21 113.49,-119.53"/>
<text text-anchor="middle" x="200.41" y="-145.7" font-family="Times,serif" font-size="14.00">16</text>
</g>
<!-- 7 -->
<g id="node8" class="node">
<title>7</title>
<ellipse fill="none" stroke="black" cx="193.03" cy="-106.5" rx="56.98" ry="18"/>
<text text-anchor="middle" x="193.03" y="-101.45" font-family="Times,serif" font-size="14.00">O_Accepted</text>
</g>
<!-- 6&#45;&gt;7 -->
<g id="edge7" class="edge">
<title>6&#45;&gt;7</title>
<path fill="none" stroke="black" d="M239.57,-176.91C231.31,-164.59 220,-147.73 210.61,-133.71"/>
<polygon fill="black" stroke="black" points="213.78,-132.17 205.31,-125.81 207.97,-136.07 213.78,-132.17"/>
<text text-anchor="middle" x="237.35" y="-145.7" font-family="Times,serif" font-size="14.00">234</text>
</g>
<!-- 6&#45;&gt;9 -->
<g id="edge12" class="edge">
<title>6&#45;&gt;9</title>
<path fill="none" stroke="black" d="M271.83,-177.93C289.12,-164.58 313.93,-145.42 333.32,-130.45"/>
<polygon fill="black" stroke="black" points="335.36,-133.29 341.14,-124.41 331.08,-127.75 335.36,-133.29"/>
<text text-anchor="middle" x="323.81" y="-145.7" font-family="Times,serif" font-size="14.00">51</text>
</g>
<!-- 7&#45;&gt;1 -->
<g id="edge8" class="edge">
<title>7&#45;&gt;1</title>
<path fill="none" stroke="black" d="M210.52,-89.23C225.17,-75.6 246.22,-56.03 262.37,-41"/>
<polygon fill="black" stroke="black" points="264.72,-43.6 269.66,-34.22 259.96,-38.47 264.72,-43.6"/>
<text text-anchor="middle" x="257.98" y="-57.2" font-family="Times,serif" font-size="14.00">547</text>
</g>
<!-- 8&#45;&gt;5 -->
<g id="edge16" class="edge">
<title>8&#45;&gt;5</title>
<path fill="none" stroke="black" d="M129.26,-265.08C115.68,-234.6 87.5,-171.39 71.27,-134.97"/>
<polygon fill="black" stroke="black" points="74.53,-133.68 67.26,-125.97 68.14,-136.53 74.53,-133.68"/>
<text text-anchor="middle" x="109.16" y="-189.95" font-family="Times,serif" font-size="14.00">4</text>
</g>
<!-- 8&#45;&gt;6 -->
<g id="edge11" class="edge">
<title>8&#45;&gt;6</title>
<path fill="none" stroke="black" d="M159.28,-265.62C176.88,-252.26 201.62,-233.49 220.97,-218.8"/>
<polygon fill="black" stroke="black" points="222.93,-221.71 228.78,-212.88 218.7,-216.14 222.93,-221.71"/>
<text text-anchor="middle" x="210.99" y="-234.2" font-family="Times,serif" font-size="14.00">17</text>
</g>
<!-- 8&#45;&gt;9 -->
<g id="edge18" class="edge">
<title>8&#45;&gt;9</title>
<path fill="none" stroke="black" d="M202.39,-270.88C256.89,-261.12 325.84,-248.6 327.03,-247.5 335.24,-239.84 349.57,-174.46 357.44,-135.81"/>
<polygon fill="black" stroke="black" points="360.83,-136.74 359.37,-126.25 353.96,-135.36 360.83,-136.74"/>
<text text-anchor="middle" x="351.8" y="-189.95" font-family="Times,serif" font-size="14.00">1</text>
</g>
<!-- 9&#45;&gt;1 -->
<g id="edge13" class="edge">
<title>9&#45;&gt;1</title>
<path fill="none" stroke="black" d="M348.18,-88.82C336.46,-75.65 319.95,-57.11 306.9,-42.44"/>
<polygon fill="black" stroke="black" points="309.56,-40.17 300.29,-35.03 304.33,-44.82 309.56,-40.17"/>
<text text-anchor="middle" x="341.55" y="-57.2" font-family="Times,serif" font-size="14.00">101</text>
</g>
</g>
</svg>
