<?xml version="1.0" encoding="UTF-8" standalone="no"?>
<!DOCTYPE svg PUBLIC "-//W3C//DTD SVG 1.1//EN"
 "http://www.w3.org/Graphics/SVG/1.1/DTD/svg11.dtd">
<!-- Generated by graphviz version 12.2.1 (20241206.2353)
 -->
<!-- Pages: 1 -->
<svg width="766pt" height="684pt"
 viewBox="0.00 0.00 766.43 683.50" xmlns="http://www.w3.org/2000/svg" xmlns:xlink="http://www.w3.org/1999/xlink">
<g id="graph0" class="graph" transform="scale(1 1) rotate(0) translate(4 679.5)">
<polygon fill="white" stroke="none" points="-4,4 -4,-679.5 762.43,-679.5 762.43,4 -4,4"/>
<g id="clust1" class="cluster">
<title>cluster_legend</title>
<polygon fill="none" stroke="#bdbdbd" stroke-dasharray="5,2" points="381.35,-523 381.35,-667.5 689.35,-667.5 689.35,-523 381.35,-523"/>
</g>
<!-- 0 -->
<g id="node1" class="node">
<title>0</title>
<ellipse fill="none" stroke="black" cx="446.35" cy="-106.5" rx="56.98" ry="18"/>
<text text-anchor="middle" x="446.35" y="-101.45" font-family="Times,serif" font-size="14.00">O_Accepted</text>
</g>
<!-- 8 -->
<g id="node9" class="node">
<title>8</title>
<ellipse fill="none" stroke="black" cx="446.35" cy="-18" rx="27" ry="18"/>
<text text-anchor="middle" x="446.35" y="-12.95" font-family="Times,serif" font-size="14.00">■</text>
</g>
<!-- 0&#45;&gt;8 -->
<g id="edge8" class="edge">
<title>0&#45;&gt;8</title>
<path fill="none" stroke="#9e9e9e" d="M446.35,-88.41C446.35,-76.76 446.35,-61.05 446.35,-47.52"/>
<polygon fill="#9e9e9e" stroke="#9e9e9e" points="449.85,-47.86 446.35,-37.86 442.85,-47.86 449.85,-47.86"/>
<text text-anchor="start" x="446.35" y="-58.2" font-family="Times,serif" font-size="14.00" fill="#1e88e5">268</text>
<text text-anchor="start" x="466.6" y="-58.2" font-family="Times,serif" font-size="14.00" fill="#bdbdbd"> | </text>
<text text-anchor="start" x="477.1" y="-58.2" font-family="Times,serif" font-size="14.00" fill="#2e7d32">547</text>
<text text-anchor="start" x="497.35" y="-58.2" font-family="Times,serif" font-size="14.00" fill="#bdbdbd"> (</text>
<text text-anchor="start" x="505.6" y="-58.2" font-family="Times,serif" font-size="14.00" fill="#6a1b9a">&#45;51%</text>
<text text-anchor="start" x="535.6" y="-58.2" font-family="Times,serif" font-size="14.00" fill="#bdbdbd">)</text>
</g>
<!-- 1 -->
<g id="node2" class="node">
<title>1</title>
<ellipse fill="none" stroke="black" cx="580.35" cy="-106.5" rx="59.03" ry="18"/>
<text text-anchor="middle" x="580.35" y="-101.45" font-family="Times,serif" font-size="14.00">O_Cancelled</text>
</g>
<!-- 1&#45;&gt;8 -->
<g id="edge5" class="edge">
<title>1&#45;&gt;8</title>
<path fill="none" stroke="#9e9e9e" d="M572.09,-88.58C565.85,-77.38 556.32,-63.13 544.35,-54 526.47,-40.35 502.78,-31.7 483.18,-26.41"/>
<polygon fill="#9e9e9e" stroke="#9e9e9e" points="484.21,-23.06 473.66,-24.04 482.52,-29.85 484.21,-23.06"/>
<text text-anchor="start" x="559.87" y="-58.2" font-family="Times,serif" font-size="14.00" fill="#1e88e5">374</text>
<text text-anchor="start" x="580.12" y="-58.2" font-family="Times,serif" font-size="14.00" fill="#bdbdbd"> | </text>
<text text-anchor="start" x="590.62" y="-58.2" font-family="Times,serif" font-size="14.00" fill="#2e7d32">510</text>
<text text-anchor="start" x="610.87" y="-58.2" font-family="Times,serif" font-size="14.00" fill="#bdbdbd"> (</text>
<text text-anchor="start" x="619.12" y="-58.2" font-family="Times,serif" font-size="14.00" fill="#6a1b9a">&#45;27%</text>
<text text-anchor="start" x="649.12" y="-58.2" font-family="Times,serif" font-size="14.00" fill="#bdbdbd">)</text>
</g>
<!-- 2 -->
<g id="node3" class="node">
<title>2</title>
<ellipse fill="none" stroke="black" cx="344.35" cy="-460.5" rx="68.75" ry="18"/>
<text text-anchor="middle" x="344.35" y="-455.45" font-family="Times,serif" font-size="14.00">O_Create Offer</text>
</g>
<!-- 3 -->
<g id="node4" class="node">
<title>3</title>
<ellipse fill="none" stroke="black" cx="344.35" cy="-372" rx="50.84" ry="18"/>
<text text-anchor="middle" x="344.35" y="-366.95" font-family="Times,serif" font-size="14.00">O_Created</text>
</g>
<!-- 2&#45;&gt;3 -->
<g id="edge2" class="edge">
<title>2&#45;&gt;3</title>
<path fill="none" stroke="#9e9e9e" d="M344.35,-442.41C344.35,-430.76 344.35,-415.05 344.35,-401.52"/>
<polygon fill="#9e9e9e" stroke="#9e9e9e" points="347.85,-401.86 344.35,-391.86 340.85,-401.86 347.85,-401.86"/>
<text text-anchor="start" x="344.35" y="-412.2" font-family="Times,serif" font-size="14.00" fill="#1e88e5">765</text>
<text text-anchor="start" x="364.6" y="-412.2" font-family="Times,serif" font-size="14.00" fill="#bdbdbd"> | </text>
<text text-anchor="start" x="375.1" y="-412.2" font-family="Times,serif" font-size="14.00" fill="#2e7d32">622</text>
<text text-anchor="start" x="395.35" y="-412.2" font-family="Times,serif" font-size="14.00" fill="#bdbdbd"> (</text>
<text text-anchor="start" x="403.6" y="-412.2" font-family="Times,serif" font-size="14.00" fill="#c2185b">+23%</text>
<text text-anchor="start" x="437.35" y="-412.2" font-family="Times,serif" font-size="14.00" fill="#bdbdbd">)</text>
</g>
<!-- 3&#45;&gt;1 -->
<g id="edge9" class="edge">
<title>3&#45;&gt;1</title>
<path fill="none" stroke="#9e9e9e" d="M391.8,-365.24C425.46,-360.13 471.23,-351.08 509.35,-336 589.52,-304.29 625.38,-292.24 659.35,-213 665.66,-198.29 665.95,-191.58 659.35,-177 650.48,-157.38 633.03,-141.09 616.79,-129.23"/>
<polygon fill="#9e9e9e" stroke="#9e9e9e" points="618.89,-126.43 608.68,-123.63 614.91,-132.19 618.89,-126.43"/>
<text text-anchor="start" x="650.66" y="-235.2" font-family="Times,serif" font-size="14.00" fill="#1e88e5">22</text>
<text text-anchor="start" x="664.16" y="-235.2" font-family="Times,serif" font-size="14.00" fill="#bdbdbd"> | </text>
<text text-anchor="start" x="674.66" y="-235.2" font-family="Times,serif" font-size="14.00" fill="#2e7d32">14</text>
<text text-anchor="start" x="688.16" y="-235.2" font-family="Times,serif" font-size="14.00" fill="#bdbdbd"> (</text>
<text text-anchor="start" x="696.41" y="-235.2" font-family="Times,serif" font-size="14.00" fill="#c2185b">+57%</text>
<text text-anchor="start" x="730.16" y="-235.2" font-family="Times,serif" font-size="14.00" fill="#bdbdbd">)</text>
</g>
<!-- 4 -->
<g id="node5" class="node">
<title>4</title>
<ellipse fill="none" stroke="black" cx="166.35" cy="-106.5" rx="52.38" ry="18"/>
<text text-anchor="middle" x="166.35" y="-101.45" font-family="Times,serif" font-size="14.00">O_Refused</text>
</g>
<!-- 3&#45;&gt;4 -->
<g id="edge20" class="edge">
<title>3&#45;&gt;4</title>
<path fill="none" stroke="#ffb300" stroke-width="2.5" stroke-dasharray="5,2" d="M293.5,-369.62C216.37,-364.41 72.1,-341.84 8.85,-247.5 -26.66,-194.53 59.22,-148.78 117.64,-124.99"/>
<polygon fill="#ffb300" stroke="#ffb300" stroke-width="2.5" points="118.82,-128.28 126.83,-121.36 116.25,-121.77 118.82,-128.28"/>
<text text-anchor="start" x="8.85" y="-235.2" font-family="Times,serif" font-size="14.00" fill="#1e88e5">0</text>
<text text-anchor="start" x="15.6" y="-235.2" font-family="Times,serif" font-size="14.00" fill="#bdbdbd"> | </text>
<text text-anchor="start" x="26.1" y="-235.2" font-family="Times,serif" font-size="14.00" fill="#2e7d32">1</text>
<text text-anchor="start" x="32.85" y="-235.2" font-family="Times,serif" font-size="14.00" fill="#bdbdbd"> (</text>
<text text-anchor="start" x="41.1" y="-235.2" font-family="Times,serif" font-size="14.00" fill="#6a1b9a">&#45;100%</text>
<text text-anchor="start" x="77.85" y="-235.2" font-family="Times,serif" font-size="14.00" fill="#bdbdbd">)</text>
</g>
<!-- 6 -->
<g id="node7" class="node">
<title>6</title>
<ellipse fill="none" stroke="black" cx="451.35" cy="-283.5" rx="105.6" ry="18"/>
<text text-anchor="middle" x="451.35" y="-278.45" font-family="Times,serif" font-size="14.00">O_Sent (mail and online)</text>
</g>
<!-- 3&#45;&gt;6 -->
<g id="edge3" class="edge">
<title>3&#45;&gt;6</title>
<path fill="none" stroke="#9e9e9e" d="M363.98,-355.13C380.08,-342.12 403.14,-323.48 421.53,-308.61"/>
<polygon fill="#9e9e9e" stroke="#9e9e9e" points="423.64,-311.41 429.21,-302.4 419.24,-305.96 423.64,-311.41"/>
<text text-anchor="start" x="407.44" y="-323.7" font-family="Times,serif" font-size="14.00" fill="#1e88e5">701</text>
<text text-anchor="start" x="427.69" y="-323.7" font-family="Times,serif" font-size="14.00" fill="#bdbdbd"> | </text>
<text text-anchor="start" x="438.19" y="-323.7" font-family="Times,serif" font-size="14.00" fill="#2e7d32">558</text>
<text text-anchor="start" x="458.44" y="-323.7" font-family="Times,serif" font-size="14.00" fill="#bdbdbd"> (</text>
<text text-anchor="start" x="466.69" y="-323.7" font-family="Times,serif" font-size="14.00" fill="#c2185b">+26%</text>
<text text-anchor="start" x="500.44" y="-323.7" font-family="Times,serif" font-size="14.00" fill="#bdbdbd">)</text>
</g>
<!-- 7 -->
<g id="node8" class="node">
<title>7</title>
<ellipse fill="none" stroke="black" cx="238.35" cy="-283.5" rx="89.23" ry="18"/>
<text text-anchor="middle" x="238.35" y="-278.45" font-family="Times,serif" font-size="14.00">O_Sent (online only)</text>
</g>
<!-- 3&#45;&gt;7 -->
<g id="edge10" class="edge">
<title>3&#45;&gt;7</title>
<path fill="none" stroke="#9e9e9e" d="M324.91,-355.13C308.89,-342.06 285.91,-323.31 267.65,-308.41"/>
<polygon fill="#9e9e9e" stroke="#9e9e9e" points="270.26,-306.02 260.29,-302.4 265.83,-311.44 270.26,-306.02"/>
<text text-anchor="start" x="300.85" y="-323.7" font-family="Times,serif" font-size="14.00" fill="#1e88e5">41</text>
<text text-anchor="start" x="314.35" y="-323.7" font-family="Times,serif" font-size="14.00" fill="#bdbdbd"> | </text>
<text text-anchor="start" x="324.85" y="-323.7" font-family="Times,serif" font-size="14.00" fill="#2e7d32">40</text>
<text text-anchor="start" x="338.35" y="-323.7" font-family="Times,serif" font-size="14.00" fill="#bdbdbd"> (</text>
<text text-anchor="start" x="346.6" y="-323.7" font-family="Times,serif" font-size="14.00" fill="#c2185b">+2%</text>
<text text-anchor="start" x="373.6" y="-323.7" font-family="Times,serif" font-size="14.00" fill="#bdbdbd">)</text>
</g>
<!-- 4&#45;&gt;8 -->
<g id="edge13" class="edge">
<title>4&#45;&gt;8</title>
<path fill="none" stroke="#9e9e9e" d="M174.39,-88.28C180.76,-76.64 190.8,-61.99 204.1,-54 237.74,-33.8 348.93,-24.53 408.26,-20.93"/>
<polygon fill="#9e9e9e" stroke="#9e9e9e" points="408.11,-24.45 417.89,-20.37 407.7,-17.46 408.11,-24.45"/>
<text text-anchor="start" x="204.1" y="-58.2" font-family="Times,serif" font-size="14.00" fill="#1e88e5">96</text>
<text text-anchor="start" x="217.6" y="-58.2" font-family="Times,serif" font-size="14.00" fill="#bdbdbd"> | </text>
<text text-anchor="start" x="228.1" y="-58.2" font-family="Times,serif" font-size="14.00" fill="#2e7d32">101</text>
<text text-anchor="start" x="248.35" y="-58.2" font-family="Times,serif" font-size="14.00" fill="#bdbdbd"> (</text>
<text text-anchor="start" x="256.6" y="-58.2" font-family="Times,serif" font-size="14.00" fill="#6a1b9a">&#45;5%</text>
<text text-anchor="start" x="279.85" y="-58.2" font-family="Times,serif" font-size="14.00" fill="#bdbdbd">)</text>
</g>
<!-- 5 -->
<g id="node6" class="node">
<title>5</title>
<ellipse fill="none" stroke="black" cx="331.35" cy="-195" rx="55.96" ry="18"/>
<text text-anchor="middle" x="331.35" y="-189.95" font-family="Times,serif" font-size="14.00">O_Returned</text>
</g>
<!-- 5&#45;&gt;0 -->
<g id="edge7" class="edge">
<title>5&#45;&gt;0</title>
<path fill="none" stroke="#9e9e9e" d="M327.11,-176.56C325.53,-165.7 325.6,-152.04 332.85,-142.5 336.79,-137.33 364.4,-128.75 391.4,-121.39"/>
<polygon fill="#9e9e9e" stroke="#9e9e9e" points="392.24,-124.79 400.99,-118.82 390.43,-118.02 392.24,-124.79"/>
<text text-anchor="start" x="332.85" y="-146.7" font-family="Times,serif" font-size="14.00" fill="#1e88e5">298</text>
<text text-anchor="start" x="353.1" y="-146.7" font-family="Times,serif" font-size="14.00" fill="#bdbdbd"> | </text>
<text text-anchor="start" x="363.6" y="-146.7" font-family="Times,serif" font-size="14.00" fill="#2e7d32">234</text>
<text text-anchor="start" x="383.85" y="-146.7" font-family="Times,serif" font-size="14.00" fill="#bdbdbd"> (</text>
<text text-anchor="start" x="392.1" y="-146.7" font-family="Times,serif" font-size="14.00" fill="#c2185b">+27%</text>
<text text-anchor="start" x="425.85" y="-146.7" font-family="Times,serif" font-size="14.00" fill="#bdbdbd">)</text>
</g>
<!-- 5&#45;&gt;1 -->
<g id="edge15" class="edge">
<title>5&#45;&gt;1</title>
<path fill="none" stroke="#9e9e9e" d="M372.42,-182.36C390.66,-176.47 412.09,-168.53 430.35,-159 441.51,-153.18 442,-147.92 453.35,-142.5 460.23,-139.22 494.37,-129.86 525.52,-121.65"/>
<polygon fill="#9e9e9e" stroke="#9e9e9e" points="526.12,-125.11 534.91,-119.19 524.34,-118.34 526.12,-125.11"/>
<text text-anchor="start" x="453.35" y="-146.7" font-family="Times,serif" font-size="14.00" fill="#1e88e5">30</text>
<text text-anchor="start" x="466.85" y="-146.7" font-family="Times,serif" font-size="14.00" fill="#bdbdbd"> | </text>
<text text-anchor="start" x="477.35" y="-146.7" font-family="Times,serif" font-size="14.00" fill="#2e7d32">16</text>
<text text-anchor="start" x="490.85" y="-146.7" font-family="Times,serif" font-size="14.00" fill="#bdbdbd"> (</text>
<text text-anchor="start" x="499.1" y="-146.7" font-family="Times,serif" font-size="14.00" fill="#c2185b">+88%</text>
<text text-anchor="start" x="532.85" y="-146.7" font-family="Times,serif" font-size="14.00" fill="#bdbdbd">)</text>
</g>
<!-- 5&#45;&gt;4 -->
<g id="edge12" class="edge">
<title>5&#45;&gt;4</title>
<path fill="none" stroke="#9e9e9e" d="M288,-183.2C251.3,-173.93 204.05,-161.67 200.35,-159 191.73,-152.79 184.69,-143.66 179.29,-134.81"/>
<polygon fill="#9e9e9e" stroke="#9e9e9e" points="182.35,-133.11 174.45,-126.06 176.23,-136.5 182.35,-133.11"/>
<text text-anchor="start" x="200.35" y="-146.7" font-family="Times,serif" font-size="14.00" fill="#1e88e5">72</text>
<text text-anchor="start" x="213.85" y="-146.7" font-family="Times,serif" font-size="14.00" fill="#bdbdbd"> | </text>
<text text-anchor="start" x="224.35" y="-146.7" font-family="Times,serif" font-size="14.00" fill="#2e7d32">51</text>
<text text-anchor="start" x="237.85" y="-146.7" font-family="Times,serif" font-size="14.00" fill="#bdbdbd"> (</text>
<text text-anchor="start" x="246.1" y="-146.7" font-family="Times,serif" font-size="14.00" fill="#c2185b">+41%</text>
<text text-anchor="start" x="279.85" y="-146.7" font-family="Times,serif" font-size="14.00" fill="#bdbdbd">)</text>
</g>
<!-- 5&#45;&gt;8 -->
<g id="edge18" class="edge">
<title>5&#45;&gt;8</title>
<path fill="none" stroke="#ffb300" stroke-width="2.5" stroke-dasharray="5,2" d="M320.12,-177.02C307.14,-155.06 289.63,-116.32 306.85,-88.5 328.54,-53.47 373.77,-35.53 406.87,-26.73"/>
<polygon fill="#ffb300" stroke="#ffb300" stroke-width="2.5" points="407.64,-30.15 416.53,-24.39 405.99,-23.35 407.64,-30.15"/>
<text text-anchor="start" x="306.85" y="-102.45" font-family="Times,serif" font-size="14.00" fill="#1e88e5">0</text>
<text text-anchor="start" x="313.6" y="-102.45" font-family="Times,serif" font-size="14.00" fill="#bdbdbd"> | </text>
<text text-anchor="start" x="324.1" y="-102.45" font-family="Times,serif" font-size="14.00" fill="#2e7d32">3</text>
<text text-anchor="start" x="330.85" y="-102.45" font-family="Times,serif" font-size="14.00" fill="#bdbdbd"> (</text>
<text text-anchor="start" x="339.1" y="-102.45" font-family="Times,serif" font-size="14.00" fill="#6a1b9a">&#45;100%</text>
<text text-anchor="start" x="375.85" y="-102.45" font-family="Times,serif" font-size="14.00" fill="#bdbdbd">)</text>
</g>
<!-- 6&#45;&gt;1 -->
<g id="edge4" class="edge">
<title>6&#45;&gt;1</title>
<path fill="none" stroke="#9e9e9e" d="M483.15,-266.07C503.8,-253.93 529.85,-235.61 546.35,-213 563.09,-190.07 571.82,-158.55 576.23,-135.94"/>
<polygon fill="#9e9e9e" stroke="#9e9e9e" points="579.65,-136.66 577.94,-126.2 572.76,-135.45 579.65,-136.66"/>
<text text-anchor="start" x="564.81" y="-190.95" font-family="Times,serif" font-size="14.00" fill="#1e88e5">71</text>
<text text-anchor="start" x="578.31" y="-190.95" font-family="Times,serif" font-size="14.00" fill="#bdbdbd"> | </text>
<text text-anchor="start" x="588.81" y="-190.95" font-family="Times,serif" font-size="14.00" fill="#2e7d32">20</text>
<text text-anchor="start" x="602.31" y="-190.95" font-family="Times,serif" font-size="14.00" fill="#bdbdbd"> (</text>
<text text-anchor="start" x="610.56" y="-190.95" font-family="Times,serif" font-size="14.00" fill="#c2185b">+255%</text>
<text text-anchor="start" x="651.06" y="-190.95" font-family="Times,serif" font-size="14.00" fill="#bdbdbd">)</text>
</g>
<!-- 6&#45;&gt;4 -->
<g id="edge14" class="edge">
<title>6&#45;&gt;4</title>
<path fill="none" stroke="#9e9e9e" d="M373.42,-270.99C312.24,-261.83 236.24,-250.12 229.35,-247.5 202.82,-237.41 190.29,-237.29 175.6,-213 161.57,-189.79 160.64,-158.31 162.37,-135.79"/>
<polygon fill="#9e9e9e" stroke="#9e9e9e" points="165.82,-136.42 163.35,-126.12 158.86,-135.71 165.82,-136.42"/>
<text text-anchor="start" x="175.6" y="-190.95" font-family="Times,serif" font-size="14.00" fill="#1e88e5">12</text>
<text text-anchor="start" x="189.1" y="-190.95" font-family="Times,serif" font-size="14.00" fill="#bdbdbd"> | </text>
<text text-anchor="start" x="199.6" y="-190.95" font-family="Times,serif" font-size="14.00" fill="#2e7d32">1</text>
<text text-anchor="start" x="206.35" y="-190.95" font-family="Times,serif" font-size="14.00" fill="#bdbdbd"> (</text>
<text text-anchor="start" x="214.6" y="-190.95" font-family="Times,serif" font-size="14.00" fill="#c2185b">+1100%</text>
<text text-anchor="start" x="261.85" y="-190.95" font-family="Times,serif" font-size="14.00" fill="#bdbdbd">)</text>
</g>
<!-- 6&#45;&gt;5 -->
<g id="edge6" class="edge">
<title>6&#45;&gt;5</title>
<path fill="none" stroke="#9e9e9e" d="M427.93,-265.62C409.32,-252.2 383.13,-233.32 362.71,-218.6"/>
<polygon fill="#9e9e9e" stroke="#9e9e9e" points="364.89,-215.86 354.73,-212.85 360.79,-221.54 364.89,-215.86"/>
<text text-anchor="start" x="402.1" y="-235.2" font-family="Times,serif" font-size="14.00" fill="#1e88e5">297</text>
<text text-anchor="start" x="422.35" y="-235.2" font-family="Times,serif" font-size="14.00" fill="#bdbdbd"> | </text>
<text text-anchor="start" x="432.85" y="-235.2" font-family="Times,serif" font-size="14.00" fill="#2e7d32">31</text>
<text text-anchor="start" x="446.35" y="-235.2" font-family="Times,serif" font-size="14.00" fill="#bdbdbd"> (</text>
<text text-anchor="start" x="454.6" y="-235.2" font-family="Times,serif" font-size="14.00" fill="#c2185b">+858%</text>
<text text-anchor="start" x="495.1" y="-235.2" font-family="Times,serif" font-size="14.00" fill="#bdbdbd">)</text>
</g>
<!-- 6&#45;&gt;8 -->
<g id="edge17" class="edge">
<title>6&#45;&gt;8</title>
<path fill="none" stroke="#9e9e9e" d="M545.97,-275.2C587.83,-266.7 633.38,-249.07 659.35,-213 679.36,-185.22 722.79,-129.93 657.35,-54 635.5,-28.65 539.8,-21.64 485.08,-19.72"/>
<polygon fill="#9e9e9e" stroke="#9e9e9e" points="485.36,-16.23 475.26,-19.42 485.15,-23.22 485.36,-16.23"/>
<text text-anchor="start" x="691.68" y="-146.7" font-family="Times,serif" font-size="14.00" fill="#1e88e5">1</text>
<text text-anchor="start" x="698.43" y="-146.7" font-family="Times,serif" font-size="14.00" fill="#bdbdbd"> | </text>
<text text-anchor="start" x="708.93" y="-146.7" font-family="Times,serif" font-size="14.00" fill="#2e7d32">4</text>
<text text-anchor="start" x="715.68" y="-146.7" font-family="Times,serif" font-size="14.00" fill="#bdbdbd"> (</text>
<text text-anchor="start" x="723.93" y="-146.7" font-family="Times,serif" font-size="14.00" fill="#6a1b9a">&#45;75%</text>
<text text-anchor="start" x="753.93" y="-146.7" font-family="Times,serif" font-size="14.00" fill="#bdbdbd">)</text>
</g>
<!-- 7&#45;&gt;1 -->
<g id="edge16" class="edge">
<title>7&#45;&gt;1</title>
<path fill="none" stroke="#9e9e9e" d="M304.24,-271.01C314.97,-269.16 325.97,-267.27 336.35,-265.5 360.34,-261.42 426.89,-264.44 444.35,-247.5 467.29,-225.26 436.08,-199.9 458.35,-177 483.46,-151.18 506.65,-177.81 537.35,-159 547.67,-152.68 556.7,-143 563.78,-133.74"/>
<polygon fill="#9e9e9e" stroke="#9e9e9e" points="566.61,-135.8 569.56,-125.63 560.91,-131.75 566.61,-135.8"/>
<text text-anchor="start" x="458.35" y="-190.95" font-family="Times,serif" font-size="14.00" fill="#1e88e5">13</text>
<text text-anchor="start" x="471.85" y="-190.95" font-family="Times,serif" font-size="14.00" fill="#bdbdbd"> | </text>
<text text-anchor="start" x="482.35" y="-190.95" font-family="Times,serif" font-size="14.00" fill="#2e7d32">4</text>
<text text-anchor="start" x="489.1" y="-190.95" font-family="Times,serif" font-size="14.00" fill="#bdbdbd"> (</text>
<text text-anchor="start" x="497.35" y="-190.95" font-family="Times,serif" font-size="14.00" fill="#c2185b">+225%</text>
<text text-anchor="start" x="537.85" y="-190.95" font-family="Times,serif" font-size="14.00" fill="#bdbdbd">)</text>
</g>
<!-- 7&#45;&gt;4 -->
<g id="edge19" class="edge">
<title>7&#45;&gt;4</title>
<path fill="none" stroke="#ffb300" stroke-width="2.5" stroke-dasharray="5,2" d="M167.88,-272.08C132.39,-262.87 92.42,-245.54 70.85,-213 49.49,-180.76 89.97,-148.5 124.64,-128.3"/>
<polygon fill="#ffb300" stroke="#ffb300" stroke-width="2.5" points="126.2,-131.43 133.24,-123.52 122.8,-125.32 126.2,-131.43"/>
<text text-anchor="start" x="70.85" y="-190.95" font-family="Times,serif" font-size="14.00" fill="#1e88e5">0</text>
<text text-anchor="start" x="77.6" y="-190.95" font-family="Times,serif" font-size="14.00" fill="#bdbdbd"> | </text>
<text text-anchor="start" x="88.1" y="-190.95" font-family="Times,serif" font-size="14.00" fill="#2e7d32">1</text>
<text text-anchor="start" x="94.85" y="-190.95" font-family="Times,serif" font-size="14.00" fill="#bdbdbd"> (</text>
<text text-anchor="start" x="103.1" y="-190.95" font-family="Times,serif" font-size="14.00" fill="#6a1b9a">&#45;100%</text>
<text text-anchor="start" x="139.85" y="-190.95" font-family="Times,serif" font-size="14.00" fill="#bdbdbd">)</text>
</g>
<!-- 7&#45;&gt;5 -->
<g id="edge11" class="edge">
<title>7&#45;&gt;5</title>
<path fill="none" stroke="#9e9e9e" d="M234.12,-265.24C232.51,-254.45 232.46,-240.8 239.35,-231 244.49,-223.71 260.72,-216.55 278.15,-210.62"/>
<polygon fill="#9e9e9e" stroke="#9e9e9e" points="279.19,-213.96 287.63,-207.56 277.04,-207.3 279.19,-213.96"/>
<text text-anchor="start" x="239.35" y="-235.2" font-family="Times,serif" font-size="14.00" fill="#1e88e5">22</text>
<text text-anchor="start" x="252.85" y="-235.2" font-family="Times,serif" font-size="14.00" fill="#bdbdbd"> | </text>
<text text-anchor="start" x="263.35" y="-235.2" font-family="Times,serif" font-size="14.00" fill="#2e7d32">17</text>
<text text-anchor="start" x="276.85" y="-235.2" font-family="Times,serif" font-size="14.00" fill="#bdbdbd"> (</text>
<text text-anchor="start" x="285.1" y="-235.2" font-family="Times,serif" font-size="14.00" fill="#c2185b">+29%</text>
<text text-anchor="start" x="318.85" y="-235.2" font-family="Times,serif" font-size="14.00" fill="#bdbdbd">)</text>
</g>
<!-- 9 -->
<g id="node10" class="node">
<title>9</title>
<ellipse fill="none" stroke="black" cx="344.35" cy="-595.25" rx="27" ry="18"/>
<text text-anchor="middle" x="344.35" y="-590.58" font-family="Times,serif" font-size="14.00">▶</text>
</g>
<!-- 9&#45;&gt;2 -->
<g id="edge1" class="edge">
<title>9&#45;&gt;2</title>
<path fill="none" stroke="#9e9e9e" d="M344.35,-576.9C344.35,-554.83 344.35,-516.44 344.35,-490.04"/>
<polygon fill="#9e9e9e" stroke="#9e9e9e" points="347.85,-490.37 344.35,-480.37 340.85,-490.37 347.85,-490.37"/>
<text text-anchor="start" x="344.35" y="-500.7" font-family="Times,serif" font-size="14.00" fill="#1e88e5">765</text>
<text text-anchor="start" x="364.6" y="-500.7" font-family="Times,serif" font-size="14.00" fill="#bdbdbd"> | </text>
<text text-anchor="start" x="375.1" y="-500.7" font-family="Times,serif" font-size="14.00" fill="#2e7d32">622</text>
<text text-anchor="start" x="395.35" y="-500.7" font-family="Times,serif" font-size="14.00" fill="#bdbdbd"> (</text>
<text text-anchor="start" x="403.6" y="-500.7" font-family="Times,serif" font-size="14.00" fill="#c2185b">+23%</text>
<text text-anchor="start" x="437.35" y="-500.7" font-family="Times,serif" font-size="14.00" fill="#bdbdbd">)</text>
</g>
<!-- _legend -->
<g id="node11" class="node">
<title>_legend</title>
<text text-anchor="start" x="513.98" y="-638.2" font-family="Times,serif" font-weight="bold" font-size="14.00">Legend</text>
<text text-anchor="start" x="402.1" y="-614.7" font-family="Times,serif" font-size="14.00" fill="#555555">edge numbers: </text>
<text text-anchor="start" x="486.1" y="-614.7" font-family="Times,serif" font-size="14.00" fill="#1e88e5">forecast</text>
<text text-anchor="start" x="528.85" y="-614.7" font-family="Times,serif" font-size="14.00" fill="#bdbdbd"> | </text>
<text text-anchor="start" x="539.35" y="-614.7" font-family="Times,serif" font-size="14.00" fill="#2e7d32">actual</text>
<text text-anchor="start" x="571.6" y="-614.7" font-family="Times,serif" font-size="14.00" fill="#bdbdbd"> (</text>
<text text-anchor="start" x="579.85" y="-614.7" font-family="Times,serif" font-size="14.00" fill="#c2185b">over</text>
<text text-anchor="start" x="603.85" y="-614.7" font-family="Times,serif" font-size="14.00" fill="#555555">/</text>
<text text-anchor="start" x="607.6" y="-614.7" font-family="Times,serif" font-size="14.00" fill="#6a1b9a">under</text>
<text text-anchor="start" x="638.35" y="-614.7" font-family="Times,serif" font-size="14.00" fill="#555555"> %)</text>
<text text-anchor="start" x="402.1" y="-590.2" font-family="Times,serif" font-size="14.00" fill="#9e9e9e">─────</text>
<text text-anchor="start" x="457.85" y="-590.2" font-family="Times,serif" font-size="14.00">matched</text>
<text text-anchor="start" x="402.1" y="-566.7" font-family="Times,serif" font-size="14.00" fill="#ffb300">– – –</text>
<text text-anchor="start" x="457.85" y="-566.7" font-family="Times,serif" font-size="14.00">happened — forecast missed it</text>
<text text-anchor="start" x="402.1" y="-543.2" font-family="Times,serif" font-size="14.00" fill="#e53935">– – –</text>
<text text-anchor="start" x="457.85" y="-543.2" font-family="Times,serif" font-size="14.00">forecast predicted it — did not happen</text>
</g>
</g>
</svg>
