<?xml version="1.0" encoding="UTF-8" standalone="no"?>
<!DOCTYPE svg PUBLIC "-//W3C//DTD SVG 1.1//EN"
 "http://www.w3.org/Graphics/SVG/1.1/DTD/svg11.dtd">
<!-- Generated by graphviz version 12.2.1 (20241206.2353)
 -->
<!-- Pages: 1 -->
<svg width="447pt" height="575pt"
 viewBox="0.00 0.00 447.34 575.00" xmlns="http://www.w3.org/2000/svg" xmlns:xlink="http://www.w3.org/1999/xlink">
<g id="graph0" class="graph" transform="scale(1 1) rotate(0) translate(4 571)">
<polygon fill="white" stroke="none" points="-4,4 -4,-571 443.34,-571 443.34,4 -4,4"/>
<!-- 0 -->
<g id="node1" class="node">
<title>0</title>
<ellipse fill="none" stroke="black" cx="318.6" cy="-549" rx="27" ry="18"/>
<text text-anchor="middle" x="318.6" y="-544.33" font-family="Times,serif" font-size="14.00">▶</text>
</g>
<!-- 2 -->
<g id="node3" class="node">
<title>2</title>
<ellipse fill="none" stroke="black" cx="318.6" cy="-460.5" rx="68.75" ry="18"/>
<text text-anchor="middle" x="318.6" y="-455.45" font-family="Times,serif" font-size="14.00">O_Create Offer</text>
</g>
<!-- 0&#45;&gt;2 -->
<g id="edge1" class="edge">
<title>0&#45;&gt;2</title>
<path fill="none" stroke="black" d="M318.6,-530.91C318.6,-519.26 318.6,-503.55 318.6,-490.02"/>
<polygon fill="black" stroke="black" points="322.1,-490.36 318.6,-480.36 315.1,-490.36 322.1,-490.36"/>
<text text-anchor="middle" x="328.73" y="-499.7" font-family="Times,serif" font-size="14.00">765</text>
</g>
<!-- 1 -->
<g id="node2" class="node">
<title>1</title>
<ellipse fill="none" stroke="black" cx="134.6" cy="-18" rx="27" ry="18"/>
<text text-anchor="middle" x="134.6" y="-12.95" font-family="Times,serif" font-size="14.00">■</text>
</g>
<!-- 3 -->
<g id="node4" class="node">
<title>3</title>
<ellipse fill="none" stroke="black" cx="318.6" cy="-372" rx="50.84" ry="18"/>
<text text-anchor="middle" x="318.6" y="-366.95" font-family="Times,serif" font-size="14.00">O_Created</text>
</g>
<!-- 2&#45;&gt;3 -->
<g id="edge2" class="edge">
<title>2&#45;&gt;3</title>
<path fill="none" stroke="black" d="M318.6,-442.41C318.6,-430.76 318.6,-415.05 318.6,-401.52"/>
<polygon fill="black" stroke="black" points="322.1,-401.86 318.6,-391.86 315.1,-401.86 322.1,-401.86"/>
<text text-anchor="middle" x="328.73" y="-411.2" font-family="Times,serif" font-size="14.00">765</text>
</g>
<!-- 4 -->
<g id="node5" class="node">
<title>4</title>
<ellipse fill="none" stroke="black" cx="105.6" cy="-283.5" rx="105.6" ry="18"/>
<text text-anchor="middle" x="105.6" y="-278.45" font-family="Times,serif" font-size="14.00">O_Sent (mail and online)</text>
</g>
<!-- 3&#45;&gt;4 -->
<g id="edge3" class="edge">
<title>3&#45;&gt;4</title>
<path fill="none" stroke="black" d="M286.25,-357.86C251.53,-343.76 195.94,-321.19 155.59,-304.8"/>
<polygon fill="black" stroke="black" points="157.14,-301.65 146.56,-301.13 154.51,-308.14 157.14,-301.65"/>
<text text-anchor="middle" x="241.31" y="-322.7" font-family="Times,serif" font-size="14.00">701</text>
</g>
<!-- 5 -->
<g id="node6" class="node">
<title>5</title>
<ellipse fill="none" stroke="black" cx="355.6" cy="-106.5" rx="59.03" ry="18"/>
<text text-anchor="middle" x="355.6" y="-101.45" font-family="Times,serif" font-size="14.00">O_Cancelled</text>
</g>
<!-- 3&#45;&gt;5 -->
<g id="edge9" class="edge">
<title>3&#45;&gt;5</title>
<path fill="none" stroke="black" d="M351.03,-357.82C373.94,-346.58 402.91,-328 416.6,-301.5 445.89,-244.83 403.45,-171.51 375.94,-133.28"/>
<polygon fill="black" stroke="black" points="378.99,-131.51 370.22,-125.56 373.36,-135.68 378.99,-131.51"/>
<text text-anchor="middle" x="432.59" y="-234.2" font-family="Times,serif" font-size="14.00">22</text>
</g>
<!-- 8 -->
<g id="node9" class="node">
<title>8</title>
<ellipse fill="none" stroke="black" cx="318.6" cy="-283.5" rx="89.23" ry="18"/>
<text text-anchor="middle" x="318.6" y="-278.45" font-family="Times,serif" font-size="14.00">O_Sent (online only)</text>
</g>
<!-- 3&#45;&gt;8 -->
<g id="edge10" class="edge">
<title>3&#45;&gt;8</title>
<path fill="none" stroke="black" d="M318.6,-353.91C318.6,-342.26 318.6,-326.55 318.6,-313.02"/>
<polygon fill="black" stroke="black" points="322.1,-313.36 318.6,-303.36 315.1,-313.36 322.1,-313.36"/>
<text text-anchor="middle" x="325.35" y="-322.7" font-family="Times,serif" font-size="14.00">41</text>
</g>
<!-- 4&#45;&gt;1 -->
<g id="edge17" class="edge">
<title>4&#45;&gt;1</title>
<path fill="none" stroke="black" d="M89.73,-265.27C59.84,-230.61 1,-150.51 33.6,-88.5 47.69,-61.71 77.3,-43.23 100.83,-32.1"/>
<polygon fill="black" stroke="black" points="102.05,-35.39 109.76,-28.12 99.2,-29 102.05,-35.39"/>
<text text-anchor="middle" x="31.36" y="-145.7" font-family="Times,serif" font-size="14.00">1</text>
</g>
<!-- 4&#45;&gt;5 -->
<g id="edge4" class="edge">
<title>4&#45;&gt;5</title>
<path fill="none" stroke="black" d="M152.03,-267C183.78,-255.1 225.88,-236.7 258.6,-213 289.77,-190.42 318.69,-156.61 336.7,-133.38"/>
<polygon fill="black" stroke="black" points="339.31,-135.73 342.58,-125.65 333.74,-131.49 339.31,-135.73"/>
<text text-anchor="middle" x="304.56" y="-189.95" font-family="Times,serif" font-size="14.00">71</text>
</g>
<!-- 6 -->
<g id="node7" class="node">
<title>6</title>
<ellipse fill="none" stroke="black" cx="193.6" cy="-195" rx="55.96" ry="18"/>
<text text-anchor="middle" x="193.6" y="-189.95" font-family="Times,serif" font-size="14.00">O_Returned</text>
</g>
<!-- 4&#45;&gt;6 -->
<g id="edge6" class="edge">
<title>4&#45;&gt;6</title>
<path fill="none" stroke="black" d="M122.99,-265.41C136.05,-252.57 154.13,-234.8 168.72,-220.45"/>
<polygon fill="black" stroke="black" points="171.09,-223.03 175.77,-213.53 166.19,-218.04 171.09,-223.03"/>
<text text-anchor="middle" x="167.61" y="-234.2" font-family="Times,serif" font-size="14.00">297</text>
</g>
<!-- 9 -->
<g id="node10" class="node">
<title>9</title>
<ellipse fill="none" stroke="black" cx="94.6" cy="-106.5" rx="52.38" ry="18"/>
<text text-anchor="middle" x="94.6" y="-101.45" font-family="Times,serif" font-size="14.00">O_Refused</text>
</g>
<!-- 4&#45;&gt;9 -->
<g id="edge14" class="edge">
<title>4&#45;&gt;9</title>
<path fill="none" stroke="black" d="M104.51,-265.08C102.61,-234.94 98.71,-172.8 96.41,-136.2"/>
<polygon fill="black" stroke="black" points="99.91,-136.12 95.79,-126.36 92.92,-136.56 99.91,-136.12"/>
<text text-anchor="middle" x="107.95" y="-189.95" font-family="Times,serif" font-size="14.00">12</text>
</g>
<!-- 5&#45;&gt;1 -->
<g id="edge5" class="edge">
<title>5&#45;&gt;1</title>
<path fill="none" stroke="black" d="M320.58,-91.79C278.78,-75.43 209.35,-48.26 168.19,-32.15"/>
<polygon fill="black" stroke="black" points="169.62,-28.95 159.03,-28.56 167.07,-35.47 169.62,-28.95"/>
<text text-anchor="middle" x="275.02" y="-57.2" font-family="Times,serif" font-size="14.00">374</text>
</g>
<!-- 6&#45;&gt;5 -->
<g id="edge15" class="edge">
<title>6&#45;&gt;5</title>
<path fill="none" stroke="black" d="M210.81,-177.65C223.19,-166.56 240.71,-152.21 258.1,-142.5 271.88,-134.81 287.66,-128.28 302.45,-123.02"/>
<polygon fill="black" stroke="black" points="303.24,-126.45 311.58,-119.9 300.98,-119.82 303.24,-126.45"/>
<text text-anchor="middle" x="264.85" y="-145.7" font-family="Times,serif" font-size="14.00">30</text>
</g>
<!-- 7 -->
<g id="node8" class="node">
<title>7</title>
<ellipse fill="none" stroke="black" cx="221.6" cy="-106.5" rx="56.98" ry="18"/>
<text text-anchor="middle" x="221.6" y="-101.45" font-family="Times,serif" font-size="14.00">O_Accepted</text>
</g>
<!-- 6&#45;&gt;7 -->
<g id="edge7" class="edge">
<title>6&#45;&gt;7</title>
<path fill="none" stroke="black" d="M196.12,-176.54C197.86,-166.43 200.54,-153.55 204.35,-142.5 205.23,-139.96 206.25,-137.37 207.34,-134.8"/>
<polygon fill="black" stroke="black" points="210.42,-136.49 211.47,-125.95 204.07,-133.53 210.42,-136.49"/>
<text text-anchor="middle" x="214.48" y="-145.7" font-family="Times,serif" font-size="14.00">298</text>
</g>
<!-- 6&#45;&gt;9 -->
<g id="edge12" class="edge">
<title>6&#45;&gt;9</title>
<path fill="none" stroke="black" d="M174.98,-177.73C159.91,-164.56 138.48,-145.83 121.53,-131.03"/>
<polygon fill="black" stroke="black" points="124.11,-128.64 114.28,-124.69 119.51,-133.91 124.11,-128.64"/>
<text text-anchor="middle" x="159.72" y="-145.7" font-family="Times,serif" font-size="14.00">72</text>
</g>
<!-- 7&#45;&gt;1 -->
<g id="edge8" class="edge">
<title>7&#45;&gt;1</title>
<path fill="none" stroke="black" d="M204.83,-88.82C191.25,-75.32 171.99,-56.17 157.08,-41.34"/>
<polygon fill="black" stroke="black" points="159.93,-39.25 150.37,-34.68 155,-44.21 159.93,-39.25"/>
<text text-anchor="middle" x="196.02" y="-57.2" font-family="Times,serif" font-size="14.00">268</text>
</g>
<!-- 8&#45;&gt;5 -->
<g id="edge16" class="edge">
<title>8&#45;&gt;5</title>
<path fill="none" stroke="black" d="M322.29,-265.08C328.69,-234.81 341.91,-172.26 349.64,-135.72"/>
<polygon fill="black" stroke="black" points="352.98,-136.84 351.62,-126.33 346.13,-135.39 352.98,-136.84"/>
<text text-anchor="middle" x="347.53" y="-189.95" font-family="Times,serif" font-size="14.00">13</text>
</g>
<!-- 8&#45;&gt;6 -->
<g id="edge11" class="edge">
<title>8&#45;&gt;6</title>
<path fill="none" stroke="black" d="M294.5,-265.82C274.94,-252.28 247.18,-233.07 225.73,-218.23"/>
<polygon fill="black" stroke="black" points="227.83,-215.43 217.61,-212.61 223.84,-221.18 227.83,-215.43"/>
<text text-anchor="middle" x="274.05" y="-234.2" font-family="Times,serif" font-size="14.00">22</text>
</g>
<!-- 9&#45;&gt;1 -->
<g id="edge13" class="edge">
<title>9&#45;&gt;1</title>
<path fill="none" stroke="black" d="M102.51,-88.41C108.11,-76.29 115.75,-59.78 122.16,-45.9"/>
<polygon fill="black" stroke="black" points="125.33,-47.39 126.35,-36.84 118.98,-44.45 125.33,-47.39"/>
<text text-anchor="middle" x="124.94" y="-57.2" font-family="Times,serif" font-size="14.00">96</text>
</g>
</g>
</svg>
