<?xml version="1.0" encoding="UTF-8" standalone="no"?>
<!DOCTYPE svg PUBLIC "-//W3C//DTD SVG 1.1//EN"
 "http://www.w3.org/Graphics/SVG/1.1/DTD/svg11.dtd">
<!-- Generated by graphviz version 12.2.1 (20241206.2353)
 -->
<!-- Pages: 1 -->
<svg width="974pt" height="861pt"
 viewBox="0.00 0.00 973.75 860.50" xmlns="http://www.w3.org/2000/svg" xmlns:xlink="http://www.w3.org/1999/xlink">
<g id="graph0" class="graph" transform="scale(1 1) rotate(0) translate(4 856.5)">
<polygon fill="white" stroke="none" points="-4,4 -4,-856.5 969.75,-856.5 969.75,4 -4,4"/>
<g id="clust1" class="cluster">
<title>cluster_legend</title>
<polygon fill="none" stroke="#bdbdbd" stroke-dasharray="5,2" points="125,-700 125,-844.5 433,-844.5 433,-700 125,-700"/>
</g>
<!-- 0 -->
<g id="node1" class="node">
<title>0</title>
<ellipse fill="none" stroke="black" cx="71" cy="-772.25" rx="43.67" ry="18"/>
<text text-anchor="middle" x="71" y="-767.2" font-family="Times,serif" font-size="14.00">BILLED</text>
</g>
<!-- 12 -->
<g id="node13" class="node">
<title>12</title>
<ellipse fill="none" stroke="black" cx="114" cy="-637.5" rx="47.77" ry="18"/>
<text text-anchor="middle" x="114" y="-632.45" font-family="Times,serif" font-size="14.00">STORNO</text>
</g>
<!-- 0&#45;&gt;12 -->
<g id="edge21" class="edge">
<title>0&#45;&gt;12</title>
<path fill="none" stroke="#9e9e9e" d="M67.08,-754.03C63.35,-733.71 59.96,-699.41 72.25,-673.5 74.45,-668.86 77.6,-664.61 81.2,-660.79"/>
<polygon fill="#9e9e9e" stroke="#9e9e9e" points="83.42,-663.5 88.46,-654.18 78.71,-658.32 83.42,-663.5"/>
<text text-anchor="start" x="72.25" y="-676.7" font-family="Times,serif" font-size="14.00" fill="#e8590c">+40%</text>
</g>
<!-- 13 -->
<g id="node14" class="node">
<title>13</title>
<ellipse fill="none" stroke="black" cx="478" cy="-18" rx="27" ry="18"/>
<text text-anchor="middle" x="478" y="-12.95" font-family="Times,serif" font-size="14.00">■</text>
</g>
<!-- 0&#45;&gt;13 -->
<g id="edge4" class="edge">
<title>0&#45;&gt;13</title>
<path fill="none" stroke="#9e9e9e" d="M55.59,-755.14C34.71,-731.55 0,-685.28 0,-638.5 0,-638.5 0,-638.5 0,-105.5 0,-60.57 44.23,-67.79 87,-54 151.83,-33.1 353.79,-23.5 439.22,-20.3"/>
<polygon fill="#9e9e9e" stroke="#9e9e9e" points="439.33,-23.79 449.2,-19.93 439.08,-16.8 439.33,-23.79"/>
<text text-anchor="start" x="0" y="-366.95" font-family="Times,serif" font-size="14.00" fill="#e8590c">+27%</text>
</g>
<!-- 1 -->
<g id="node2" class="node">
<title>1</title>
<ellipse fill="none" stroke="black" cx="748" cy="-460.5" rx="81.55" ry="18"/>
<text text-anchor="middle" x="748" y="-455.45" font-family="Times,serif" font-size="14.00">CHANGE DIAGN</text>
</g>
<!-- 1&#45;&gt;1 -->
<g id="edge19" class="edge">
<title>1&#45;&gt;1</title>
<path fill="none" stroke="#9e9e9e" d="M821.8,-468.48C836.8,-467.61 847.55,-464.95 847.55,-460.5 847.55,-457.27 841.88,-454.98 833.02,-453.63"/>
<polygon fill="#9e9e9e" stroke="#9e9e9e" points="833.61,-450.18 823.31,-452.67 832.91,-457.14 833.61,-450.18"/>
<text text-anchor="start" x="847.55" y="-455.45" font-family="Times,serif" font-size="14.00" fill="#e8590c">+12%</text>
</g>
<!-- 4 -->
<g id="node5" class="node">
<title>4</title>
<ellipse fill="none" stroke="black" cx="698" cy="-106.5" rx="45.72" ry="18"/>
<text text-anchor="middle" x="698" y="-101.45" font-family="Times,serif" font-size="14.00">DELETE</text>
</g>
<!-- 1&#45;&gt;4 -->
<g id="edge20" class="edge">
<title>1&#45;&gt;4</title>
<path fill="none" stroke="#9e9e9e" d="M755.4,-442.3C762.13,-425.09 771,-397.71 771,-373 771,-373 771,-373 771,-194 771,-167.2 750.28,-144.4 730.91,-128.95"/>
<polygon fill="#9e9e9e" stroke="#9e9e9e" points="733.21,-126.3 723.11,-123.08 729,-131.89 733.21,-126.3"/>
<text text-anchor="start" x="771" y="-278.45" font-family="Times,serif" font-size="14.00" fill="#e8590c">+100%</text>
</g>
<!-- 6 -->
<g id="node7" class="node">
<title>6</title>
<ellipse fill="none" stroke="black" cx="621" cy="-372" rx="27" ry="18"/>
<text text-anchor="middle" x="621" y="-366.95" font-family="Times,serif" font-size="14.00">FIN</text>
</g>
<!-- 1&#45;&gt;6 -->
<g id="edge9" class="edge">
<title>1&#45;&gt;6</title>
<path fill="none" stroke="#9e9e9e" d="M723.81,-443.03C702.37,-428.42 671.07,-407.11 648.65,-391.83"/>
<polygon fill="#9e9e9e" stroke="#9e9e9e" points="650.82,-389.08 640.59,-386.34 646.88,-394.86 650.82,-389.08"/>
<text text-anchor="start" x="695.88" y="-411.2" font-family="Times,serif" font-size="14.00" fill="#e8590c">+210%</text>
</g>
<!-- 1&#45;&gt;13 -->
<g id="edge25" class="edge">
<title>1&#45;&gt;13</title>
<path fill="none" stroke="#9e9e9e" d="M785.89,-444.1C813.47,-430.09 846,-406.47 846,-373 846,-373 846,-373 846,-105.5 846,-38.39 611.16,-23.3 516.68,-19.95"/>
<polygon fill="#9e9e9e" stroke="#9e9e9e" points="516.98,-16.45 506.87,-19.63 516.75,-23.45 516.98,-16.45"/>
<text text-anchor="start" x="846" y="-234.2" font-family="Times,serif" font-size="14.00" fill="#0c8599">&#45;67%</text>
</g>
<!-- 2 -->
<g id="node3" class="node">
<title>2</title>
<ellipse fill="none" stroke="black" cx="418" cy="-195" rx="58.52" ry="18"/>
<text text-anchor="middle" x="418" y="-189.95" font-family="Times,serif" font-size="14.00">CODE NOK</text>
</g>
<!-- 3 -->
<g id="node4" class="node">
<title>3</title>
<ellipse fill="none" stroke="black" cx="286" cy="-106.5" rx="51.86" ry="18"/>
<text text-anchor="middle" x="286" y="-101.45" font-family="Times,serif" font-size="14.00">CODE OK</text>
</g>
<!-- 2&#45;&gt;3 -->
<g id="edge38" class="edge">
<title>2&#45;&gt;3</title>
<path fill="none" stroke="#ffb300" stroke-width="2.5" stroke-dasharray="5,2" d="M391.12,-178.57C381.03,-172.62 369.51,-165.65 359.25,-159 345.67,-150.2 331.01,-140.03 318.41,-131.08"/>
<polygon fill="#ffb300" stroke="#ffb300" stroke-width="2.5" points="320.74,-128.44 310.58,-125.46 316.67,-134.13 320.74,-128.44"/>
<text text-anchor="start" x="359.25" y="-145.7" font-family="Times,serif" font-size="14.00" fill="#0c8599">&#45;100%</text>
</g>
<!-- 2&#45;&gt;4 -->
<g id="edge35" class="edge">
<title>2&#45;&gt;4</title>
<path fill="none" stroke="#ffb300" stroke-width="2.5" stroke-dasharray="5,2" d="M438.05,-177.6C455.58,-163.4 479.04,-144.77 484.25,-142.5 533.54,-120.99 594.47,-112.59 638.65,-109.36"/>
<polygon fill="#ffb300" stroke="#ffb300" stroke-width="2.5" points="638.84,-112.86 648.6,-108.73 638.39,-105.87 638.84,-112.86"/>
<text text-anchor="start" x="484.25" y="-145.7" font-family="Times,serif" font-size="14.00" fill="#0c8599">&#45;100%</text>
</g>
<!-- 5 -->
<g id="node6" class="node">
<title>5</title>
<ellipse fill="none" stroke="black" cx="399" cy="-106.5" rx="42.65" ry="18"/>
<text text-anchor="middle" x="399" y="-101.45" font-family="Times,serif" font-size="14.00">EMPTY</text>
</g>
<!-- 2&#45;&gt;5 -->
<g id="edge26" class="edge">
<title>2&#45;&gt;5</title>
<path fill="none" stroke="#9e9e9e" d="M408.87,-177C406.28,-171.41 403.76,-165.08 402.25,-159 400.46,-151.78 399.49,-143.83 399,-136.38"/>
<polygon fill="#9e9e9e" stroke="#9e9e9e" points="402.49,-136.27 398.61,-126.41 395.5,-136.54 402.49,-136.27"/>
<text text-anchor="start" x="402.25" y="-145.7" font-family="Times,serif" font-size="14.00" fill="#e8590c">+20%</text>
</g>
<!-- 10 -->
<g id="node11" class="node">
<title>10</title>
<ellipse fill="none" stroke="black" cx="317" cy="-460.5" rx="46.75" ry="18"/>
<text text-anchor="middle" x="317" y="-455.45" font-family="Times,serif" font-size="14.00">REOPEN</text>
</g>
<!-- 2&#45;&gt;10 -->
<g id="edge34" class="edge">
<title>2&#45;&gt;10</title>
<path fill="none" stroke="#ffb300" stroke-width="2.5" stroke-dasharray="5,2" d="M411.35,-213.35C394.45,-257.44 349.71,-374.16 328.49,-429.54"/>
<polygon fill="#ffb300" stroke="#ffb300" stroke-width="2.5" points="325.29,-428.09 324.98,-438.68 331.83,-430.59 325.29,-428.09"/>
<text text-anchor="start" x="369.83" y="-322.7" font-family="Times,serif" font-size="14.00" fill="#0c8599">&#45;100%</text>
</g>
<!-- 11 -->
<g id="node12" class="node">
<title>11</title>
<ellipse fill="none" stroke="black" cx="153" cy="-106.5" rx="63.12" ry="18"/>
<text text-anchor="middle" x="153" y="-101.45" font-family="Times,serif" font-size="14.00">SET STATUS</text>
</g>
<!-- 2&#45;&gt;11 -->
<g id="edge29" class="edge">
<title>2&#45;&gt;11</title>
<path fill="none" stroke="#ffb300" stroke-width="2.5" stroke-dasharray="5,2" d="M374.52,-182.55C350.69,-176.06 320.7,-167.55 294.25,-159 263.3,-149 229.02,-136.53 201.97,-126.37"/>
<polygon fill="#ffb300" stroke="#ffb300" stroke-width="2.5" points="203.46,-123.19 192.87,-122.92 200.98,-129.73 203.46,-123.19"/>
<text text-anchor="start" x="294.25" y="-145.7" font-family="Times,serif" font-size="14.00" fill="#0c8599">&#45;100%</text>
</g>
<!-- 2&#45;&gt;13 -->
<g id="edge31" class="edge">
<title>2&#45;&gt;13</title>
<path fill="none" stroke="#ffb300" stroke-width="2.5" stroke-dasharray="5,2" d="M427.01,-177.02C429.96,-171.33 433.19,-164.93 436,-159 443.16,-143.89 445.58,-140.32 451,-124.5 459.52,-99.65 466.75,-70.7 471.57,-49.42"/>
<polygon fill="#ffb300" stroke="#ffb300" stroke-width="2.5" points="474.97,-50.27 473.7,-39.75 468.13,-48.76 474.97,-50.27"/>
<text text-anchor="start" x="461.62" y="-101.45" font-family="Times,serif" font-size="14.00" fill="#0c8599">&#45;100%</text>
</g>
<!-- 3&#45;&gt;0 -->
<g id="edge3" class="edge">
<title>3&#45;&gt;0</title>
<path fill="none" stroke="#9e9e9e" d="M264.39,-123.07C247.85,-135.93 225.5,-155.52 211,-177 94.51,-349.61 85.01,-413.16 57,-619.5 51.19,-662.32 58.49,-712.27 64.54,-742.82"/>
<polygon fill="#9e9e9e" stroke="#9e9e9e" points="61.07,-743.34 66.54,-752.42 67.92,-741.91 61.07,-743.34"/>
<text text-anchor="start" x="94.06" y="-411.2" font-family="Times,serif" font-size="14.00" fill="#e8590c">+139%</text>
</g>
<!-- 3&#45;&gt;10 -->
<g id="edge15" class="edge">
<title>3&#45;&gt;10</title>
<path fill="none" stroke="#9e9e9e" d="M285.56,-124.68C285.41,-134.7 285.41,-147.57 286,-159 291.16,-259.34 305.96,-377.79 313.08,-431.05"/>
<polygon fill="#9e9e9e" stroke="#9e9e9e" points="309.59,-431.33 314.39,-440.77 316.52,-430.39 309.59,-431.33"/>
<text text-anchor="start" x="297.43" y="-278.45" font-family="Times,serif" font-size="14.00" fill="#e8590c">+350%</text>
</g>
<!-- 3&#45;&gt;13 -->
<g id="edge12" class="edge">
<title>3&#45;&gt;13</title>
<path fill="none" stroke="#9e9e9e" d="M311.05,-90.41C329.74,-79.5 356.09,-64.84 380.25,-54 400.64,-44.85 424.2,-36.35 443.09,-30.02"/>
<polygon fill="#9e9e9e" stroke="#9e9e9e" points="444.04,-33.39 452.45,-26.94 441.86,-26.74 444.04,-33.39"/>
<text text-anchor="start" x="380.25" y="-57.2" font-family="Times,serif" font-size="14.00" fill="#e8590c">+38%</text>
</g>
<!-- 4&#45;&gt;13 -->
<g id="edge18" class="edge">
<title>4&#45;&gt;13</title>
<path fill="none" stroke="#9e9e9e" d="M683.28,-89.13C672,-77.59 655.45,-62.69 638,-54 599.19,-34.66 549.83,-25.94 516.27,-22.05"/>
<polygon fill="#9e9e9e" stroke="#9e9e9e" points="516.92,-18.6 506.61,-21.03 516.18,-25.56 516.92,-18.6"/>
<text text-anchor="start" x="661.49" y="-57.2" font-family="Times,serif" font-size="14.00" fill="#0c8599">&#45;29%</text>
</g>
<!-- 5&#45;&gt;13 -->
<g id="edge27" class="edge">
<title>5&#45;&gt;13</title>
<path fill="none" stroke="#9e9e9e" d="M407.08,-88.6C412.66,-77.96 420.78,-64.33 430.25,-54 435.88,-47.85 442.74,-42.09 449.48,-37.08"/>
<polygon fill="#9e9e9e" stroke="#9e9e9e" points="451.07,-40.24 457.24,-31.62 447.05,-34.51 451.07,-40.24"/>
<text text-anchor="start" x="430.25" y="-57.2" font-family="Times,serif" font-size="14.00" fill="#e8590c">+20%</text>
</g>
<!-- 6&#45;&gt;4 -->
<g id="edge33" class="edge">
<title>6&#45;&gt;4</title>
<path fill="none" stroke="#ffb300" stroke-width="2.5" stroke-dasharray="5,2" d="M628.19,-354.44C630.55,-348.67 633.05,-342.11 635,-336 649.56,-290.27 647.62,-277.3 660.25,-231 669.02,-198.85 680.33,-162.39 688.28,-137.47"/>
<polygon fill="#ffb300" stroke="#ffb300" stroke-width="2.5" points="691.54,-138.78 691.26,-128.19 684.87,-136.64 691.54,-138.78"/>
<text text-anchor="start" x="660.25" y="-234.2" font-family="Times,serif" font-size="14.00" fill="#0c8599">&#45;100%</text>
</g>
<!-- 9 -->
<g id="node10" class="node">
<title>9</title>
<ellipse fill="none" stroke="black" cx="462" cy="-283.5" rx="51.35" ry="18"/>
<text text-anchor="middle" x="462" y="-278.45" font-family="Times,serif" font-size="14.00">RELEASE</text>
</g>
<!-- 6&#45;&gt;9 -->
<g id="edge1" class="edge">
<title>6&#45;&gt;9</title>
<path fill="none" stroke="#9e9e9e" d="M600.54,-359.87C574.88,-345.91 530.43,-321.73 498.8,-304.52"/>
<polygon fill="#9e9e9e" stroke="#9e9e9e" points="500.81,-301.63 490.35,-299.92 497.46,-307.78 500.81,-301.63"/>
<text text-anchor="start" x="555.74" y="-322.7" font-family="Times,serif" font-size="14.00" fill="#e8590c">+2%</text>
</g>
<!-- 6&#45;&gt;13 -->
<g id="edge13" class="edge">
<title>6&#45;&gt;13</title>
<path fill="none" stroke="#9e9e9e" d="M622.14,-353.76C623.84,-319.09 624.7,-238.96 602,-177 579.14,-114.61 560.92,-103.87 517,-54 512.79,-49.22 507.97,-44.44 503.18,-40.01"/>
<polygon fill="#9e9e9e" stroke="#9e9e9e" points="505.67,-37.54 495.88,-33.51 501.02,-42.77 505.67,-37.54"/>
<text text-anchor="start" x="612.34" y="-189.95" font-family="Times,serif" font-size="14.00" fill="#555555">0%</text>
</g>
<!-- 7 -->
<g id="node8" class="node">
<title>7</title>
<ellipse fill="none" stroke="black" cx="868" cy="-549" rx="32.41" ry="18"/>
<text text-anchor="middle" x="868" y="-543.95" font-family="Times,serif" font-size="14.00">NEW</text>
</g>
<!-- 7&#45;&gt;1 -->
<g id="edge8" class="edge">
<title>7&#45;&gt;1</title>
<path fill="none" stroke="#9e9e9e" d="M848.72,-534.1C830.25,-520.79 802.04,-500.45 780.17,-484.69"/>
<polygon fill="#9e9e9e" stroke="#9e9e9e" points="782.31,-481.92 772.15,-478.91 778.22,-487.6 782.31,-481.92"/>
<text text-anchor="start" x="818.75" y="-499.7" font-family="Times,serif" font-size="14.00" fill="#e8590c">+17%</text>
</g>
<!-- 7&#45;&gt;4 -->
<g id="edge17" class="edge">
<title>7&#45;&gt;4</title>
<path fill="none" stroke="#9e9e9e" d="M875.02,-530.93C880.33,-517.07 887.16,-496.89 890,-478.5 892.9,-459.72 889.5,-255.17 877,-231 849.02,-176.9 785.22,-141.94 741.85,-123.48"/>
<polygon fill="#9e9e9e" stroke="#9e9e9e" points="743.28,-120.28 732.7,-119.72 740.62,-126.76 743.28,-120.28"/>
<text text-anchor="start" x="888.43" y="-322.7" font-family="Times,serif" font-size="14.00" fill="#e8590c">+200%</text>
</g>
<!-- 7&#45;&gt;6 -->
<g id="edge11" class="edge">
<title>7&#45;&gt;6</title>
<path fill="none" stroke="#9e9e9e" d="M837.09,-543.36C778.85,-533.94 656.38,-510.73 630,-478.5 612.55,-457.18 612.45,-424.66 615.36,-401.37"/>
<polygon fill="#9e9e9e" stroke="#9e9e9e" points="618.8,-402.05 616.85,-391.63 611.88,-400.98 618.8,-402.05"/>
<text text-anchor="start" x="630" y="-455.45" font-family="Times,serif" font-size="14.00" fill="#e8590c">+8%</text>
</g>
<!-- 7&#45;&gt;13 -->
<g id="edge10" class="edge">
<title>7&#45;&gt;13</title>
<path fill="none" stroke="#9e9e9e" d="M890.85,-535.7C914.18,-521.29 947,-495.06 947,-461.5 947,-461.5 947,-461.5 947,-105.5 947,-41.7 875.04,-68.89 813,-54 707.76,-28.75 579.6,-21.71 516.66,-19.76"/>
<polygon fill="#9e9e9e" stroke="#9e9e9e" points="516.94,-16.26 506.84,-19.48 516.74,-23.26 516.94,-16.26"/>
<text text-anchor="start" x="947" y="-278.45" font-family="Times,serif" font-size="14.00" fill="#555555">0%</text>
</g>
<!-- 8 -->
<g id="node9" class="node">
<title>8</title>
<ellipse fill="none" stroke="black" cx="183" cy="-549" rx="43.67" ry="18"/>
<text text-anchor="middle" x="183" y="-543.95" font-family="Times,serif" font-size="14.00">REJECT</text>
</g>
<!-- 8&#45;&gt;0 -->
<g id="edge32" class="edge">
<title>8&#45;&gt;0</title>
<path fill="none" stroke="#ffb300" stroke-width="2.5" stroke-dasharray="5,2" d="M183.6,-567.44C183.76,-573.05 183.92,-579.29 184,-585 184.1,-592.33 184.86,-594.22 184,-601.5 181.09,-626.01 180.42,-632.68 171,-655.5 164.15,-672.09 163.98,-678.74 150,-690 139.38,-698.55 131.89,-691.8 121,-700 106.25,-711.11 94.19,-727.85 85.61,-742.31"/>
<polygon fill="#ffb300" stroke="#ffb300" stroke-width="2.5" points="82.62,-740.49 80.82,-750.93 88.74,-743.88 82.62,-740.49"/>
<text text-anchor="start" x="181.69" y="-632.45" font-family="Times,serif" font-size="14.00" fill="#0c8599">&#45;100%</text>
</g>
<!-- 8&#45;&gt;10 -->
<g id="edge23" class="edge">
<title>8&#45;&gt;10</title>
<path fill="none" stroke="#9e9e9e" d="M205.73,-533.33C227.26,-519.43 259.82,-498.41 284.16,-482.7"/>
<polygon fill="#9e9e9e" stroke="#9e9e9e" points="285.93,-485.72 292.44,-477.36 282.14,-479.84 285.93,-485.72"/>
<text text-anchor="start" x="262" y="-499.7" font-family="Times,serif" font-size="14.00" fill="#0c8599">&#45;76%</text>
</g>
<!-- 8&#45;&gt;11 -->
<g id="edge41" class="edge">
<title>8&#45;&gt;11</title>
<path fill="none" stroke="#ffb300" stroke-width="2.5" stroke-dasharray="5,2" d="M179.76,-530.65C170.73,-481.23 145.36,-335.41 137,-213 134.86,-181.74 130.33,-173.12 137,-142.5 137.4,-140.68 137.9,-138.84 138.47,-137"/>
<polygon fill="#ffb300" stroke="#ffb300" stroke-width="2.5" points="141.63,-138.54 142.09,-127.95 135.13,-135.94 141.63,-138.54"/>
<text text-anchor="start" x="149.2" y="-322.7" font-family="Times,serif" font-size="14.00" fill="#0c8599">&#45;100%</text>
</g>
<!-- 9&#45;&gt;2 -->
<g id="edge16" class="edge">
<title>9&#45;&gt;2</title>
<path fill="none" stroke="#9e9e9e" d="M453.31,-265.41C447.16,-253.33 438.79,-236.88 431.75,-223.03"/>
<polygon fill="#9e9e9e" stroke="#9e9e9e" points="435.01,-221.73 427.36,-214.4 428.78,-224.9 435.01,-221.73"/>
<text text-anchor="start" x="443.94" y="-234.2" font-family="Times,serif" font-size="14.00" fill="#e8590c">+64%</text>
</g>
<!-- 9&#45;&gt;3 -->
<g id="edge2" class="edge">
<title>9&#45;&gt;3</title>
<path fill="none" stroke="#9e9e9e" d="M420.05,-272.64C387.28,-262.82 342.97,-244.56 316.25,-213 297.9,-191.33 290.67,-159.14 287.82,-136.02"/>
<polygon fill="#9e9e9e" stroke="#9e9e9e" points="291.33,-135.96 286.85,-126.36 284.37,-136.66 291.33,-135.96"/>
<text text-anchor="start" x="316.25" y="-189.95" font-family="Times,serif" font-size="14.00" fill="#e8590c">+80%</text>
</g>
<!-- 9&#45;&gt;4 -->
<g id="edge36" class="edge">
<title>9&#45;&gt;4</title>
<path fill="none" stroke="#ffb300" stroke-width="2.5" stroke-dasharray="5,2" d="M490.71,-268.19C500.36,-262.55 510.75,-255.51 519,-247.5 545.89,-221.4 537.48,-202.16 565.25,-177 590.63,-154 625.01,-136.28 652.43,-124.49"/>
<polygon fill="#ffb300" stroke="#ffb300" stroke-width="2.5" points="653.47,-127.84 661.37,-120.78 650.79,-121.37 653.47,-127.84"/>
<text text-anchor="start" x="565.25" y="-189.95" font-family="Times,serif" font-size="14.00" fill="#0c8599">&#45;100%</text>
</g>
<!-- 9&#45;&gt;11 -->
<g id="edge37" class="edge">
<title>9&#45;&gt;11</title>
<path fill="none" stroke="#ffb300" stroke-width="2.5" stroke-dasharray="5,2" d="M416.45,-274.92C372.32,-265.88 305.08,-247.44 256.25,-213 224.57,-190.66 194.29,-157.89 174.8,-134.81"/>
<polygon fill="#ffb300" stroke="#ffb300" stroke-width="2.5" points="177.63,-132.74 168.56,-127.27 172.24,-137.2 177.63,-132.74"/>
<text text-anchor="start" x="256.25" y="-189.95" font-family="Times,serif" font-size="14.00" fill="#0c8599">&#45;100%</text>
</g>
<!-- 9&#45;&gt;13 -->
<g id="edge40" class="edge">
<title>9&#45;&gt;13</title>
<path fill="none" stroke="#ffb300" stroke-width="2.5" stroke-dasharray="5,2" d="M473.41,-265.45C488.01,-242.46 512.43,-199.69 521,-159 529.41,-119.08 510.39,-74.22 495.02,-46.28"/>
<polygon fill="#ffb300" stroke="#ffb300" stroke-width="2.5" points="498.26,-44.89 490.22,-37.99 492.2,-48.39 498.26,-44.89"/>
<text text-anchor="start" x="522.98" y="-145.7" font-family="Times,serif" font-size="14.00" fill="#0c8599">&#45;100%</text>
</g>
<!-- 10&#45;&gt;4 -->
<g id="edge24" class="edge">
<title>10&#45;&gt;4</title>
<path fill="none" stroke="#9e9e9e" d="M362.75,-456.25C445.66,-449.41 615.98,-430.67 657,-390 725.83,-321.75 713.42,-192.89 703.73,-135.87"/>
<polygon fill="#9e9e9e" stroke="#9e9e9e" points="707.23,-135.55 702,-126.33 700.34,-136.79 707.23,-135.55"/>
<text text-anchor="start" x="708.92" y="-278.45" font-family="Times,serif" font-size="14.00" fill="#0c8599">&#45;77%</text>
</g>
<!-- 10&#45;&gt;6 -->
<g id="edge14" class="edge">
<title>10&#45;&gt;6</title>
<path fill="none" stroke="#9e9e9e" d="M353.67,-449.07C412.59,-432.3 527.61,-399.57 585.67,-383.05"/>
<polygon fill="#9e9e9e" stroke="#9e9e9e" points="586.37,-386.49 595.03,-380.39 584.46,-379.76 586.37,-386.49"/>
<text text-anchor="start" x="496.23" y="-411.2" font-family="Times,serif" font-size="14.00" fill="#0c8599">&#45;40%</text>
</g>
<!-- 11&#45;&gt;13 -->
<g id="edge30" class="edge">
<title>11&#45;&gt;13</title>
<path fill="none" stroke="#ffb300" stroke-width="2.5" stroke-dasharray="5,2" d="M190.33,-91.63C221.34,-80.46 266.76,-64.87 307.25,-54 351.69,-42.07 403.58,-31.97 438.39,-25.73"/>
<polygon fill="#ffb300" stroke="#ffb300" stroke-width="2.5" points="438.77,-29.21 448.01,-24.03 437.55,-22.32 438.77,-29.21"/>
<text text-anchor="start" x="307.25" y="-57.2" font-family="Times,serif" font-size="14.00" fill="#0c8599">&#45;100%</text>
</g>
<!-- 12&#45;&gt;0 -->
<g id="edge39" class="edge">
<title>12&#45;&gt;0</title>
<path fill="none" stroke="#ffb300" stroke-width="2.5" stroke-dasharray="5,2" d="M112.4,-655.9C111.21,-666 109.21,-678.87 106,-690 100.87,-707.81 92.8,-726.88 85.7,-742.06"/>
<polygon fill="#ffb300" stroke="#ffb300" stroke-width="2.5" points="82.65,-740.35 81.46,-750.87 88.95,-743.39 82.65,-740.35"/>
<text text-anchor="start" x="109.57" y="-676.7" font-family="Times,serif" font-size="14.00" fill="#0c8599">&#45;100%</text>
</g>
<!-- 12&#45;&gt;8 -->
<g id="edge22" class="edge">
<title>12&#45;&gt;8</title>
<path fill="none" stroke="#9e9e9e" d="M126.84,-619.7C134.62,-609.58 144.79,-596.48 154,-585 156.62,-581.73 159.41,-578.31 162.17,-574.94"/>
<polygon fill="#9e9e9e" stroke="#9e9e9e" points="164.68,-577.4 168.36,-567.46 159.29,-572.94 164.68,-577.4"/>
<text text-anchor="start" x="154" y="-588.2" font-family="Times,serif" font-size="14.00" fill="#0c8599">&#45;68%</text>
</g>
<!-- 12&#45;&gt;13 -->
<g id="edge28" class="edge">
<title>12&#45;&gt;13</title>
<path fill="none" stroke="#9e9e9e" d="M102.46,-619.59C87.14,-595.46 62,-549.23 62,-505.75 62,-505.75 62,-505.75 62,-105.5 62,-28.87 336.03,-19.65 439.27,-18.89"/>
<polygon fill="#9e9e9e" stroke="#9e9e9e" points="439.21,-22.39 449.19,-18.85 439.18,-15.39 439.21,-22.39"/>
<text text-anchor="start" x="62" y="-322.7" font-family="Times,serif" font-size="14.00" fill="#0c8599">&#45;71%</text>
</g>
<!-- 13&#45;&gt;13 -->
<g id="edge5" class="edge">
<title>13&#45;&gt;13</title>
<path fill="none" stroke="#9e9e9e" d="M502.53,-26.17C513.51,-26.95 523,-24.22 523,-18 523,-14.11 519.29,-11.59 513.83,-10.43"/>
<polygon fill="#9e9e9e" stroke="#9e9e9e" points="514.22,-6.95 504.04,-9.91 513.84,-13.94 514.22,-6.95"/>
<text text-anchor="start" x="523" y="-12.95" font-family="Times,serif" font-size="14.00" fill="#e8590c">+15%</text>
</g>
<!-- 14 -->
<g id="node15" class="node">
<title>14</title>
<ellipse fill="none" stroke="black" cx="868" cy="-637.5" rx="27" ry="18"/>
<text text-anchor="middle" x="868" y="-632.83" font-family="Times,serif" font-size="14.00">▶</text>
</g>
<!-- 14&#45;&gt;7 -->
<g id="edge7" class="edge">
<title>14&#45;&gt;7</title>
<path fill="none" stroke="#9e9e9e" d="M868,-619.41C868,-607.76 868,-592.05 868,-578.52"/>
<polygon fill="#9e9e9e" stroke="#9e9e9e" points="871.5,-578.86 868,-568.86 864.5,-578.86 871.5,-578.86"/>
<text text-anchor="start" x="868" y="-588.2" font-family="Times,serif" font-size="14.00" fill="#0c8599">&#45;3%</text>
</g>
<!-- 14&#45;&gt;14 -->
<g id="edge6" class="edge">
<title>14&#45;&gt;14</title>
<path fill="none" stroke="#9e9e9e" d="M892.53,-645.67C903.51,-646.45 913,-643.72 913,-637.5 913,-633.61 909.29,-631.09 903.83,-629.93"/>
<polygon fill="#9e9e9e" stroke="#9e9e9e" points="904.22,-626.45 894.04,-629.41 903.84,-633.44 904.22,-626.45"/>
<text text-anchor="start" x="913" y="-632.45" font-family="Times,serif" font-size="14.00" fill="#0c8599">&#45;3%</text>
</g>
<!-- _legend -->
<g id="node16" class="node">
<title>_legend</title>
<text text-anchor="start" x="257.62" y="-815.2" font-family="Times,serif" font-weight="bold" font-size="14.00">Legend</text>
<text text-anchor="start" x="145.75" y="-791.7" font-family="Times,serif" font-size="14.00" fill="#555555">edge label: </text>
<text text-anchor="start" x="208.75" y="-791.7" font-family="Times,serif" font-size="14.00" fill="#e8590c">over</text>
<text text-anchor="start" x="232.75" y="-791.7" font-family="Times,serif" font-size="14.00" fill="#555555"> / </text>
<text text-anchor="start" x="244" y="-791.7" font-family="Times,serif" font-size="14.00" fill="#0c8599">under</text>
<text text-anchor="start" x="274.75" y="-791.7" font-family="Times,serif" font-size="14.00" fill="#555555">&#45;forecast %</text>
<text text-anchor="start" x="145.75" y="-767.2" font-family="Times,serif" font-size="14.00" fill="#9e9e9e">─────</text>
<text text-anchor="start" x="201.5" y="-767.2" font-family="Times,serif" font-size="14.00">matched</text>
<text text-anchor="start" x="145.75" y="-743.7" font-family="Times,serif" font-size="14.00" fill="#ffb300">– – –</text>
<text text-anchor="start" x="201.5" y="-743.7" font-family="Times,serif" font-size="14.00">happened — forecast missed it</text>
<text text-anchor="start" x="145.75" y="-720.2" font-family="Times,serif" font-size="14.00" fill="#e53935">– – –</text>
<text text-anchor="start" x="201.5" y="-720.2" font-family="Times,serif" font-size="14.00">forecast predicted it — did not happen</text>
</g>
</g>
</svg>
