<?xml version="1.0" encoding="UTF-8" standalone="no"?>
<!DOCTYPE svg PUBLIC "-//W3C//DTD SVG 1.1//EN"
 "http://www.w3.org/Graphics/SVG/1.1/DTD/svg11.dtd">
<!-- Generated by graphviz version 12.2.1 (20241206.2353)
 -->
<!-- Pages: 1 -->
<svg width="666pt" height="1037pt"
 viewBox="0.00 0.00 666.25 1037.00" xmlns="http://www.w3.org/2000/svg" xmlns:xlink="http://www.w3.org/1999/xlink">
<g id="graph0" class="graph" transform="scale(1 1) rotate(0) translate(4 1033)">
<polygon fill="white" stroke="none" points="-4,4 -4,-1033 662.25,-1033 662.25,4 -4,4"/>
<!-- 0 -->
<g id="node1" class="node">
<title>0</title>
<ellipse fill="none" stroke="black" cx="449" cy="-1011" rx="27" ry="18"/>
<text text-anchor="middle" x="449" y="-1006.33" font-family="Times,serif" font-size="14.00">▶</text>
</g>
<!-- 0&#45;&gt;0 -->
<g id="edge6" class="edge">
<title>0&#45;&gt;0</title>
<path fill="none" stroke="black" d="M473.53,-1019.17C484.51,-1019.95 494,-1017.22 494,-1011 494,-1007.11 490.29,-1004.59 484.83,-1003.43"/>
<polygon fill="black" stroke="black" points="485.22,-999.95 475.04,-1002.91 484.84,-1006.94 485.22,-999.95"/>
<text text-anchor="middle" x="504.12" y="-1005.95" font-family="Times,serif" font-size="14.00">662</text>
</g>
<!-- 6 -->
<g id="node7" class="node">
<title>6</title>
<ellipse fill="none" stroke="black" cx="449" cy="-922.5" rx="32.41" ry="18"/>
<text text-anchor="middle" x="449" y="-917.45" font-family="Times,serif" font-size="14.00">NEW</text>
</g>
<!-- 0&#45;&gt;6 -->
<g id="edge7" class="edge">
<title>0&#45;&gt;6</title>
<path fill="none" stroke="black" d="M449,-992.91C449,-981.26 449,-965.55 449,-952.02"/>
<polygon fill="black" stroke="black" points="452.5,-952.36 449,-942.36 445.5,-952.36 452.5,-952.36"/>
<text text-anchor="middle" x="459.12" y="-961.7" font-family="Times,serif" font-size="14.00">662</text>
</g>
<!-- 1 -->
<g id="node2" class="node">
<title>1</title>
<ellipse fill="none" stroke="black" cx="173" cy="-18" rx="27" ry="18"/>
<text text-anchor="middle" x="173" y="-12.95" font-family="Times,serif" font-size="14.00">■</text>
</g>
<!-- 1&#45;&gt;1 -->
<g id="edge5" class="edge">
<title>1&#45;&gt;1</title>
<path fill="none" stroke="black" d="M197.53,-26.17C208.51,-26.95 218,-24.22 218,-18 218,-14.11 214.29,-11.59 208.83,-10.43"/>
<polygon fill="black" stroke="black" points="209.22,-6.95 199.04,-9.91 208.84,-13.94 209.22,-6.95"/>
<text text-anchor="middle" x="228.12" y="-12.95" font-family="Times,serif" font-size="14.00">468</text>
</g>
<!-- 2 -->
<g id="node3" class="node">
<title>2</title>
<ellipse fill="none" stroke="black" cx="352" cy="-745.5" rx="27" ry="18"/>
<text text-anchor="middle" x="352" y="-740.45" font-family="Times,serif" font-size="14.00">FIN</text>
</g>
<!-- 2&#45;&gt;1 -->
<g id="edge13" class="edge">
<title>2&#45;&gt;1</title>
<path fill="none" stroke="black" d="M324.67,-743.64C241.97,-740.29 0,-724.78 0,-658 0,-658 0,-658 0,-105.5 0,-45.69 83.76,-27.23 134.71,-21.54"/>
<polygon fill="black" stroke="black" points="134.85,-25.04 144.46,-20.58 134.17,-18.08 134.85,-25.04"/>
<text text-anchor="middle" x="6.75" y="-366.95" font-family="Times,serif" font-size="14.00">51</text>
</g>
<!-- 3 -->
<g id="node4" class="node">
<title>3</title>
<ellipse fill="none" stroke="black" cx="220" cy="-657" rx="51.35" ry="18"/>
<text text-anchor="middle" x="220" y="-651.95" font-family="Times,serif" font-size="14.00">RELEASE</text>
</g>
<!-- 2&#45;&gt;3 -->
<g id="edge1" class="edge">
<title>2&#45;&gt;3</title>
<path fill="none" stroke="black" d="M333.09,-732.11C312.19,-718.41 278.16,-696.11 252.88,-679.55"/>
<polygon fill="black" stroke="black" points="254.88,-676.67 244.59,-674.12 251.04,-682.53 254.88,-676.67"/>
<text text-anchor="middle" x="307.95" y="-696.2" font-family="Times,serif" font-size="14.00">520</text>
</g>
<!-- 4 -->
<g id="node5" class="node">
<title>4</title>
<ellipse fill="none" stroke="black" cx="220" cy="-568.5" rx="51.86" ry="18"/>
<text text-anchor="middle" x="220" y="-563.45" font-family="Times,serif" font-size="14.00">CODE OK</text>
</g>
<!-- 3&#45;&gt;4 -->
<g id="edge2" class="edge">
<title>3&#45;&gt;4</title>
<path fill="none" stroke="black" d="M220,-638.91C220,-627.26 220,-611.55 220,-598.02"/>
<polygon fill="black" stroke="black" points="223.5,-598.36 220,-588.36 216.5,-598.36 223.5,-598.36"/>
<text text-anchor="middle" x="230.12" y="-607.7" font-family="Times,serif" font-size="14.00">476</text>
</g>
<!-- 9 -->
<g id="node10" class="node">
<title>9</title>
<ellipse fill="none" stroke="black" cx="90" cy="-568.5" rx="58.52" ry="18"/>
<text text-anchor="middle" x="90" y="-563.45" font-family="Times,serif" font-size="14.00">CODE NOK</text>
</g>
<!-- 3&#45;&gt;9 -->
<g id="edge16" class="edge">
<title>3&#45;&gt;9</title>
<path fill="none" stroke="black" d="M196.76,-640.54C176.18,-626.84 145.92,-606.71 122.87,-591.37"/>
<polygon fill="black" stroke="black" points="125,-588.59 114.74,-585.96 121.13,-594.41 125,-588.59"/>
<text text-anchor="middle" x="173.39" y="-607.7" font-family="Times,serif" font-size="14.00">18</text>
</g>
<!-- 4&#45;&gt;1 -->
<g id="edge12" class="edge">
<title>4&#45;&gt;1</title>
<path fill="none" stroke="black" d="M204.34,-551.1C192.44,-537.78 176.55,-517.99 167,-498 116.17,-391.59 104,-358.18 104,-240.25 104,-240.25 104,-240.25 104,-105.5 104,-77.77 125.95,-53.8 145.08,-38.18"/>
<polygon fill="black" stroke="black" points="147.16,-41 152.95,-32.12 142.89,-35.45 147.16,-41"/>
<text text-anchor="middle" x="115.68" y="-278.45" font-family="Times,serif" font-size="14.00">126</text>
</g>
<!-- 5 -->
<g id="node6" class="node">
<title>5</title>
<ellipse fill="none" stroke="black" cx="220" cy="-480" rx="43.67" ry="18"/>
<text text-anchor="middle" x="220" y="-474.95" font-family="Times,serif" font-size="14.00">BILLED</text>
</g>
<!-- 4&#45;&gt;5 -->
<g id="edge3" class="edge">
<title>4&#45;&gt;5</title>
<path fill="none" stroke="black" d="M220,-550.41C220,-538.76 220,-523.05 220,-509.52"/>
<polygon fill="black" stroke="black" points="223.5,-509.86 220,-499.86 216.5,-509.86 223.5,-509.86"/>
<text text-anchor="middle" x="230.12" y="-519.2" font-family="Times,serif" font-size="14.00">146</text>
</g>
<!-- 8 -->
<g id="node9" class="node">
<title>8</title>
<ellipse fill="none" stroke="black" cx="336" cy="-195" rx="46.75" ry="18"/>
<text text-anchor="middle" x="336" y="-189.95" font-family="Times,serif" font-size="14.00">REOPEN</text>
</g>
<!-- 4&#45;&gt;8 -->
<g id="edge15" class="edge">
<title>4&#45;&gt;8</title>
<path fill="none" stroke="black" d="M236.07,-550.91C248.02,-537.63 263.81,-517.99 273,-498 316.27,-403.9 330.12,-279.65 334.3,-224.48"/>
<polygon fill="black" stroke="black" points="337.78,-224.93 334.99,-214.71 330.8,-224.44 337.78,-224.93"/>
<text text-anchor="middle" x="320.24" y="-366.95" font-family="Times,serif" font-size="14.00">9</text>
</g>
<!-- 5&#45;&gt;1 -->
<g id="edge4" class="edge">
<title>5&#45;&gt;1</title>
<path fill="none" stroke="black" d="M207.46,-462.37C195.41,-445.27 178.03,-417.33 171,-390 139.05,-265.72 158.04,-110.2 168.03,-47.32"/>
<polygon fill="black" stroke="black" points="171.48,-47.94 169.65,-37.51 164.57,-46.81 171.48,-47.94"/>
<text text-anchor="middle" x="163.57" y="-234.2" font-family="Times,serif" font-size="14.00">172</text>
</g>
<!-- 11 -->
<g id="node12" class="node">
<title>11</title>
<ellipse fill="none" stroke="black" cx="228" cy="-372" rx="47.77" ry="18"/>
<text text-anchor="middle" x="228" y="-366.95" font-family="Times,serif" font-size="14.00">STORNO</text>
</g>
<!-- 5&#45;&gt;11 -->
<g id="edge21" class="edge">
<title>5&#45;&gt;11</title>
<path fill="none" stroke="black" d="M221.29,-461.97C222.51,-445.76 224.37,-421.06 225.83,-401.79"/>
<polygon fill="black" stroke="black" points="229.31,-402.08 226.58,-391.85 222.33,-401.56 229.31,-402.08"/>
<text text-anchor="middle" x="228.56" y="-420.95" font-family="Times,serif" font-size="14.00">7</text>
</g>
<!-- 6&#45;&gt;1 -->
<g id="edge10" class="edge">
<title>6&#45;&gt;1</title>
<path fill="none" stroke="black" d="M481.49,-920.82C535.53,-917.77 638,-903.02 638,-835 638,-835 638,-835 638,-105.5 638,-62.22 322.65,-31.56 211.34,-22.09"/>
<polygon fill="black" stroke="black" points="211.78,-18.61 201.52,-21.26 211.19,-25.59 211.78,-18.61"/>
<text text-anchor="middle" x="648.12" y="-474.95" font-family="Times,serif" font-size="14.00">289</text>
</g>
<!-- 6&#45;&gt;2 -->
<g id="edge11" class="edge">
<title>6&#45;&gt;2</title>
<path fill="none" stroke="black" d="M421.13,-912.74C407.2,-907.15 391.02,-898.63 380,-886.5 352.35,-856.04 348.78,-806.23 349.69,-774.97"/>
<polygon fill="black" stroke="black" points="353.18,-775.25 350.17,-765.1 346.19,-774.91 353.18,-775.25"/>
<text text-anchor="middle" x="366.72" y="-828.95" font-family="Times,serif" font-size="14.00">42</text>
</g>
<!-- 7 -->
<g id="node8" class="node">
<title>7</title>
<ellipse fill="none" stroke="black" cx="504" cy="-834" rx="81.55" ry="18"/>
<text text-anchor="middle" x="504" y="-828.95" font-family="Times,serif" font-size="14.00">CHANGE DIAGN</text>
</g>
<!-- 6&#45;&gt;7 -->
<g id="edge8" class="edge">
<title>6&#45;&gt;7</title>
<path fill="none" stroke="black" d="M459.35,-905.23C467.18,-892.9 478.12,-875.71 487.2,-861.42"/>
<polygon fill="black" stroke="black" points="489.91,-863.68 492.32,-853.36 484.01,-859.92 489.91,-863.68"/>
<text text-anchor="middle" x="491.55" y="-873.2" font-family="Times,serif" font-size="14.00">222</text>
</g>
<!-- 10 -->
<g id="node11" class="node">
<title>10</title>
<ellipse fill="none" stroke="black" cx="389" cy="-106.5" rx="45.72" ry="18"/>
<text text-anchor="middle" x="389" y="-101.45" font-family="Times,serif" font-size="14.00">DELETE</text>
</g>
<!-- 6&#45;&gt;10 -->
<g id="edge17" class="edge">
<title>6&#45;&gt;10</title>
<path fill="none" stroke="black" d="M437.92,-905.21C429.35,-891.64 418.12,-871.45 413,-852 406.88,-828.78 411.44,-822.01 411,-798 407.95,-633.13 414,-591.89 414,-427 414,-427 414,-427 414,-194 414,-173.81 407.63,-151.96 401.33,-135.28"/>
<polygon fill="black" stroke="black" points="404.59,-134.02 397.61,-126.04 398.1,-136.63 404.59,-134.02"/>
<text text-anchor="middle" x="420.1" y="-519.2" font-family="Times,serif" font-size="14.00">21</text>
</g>
<!-- 7&#45;&gt;1 -->
<g id="edge25" class="edge">
<title>7&#45;&gt;1</title>
<path fill="none" stroke="black" d="M503.68,-815.77C503.39,-798.31 503,-770.53 503,-746.5 503,-746.5 503,-746.5 503,-105.5 503,-45.83 298.57,-26.5 211.52,-20.98"/>
<polygon fill="black" stroke="black" points="211.99,-17.5 201.8,-20.39 211.57,-24.49 211.99,-17.5"/>
<text text-anchor="middle" x="506.38" y="-420.95" font-family="Times,serif" font-size="14.00">8</text>
</g>
<!-- 7&#45;&gt;2 -->
<g id="edge9" class="edge">
<title>7&#45;&gt;2</title>
<path fill="none" stroke="black" d="M472.67,-816.99C461.5,-811.15 448.87,-804.41 437.5,-798 418.37,-787.22 397.24,-774.49 380.76,-764.39"/>
<polygon fill="black" stroke="black" points="382.81,-761.54 372.46,-759.27 379.14,-767.5 382.81,-761.54"/>
<text text-anchor="middle" x="444.25" y="-784.7" font-family="Times,serif" font-size="14.00">31</text>
</g>
<!-- 7&#45;&gt;7 -->
<g id="edge19" class="edge">
<title>7&#45;&gt;7</title>
<path fill="none" stroke="black" d="M577.8,-841.98C592.8,-841.11 603.55,-838.45 603.55,-834 603.55,-830.77 597.88,-828.48 589.02,-827.13"/>
<polygon fill="black" stroke="black" points="589.61,-823.68 579.31,-826.17 588.91,-830.64 589.61,-823.68"/>
<text text-anchor="middle" x="606.92" y="-828.95" font-family="Times,serif" font-size="14.00">9</text>
</g>
<!-- 7&#45;&gt;10 -->
<g id="edge20" class="edge">
<title>7&#45;&gt;10</title>
<path fill="none" stroke="black" d="M491.01,-815.8C479.67,-799.04 465,-772.36 465,-746.5 465,-746.5 465,-746.5 465,-194 465,-166.61 443.23,-143.76 422.99,-128.44"/>
<polygon fill="black" stroke="black" points="425.29,-125.78 415.12,-122.82 421.22,-131.48 425.29,-125.78"/>
<text text-anchor="middle" x="468.38" y="-474.95" font-family="Times,serif" font-size="14.00">8</text>
</g>
<!-- 8&#45;&gt;2 -->
<g id="edge14" class="edge">
<title>8&#45;&gt;2</title>
<path fill="none" stroke="black" d="M347.59,-212.71C358.11,-229.53 372,-256.64 372,-282.5 372,-658 372,-658 372,-658 372,-678.04 366.84,-700.03 361.77,-716.83"/>
<polygon fill="black" stroke="black" points="358.51,-715.5 358.79,-726.09 365.18,-717.64 358.51,-715.5"/>
<text text-anchor="middle" x="378.75" y="-474.95" font-family="Times,serif" font-size="14.00">15</text>
</g>
<!-- 8&#45;&gt;10 -->
<g id="edge24" class="edge">
<title>8&#45;&gt;10</title>
<path fill="none" stroke="black" d="M346.22,-177.32C353.72,-165.08 364.07,-148.19 372.71,-134.09"/>
<polygon fill="black" stroke="black" points="375.6,-136.07 377.84,-125.71 369.63,-132.41 375.6,-136.07"/>
<text text-anchor="middle" x="370.62" y="-145.7" font-family="Times,serif" font-size="14.00">3</text>
</g>
<!-- 13 -->
<g id="node14" class="node">
<title>13</title>
<ellipse fill="none" stroke="black" cx="58" cy="-426" rx="42.65" ry="18"/>
<text text-anchor="middle" x="58" y="-420.95" font-family="Times,serif" font-size="14.00">EMPTY</text>
</g>
<!-- 9&#45;&gt;13 -->
<g id="edge26" class="edge">
<title>9&#45;&gt;13</title>
<path fill="none" stroke="black" d="M86.08,-550.27C80.7,-526.68 70.98,-484 64.51,-455.58"/>
<polygon fill="black" stroke="black" points="67.93,-454.82 62.29,-445.84 61.1,-456.37 67.93,-454.82"/>
<text text-anchor="middle" x="88.66" y="-519.2" font-family="Times,serif" font-size="14.00">12</text>
</g>
<!-- 10&#45;&gt;1 -->
<g id="edge18" class="edge">
<title>10&#45;&gt;1</title>
<path fill="none" stroke="black" d="M358.05,-93.11C317.87,-77.02 248.01,-49.04 206.58,-32.45"/>
<polygon fill="black" stroke="black" points="207.94,-29.22 197.35,-28.75 205.34,-35.72 207.94,-29.22"/>
<text text-anchor="middle" x="307.1" y="-57.2" font-family="Times,serif" font-size="14.00">47</text>
</g>
<!-- 11&#45;&gt;1 -->
<g id="edge28" class="edge">
<title>11&#45;&gt;1</title>
<path fill="none" stroke="black" d="M222.56,-353.74C218.33,-339.77 212.6,-319.53 209,-301.5 190.69,-209.67 179.77,-99.1 175.33,-47.78"/>
<polygon fill="black" stroke="black" points="178.82,-47.51 174.48,-37.84 171.84,-48.1 178.82,-47.51"/>
<text text-anchor="middle" x="197.45" y="-189.95" font-family="Times,serif" font-size="14.00">2</text>
</g>
<!-- 12 -->
<g id="node13" class="node">
<title>12</title>
<ellipse fill="none" stroke="black" cx="262" cy="-283.5" rx="43.67" ry="18"/>
<text text-anchor="middle" x="262" y="-278.45" font-family="Times,serif" font-size="14.00">REJECT</text>
</g>
<!-- 11&#45;&gt;12 -->
<g id="edge22" class="edge">
<title>11&#45;&gt;12</title>
<path fill="none" stroke="black" d="M234.72,-353.91C239.42,-341.94 245.81,-325.7 251.22,-311.93"/>
<polygon fill="black" stroke="black" points="254.34,-313.55 254.74,-302.96 247.83,-310.99 254.34,-313.55"/>
<text text-anchor="middle" x="251.42" y="-322.7" font-family="Times,serif" font-size="14.00">8</text>
</g>
<!-- 12&#45;&gt;8 -->
<g id="edge23" class="edge">
<title>12&#45;&gt;8</title>
<path fill="none" stroke="black" d="M275.92,-266.23C286.81,-253.5 302.13,-235.59 314.58,-221.04"/>
<polygon fill="black" stroke="black" points="317.07,-223.52 320.91,-213.64 311.75,-218.96 317.07,-223.52"/>
<text text-anchor="middle" x="309" y="-234.2" font-family="Times,serif" font-size="14.00">4</text>
</g>
<!-- 13&#45;&gt;1 -->
<g id="edge27" class="edge">
<title>13&#45;&gt;1</title>
<path fill="none" stroke="black" d="M58,-407.61C58,-388.34 58,-356.32 58,-328.75 58,-328.75 58,-328.75 58,-105.5 58,-65.15 103.78,-41.28 137.57,-29.16"/>
<polygon fill="black" stroke="black" points="138.25,-32.62 146.61,-26.12 136.02,-25.99 138.25,-32.62"/>
<text text-anchor="middle" x="64.75" y="-234.2" font-family="Times,serif" font-size="14.00">12</text>
</g>
</g>
</svg>
