<?xml version="1.0" encoding="UTF-8" standalone="no"?>
<!DOCTYPE svg PUBLIC "-//W3C//DTD SVG 1.1//EN"
 "http://www.w3.org/Graphics/SVG/1.1/DTD/svg11.dtd">
<!-- Generated by graphviz version 12.2.1 (20241206.2353)
 -->
<!-- Pages: 1 -->
<svg width="1451pt" height="1234pt"
 viewBox="0.00 0.00 1450.70 1233.50" xmlns="http://www.w3.org/2000/svg" xmlns:xlink="http://www.w3.org/1999/xlink">
<g id="graph0" class="graph" transform="scale(1 1) rotate(0) translate(4 1229.5)">
<polygon fill="white" stroke="none" points="-4,4 -4,-1229.5 1446.7,-1229.5 1446.7,4 -4,4"/>
<!-- 0 -->
<g id="node1" class="node">
<title>0</title>
<ellipse fill="none" stroke="black" cx="623" cy="-1207.5" rx="27" ry="18"/>
<text text-anchor="middle" x="623" y="-1202.83" font-family="Times,serif" font-size="14.00">▶</text>
</g>
<!-- 6 -->
<g id="node7" class="node">
<title>6</title>
<ellipse fill="none" stroke="black" cx="357" cy="-1030.5" rx="95.37" ry="18"/>
<text text-anchor="middle" x="357" y="-1025.45" font-family="Times,serif" font-size="14.00">Vendor creates invoice</text>
</g>
<!-- 0&#45;&gt;6 -->
<g id="edge21" class="edge">
<title>0&#45;&gt;6</title>
<path fill="none" stroke="black" d="M604.3,-1194.19C560.14,-1165.14 448.86,-1091.93 391.85,-1054.43"/>
<polygon fill="black" stroke="black" points="394.06,-1051.69 383.79,-1049.12 390.22,-1057.54 394.06,-1051.69"/>
<text text-anchor="middle" x="519.82" y="-1113.95" font-family="Times,serif" font-size="14.00">8</text>
</g>
<!-- 7 -->
<g id="node8" class="node">
<title>7</title>
<ellipse fill="none" stroke="black" cx="671" cy="-942" rx="114.82" ry="18"/>
<text text-anchor="middle" x="671" y="-936.95" font-family="Times,serif" font-size="14.00">Create Purchase Order Item</text>
</g>
<!-- 0&#45;&gt;7 -->
<g id="edge26" class="edge">
<title>0&#45;&gt;7</title>
<path fill="none" stroke="black" d="M625.45,-1189.21C630.99,-1150.95 645.28,-1056.32 662,-978 662.46,-975.84 662.97,-973.61 663.5,-971.37"/>
<polygon fill="black" stroke="black" points="666.85,-972.4 665.86,-961.85 660.05,-970.71 666.85,-972.4"/>
<text text-anchor="middle" x="658.42" y="-1069.7" font-family="Times,serif" font-size="14.00">1688</text>
</g>
<!-- 16 -->
<g id="node17" class="node">
<title>16</title>
<ellipse fill="none" stroke="black" cx="787" cy="-1119" rx="135.8" ry="18"/>
<text text-anchor="middle" x="787" y="-1113.95" font-family="Times,serif" font-size="14.00">Create Purchase Requisition Item</text>
</g>
<!-- 0&#45;&gt;16 -->
<g id="edge51" class="edge">
<title>0&#45;&gt;16</title>
<path fill="none" stroke="black" d="M643.77,-1195.54C669.05,-1182.21 712.36,-1159.37 744.75,-1142.28"/>
<polygon fill="black" stroke="black" points="746.3,-1145.43 753.51,-1137.66 743.03,-1139.23 746.3,-1145.43"/>
<text text-anchor="middle" x="733.19" y="-1158.2" font-family="Times,serif" font-size="14.00">1731</text>
</g>
<!-- 1 -->
<g id="node2" class="node">
<title>1</title>
<ellipse fill="none" stroke="black" cx="711" cy="-18" rx="27" ry="18"/>
<text text-anchor="middle" x="711" y="-12.95" font-family="Times,serif" font-size="14.00">■</text>
</g>
<!-- 2 -->
<g id="node3" class="node">
<title>2</title>
<ellipse fill="none" stroke="black" cx="443" cy="-549" rx="94.86" ry="18"/>
<text text-anchor="middle" x="443" y="-543.95" font-family="Times,serif" font-size="14.00">Record Goods Receipt</text>
</g>
<!-- 2&#45;&gt;1 -->
<g id="edge24" class="edge">
<title>2&#45;&gt;1</title>
<path fill="none" stroke="black" d="M470.66,-531.36C478.36,-526.03 486.41,-519.74 493,-513 559.09,-445.39 567.83,-420.11 611,-336 618.48,-321.42 618.79,-317.04 624,-301.5 660.47,-192.77 659.44,-162.36 697,-54 697.89,-51.44 698.85,-48.8 699.85,-46.16"/>
<polygon fill="black" stroke="black" points="703.04,-47.61 703.43,-37.02 696.52,-45.06 703.04,-47.61"/>
<text text-anchor="middle" x="645.42" y="-278.45" font-family="Times,serif" font-size="14.00">437</text>
</g>
<!-- 2&#45;&gt;2 -->
<g id="edge17" class="edge">
<title>2&#45;&gt;2</title>
<path fill="none" stroke="black" d="M529.11,-556.84C544.83,-555.85 555.86,-553.23 555.86,-549 555.86,-545.89 549.91,-543.65 540.52,-542.29"/>
<polygon fill="black" stroke="black" points="540.91,-538.81 530.62,-541.31 540.22,-545.78 540.91,-538.81"/>
<text text-anchor="middle" x="562.61" y="-543.95" font-family="Times,serif" font-size="14.00">30</text>
</g>
<!-- 3 -->
<g id="node4" class="node">
<title>3</title>
<ellipse fill="none" stroke="black" cx="282" cy="-372" rx="98.44" ry="18"/>
<text text-anchor="middle" x="282" y="-366.95" font-family="Times,serif" font-size="14.00">Record Invoice Receipt</text>
</g>
<!-- 2&#45;&gt;3 -->
<g id="edge1" class="edge">
<title>2&#45;&gt;3</title>
<path fill="none" stroke="black" d="M425.2,-530.89C419.58,-525.3 413.42,-518.99 408,-513 394.7,-498.31 391.44,-494.5 379.75,-478.5 357.72,-448.34 360.19,-434.63 334,-408 329.91,-403.84 325.25,-399.89 320.44,-396.24"/>
<polygon fill="black" stroke="black" points="322.53,-393.43 312.35,-390.49 318.48,-399.13 322.53,-393.43"/>
<text text-anchor="middle" x="389.88" y="-455.45" font-family="Times,serif" font-size="14.00">312</text>
</g>
<!-- 5 -->
<g id="node6" class="node">
<title>5</title>
<ellipse fill="none" stroke="black" cx="293" cy="-195" rx="102.02" ry="18"/>
<text text-anchor="middle" x="293" y="-189.95" font-family="Times,serif" font-size="14.00">Remove Payment Block</text>
</g>
<!-- 2&#45;&gt;5 -->
<g id="edge4" class="edge">
<title>2&#45;&gt;5</title>
<path fill="none" stroke="black" d="M462.43,-531.11C467.33,-525.81 472.04,-519.61 475,-513 494.14,-470.25 500.79,-451.72 484,-408 452.26,-325.36 371.77,-254.8 326.05,-219.72"/>
<polygon fill="black" stroke="black" points="328.42,-217.12 318.33,-213.89 324.21,-222.71 328.42,-217.12"/>
<text text-anchor="middle" x="486.1" y="-366.95" font-family="Times,serif" font-size="14.00">108</text>
</g>
<!-- 2&#45;&gt;6 -->
<g id="edge6" class="edge">
<title>2&#45;&gt;6</title>
<path fill="none" stroke="black" d="M362.25,-558.73C343.42,-563.96 324.63,-572.17 310,-585 284.38,-607.48 281,-621.91 281,-656 281,-943 281,-943 281,-943 281,-968.25 288.59,-975.3 305,-994.5 308.71,-998.84 313.07,-1002.86 317.68,-1006.53"/>
<polygon fill="black" stroke="black" points="315.34,-1009.15 325.48,-1012.22 319.46,-1003.5 315.34,-1009.15"/>
<text text-anchor="middle" x="291.12" y="-794.45" font-family="Times,serif" font-size="14.00">579</text>
</g>
<!-- 14 -->
<g id="node15" class="node">
<title>14</title>
<ellipse fill="none" stroke="black" cx="141" cy="-460.5" rx="113.28" ry="18"/>
<text text-anchor="middle" x="141" y="-455.45" font-family="Times,serif" font-size="14.00">Vendor creates debit memo</text>
</g>
<!-- 2&#45;&gt;14 -->
<g id="edge47" class="edge">
<title>2&#45;&gt;14</title>
<path fill="none" stroke="black" d="M392.11,-533.42C340.66,-518.69 260.98,-495.86 205.21,-479.89"/>
<polygon fill="black" stroke="black" points="206.42,-476.6 195.84,-477.21 204.49,-483.33 206.42,-476.6"/>
<text text-anchor="middle" x="325.8" y="-499.7" font-family="Times,serif" font-size="14.00">34</text>
</g>
<!-- 3&#45;&gt;1 -->
<g id="edge13" class="edge">
<title>3&#45;&gt;1</title>
<path fill="none" stroke="black" d="M186.23,-367.48C130.05,-359.67 70,-338.66 70,-284.5 70,-284.5 70,-284.5 70,-105.5 70,-44.33 534.4,-24.62 672.63,-20.11"/>
<polygon fill="black" stroke="black" points="672.47,-23.62 682.35,-19.8 672.25,-16.62 672.47,-23.62"/>
<text text-anchor="middle" x="83.5" y="-189.95" font-family="Times,serif" font-size="14.00">1443</text>
</g>
<!-- 3&#45;&gt;2 -->
<g id="edge11" class="edge">
<title>3&#45;&gt;2</title>
<path fill="none" stroke="black" d="M324.83,-388.56C350.18,-399.85 380.96,-417.55 400,-442.5 417.78,-465.8 429.38,-497.47 436,-520.02"/>
<polygon fill="black" stroke="black" points="432.57,-520.72 438.61,-529.42 439.31,-518.85 432.57,-520.72"/>
<text text-anchor="middle" x="427.51" y="-455.45" font-family="Times,serif" font-size="14.00">50</text>
</g>
<!-- 3&#45;&gt;3 -->
<g id="edge34" class="edge">
<title>3&#45;&gt;3</title>
<path fill="none" stroke="black" d="M371.34,-379.81C387.29,-378.8 398.44,-376.19 398.44,-372 398.44,-368.89 392.3,-366.65 382.61,-365.29"/>
<polygon fill="black" stroke="black" points="383.14,-361.83 372.84,-364.34 382.46,-368.79 383.14,-361.83"/>
<text text-anchor="middle" x="401.81" y="-366.95" font-family="Times,serif" font-size="14.00">4</text>
</g>
<!-- 4 -->
<g id="node5" class="node">
<title>4</title>
<ellipse fill="none" stroke="black" cx="293" cy="-106.5" rx="61.08" ry="18"/>
<text text-anchor="middle" x="293" y="-101.45" font-family="Times,serif" font-size="14.00">Clear Invoice</text>
</g>
<!-- 3&#45;&gt;4 -->
<g id="edge2" class="edge">
<title>3&#45;&gt;4</title>
<path fill="none" stroke="black" d="M196.4,-362.74C178.82,-357.41 161.79,-349.04 149,-336 115.64,-302 121.84,-278.3 127.5,-231 132.31,-190.81 120.38,-171.12 149,-142.5 160.31,-131.19 194.6,-122.61 226.89,-116.78"/>
<polygon fill="black" stroke="black" points="227.43,-120.23 236.69,-115.08 226.24,-113.34 227.43,-120.23"/>
<text text-anchor="middle" x="134.25" y="-234.2" font-family="Times,serif" font-size="14.00">89</text>
</g>
<!-- 3&#45;&gt;5 -->
<g id="edge12" class="edge">
<title>3&#45;&gt;5</title>
<path fill="none" stroke="black" d="M283.09,-353.58C284.99,-323.44 288.9,-261.3 291.2,-224.7"/>
<polygon fill="black" stroke="black" points="294.68,-225.06 291.81,-214.86 287.69,-224.62 294.68,-225.06"/>
<text text-anchor="middle" x="298.72" y="-278.45" font-family="Times,serif" font-size="14.00">154</text>
</g>
<!-- 3&#45;&gt;6 -->
<g id="edge41" class="edge">
<title>3&#45;&gt;6</title>
<path fill="none" stroke="black" d="M199.68,-382.11C116.44,-393.67 0,-417.38 0,-459.5 0,-943 0,-943 0,-943 0,-995.61 148.28,-1016.34 253.72,-1024.42"/>
<polygon fill="black" stroke="black" points="253.32,-1027.9 263.55,-1025.15 253.84,-1020.92 253.32,-1027.9"/>
<text text-anchor="middle" x="6.75" y="-696.2" font-family="Times,serif" font-size="14.00">59</text>
</g>
<!-- 8 -->
<g id="node9" class="node">
<title>8</title>
<ellipse fill="none" stroke="black" cx="554" cy="-283.5" rx="60.56" ry="18"/>
<text text-anchor="middle" x="554" y="-278.45" font-family="Times,serif" font-size="14.00">Change Price</text>
</g>
<!-- 3&#45;&gt;8 -->
<g id="edge16" class="edge">
<title>3&#45;&gt;8</title>
<path fill="none" stroke="black" d="M329.69,-355.83C378.28,-340.38 453.35,-316.51 503.07,-300.7"/>
<polygon fill="black" stroke="black" points="503.99,-304.08 512.46,-297.71 501.87,-297.41 503.99,-304.08"/>
<text text-anchor="middle" x="449.11" y="-322.7" font-family="Times,serif" font-size="14.00">12</text>
</g>
<!-- 4&#45;&gt;1 -->
<g id="edge3" class="edge">
<title>4&#45;&gt;1</title>
<path fill="none" stroke="black" d="M316.6,-89.68C335.58,-77.78 363.39,-62.18 390,-54 488.46,-23.72 610.95,-18.88 672.25,-18.55"/>
<polygon fill="black" stroke="black" points="672.16,-22.05 682.16,-18.55 672.16,-15.05 672.16,-22.05"/>
<text text-anchor="middle" x="403.5" y="-57.2" font-family="Times,serif" font-size="14.00">6480</text>
</g>
<!-- 4&#45;&gt;3 -->
<g id="edge27" class="edge">
<title>4&#45;&gt;3</title>
<path fill="none" stroke="black" d="M253.68,-120.69C228.27,-131.5 197.2,-149.55 182,-177 148.74,-237.07 212.67,-309.3 252.86,-346.38"/>
<polygon fill="black" stroke="black" points="250.38,-348.85 260.15,-352.94 255.06,-343.65 250.38,-348.85"/>
<text text-anchor="middle" x="182.21" y="-234.2" font-family="Times,serif" font-size="14.00">8</text>
</g>
<!-- 4&#45;&gt;4 -->
<g id="edge14" class="edge">
<title>4&#45;&gt;4</title>
<path fill="none" stroke="black" d="M348.06,-114.68C361.8,-114.11 372.08,-111.38 372.08,-106.5 372.08,-103.1 367.11,-100.75 359.46,-99.44"/>
<polygon fill="black" stroke="black" points="359.86,-95.96 349.57,-98.47 359.18,-102.93 359.86,-95.96"/>
<text text-anchor="middle" x="375.45" y="-101.45" font-family="Times,serif" font-size="14.00">6</text>
</g>
<!-- 5&#45;&gt;1 -->
<g id="edge58" class="edge">
<title>5&#45;&gt;1</title>
<path fill="none" stroke="black" d="M325.35,-177.45C380.4,-149.69 496.24,-92.93 598,-54 623.48,-44.25 652.95,-35.2 675.4,-28.74"/>
<polygon fill="black" stroke="black" points="676.32,-32.12 684.99,-26.02 674.41,-25.38 676.32,-32.12"/>
<text text-anchor="middle" x="522.91" y="-101.45" font-family="Times,serif" font-size="14.00">385</text>
</g>
<!-- 5&#45;&gt;4 -->
<g id="edge5" class="edge">
<title>5&#45;&gt;4</title>
<path fill="none" stroke="black" d="M293,-176.91C293,-165.26 293,-149.55 293,-136.02"/>
<polygon fill="black" stroke="black" points="296.5,-136.36 293,-126.36 289.5,-136.36 296.5,-136.36"/>
<text text-anchor="middle" x="303.12" y="-145.7" font-family="Times,serif" font-size="14.00">144</text>
</g>
<!-- 6&#45;&gt;2 -->
<g id="edge8" class="edge">
<title>6&#45;&gt;2</title>
<path fill="none" stroke="black" d="M349.02,-1012.37C346.73,-1006.78 344.46,-1000.48 343,-994.5 305.61,-840.95 276.81,-778.54 351,-639 364.93,-612.8 389.37,-589.71 409.55,-573.62"/>
<polygon fill="black" stroke="black" points="411.5,-576.54 417.28,-567.66 407.22,-571 411.5,-576.54"/>
<text text-anchor="middle" x="315.64" y="-794.45" font-family="Times,serif" font-size="14.00">947</text>
</g>
<!-- 6&#45;&gt;3 -->
<g id="edge7" class="edge">
<title>6&#45;&gt;3</title>
<path fill="none" stroke="black" d="M309.64,-1014.44C278.32,-1001.19 243,-978.4 243,-943 243,-943 243,-943 243,-700.25 243,-685.35 268.83,-477.93 278.45,-401.24"/>
<polygon fill="black" stroke="black" points="281.89,-401.96 279.66,-391.6 274.94,-401.09 281.89,-401.96"/>
<text text-anchor="middle" x="253.12" y="-696.2" font-family="Times,serif" font-size="14.00">314</text>
</g>
<!-- 6&#45;&gt;7 -->
<g id="edge22" class="edge">
<title>6&#45;&gt;7</title>
<path fill="none" stroke="black" d="M432.47,-1019.15C462.48,-1013.7 496.95,-1005.75 527,-994.5 540.98,-989.27 542.53,-983.88 556.25,-978 570.95,-971.7 587.15,-966.03 602.64,-961.18"/>
<polygon fill="black" stroke="black" points="603.22,-964.66 611.77,-958.4 601.18,-957.97 603.22,-964.66"/>
<text text-anchor="middle" x="559.62" y="-981.2" font-family="Times,serif" font-size="14.00">7</text>
</g>
<!-- 9 -->
<g id="node10" class="node">
<title>9</title>
<ellipse fill="none" stroke="black" cx="626" cy="-657" rx="73.87" ry="18"/>
<text text-anchor="middle" x="626" y="-651.95" font-family="Times,serif" font-size="14.00">Change Quantity</text>
</g>
<!-- 6&#45;&gt;9 -->
<g id="edge18" class="edge">
<title>6&#45;&gt;9</title>
<path fill="none" stroke="black" d="M392,-1013.36C400.85,-1008.19 409.86,-1001.86 417,-994.5 453.97,-956.38 446.74,-935.07 474,-889.5 519.48,-813.49 578.22,-726.99 607.58,-684.46"/>
<polygon fill="black" stroke="black" points="610.38,-686.57 613.19,-676.35 604.62,-682.58 610.38,-686.57"/>
<text text-anchor="middle" x="510.17" y="-848.45" font-family="Times,serif" font-size="14.00">5</text>
</g>
<!-- 6&#45;&gt;14 -->
<g id="edge39" class="edge">
<title>6&#45;&gt;14</title>
<path fill="none" stroke="black" d="M281.75,-1019.21C263.18,-1014.02 244.25,-1006.22 229,-994.5 207.99,-978.36 199,-969.49 199,-943 199,-943 199,-943 199,-548 199,-524.51 184.06,-502.58 169.34,-486.68"/>
<polygon fill="black" stroke="black" points="171.86,-484.24 162.35,-479.57 166.87,-489.15 171.86,-484.24"/>
<text text-anchor="middle" x="205.75" y="-740.45" font-family="Times,serif" font-size="14.00">46</text>
</g>
<!-- 7&#45;&gt;1 -->
<g id="edge48" class="edge">
<title>7&#45;&gt;1</title>
<path fill="none" stroke="black" d="M775.15,-934.15C927.97,-922.69 1195,-896.63 1195,-854.5 1195,-854.5 1195,-854.5 1195,-105.5 1195,-60.31 863.84,-30.7 749.37,-21.81"/>
<polygon fill="black" stroke="black" points="749.81,-18.33 739.57,-21.06 749.27,-25.31 749.81,-18.33"/>
<text text-anchor="middle" x="1205.12" y="-455.45" font-family="Times,serif" font-size="14.00">538</text>
</g>
<!-- 7&#45;&gt;2 -->
<g id="edge9" class="edge">
<title>7&#45;&gt;2</title>
<path fill="none" stroke="black" d="M624.72,-925.08C598.14,-913.83 565.98,-896.29 545,-871.5 506.89,-826.46 472.52,-677.92 457,-621 453.23,-607.17 450.04,-591.57 447.66,-578.52"/>
<polygon fill="black" stroke="black" points="451.14,-578.12 445.97,-568.87 444.25,-579.32 451.14,-578.12"/>
<text text-anchor="middle" x="506.49" y="-740.45" font-family="Times,serif" font-size="14.00">144</text>
</g>
<!-- 7&#45;&gt;3 -->
<g id="edge37" class="edge">
<title>7&#45;&gt;3</title>
<path fill="none" stroke="black" d="M609.24,-926.39C592.69,-921.19 575.18,-914.46 560,-906 539.49,-894.57 535.08,-889.49 520,-871.5 418.85,-750.85 400.34,-712 339,-567 310.48,-499.58 319.19,-477.44 296,-408 295.24,-405.72 294.41,-403.38 293.54,-401.03"/>
<polygon fill="black" stroke="black" points="296.81,-399.77 289.93,-391.71 290.28,-402.3 296.81,-399.77"/>
<text text-anchor="middle" x="392.78" y="-651.95" font-family="Times,serif" font-size="14.00">19</text>
</g>
<!-- 7&#45;&gt;6 -->
<g id="edge10" class="edge">
<title>7&#45;&gt;6</title>
<path fill="none" stroke="black" d="M628.87,-959.16C615.78,-964.65 601.45,-971.14 588.75,-978 577.12,-984.28 576.29,-989.62 564,-994.5 529.91,-1008.03 490.65,-1016.33 455.54,-1021.42"/>
<polygon fill="black" stroke="black" points="455.23,-1017.93 445.8,-1022.76 456.18,-1024.86 455.23,-1017.93"/>
<text text-anchor="middle" x="598.88" y="-981.2" font-family="Times,serif" font-size="14.00">301</text>
</g>
<!-- 7&#45;&gt;8 -->
<g id="edge40" class="edge">
<title>7&#45;&gt;8</title>
<path fill="none" stroke="black" d="M754.51,-929.35C821.27,-915.21 910.89,-884.32 956,-817.5 1014.44,-730.95 1037.26,-678.13 990,-585 909.48,-426.34 701.5,-335.82 604.82,-301.1"/>
<polygon fill="black" stroke="black" points="606.17,-297.87 595.57,-297.84 603.84,-304.47 606.17,-297.87"/>
<text text-anchor="middle" x="1012.1" y="-597.95" font-family="Times,serif" font-size="14.00">33</text>
</g>
<!-- 7&#45;&gt;9 -->
<g id="edge38" class="edge">
<title>7&#45;&gt;9</title>
<path fill="none" stroke="black" d="M736.86,-926.87C754.14,-921.69 772.31,-914.86 788,-906 873.92,-857.5 984.52,-802.15 920,-727.5 901.94,-706.6 823.97,-715.5 797,-709.5 756.45,-700.48 711.5,-686.79 677.86,-675.79"/>
<polygon fill="black" stroke="black" points="679.39,-672.61 668.8,-672.8 677.2,-679.26 679.39,-672.61"/>
<text text-anchor="middle" x="945.01" y="-794.45" font-family="Times,serif" font-size="14.00">47</text>
</g>
<!-- 10 -->
<g id="node11" class="node">
<title>10</title>
<ellipse fill="none" stroke="black" cx="796" cy="-745.5" rx="114.82" ry="18"/>
<text text-anchor="middle" x="796" y="-740.45" font-family="Times,serif" font-size="14.00">Delete Purchase Order Item</text>
</g>
<!-- 7&#45;&gt;10 -->
<g id="edge31" class="edge">
<title>7&#45;&gt;10</title>
<path fill="none" stroke="black" d="M724.71,-925.77C751.44,-915.18 781.31,-898.07 797,-871.5 814.4,-842.04 809.99,-801.45 804.03,-774.62"/>
<polygon fill="black" stroke="black" points="807.49,-774.04 801.71,-765.16 800.69,-775.71 807.49,-774.04"/>
<text text-anchor="middle" x="815.02" y="-848.45" font-family="Times,serif" font-size="14.00">41</text>
</g>
<!-- 12 -->
<g id="node13" class="node">
<title>12</title>
<ellipse fill="none" stroke="black" cx="1086" cy="-799.5" rx="93.83" ry="18"/>
<text text-anchor="middle" x="1086" y="-794.45" font-family="Times,serif" font-size="14.00">Cancel Goods Receipt</text>
</g>
<!-- 7&#45;&gt;12 -->
<g id="edge33" class="edge">
<title>7&#45;&gt;12</title>
<path fill="none" stroke="black" d="M782.21,-937.21C859.75,-933 955.43,-924.22 991,-906 1025.71,-888.22 1053.8,-852.13 1070.2,-827.14"/>
<polygon fill="black" stroke="black" points="1073.08,-829.12 1075.48,-818.8 1067.17,-825.38 1073.08,-829.12"/>
<text text-anchor="middle" x="1017.32" y="-892.7" font-family="Times,serif" font-size="14.00">6</text>
</g>
<!-- 15 -->
<g id="node16" class="node">
<title>15</title>
<ellipse fill="none" stroke="black" cx="671" cy="-853.5" rx="117.37" ry="18"/>
<text text-anchor="middle" x="671" y="-848.45" font-family="Times,serif" font-size="14.00">Receive Order Confirmation</text>
</g>
<!-- 7&#45;&gt;15 -->
<g id="edge42" class="edge">
<title>7&#45;&gt;15</title>
<path fill="none" stroke="black" d="M671,-923.91C671,-912.26 671,-896.55 671,-883.02"/>
<polygon fill="black" stroke="black" points="674.5,-883.36 671,-873.36 667.5,-883.36 674.5,-883.36"/>
<text text-anchor="middle" x="681.12" y="-892.7" font-family="Times,serif" font-size="14.00">467</text>
</g>
<!-- 8&#45;&gt;1 -->
<g id="edge56" class="edge">
<title>8&#45;&gt;1</title>
<path fill="none" stroke="black" d="M572.85,-265.99C586.68,-252.91 604.91,-233.48 616,-213 650.86,-148.63 616.39,-113.53 659,-54 664.39,-46.47 671.94,-40.08 679.62,-34.9"/>
<polygon fill="black" stroke="black" points="681.27,-38 687.97,-29.79 677.62,-32.03 681.27,-38"/>
<text text-anchor="middle" x="640.85" y="-145.7" font-family="Times,serif" font-size="14.00">13</text>
</g>
<!-- 8&#45;&gt;2 -->
<g id="edge28" class="edge">
<title>8&#45;&gt;2</title>
<path fill="none" stroke="black" d="M546.69,-301.85C527.88,-346.5 477.69,-465.64 454.75,-520.12"/>
<polygon fill="black" stroke="black" points="451.53,-518.74 450.87,-529.32 457.98,-521.46 451.53,-518.74"/>
<text text-anchor="middle" x="507.81" y="-411.2" font-family="Times,serif" font-size="14.00">10</text>
</g>
<!-- 8&#45;&gt;5 -->
<g id="edge15" class="edge">
<title>8&#45;&gt;5</title>
<path fill="none" stroke="black" d="M532.9,-266.18C517,-254.67 494.2,-239.79 472,-231 454.65,-224.13 415.33,-216.17 377.95,-209.57"/>
<polygon fill="black" stroke="black" points="378.91,-206.19 368.45,-207.92 377.71,-213.08 378.91,-206.19"/>
<text text-anchor="middle" x="509.59" y="-234.2" font-family="Times,serif" font-size="14.00">33</text>
</g>
<!-- 8&#45;&gt;6 -->
<g id="edge35" class="edge">
<title>8&#45;&gt;6</title>
<path fill="none" stroke="black" d="M568.08,-301.17C580.62,-317.76 597,-344.5 597,-371 597,-505.75 597,-505.75 597,-505.75 597,-558.36 602.07,-579.29 570,-621 559.64,-634.48 549.51,-628.36 536.25,-639 533.09,-641.53 470.71,-712.92 462,-727.5 435.34,-772.15 436.56,-787.32 417,-835.5 401.09,-874.69 394.69,-883.65 382,-924 373.94,-949.64 367.09,-979.49 362.61,-1000.89"/>
<polygon fill="black" stroke="black" points="359.2,-1000.13 360.62,-1010.63 366.05,-1001.54 359.2,-1000.13"/>
<text text-anchor="middle" x="539.62" y="-651.95" font-family="Times,serif" font-size="14.00">3</text>
</g>
<!-- 9&#45;&gt;1 -->
<g id="edge53" class="edge">
<title>9&#45;&gt;1</title>
<path fill="none" stroke="black" d="M629.22,-638.75C631.94,-624.35 636.04,-603.3 640,-585 669.06,-450.88 711,-421.73 711,-284.5 711,-284.5 711,-284.5 711,-105.5 711,-86.17 711,-64.4 711,-47.54"/>
<polygon fill="black" stroke="black" points="714.5,-47.75 711,-37.75 707.5,-47.75 714.5,-47.75"/>
<text text-anchor="middle" x="716.68" y="-322.7" font-family="Times,serif" font-size="14.00">21</text>
</g>
<!-- 9&#45;&gt;2 -->
<g id="edge19" class="edge">
<title>9&#45;&gt;2</title>
<path fill="none" stroke="black" d="M598.21,-639.9C567.08,-621.87 516.44,-592.54 481.51,-572.31"/>
<polygon fill="black" stroke="black" points="483.38,-569.34 472.97,-567.36 479.87,-575.4 483.38,-569.34"/>
<text text-anchor="middle" x="568.33" y="-597.95" font-family="Times,serif" font-size="14.00">72</text>
</g>
<!-- 9&#45;&gt;6 -->
<g id="edge23" class="edge">
<title>9&#45;&gt;6</title>
<path fill="none" stroke="black" d="M570.54,-669.2C551.67,-674.56 531.06,-682.24 514,-693 496.31,-704.16 493.29,-709.89 482,-727.5 474.08,-739.86 397.29,-929.56 368.14,-1001.83"/>
<polygon fill="black" stroke="black" points="364.95,-1000.39 364.46,-1010.97 371.44,-1003 364.95,-1000.39"/>
<text text-anchor="middle" x="441.55" y="-848.45" font-family="Times,serif" font-size="14.00">16</text>
</g>
<!-- 9&#45;&gt;10 -->
<g id="edge49" class="edge">
<title>9&#45;&gt;10</title>
<path fill="none" stroke="black" d="M641.38,-674.9C652.37,-686.1 668.03,-700.35 684.25,-709.5 696.2,-716.24 709.61,-721.86 722.88,-726.48"/>
<polygon fill="black" stroke="black" points="721.43,-729.69 732.03,-729.5 723.63,-723.04 721.43,-729.69"/>
<text text-anchor="middle" x="687.62" y="-696.2" font-family="Times,serif" font-size="14.00">1</text>
</g>
<!-- 10&#45;&gt;1 -->
<g id="edge20" class="edge">
<title>10&#45;&gt;1</title>
<path fill="none" stroke="black" d="M834.91,-728.1C875.15,-708.87 936.06,-672.89 965,-621 990.03,-576.13 974,-557.13 974,-505.75 974,-505.75 974,-505.75 974,-105.5 974,-58.72 821.93,-33.07 749.06,-23.46"/>
<polygon fill="black" stroke="black" points="749.53,-19.99 739.17,-22.2 748.64,-26.94 749.53,-19.99"/>
<text text-anchor="middle" x="984.12" y="-366.95" font-family="Times,serif" font-size="14.00">105</text>
</g>
<!-- 10&#45;&gt;9 -->
<g id="edge57" class="edge">
<title>10&#45;&gt;9</title>
<path fill="none" stroke="black" d="M705.85,-734.03C687.48,-728.79 669.22,-721.01 654.25,-709.5 646.32,-703.4 640.32,-694.41 635.93,-685.65"/>
<polygon fill="black" stroke="black" points="639.21,-684.4 631.97,-676.66 632.8,-687.22 639.21,-684.4"/>
<text text-anchor="middle" x="657.62" y="-696.2" font-family="Times,serif" font-size="14.00">2</text>
</g>
<!-- 17 -->
<g id="node18" class="node">
<title>17</title>
<ellipse fill="none" stroke="black" cx="815" cy="-603" rx="149.11" ry="18"/>
<text text-anchor="middle" x="815" y="-597.95" font-family="Times,serif" font-size="14.00">Change Approval for Purchase Order</text>
</g>
<!-- 10&#45;&gt;17 -->
<g id="edge54" class="edge">
<title>10&#45;&gt;17</title>
<path fill="none" stroke="black" d="M798.33,-727.27C801.52,-703.68 807.29,-661 811.14,-632.58"/>
<polygon fill="black" stroke="black" points="814.58,-633.25 812.45,-622.87 807.64,-632.31 814.58,-633.25"/>
<text text-anchor="middle" x="809.44" y="-696.2" font-family="Times,serif" font-size="14.00">11</text>
</g>
<!-- 11 -->
<g id="node12" class="node">
<title>11</title>
<ellipse fill="none" stroke="black" cx="510" cy="-195" rx="97.41" ry="18"/>
<text text-anchor="middle" x="510" y="-189.95" font-family="Times,serif" font-size="14.00">Cancel Invoice Receipt</text>
</g>
<!-- 11&#45;&gt;1 -->
<g id="edge25" class="edge">
<title>11&#45;&gt;1</title>
<path fill="none" stroke="black" d="M519.4,-176.94C536.21,-147.9 574.08,-88.62 621,-54 636.94,-42.24 657.33,-33.88 674.67,-28.29"/>
<polygon fill="black" stroke="black" points="675.54,-31.68 684.1,-25.44 673.51,-24.98 675.54,-31.68"/>
<text text-anchor="middle" x="589.81" y="-101.45" font-family="Times,serif" font-size="14.00">10</text>
</g>
<!-- 11&#45;&gt;4 -->
<g id="edge29" class="edge">
<title>11&#45;&gt;4</title>
<path fill="none" stroke="black" d="M470.2,-178.13C433.07,-163.33 377.7,-141.26 338.76,-125.74"/>
<polygon fill="black" stroke="black" points="340.23,-122.56 329.65,-122.11 337.64,-129.06 340.23,-122.56"/>
<text text-anchor="middle" x="424.31" y="-145.7" font-family="Times,serif" font-size="14.00">8</text>
</g>
<!-- 12&#45;&gt;1 -->
<g id="edge30" class="edge">
<title>12&#45;&gt;1</title>
<path fill="none" stroke="black" d="M1080.79,-781.29C1075.48,-762.18 1068,-730.3 1068,-702.25 1068,-702.25 1068,-702.25 1068,-105.5 1068,-40.51 841.71,-24.18 749.45,-20.22"/>
<polygon fill="black" stroke="black" points="749.77,-16.73 739.64,-19.82 749.49,-23.72 749.77,-16.73"/>
<text text-anchor="middle" x="1071.38" y="-411.2" font-family="Times,serif" font-size="14.00">8</text>
</g>
<!-- 13 -->
<g id="node14" class="node">
<title>13</title>
<ellipse fill="none" stroke="black" cx="1333" cy="-106.5" rx="109.7" ry="18"/>
<text text-anchor="middle" x="1333" y="-101.45" font-family="Times,serif" font-size="14.00">Change Delivery Indicator</text>
</g>
<!-- 13&#45;&gt;1 -->
<g id="edge32" class="edge">
<title>13&#45;&gt;1</title>
<path fill="none" stroke="black" d="M1301.07,-88.86C1276.58,-76.94 1241.56,-61.69 1209,-54 1121.86,-33.42 851.02,-23.26 749.74,-20.11"/>
<polygon fill="black" stroke="black" points="749.87,-16.61 739.76,-19.8 749.65,-23.61 749.87,-16.61"/>
<text text-anchor="middle" x="1261.39" y="-57.2" font-family="Times,serif" font-size="14.00">1</text>
</g>
<!-- 14&#45;&gt;3 -->
<g id="edge44" class="edge">
<title>14&#45;&gt;3</title>
<path fill="none" stroke="black" d="M168.52,-442.62C190.5,-429.13 221.49,-410.12 245.53,-395.38"/>
<polygon fill="black" stroke="black" points="247.04,-398.55 253.74,-390.34 243.38,-392.58 247.04,-398.55"/>
<text text-anchor="middle" x="230.88" y="-411.2" font-family="Times,serif" font-size="14.00">46</text>
</g>
<!-- 14&#45;&gt;6 -->
<g id="edge36" class="edge">
<title>14&#45;&gt;6</title>
<path fill="none" stroke="black" d="M141.63,-478.73C142.22,-496.19 143,-523.97 143,-548 143,-943 143,-943 143,-943 143,-995.02 198.02,-1016.52 252.27,-1025.09"/>
<polygon fill="black" stroke="black" points="251.56,-1028.52 261.95,-1026.46 252.54,-1021.59 251.56,-1028.52"/>
<text text-anchor="middle" x="149.75" y="-740.45" font-family="Times,serif" font-size="14.00">34</text>
</g>
<!-- 15&#45;&gt;1 -->
<g id="edge59" class="edge">
<title>15&#45;&gt;1</title>
<path fill="none" stroke="black" d="M666.65,-835.26C661.26,-810.11 654.75,-762.55 672,-727.5 677.73,-715.85 687.18,-719.86 695,-709.5 714.23,-683.99 726.81,-665.52 709,-639 697.22,-621.46 676.78,-638.54 665,-621 656.08,-607.72 662.48,-600.8 665,-585 683.9,-466.65 749,-448.6 749,-328.75 749,-328.75 749,-328.75 749,-105.5 749,-83.49 738.56,-60.8 728.63,-44.18"/>
<polygon fill="black" stroke="black" points="731.73,-42.53 723.42,-35.95 725.81,-46.27 731.73,-42.53"/>
<text text-anchor="middle" x="743.38" y="-411.2" font-family="Times,serif" font-size="14.00">18</text>
</g>
<!-- 15&#45;&gt;2 -->
<g id="edge46" class="edge">
<title>15&#45;&gt;2</title>
<path fill="none" stroke="black" d="M646.22,-835.73C638.78,-830.26 630.8,-823.93 624,-817.5 564.05,-760.8 550.09,-744.1 505,-675 484.27,-643.22 465.7,-603.54 454.4,-577.52"/>
<polygon fill="black" stroke="black" points="457.76,-576.48 450.62,-568.66 451.33,-579.23 457.76,-576.48"/>
<text text-anchor="middle" x="534.02" y="-696.2" font-family="Times,serif" font-size="14.00">36</text>
</g>
<!-- 15&#45;&gt;6 -->
<g id="edge45" class="edge">
<title>15&#45;&gt;6</title>
<path fill="none" stroke="black" d="M630.07,-870.71C601.54,-883.05 563.4,-901.68 533.5,-924 498.98,-949.77 503.46,-971.57 467,-994.5 455.22,-1001.91 441.74,-1007.87 428.34,-1012.63"/>
<polygon fill="black" stroke="black" points="427.47,-1009.23 419.09,-1015.71 429.68,-1015.87 427.47,-1009.23"/>
<text text-anchor="middle" x="540.25" y="-936.95" font-family="Times,serif" font-size="14.00">61</text>
</g>
<!-- 15&#45;&gt;9 -->
<g id="edge50" class="edge">
<title>15&#45;&gt;9</title>
<path fill="none" stroke="black" d="M651.67,-835.56C646.77,-830.27 642.04,-824.08 639,-817.5 619.4,-775.04 619.95,-719.46 622.63,-686.37"/>
<polygon fill="black" stroke="black" points="626.08,-687.05 623.54,-676.77 619.11,-686.39 626.08,-687.05"/>
<text text-anchor="middle" x="627.27" y="-740.45" font-family="Times,serif" font-size="14.00">3</text>
</g>
<!-- 15&#45;&gt;10 -->
<g id="edge43" class="edge">
<title>15&#45;&gt;10</title>
<path fill="none" stroke="black" d="M691.08,-835.47C711.68,-818.01 743.9,-790.68 767.21,-770.92"/>
<polygon fill="black" stroke="black" points="769.45,-773.6 774.81,-764.47 764.92,-768.27 769.45,-773.6"/>
<text text-anchor="middle" x="755.38" y="-794.45" font-family="Times,serif" font-size="14.00">5</text>
</g>
<!-- 16&#45;&gt;7 -->
<g id="edge52" class="edge">
<title>16&#45;&gt;7</title>
<path fill="none" stroke="black" d="M743.68,-1101.51C720.4,-1090.26 693.55,-1072.92 679,-1048.5 665.21,-1025.36 664.6,-994.11 666.58,-971.64"/>
<polygon fill="black" stroke="black" points="670.03,-972.3 667.68,-961.97 663.08,-971.52 670.03,-972.3"/>
<text text-anchor="middle" x="692.5" y="-1025.45" font-family="Times,serif" font-size="14.00">1391</text>
</g>
<!-- 18 -->
<g id="node19" class="node">
<title>18</title>
<ellipse fill="none" stroke="black" cx="835" cy="-1030.5" rx="120.45" ry="18"/>
<text text-anchor="middle" x="835" y="-1025.45" font-family="Times,serif" font-size="14.00">Release Purchase Requisition</text>
</g>
<!-- 16&#45;&gt;18 -->
<g id="edge60" class="edge">
<title>16&#45;&gt;18</title>
<path fill="none" stroke="black" d="M796.48,-1100.91C803.15,-1088.9 812.2,-1072.59 819.85,-1058.8"/>
<polygon fill="black" stroke="black" points="822.85,-1060.62 824.64,-1050.17 816.73,-1057.22 822.85,-1060.62"/>
<text text-anchor="middle" x="825.42" y="-1069.7" font-family="Times,serif" font-size="14.00">117</text>
</g>
<!-- 17&#45;&gt;1 -->
<g id="edge55" class="edge">
<title>17&#45;&gt;1</title>
<path fill="none" stroke="black" d="M811.53,-584.69C807.99,-565.49 803,-533.54 803,-505.75 803,-505.75 803,-505.75 803,-105.5 803,-71.82 769.88,-47.42 743.38,-33.28"/>
<polygon fill="black" stroke="black" points="745.13,-30.24 734.62,-28.88 741.98,-36.5 745.13,-30.24"/>
<text text-anchor="middle" x="809.75" y="-322.7" font-family="Times,serif" font-size="14.00">11</text>
</g>
<!-- 18&#45;&gt;7 -->
<g id="edge61" class="edge">
<title>18&#45;&gt;7</title>
<path fill="none" stroke="black" d="M803.38,-1012.82C777.6,-999.22 740.97,-979.9 712.77,-965.03"/>
<polygon fill="black" stroke="black" points="714.62,-962.05 704.14,-960.48 711.35,-968.24 714.62,-962.05"/>
<text text-anchor="middle" x="777.81" y="-981.2" font-family="Times,serif" font-size="14.00">142</text>
</g>
</g>
</svg>
