<?xml version="1.0" encoding="UTF-8" standalone="no"?>
<!DOCTYPE svg PUBLIC "-//W3C//DTD SVG 1.1//EN"
 "http://www.w3.org/Graphics/SVG/1.1/DTD/svg11.dtd">
<!-- Generated by graphviz version 12.2.1 (20241206.2353)
 -->
<!-- Pages: 1 -->
<svg width="2028pt" height="1215pt"
 viewBox="0.00 0.00 2028.00 1214.50" xmlns="http://www.w3.org/2000/svg" xmlns:xlink="http://www.w3.org/1999/xlink">
<g id="graph0" class="graph" transform="scale(1 1) rotate(0) translate(4 1210.5)">
<polygon fill="white" stroke="none" points="-4,4 -4,-1210.5 2024,-1210.5 2024,4 -4,4"/>
<g id="clust1" class="cluster">
<title>cluster_legend</title>
<polygon fill="none" stroke="#bdbdbd" stroke-dasharray="5,2" points="1704,-1054 1704,-1198.5 2012,-1198.5 2012,-1054 1704,-1054"/>
</g>
<!-- 0 -->
<g id="node1" class="node">
<title>0</title>
<ellipse fill="none" stroke="black" cx="480" cy="-372" rx="93.83" ry="18"/>
<text text-anchor="middle" x="480" y="-366.95" font-family="Times,serif" font-size="14.00">Cancel Goods Receipt</text>
</g>
<!-- 23 -->
<g id="node24" class="node">
<title>23</title>
<ellipse fill="none" stroke="black" cx="1269" cy="-18" rx="27" ry="18"/>
<text text-anchor="middle" x="1269" y="-12.95" font-family="Times,serif" font-size="14.00">■</text>
</g>
<!-- 0&#45;&gt;23 -->
<g id="edge53" class="edge">
<title>0&#45;&gt;23</title>
<path fill="none" stroke="#ffb300" stroke-width="2.5" stroke-dasharray="5,2" d="M489.17,-353.64C497.33,-336.54 508,-309.44 508,-284.5 508,-284.5 508,-284.5 508,-105.5 508,-63.21 547.75,-66.97 588,-54 648.81,-34.41 1091.26,-22.97 1228.51,-19.87"/>
<polygon fill="#ffb300" stroke="#ffb300" stroke-width="2.5" points="1228.2,-23.37 1238.12,-19.65 1228.05,-16.38 1228.2,-23.37"/>
<text text-anchor="start" x="508" y="-189.95" font-family="Times,serif" font-size="14.00" fill="#0c8599">&#45;100%</text>
</g>
<!-- 1 -->
<g id="node2" class="node">
<title>1</title>
<ellipse fill="none" stroke="black" cx="1596" cy="-1126.25" rx="97.41" ry="18"/>
<text text-anchor="middle" x="1596" y="-1121.2" font-family="Times,serif" font-size="14.00">Cancel Invoice Receipt</text>
</g>
<!-- 6 -->
<g id="node7" class="node">
<title>6</title>
<ellipse fill="none" stroke="black" cx="1374" cy="-991.5" rx="61.08" ry="18"/>
<text text-anchor="middle" x="1374" y="-986.45" font-family="Times,serif" font-size="14.00">Clear Invoice</text>
</g>
<!-- 1&#45;&gt;6 -->
<g id="edge29" class="edge">
<title>1&#45;&gt;6</title>
<path fill="none" stroke="#9e9e9e" d="M1568.33,-1108.71C1528.33,-1084.78 1454.29,-1040.51 1410.05,-1014.06"/>
<polygon fill="#9e9e9e" stroke="#9e9e9e" points="1411.96,-1011.12 1401.58,-1008.99 1408.37,-1017.13 1411.96,-1011.12"/>
<text text-anchor="start" x="1458.59" y="-1030.7" font-family="Times,serif" font-size="14.00" fill="#0c8599">&#45;62%</text>
</g>
<!-- 12 -->
<g id="node13" class="node">
<title>12</title>
<ellipse fill="none" stroke="black" cx="1321" cy="-903" rx="98.44" ry="18"/>
<text text-anchor="middle" x="1321" y="-897.95" font-family="Times,serif" font-size="14.00">Record Invoice Receipt</text>
</g>
<!-- 1&#45;&gt;12 -->
<g id="edge68" class="edge">
<title>1&#45;&gt;12</title>
<path fill="none" stroke="#e53935" stroke-width="2.5" stroke-dasharray="5,2" d="M1588.48,-1108.27C1574.02,-1077.4 1539.51,-1011.76 1492,-973.5 1462.59,-949.81 1424.01,-933.2 1390.95,-922.18"/>
<polygon fill="#e53935" stroke="#e53935" stroke-width="2.5" points="1392.3,-918.94 1381.71,-919.23 1390.17,-925.6 1392.3,-918.94"/>
<text text-anchor="start" x="1527.27" y="-986.45" font-family="Times,serif" font-size="14.00" fill="#555555">—</text>
</g>
<!-- 1&#45;&gt;23 -->
<g id="edge25" class="edge">
<title>1&#45;&gt;23</title>
<path fill="none" stroke="#9e9e9e" d="M1611.66,-1108.26C1632.02,-1084.33 1665,-1038.47 1665,-992.5 1665,-992.5 1665,-992.5 1665,-105.5 1665,-32.81 1407.08,-21.11 1307.54,-19.3"/>
<polygon fill="#9e9e9e" stroke="#9e9e9e" points="1307.78,-15.8 1297.73,-19.15 1307.68,-22.8 1307.78,-15.8"/>
<text text-anchor="start" x="1665" y="-543.95" font-family="Times,serif" font-size="14.00" fill="#0c8599">&#45;60%</text>
</g>
<!-- 2 -->
<g id="node3" class="node">
<title>2</title>
<ellipse fill="none" stroke="black" cx="779" cy="-195" rx="149.11" ry="18"/>
<text text-anchor="middle" x="779" y="-189.95" font-family="Times,serif" font-size="14.00">Change Approval for Purchase Order</text>
</g>
<!-- 10 -->
<g id="node11" class="node">
<title>10</title>
<ellipse fill="none" stroke="black" cx="1115" cy="-106.5" rx="117.37" ry="18"/>
<text text-anchor="middle" x="1115" y="-101.45" font-family="Times,serif" font-size="14.00">Receive Order Confirmation</text>
</g>
<!-- 2&#45;&gt;10 -->
<g id="edge70" class="edge">
<title>2&#45;&gt;10</title>
<path fill="none" stroke="#e53935" stroke-width="2.5" stroke-dasharray="5,2" d="M823.57,-177.45C854.24,-166.48 896.09,-152.36 933.75,-142.5 962.66,-134.93 994.55,-128.24 1023.42,-122.78"/>
<polygon fill="#e53935" stroke="#e53935" stroke-width="2.5" points="1023.97,-126.24 1033.16,-120.97 1022.69,-119.35 1023.97,-126.24"/>
<text text-anchor="start" x="933.75" y="-145.7" font-family="Times,serif" font-size="14.00" fill="#555555">—</text>
</g>
<!-- 2&#45;&gt;23 -->
<g id="edge48" class="edge">
<title>2&#45;&gt;23</title>
<path fill="none" stroke="#9e9e9e" d="M794.05,-177.01C822.33,-146.39 886.79,-82.47 956,-54 1004.86,-33.9 1158.3,-24.2 1230.6,-20.66"/>
<polygon fill="#9e9e9e" stroke="#9e9e9e" points="1230.55,-24.16 1240.38,-20.19 1230.22,-17.17 1230.55,-24.16"/>
<text text-anchor="start" x="893.42" y="-101.45" font-family="Times,serif" font-size="14.00" fill="#0c8599">&#45;91%</text>
</g>
<!-- 3 -->
<g id="node4" class="node">
<title>3</title>
<ellipse fill="none" stroke="black" cx="1803" cy="-106.5" rx="109.7" ry="18"/>
<text text-anchor="middle" x="1803" y="-101.45" font-family="Times,serif" font-size="14.00">Change Delivery Indicator</text>
</g>
<!-- 3&#45;&gt;23 -->
<g id="edge31" class="edge">
<title>3&#45;&gt;23</title>
<path fill="none" stroke="#9e9e9e" d="M1770.78,-88.88C1746.28,-77.05 1711.38,-61.9 1679,-54 1545.54,-21.43 1381.25,-18.04 1307.74,-18.37"/>
<polygon fill="#9e9e9e" stroke="#9e9e9e" points="1307.81,-14.87 1297.84,-18.45 1307.87,-21.87 1307.81,-14.87"/>
<text text-anchor="start" x="1727.97" y="-57.2" font-family="Times,serif" font-size="14.00" fill="#555555">0%</text>
</g>
<!-- 4 -->
<g id="node5" class="node">
<title>4</title>
<ellipse fill="none" stroke="black" cx="1321" cy="-814.5" rx="60.56" ry="18"/>
<text text-anchor="middle" x="1321" y="-809.45" font-family="Times,serif" font-size="14.00">Change Price</text>
</g>
<!-- 11 -->
<g id="node12" class="node">
<title>11</title>
<ellipse fill="none" stroke="black" cx="1212" cy="-726" rx="94.86" ry="18"/>
<text text-anchor="middle" x="1212" y="-720.95" font-family="Times,serif" font-size="14.00">Record Goods Receipt</text>
</g>
<!-- 4&#45;&gt;11 -->
<g id="edge28" class="edge">
<title>4&#45;&gt;11</title>
<path fill="none" stroke="#9e9e9e" d="M1300.5,-797.23C1284.04,-784.17 1260.69,-765.64 1242.11,-750.89"/>
<polygon fill="#9e9e9e" stroke="#9e9e9e" points="1244.35,-748.2 1234.34,-744.73 1240,-753.69 1244.35,-748.2"/>
<text text-anchor="start" x="1276.26" y="-765.2" font-family="Times,serif" font-size="14.00" fill="#e8590c">+40%</text>
</g>
<!-- 14 -->
<g id="node15" class="node">
<title>14</title>
<ellipse fill="none" stroke="black" cx="1439" cy="-637.5" rx="102.02" ry="18"/>
<text text-anchor="middle" x="1439" y="-632.45" font-family="Times,serif" font-size="14.00">Remove Payment Block</text>
</g>
<!-- 4&#45;&gt;14 -->
<g id="edge15" class="edge">
<title>4&#45;&gt;14</title>
<path fill="none" stroke="#9e9e9e" d="M1332.53,-796.4C1353.15,-765.82 1396.48,-701.56 1421.03,-665.15"/>
<polygon fill="#9e9e9e" stroke="#9e9e9e" points="1423.89,-667.17 1426.58,-656.92 1418.09,-663.26 1423.89,-667.17"/>
<text text-anchor="start" x="1391.73" y="-720.95" font-family="Times,serif" font-size="14.00" fill="#0c8599">&#45;79%</text>
</g>
<!-- 22 -->
<g id="node23" class="node">
<title>22</title>
<ellipse fill="none" stroke="black" cx="885" cy="-549" rx="95.37" ry="18"/>
<text text-anchor="middle" x="885" y="-543.95" font-family="Times,serif" font-size="14.00">Vendor creates invoice</text>
</g>
<!-- 4&#45;&gt;22 -->
<g id="edge34" class="edge">
<title>4&#45;&gt;22</title>
<path fill="none" stroke="#9e9e9e" d="M1278.22,-801.41C1160.07,-767.83 837,-674.62 823,-655.5 803.58,-628.97 830.3,-595.96 854.47,-574"/>
<polygon fill="#9e9e9e" stroke="#9e9e9e" points="856.44,-576.92 861.69,-567.72 851.85,-571.64 856.44,-576.92"/>
<text text-anchor="start" x="905.86" y="-676.7" font-family="Times,serif" font-size="14.00" fill="#e8590c">+433%</text>
</g>
<!-- 4&#45;&gt;23 -->
<g id="edge60" class="edge">
<title>4&#45;&gt;23</title>
<path fill="none" stroke="#ffb300" stroke-width="2.5" stroke-dasharray="5,2" d="M1359.31,-800.16C1413.29,-779.04 1509.63,-732.23 1550,-655.5 1564.62,-627.72 1555,-404.39 1555,-373 1555,-373 1555,-373 1555,-105.5 1555,-54.83 1388.48,-31.13 1309.56,-22.73"/>
<polygon fill="#ffb300" stroke="#ffb300" stroke-width="2.5" points="1309.97,-19.26 1299.67,-21.73 1309.26,-26.22 1309.97,-19.26"/>
<text text-anchor="start" x="1556.22" y="-411.2" font-family="Times,serif" font-size="14.00" fill="#0c8599">&#45;100%</text>
</g>
<!-- 5 -->
<g id="node6" class="node">
<title>5</title>
<ellipse fill="none" stroke="black" cx="1004" cy="-372" rx="73.87" ry="18"/>
<text text-anchor="middle" x="1004" y="-366.95" font-family="Times,serif" font-size="14.00">Change Quantity</text>
</g>
<!-- 9 -->
<g id="node10" class="node">
<title>9</title>
<ellipse fill="none" stroke="black" cx="966" cy="-283.5" rx="114.82" ry="18"/>
<text text-anchor="middle" x="966" y="-278.45" font-family="Times,serif" font-size="14.00">Delete Purchase Order Item</text>
</g>
<!-- 5&#45;&gt;9 -->
<g id="edge58" class="edge">
<title>5&#45;&gt;9</title>
<path fill="none" stroke="#ffb300" stroke-width="2.5" stroke-dasharray="5,2" d="M1004.14,-353.6C1003.62,-343.28 1001.89,-330.16 997,-319.5 995.88,-317.07 994.54,-314.68 993.05,-312.36"/>
<polygon fill="#ffb300" stroke="#ffb300" stroke-width="2.5" points="995.88,-310.31 987,-304.54 990.35,-314.59 995.88,-310.31"/>
<text text-anchor="start" x="1002.02" y="-322.7" font-family="Times,serif" font-size="14.00" fill="#0c8599">&#45;100%</text>
</g>
<!-- 5&#45;&gt;11 -->
<g id="edge19" class="edge">
<title>5&#45;&gt;11</title>
<path fill="none" stroke="#9e9e9e" d="M1026.74,-389.55C1073.58,-425.24 1179.74,-514.75 1219,-619.5 1228.3,-644.3 1224.89,-674.66 1220.15,-696.43"/>
<polygon fill="#9e9e9e" stroke="#9e9e9e" points="1216.76,-695.54 1217.8,-706.08 1223.56,-697.19 1216.76,-695.54"/>
<text text-anchor="start" x="1192.77" y="-543.95" font-family="Times,serif" font-size="14.00" fill="#e8590c">+6%</text>
</g>
<!-- 5&#45;&gt;22 -->
<g id="edge23" class="edge">
<title>5&#45;&gt;22</title>
<path fill="none" stroke="#9e9e9e" d="M960.84,-387.01C935.05,-397.82 904.32,-415.56 888.5,-442.5 874.89,-465.67 875.72,-496.91 878.92,-519.38"/>
<polygon fill="#9e9e9e" stroke="#9e9e9e" points="875.44,-519.77 880.55,-529.05 882.34,-518.61 875.44,-519.77"/>
<text text-anchor="start" x="888.5" y="-455.45" font-family="Times,serif" font-size="14.00" fill="#e8590c">+225%</text>
</g>
<!-- 5&#45;&gt;23 -->
<g id="edge46" class="edge">
<title>5&#45;&gt;23</title>
<path fill="none" stroke="#9e9e9e" d="M1046.42,-356.88C1058.95,-351.51 1072.19,-344.58 1083,-336 1116.61,-309.31 1121.23,-372.38 1241,-124.5 1252.96,-99.74 1260.36,-69.15 1264.53,-47.29"/>
<polygon fill="#9e9e9e" stroke="#9e9e9e" points="1267.94,-48.09 1266.25,-37.63 1261.05,-46.86 1267.94,-48.09"/>
<text text-anchor="start" x="1213.67" y="-189.95" font-family="Times,serif" font-size="14.00" fill="#0c8599">&#45;86%</text>
</g>
<!-- 6&#45;&gt;6 -->
<g id="edge14" class="edge">
<title>6&#45;&gt;6</title>
<path fill="none" stroke="#9e9e9e" d="M1429.06,-999.68C1442.8,-999.11 1453.08,-996.38 1453.08,-991.5 1453.08,-988.1 1448.11,-985.75 1440.46,-984.44"/>
<polygon fill="#9e9e9e" stroke="#9e9e9e" points="1440.86,-980.96 1430.57,-983.47 1440.18,-987.93 1440.86,-980.96"/>
<text text-anchor="start" x="1453.08" y="-986.45" font-family="Times,serif" font-size="14.00" fill="#0c8599">&#45;67%</text>
</g>
<!-- 6&#45;&gt;12 -->
<g id="edge27" class="edge">
<title>6&#45;&gt;12</title>
<path fill="none" stroke="#9e9e9e" d="M1339.33,-976.29C1330.85,-971.06 1322.84,-964.22 1318,-955.5 1314.19,-948.63 1313.35,-940.43 1313.88,-932.61"/>
<polygon fill="#9e9e9e" stroke="#9e9e9e" points="1317.33,-933.16 1315.32,-922.76 1310.41,-932.15 1317.33,-933.16"/>
<text text-anchor="start" x="1318" y="-942.2" font-family="Times,serif" font-size="14.00" fill="#0c8599">&#45;75%</text>
</g>
<!-- 6&#45;&gt;23 -->
<g id="edge3" class="edge">
<title>6&#45;&gt;23</title>
<path fill="none" stroke="#9e9e9e" d="M1312.74,-989.9C1046.11,-986.87 0,-970.74 0,-904 0,-904 0,-904 0,-105.5 0,-42.24 1017,-22.92 1230.12,-19.57"/>
<polygon fill="#9e9e9e" stroke="#9e9e9e" points="1230.15,-23.07 1240.1,-19.41 1230.05,-16.07 1230.15,-23.07"/>
<text text-anchor="start" x="0" y="-499.7" font-family="Times,serif" font-size="14.00" fill="#0c8599">&#45;79%</text>
</g>
<!-- 7 -->
<g id="node8" class="node">
<title>7</title>
<ellipse fill="none" stroke="black" cx="676" cy="-460.5" rx="114.82" ry="18"/>
<text text-anchor="middle" x="676" y="-455.45" font-family="Times,serif" font-size="14.00">Create Purchase Order Item</text>
</g>
<!-- 7&#45;&gt;0 -->
<g id="edge32" class="edge">
<title>7&#45;&gt;0</title>
<path fill="none" stroke="#9e9e9e" d="M614.4,-444.94C595.85,-439.58 575.72,-432.76 558,-424.5 541.63,-416.87 524.75,-406.14 510.89,-396.45"/>
<polygon fill="#9e9e9e" stroke="#9e9e9e" points="513.23,-393.82 503.06,-390.83 509.15,-399.5 513.23,-393.82"/>
<text text-anchor="start" x="558" y="-411.2" font-family="Times,serif" font-size="14.00" fill="#0c8599">&#45;67%</text>
</g>
<!-- 7&#45;&gt;2 -->
<g id="edge69" class="edge">
<title>7&#45;&gt;2</title>
<path fill="none" stroke="#e53935" stroke-width="2.5" stroke-dasharray="5,2" d="M682.76,-442.21C699.96,-398.2 745.59,-281.48 767.26,-226.04"/>
<polygon fill="#e53935" stroke="#e53935" stroke-width="2.5" points="770.46,-227.46 770.84,-216.88 763.94,-224.92 770.46,-227.46"/>
<text text-anchor="start" x="729.88" y="-322.7" font-family="Times,serif" font-size="14.00" fill="#555555">—</text>
</g>
<!-- 7&#45;&gt;4 -->
<g id="edge37" class="edge">
<title>7&#45;&gt;4</title>
<path fill="none" stroke="#9e9e9e" d="M677,-478.86C680.1,-516.3 692.56,-605.28 742.25,-655.5 872.7,-787.33 958.36,-746.29 1141,-778.5 1191.51,-787.41 1204.77,-786.09 1255,-796.5 1258.76,-797.28 1262.63,-798.14 1266.53,-799.04"/>
<polygon fill="#9e9e9e" stroke="#9e9e9e" points="1265.46,-802.38 1276,-801.31 1267.09,-795.57 1265.46,-802.38"/>
<text text-anchor="start" x="742.25" y="-632.45" font-family="Times,serif" font-size="14.00" fill="#e8590c">+39%</text>
</g>
<!-- 7&#45;&gt;5 -->
<g id="edge36" class="edge">
<title>7&#45;&gt;5</title>
<path fill="none" stroke="#9e9e9e" d="M746.04,-445.93C767.11,-440.61 789.95,-433.55 810,-424.5 821.97,-419.1 822.4,-413.09 834.5,-408 863.6,-395.76 897.37,-387.67 927.07,-382.39"/>
<polygon fill="#9e9e9e" stroke="#9e9e9e" points="927.47,-385.87 936.75,-380.75 926.3,-378.97 927.47,-385.87"/>
<text text-anchor="start" x="834.5" y="-411.2" font-family="Times,serif" font-size="14.00" fill="#e8590c">+106%</text>
</g>
<!-- 7&#45;&gt;9 -->
<g id="edge30" class="edge">
<title>7&#45;&gt;9</title>
<path fill="none" stroke="#9e9e9e" d="M704.07,-442.56C756.61,-410.86 869.8,-342.55 928.69,-307.02"/>
<polygon fill="#9e9e9e" stroke="#9e9e9e" points="930.29,-310.14 937.04,-301.97 926.67,-304.14 930.29,-310.14"/>
<text text-anchor="start" x="849.83" y="-366.95" font-family="Times,serif" font-size="14.00" fill="#e8590c">+73%</text>
</g>
<!-- 7&#45;&gt;10 -->
<g id="edge39" class="edge">
<title>7&#45;&gt;10</title>
<path fill="none" stroke="#9e9e9e" d="M717.09,-443.27C740.61,-431.86 768.61,-414.27 785,-390 816.5,-343.35 779.12,-313.67 808.25,-265.5 821.06,-244.31 829.58,-241.51 852,-231 886.97,-214.61 901.02,-227.03 937,-213 965.8,-201.77 1036.32,-157.96 1079.45,-130.45"/>
<polygon fill="#9e9e9e" stroke="#9e9e9e" points="1081.19,-133.5 1087.72,-125.16 1077.41,-127.6 1081.19,-133.5"/>
<text text-anchor="start" x="808.25" y="-278.45" font-family="Times,serif" font-size="14.00" fill="#e8590c">+52%</text>
</g>
<!-- 7&#45;&gt;11 -->
<g id="edge9" class="edge">
<title>7&#45;&gt;11</title>
<path fill="none" stroke="#9e9e9e" d="M683.72,-478.89C701.87,-517.58 751.21,-610.9 823,-655.5 848.36,-671.26 1019.12,-697.72 1125.8,-713.05"/>
<polygon fill="#9e9e9e" stroke="#9e9e9e" points="1124.98,-716.47 1135.38,-714.42 1125.97,-709.54 1124.98,-716.47"/>
<text text-anchor="start" x="760.43" y="-588.2" font-family="Times,serif" font-size="14.00" fill="#e8590c">+397%</text>
</g>
<!-- 7&#45;&gt;12 -->
<g id="edge35" class="edge">
<title>7&#45;&gt;12</title>
<path fill="none" stroke="#9e9e9e" d="M663.26,-478.75C638.51,-513.45 584.71,-595.09 565.5,-673.5 543.72,-762.4 557.88,-819.3 636,-867 683.69,-896.13 1029.78,-901.36 1210.99,-902.07"/>
<polygon fill="#9e9e9e" stroke="#9e9e9e" points="1210.9,-905.57 1220.91,-902.11 1210.92,-898.57 1210.9,-905.57"/>
<text text-anchor="start" x="565.5" y="-676.7" font-family="Times,serif" font-size="14.00" fill="#e8590c">+111%</text>
</g>
<!-- 7&#45;&gt;22 -->
<g id="edge10" class="edge">
<title>7&#45;&gt;22</title>
<path fill="none" stroke="#9e9e9e" d="M705.74,-478.35C725.44,-489.1 752.05,-502.87 776.5,-513 791.43,-519.19 807.88,-524.99 823.35,-530.02"/>
<polygon fill="#9e9e9e" stroke="#9e9e9e" points="821.84,-533.21 832.43,-532.92 823.97,-526.54 821.84,-533.21"/>
<text text-anchor="start" x="776.5" y="-499.7" font-family="Times,serif" font-size="14.00" fill="#e8590c">+297%</text>
</g>
<!-- 7&#45;&gt;23 -->
<g id="edge43" class="edge">
<title>7&#45;&gt;23</title>
<path fill="none" stroke="#9e9e9e" d="M648.45,-442.54C627.41,-427.25 602,-402.64 602,-373 602,-373 602,-373 602,-105.5 602,-41.68 1088.37,-23.78 1230.46,-19.91"/>
<polygon fill="#9e9e9e" stroke="#9e9e9e" points="1230.19,-23.42 1240.1,-19.66 1230.01,-16.42 1230.19,-23.42"/>
<text text-anchor="start" x="602" y="-234.2" font-family="Times,serif" font-size="14.00" fill="#0c8599">&#45;75%</text>
</g>
<!-- 8 -->
<g id="node9" class="node">
<title>8</title>
<ellipse fill="none" stroke="black" cx="314" cy="-637.5" rx="135.8" ry="18"/>
<text text-anchor="middle" x="314" y="-632.45" font-family="Times,serif" font-size="14.00">Create Purchase Requisition Item</text>
</g>
<!-- 8&#45;&gt;7 -->
<g id="edge45" class="edge">
<title>8&#45;&gt;7</title>
<path fill="none" stroke="#9e9e9e" d="M279.26,-619.64C241.43,-599.06 189.74,-563.06 217.25,-531 259.41,-481.87 429.47,-467.04 550.21,-462.8"/>
<polygon fill="#9e9e9e" stroke="#9e9e9e" points="549.97,-466.31 559.85,-462.48 549.74,-459.31 549.97,-466.31"/>
<text text-anchor="start" x="217.25" y="-543.95" font-family="Times,serif" font-size="14.00" fill="#e8590c">+63%</text>
</g>
<!-- 13 -->
<g id="node14" class="node">
<title>13</title>
<ellipse fill="none" stroke="black" cx="380" cy="-549" rx="120.45" ry="18"/>
<text text-anchor="middle" x="380" y="-543.95" font-family="Times,serif" font-size="14.00">Release Purchase Requisition</text>
</g>
<!-- 8&#45;&gt;13 -->
<g id="edge51" class="edge">
<title>8&#45;&gt;13</title>
<path fill="none" stroke="#9e9e9e" d="M327.04,-619.41C336.38,-607.17 349.14,-590.45 359.79,-576.49"/>
<polygon fill="#9e9e9e" stroke="#9e9e9e" points="362.56,-578.63 365.84,-568.55 357,-574.38 362.56,-578.63"/>
<text text-anchor="start" x="352.91" y="-588.2" font-family="Times,serif" font-size="14.00" fill="#0c8599">&#45;98%</text>
</g>
<!-- 9&#45;&gt;2 -->
<g id="edge47" class="edge">
<title>9&#45;&gt;2</title>
<path fill="none" stroke="#9e9e9e" d="M930.39,-266.03C900.65,-252.27 858.03,-232.56 825.59,-217.55"/>
<polygon fill="#9e9e9e" stroke="#9e9e9e" points="827.36,-214.51 816.81,-213.49 824.42,-220.87 827.36,-214.51"/>
<text text-anchor="start" x="889.25" y="-234.2" font-family="Times,serif" font-size="14.00" fill="#0c8599">&#45;91%</text>
</g>
<!-- 9&#45;&gt;5 -->
<g id="edge61" class="edge">
<title>9&#45;&gt;5</title>
<path fill="none" stroke="#ffb300" stroke-width="2.5" stroke-dasharray="5,2" d="M957.53,-301.5C953.58,-311.93 950.82,-325.29 956.25,-336 958.14,-339.73 960.64,-343.16 963.5,-346.29"/>
<polygon fill="#ffb300" stroke="#ffb300" stroke-width="2.5" points="960.96,-348.71 970.76,-352.75 965.61,-343.48 960.96,-348.71"/>
<text text-anchor="start" x="956.25" y="-322.7" font-family="Times,serif" font-size="14.00" fill="#0c8599">&#45;100%</text>
</g>
<!-- 9&#45;&gt;23 -->
<g id="edge20" class="edge">
<title>9&#45;&gt;23</title>
<path fill="none" stroke="#9e9e9e" d="M962.22,-265.18C955.17,-227.82 944.47,-138.99 989,-88.5 1020.79,-52.46 1162.25,-31.4 1231.1,-23.11"/>
<polygon fill="#9e9e9e" stroke="#9e9e9e" points="1231.26,-26.62 1240.79,-21.98 1230.45,-19.66 1231.26,-26.62"/>
<text text-anchor="start" x="961.87" y="-145.7" font-family="Times,serif" font-size="14.00" fill="#0c8599">&#45;10%</text>
</g>
<!-- 10&#45;&gt;5 -->
<g id="edge59" class="edge">
<title>10&#45;&gt;5</title>
<path fill="none" stroke="#ffb300" stroke-width="2.5" stroke-dasharray="5,2" d="M1114.4,-124.83C1112.71,-166.54 1106.86,-271.34 1090,-301.5 1079.5,-320.29 1061.7,-335.95 1045.01,-347.62"/>
<polygon fill="#ffb300" stroke="#ffb300" stroke-width="2.5" points="1043.32,-344.55 1036.89,-352.97 1047.17,-350.39 1043.32,-344.55"/>
<text text-anchor="start" x="1106.33" y="-234.2" font-family="Times,serif" font-size="14.00" fill="#0c8599">&#45;100%</text>
</g>
<!-- 10&#45;&gt;9 -->
<g id="edge40" class="edge">
<title>10&#45;&gt;9</title>
<path fill="none" stroke="#9e9e9e" d="M1098.91,-124.67C1086.32,-138.41 1068.63,-158.4 1054.5,-177 1031.79,-206.89 1033.02,-219.52 1008,-247.5 1004.8,-251.08 1001.22,-254.62 997.54,-257.98"/>
<polygon fill="#9e9e9e" stroke="#9e9e9e" points="995.31,-255.28 990.04,-264.48 999.89,-260.58 995.31,-255.28"/>
<text text-anchor="start" x="1054.5" y="-189.95" font-family="Times,serif" font-size="14.00" fill="#e8590c">+280%</text>
</g>
<!-- 10&#45;&gt;11 -->
<g id="edge42" class="edge">
<title>10&#45;&gt;11</title>
<path fill="none" stroke="#9e9e9e" d="M1165.02,-123.08C1176.87,-128.14 1188.96,-134.56 1199,-142.5 1238.02,-173.37 1257,-188.5 1257,-238.25 1257,-373 1257,-373 1257,-373 1257,-514.17 1284.29,-556.99 1237,-690 1235.98,-692.87 1234.65,-695.71 1233.14,-698.47"/>
<polygon fill="#9e9e9e" stroke="#9e9e9e" points="1230.34,-696.34 1227.88,-706.65 1236.23,-700.13 1230.34,-696.34"/>
<text text-anchor="start" x="1258.15" y="-411.2" font-family="Times,serif" font-size="14.00" fill="#e8590c">+772%</text>
</g>
<!-- 10&#45;&gt;22 -->
<g id="edge41" class="edge">
<title>10&#45;&gt;22</title>
<path fill="none" stroke="#9e9e9e" d="M1149.8,-124.16C1169.94,-135.86 1193.51,-153.61 1205,-177 1230.51,-228.93 1198.23,-252.8 1167,-301.5 1108.77,-392.28 1085.55,-411.55 1001,-478.5 978.1,-496.64 950.05,-513.56 927.27,-526.17"/>
<polygon fill="#9e9e9e" stroke="#9e9e9e" points="925.65,-523.07 918.54,-530.92 929,-529.21 925.65,-523.07"/>
<text text-anchor="start" x="1155.02" y="-322.7" font-family="Times,serif" font-size="14.00" fill="#e8590c">+115%</text>
</g>
<!-- 10&#45;&gt;23 -->
<g id="edge50" class="edge">
<title>10&#45;&gt;23</title>
<path fill="none" stroke="#9e9e9e" d="M1145.06,-88.62C1172.22,-73.36 1212,-51.02 1239.11,-35.79"/>
<polygon fill="#9e9e9e" stroke="#9e9e9e" points="1240.5,-39.02 1247.51,-31.07 1237.08,-32.92 1240.5,-39.02"/>
<text text-anchor="start" x="1205.79" y="-57.2" font-family="Times,serif" font-size="14.00" fill="#0c8599">&#45;94%</text>
</g>
<!-- 11&#45;&gt;11 -->
<g id="edge17" class="edge">
<title>11&#45;&gt;11</title>
<path fill="none" stroke="#9e9e9e" d="M1298.11,-733.84C1313.83,-732.85 1324.86,-730.23 1324.86,-726 1324.86,-722.89 1318.91,-720.65 1309.52,-719.29"/>
<polygon fill="#9e9e9e" stroke="#9e9e9e" points="1309.91,-715.81 1299.62,-718.31 1309.22,-722.78 1309.91,-715.81"/>
<text text-anchor="start" x="1324.86" y="-720.95" font-family="Times,serif" font-size="14.00" fill="#0c8599">&#45;37%</text>
</g>
<!-- 11&#45;&gt;12 -->
<g id="edge1" class="edge">
<title>11&#45;&gt;12</title>
<path fill="none" stroke="#9e9e9e" d="M1206.8,-744.33C1201.25,-766.33 1195.18,-804.76 1210.5,-832.5 1222.7,-854.59 1245.2,-870.62 1266.73,-881.67"/>
<polygon fill="#9e9e9e" stroke="#9e9e9e" points="1264.94,-884.7 1275.47,-885.89 1267.99,-878.39 1264.94,-884.7"/>
<text text-anchor="start" x="1210.5" y="-809.45" font-family="Times,serif" font-size="14.00" fill="#e8590c">+200%</text>
</g>
<!-- 11&#45;&gt;14 -->
<g id="edge4" class="edge">
<title>11&#45;&gt;14</title>
<path fill="none" stroke="#9e9e9e" d="M1266.56,-710.85C1284.08,-705.39 1303.27,-698.4 1320,-690 1331.32,-684.31 1332.03,-679.39 1343.25,-673.5 1354.52,-667.58 1367.02,-662.22 1379.16,-657.58"/>
<polygon fill="#9e9e9e" stroke="#9e9e9e" points="1380.11,-660.96 1388.28,-654.21 1377.69,-654.39 1380.11,-660.96"/>
<text text-anchor="start" x="1343.25" y="-676.7" font-family="Times,serif" font-size="14.00" fill="#e8590c">+88%</text>
</g>
<!-- 21 -->
<g id="node22" class="node">
<title>21</title>
<ellipse fill="none" stroke="black" cx="945" cy="-637.5" rx="113.28" ry="18"/>
<text text-anchor="middle" x="945" y="-632.45" font-family="Times,serif" font-size="14.00">Vendor creates debit memo</text>
</g>
<!-- 11&#45;&gt;21 -->
<g id="edge57" class="edge">
<title>11&#45;&gt;21</title>
<path fill="none" stroke="#ffb300" stroke-width="2.5" stroke-dasharray="5,2" d="M1138.52,-714.35C1108.46,-708.82 1073.67,-700.89 1043.25,-690 1022.87,-682.71 1001.45,-671.89 983.83,-662.05"/>
<polygon fill="#ffb300" stroke="#ffb300" stroke-width="2.5" points="985.71,-659.1 975.3,-657.17 982.24,-665.17 985.71,-659.1"/>
<text text-anchor="start" x="1043.25" y="-676.7" font-family="Times,serif" font-size="14.00" fill="#0c8599">&#45;100%</text>
</g>
<!-- 11&#45;&gt;22 -->
<g id="edge6" class="edge">
<title>11&#45;&gt;22</title>
<path fill="none" stroke="#9e9e9e" d="M1204.64,-707.82C1190.67,-677.46 1157.23,-614.76 1108,-585 1086.88,-572.23 1032.54,-563.55 982.8,-558.03"/>
<polygon fill="#9e9e9e" stroke="#9e9e9e" points="983.43,-554.58 973.11,-556.99 982.68,-561.54 983.43,-554.58"/>
<text text-anchor="start" x="1174.65" y="-632.45" font-family="Times,serif" font-size="14.00" fill="#e8590c">+104%</text>
</g>
<!-- 11&#45;&gt;23 -->
<g id="edge24" class="edge">
<title>11&#45;&gt;23</title>
<path fill="none" stroke="#9e9e9e" d="M1236.27,-708.36C1242.68,-703.07 1249.16,-696.81 1254,-690 1263.5,-676.65 1262.74,-671.32 1267,-655.5 1283.33,-594.8 1313,-521.19 1313,-373 1313,-373 1313,-373 1313,-105.5 1313,-82.54 1300.53,-59.52 1288.87,-43"/>
<polygon fill="#9e9e9e" stroke="#9e9e9e" points="1291.9,-41.2 1283.11,-35.29 1286.29,-45.4 1291.9,-41.2"/>
<text text-anchor="start" x="1313" y="-366.95" font-family="Times,serif" font-size="14.00" fill="#0c8599">&#45;72%</text>
</g>
<!-- 12&#45;&gt;4 -->
<g id="edge16" class="edge">
<title>12&#45;&gt;4</title>
<path fill="none" stroke="#9e9e9e" d="M1321,-884.91C1321,-873.26 1321,-857.55 1321,-844.02"/>
<polygon fill="#9e9e9e" stroke="#9e9e9e" points="1324.5,-844.36 1321,-834.36 1317.5,-844.36 1324.5,-844.36"/>
<text text-anchor="start" x="1321" y="-853.7" font-family="Times,serif" font-size="14.00" fill="#0c8599">&#45;25%</text>
</g>
<!-- 12&#45;&gt;6 -->
<g id="edge2" class="edge">
<title>12&#45;&gt;6</title>
<path fill="none" stroke="#9e9e9e" d="M1337.95,-920.92C1342.88,-926.4 1348.01,-932.69 1352,-939 1356.59,-946.26 1360.64,-954.64 1363.96,-962.51"/>
<polygon fill="#9e9e9e" stroke="#9e9e9e" points="1360.67,-963.7 1367.61,-971.71 1367.18,-961.12 1360.67,-963.7"/>
<text text-anchor="start" x="1360.73" y="-942.2" font-family="Times,serif" font-size="14.00" fill="#e8590c">+516%</text>
</g>
<!-- 12&#45;&gt;11 -->
<g id="edge11" class="edge">
<title>12&#45;&gt;11</title>
<path fill="none" stroke="#9e9e9e" d="M1345.79,-885.27C1373.34,-864.52 1411.43,-828.05 1391,-796.5 1371.21,-765.95 1335.74,-748.82 1301.57,-739.21"/>
<polygon fill="#9e9e9e" stroke="#9e9e9e" points="1302.56,-735.86 1292,-736.73 1300.81,-742.63 1302.56,-735.86"/>
<text text-anchor="start" x="1396.79" y="-809.45" font-family="Times,serif" font-size="14.00" fill="#e8590c">+150%</text>
</g>
<!-- 12&#45;&gt;12 -->
<g id="edge33" class="edge">
<title>12&#45;&gt;12</title>
<path fill="none" stroke="#9e9e9e" d="M1410.34,-910.81C1426.29,-909.8 1437.44,-907.19 1437.44,-903 1437.44,-899.89 1431.3,-897.65 1421.61,-896.29"/>
<polygon fill="#9e9e9e" stroke="#9e9e9e" points="1422.14,-892.83 1411.84,-895.34 1421.46,-899.79 1422.14,-892.83"/>
<text text-anchor="start" x="1437.44" y="-897.95" font-family="Times,serif" font-size="14.00" fill="#0c8599">&#45;25%</text>
</g>
<!-- 12&#45;&gt;14 -->
<g id="edge12" class="edge">
<title>12&#45;&gt;14</title>
<path fill="none" stroke="#9e9e9e" d="M1371.31,-887.11C1397.36,-876.48 1426.66,-859.23 1441,-832.5 1469.35,-779.67 1457.31,-706.51 1447.34,-666.84"/>
<polygon fill="#9e9e9e" stroke="#9e9e9e" points="1450.77,-666.11 1444.81,-657.35 1444,-667.92 1450.77,-666.11"/>
<text text-anchor="start" x="1458.33" y="-765.2" font-family="Times,serif" font-size="14.00" fill="#e8590c">+91%</text>
</g>
<!-- 12&#45;&gt;22 -->
<g id="edge38" class="edge">
<title>12&#45;&gt;22</title>
<path fill="none" stroke="#9e9e9e" d="M1244.04,-891.38C1097.99,-869.78 788.27,-816.53 711,-744 669.58,-705.12 646.34,-663.73 682,-619.5 705.69,-590.12 729.05,-613 765,-601.5 791,-593.18 819.1,-581.3 841.56,-571.04"/>
<polygon fill="#9e9e9e" stroke="#9e9e9e" points="842.8,-574.32 850.41,-566.94 839.86,-567.97 842.8,-574.32"/>
<text text-anchor="start" x="711" y="-720.95" font-family="Times,serif" font-size="14.00" fill="#0c8599">&#45;47%</text>
</g>
<!-- 12&#45;&gt;23 -->
<g id="edge13" class="edge">
<title>12&#45;&gt;23</title>
<path fill="none" stroke="#9e9e9e" d="M1384.97,-889.02C1401.51,-883.84 1418.67,-876.72 1433,-867 1500.9,-820.95 1607,-615.02 1607,-594.25 1607,-594.25 1607,-594.25 1607,-105.5 1607,-44.26 1396.13,-25.8 1307.5,-20.74"/>
<polygon fill="#9e9e9e" stroke="#9e9e9e" points="1307.77,-17.25 1297.6,-20.21 1307.4,-24.24 1307.77,-17.25"/>
<text text-anchor="start" x="1607" y="-455.45" font-family="Times,serif" font-size="14.00" fill="#0c8599">&#45;85%</text>
</g>
<!-- 13&#45;&gt;7 -->
<g id="edge52" class="edge">
<title>13&#45;&gt;7</title>
<path fill="none" stroke="#9e9e9e" d="M408.66,-531.08C429.04,-519.74 457.42,-505.31 484,-496.5 513.5,-486.72 546.52,-479.46 576.74,-474.16"/>
<polygon fill="#9e9e9e" stroke="#9e9e9e" points="576.96,-477.67 586.24,-472.55 575.79,-470.77 576.96,-477.67"/>
<text text-anchor="start" x="484" y="-499.7" font-family="Times,serif" font-size="14.00" fill="#0c8599">&#45;96%</text>
</g>
<!-- 14&#45;&gt;6 -->
<g id="edge5" class="edge">
<title>14&#45;&gt;6</title>
<path fill="none" stroke="#9e9e9e" d="M1456.74,-655.51C1494.2,-693.59 1575.1,-788.51 1539,-867 1515.8,-917.43 1460.13,-952.09 1419.86,-971.58"/>
<polygon fill="#9e9e9e" stroke="#9e9e9e" points="1418.41,-968.39 1410.83,-975.8 1421.37,-974.73 1418.41,-968.39"/>
<text text-anchor="start" x="1548.06" y="-809.45" font-family="Times,serif" font-size="14.00" fill="#e8590c">+141%</text>
</g>
<!-- 14&#45;&gt;23 -->
<g id="edge49" class="edge">
<title>14&#45;&gt;23</title>
<path fill="none" stroke="#9e9e9e" d="M1428.52,-619.3C1419.19,-602.32 1407,-575.3 1407,-550 1407,-550 1407,-550 1407,-105.5 1407,-57.92 1347.37,-35.51 1306.5,-25.75"/>
<polygon fill="#9e9e9e" stroke="#9e9e9e" points="1307.28,-22.33 1296.76,-23.59 1305.77,-29.17 1307.28,-22.33"/>
<text text-anchor="start" x="1407" y="-322.7" font-family="Times,serif" font-size="14.00" fill="#0c8599">&#45;98%</text>
</g>
<!-- 15 -->
<g id="node16" class="node">
<title>15</title>
<ellipse fill="none" stroke="black" cx="138" cy="-460.5" rx="106.11" ry="18"/>
<text text-anchor="middle" x="138" y="-455.45" font-family="Times,serif" font-size="14.00">SRM: Awaiting Approval</text>
</g>
<!-- 18 -->
<g id="node19" class="node">
<title>18</title>
<ellipse fill="none" stroke="black" cx="158" cy="-372" rx="118.4" ry="18"/>
<text text-anchor="middle" x="158" y="-366.95" font-family="Times,serif" font-size="14.00">SRM: Document Completed</text>
</g>
<!-- 15&#45;&gt;18 -->
<g id="edge65" class="edge">
<title>15&#45;&gt;18</title>
<path fill="none" stroke="#e53935" stroke-width="2.5" stroke-dasharray="5,2" d="M141.95,-442.41C144.51,-431.35 147.91,-416.62 150.93,-403.58"/>
<polygon fill="#e53935" stroke="#e53935" stroke-width="2.5" points="154.29,-404.57 153.14,-394.04 147.47,-402.99 154.29,-404.57"/>
<text text-anchor="start" x="149.79" y="-411.2" font-family="Times,serif" font-size="14.00" fill="#555555">—</text>
</g>
<!-- 16 -->
<g id="node17" class="node">
<title>16</title>
<ellipse fill="none" stroke="black" cx="100" cy="-549" rx="72.34" ry="18"/>
<text text-anchor="middle" x="100" y="-543.95" font-family="Times,serif" font-size="14.00">SRM: Complete</text>
</g>
<!-- 16&#45;&gt;15 -->
<g id="edge64" class="edge">
<title>16&#45;&gt;15</title>
<path fill="none" stroke="#e53935" stroke-width="2.5" stroke-dasharray="5,2" d="M107.51,-530.91C112.47,-519.61 119.11,-504.5 124.93,-491.25"/>
<polygon fill="#e53935" stroke="#e53935" stroke-width="2.5" points="128.04,-492.88 128.86,-482.31 121.63,-490.06 128.04,-492.88"/>
<text text-anchor="start" x="122.4" y="-499.7" font-family="Times,serif" font-size="14.00" fill="#555555">—</text>
</g>
<!-- 17 -->
<g id="node18" class="node">
<title>17</title>
<ellipse fill="none" stroke="black" cx="96" cy="-637.5" rx="64.66" ry="18"/>
<text text-anchor="middle" x="96" y="-632.45" font-family="Times,serif" font-size="14.00">SRM: Created</text>
</g>
<!-- 17&#45;&gt;16 -->
<g id="edge63" class="edge">
<title>17&#45;&gt;16</title>
<path fill="none" stroke="#e53935" stroke-width="2.5" stroke-dasharray="5,2" d="M96.79,-619.41C97.3,-608.46 97.97,-593.94 98.57,-581"/>
<polygon fill="#e53935" stroke="#e53935" stroke-width="2.5" points="102.06,-581.28 99.02,-571.13 95.06,-580.96 102.06,-581.28"/>
<text text-anchor="start" x="98.36" y="-588.2" font-family="Times,serif" font-size="14.00" fill="#555555">—</text>
</g>
<!-- 19 -->
<g id="node20" class="node">
<title>19</title>
<ellipse fill="none" stroke="black" cx="176" cy="-283.5" rx="147.57" ry="18"/>
<text text-anchor="middle" x="176" y="-278.45" font-family="Times,serif" font-size="14.00">SRM: In Transfer to Execution Syst.</text>
</g>
<!-- 18&#45;&gt;19 -->
<g id="edge66" class="edge">
<title>18&#45;&gt;19</title>
<path fill="none" stroke="#e53935" stroke-width="2.5" stroke-dasharray="5,2" d="M161.56,-353.91C163.86,-342.85 166.92,-328.12 169.64,-315.08"/>
<polygon fill="#e53935" stroke="#e53935" stroke-width="2.5" points="173.01,-316.06 171.62,-305.55 166.15,-314.63 173.01,-316.06"/>
<text text-anchor="start" x="168.61" y="-322.7" font-family="Times,serif" font-size="14.00" fill="#555555">—</text>
</g>
<!-- 20 -->
<g id="node21" class="node">
<title>20</title>
<ellipse fill="none" stroke="black" cx="176" cy="-195" rx="66.19" ry="18"/>
<text text-anchor="middle" x="176" y="-189.95" font-family="Times,serif" font-size="14.00">SRM: Ordered</text>
</g>
<!-- 19&#45;&gt;20 -->
<g id="edge67" class="edge">
<title>19&#45;&gt;20</title>
<path fill="none" stroke="#e53935" stroke-width="2.5" stroke-dasharray="5,2" d="M176,-265.41C176,-254.46 176,-239.94 176,-227"/>
<polygon fill="#e53935" stroke="#e53935" stroke-width="2.5" points="179.5,-227.13 176,-217.13 172.5,-227.13 179.5,-227.13"/>
<text text-anchor="start" x="176" y="-234.2" font-family="Times,serif" font-size="14.00" fill="#555555">—</text>
</g>
<!-- 21&#45;&gt;12 -->
<g id="edge56" class="edge">
<title>21&#45;&gt;12</title>
<path fill="none" stroke="#ffb300" stroke-width="2.5" stroke-dasharray="5,2" d="M961.04,-655.62C1000.98,-697.37 1109.69,-805.45 1220,-867 1230.89,-873.08 1243.02,-878.37 1254.99,-882.88"/>
<polygon fill="#ffb300" stroke="#ffb300" stroke-width="2.5" points="1253.69,-886.14 1264.29,-886.2 1256.04,-879.54 1253.69,-886.14"/>
<text text-anchor="start" x="1090.8" y="-765.2" font-family="Times,serif" font-size="14.00" fill="#0c8599">&#45;100%</text>
</g>
<!-- 21&#45;&gt;22 -->
<g id="edge54" class="edge">
<title>21&#45;&gt;22</title>
<path fill="none" stroke="#ffb300" stroke-width="2.5" stroke-dasharray="5,2" d="M939.73,-619.33C936.02,-608.85 930.41,-595.48 923,-585 920.89,-582.01 918.49,-579.09 915.94,-576.28"/>
<polygon fill="#ffb300" stroke="#ffb300" stroke-width="2.5" points="918.58,-573.98 909.02,-569.41 913.65,-578.94 918.58,-573.98"/>
<text text-anchor="start" x="932.17" y="-588.2" font-family="Times,serif" font-size="14.00" fill="#0c8599">&#45;100%</text>
</g>
<!-- 22&#45;&gt;5 -->
<g id="edge18" class="edge">
<title>22&#45;&gt;5</title>
<path fill="none" stroke="#9e9e9e" d="M896.89,-530.9C906.64,-516.86 920.77,-496.43 933,-478.5 951.25,-451.73 971.91,-420.98 986.22,-399.61"/>
<polygon fill="#9e9e9e" stroke="#9e9e9e" points="989.01,-401.74 991.66,-391.48 983.19,-397.84 989.01,-401.74"/>
<text text-anchor="start" x="956.98" y="-455.45" font-family="Times,serif" font-size="14.00" fill="#e8590c">+160%</text>
</g>
<!-- 22&#45;&gt;7 -->
<g id="edge22" class="edge">
<title>22&#45;&gt;7</title>
<path fill="none" stroke="#9e9e9e" d="M866.73,-530.88C853.76,-519.59 835.44,-505.31 817,-496.5 800.15,-488.45 781.25,-482.13 762.89,-477.21"/>
<polygon fill="#9e9e9e" stroke="#9e9e9e" points="763.89,-473.85 753.33,-474.77 762.16,-480.63 763.89,-473.85"/>
<text text-anchor="start" x="843.01" y="-499.7" font-family="Times,serif" font-size="14.00" fill="#0c8599">&#45;71%</text>
</g>
<!-- 22&#45;&gt;11 -->
<g id="edge8" class="edge">
<title>22&#45;&gt;11</title>
<path fill="none" stroke="#9e9e9e" d="M935.52,-564.66C973.12,-576.66 1024.99,-595.53 1067,-619.5 1089.32,-632.23 1091.64,-640.15 1112.25,-655.5 1133.68,-671.47 1158.31,-688.64 1177.74,-701.92"/>
<polygon fill="#9e9e9e" stroke="#9e9e9e" points="1175.61,-704.7 1185.84,-707.44 1179.55,-698.92 1175.61,-704.7"/>
<text text-anchor="start" x="1112.25" y="-632.45" font-family="Times,serif" font-size="14.00" fill="#e8590c">+94%</text>
</g>
<!-- 22&#45;&gt;12 -->
<g id="edge7" class="edge">
<title>22&#45;&gt;12</title>
<path fill="none" stroke="#9e9e9e" d="M795.88,-555.67C745.47,-563.32 684.59,-580.67 644,-619.5 622.87,-639.71 620,-651.51 620,-680.75 620,-815.5 620,-815.5 620,-815.5 620,-851.66 649.28,-853.92 683,-867 730.83,-885.56 1042.71,-895.57 1212.03,-899.7"/>
<polygon fill="#9e9e9e" stroke="#9e9e9e" points="1211.88,-903.2 1221.96,-899.94 1212.05,-896.2 1211.88,-903.2"/>
<text text-anchor="start" x="620" y="-720.95" font-family="Times,serif" font-size="14.00" fill="#e8590c">+231%</text>
</g>
<!-- 22&#45;&gt;21 -->
<g id="edge55" class="edge">
<title>22&#45;&gt;21</title>
<path fill="none" stroke="#ffb300" stroke-width="2.5" stroke-dasharray="5,2" d="M879.48,-567.37C877.18,-577.93 876.26,-591.31 882.25,-601.5 884.56,-605.43 887.48,-608.94 890.8,-612.09"/>
<polygon fill="#ffb300" stroke="#ffb300" stroke-width="2.5" points="888.65,-614.85 898.71,-618.15 892.9,-609.29 888.65,-614.85"/>
<text text-anchor="start" x="882.25" y="-588.2" font-family="Times,serif" font-size="14.00" fill="#0c8599">&#45;100%</text>
</g>
<!-- 24 -->
<g id="node25" class="node">
<title>24</title>
<ellipse fill="none" stroke="black" cx="437" cy="-726" rx="27" ry="18"/>
<text text-anchor="middle" x="437" y="-721.33" font-family="Times,serif" font-size="14.00">▶</text>
</g>
<!-- 24&#45;&gt;7 -->
<g id="edge26" class="edge">
<title>24&#45;&gt;7</title>
<path fill="none" stroke="#9e9e9e" d="M444.56,-708.45C466.45,-661.13 530.72,-526.76 568,-496.5 576.61,-489.51 586.65,-483.91 597.07,-479.41"/>
<polygon fill="#9e9e9e" stroke="#9e9e9e" points="598.16,-482.75 606.18,-475.83 595.59,-476.23 598.16,-482.75"/>
<text text-anchor="start" x="506.25" y="-588.2" font-family="Times,serif" font-size="14.00" fill="#0c8599">&#45;21%</text>
</g>
<!-- 24&#45;&gt;8 -->
<g id="edge44" class="edge">
<title>24&#45;&gt;8</title>
<path fill="none" stroke="#9e9e9e" d="M418.85,-712.24C400.14,-699.08 370.54,-678.26 347.55,-662.09"/>
<polygon fill="#9e9e9e" stroke="#9e9e9e" points="349.59,-659.25 339.39,-656.36 345.56,-664.97 349.59,-659.25"/>
<text text-anchor="start" x="386.52" y="-676.7" font-family="Times,serif" font-size="14.00" fill="#e8590c">+34%</text>
</g>
<!-- 24&#45;&gt;17 -->
<g id="edge62" class="edge">
<title>24&#45;&gt;17</title>
<path fill="none" stroke="#e53935" stroke-width="2.5" stroke-dasharray="5,2" d="M411.93,-718.64C358.31,-705.04 231.27,-672.81 155.63,-653.63"/>
<polygon fill="#e53935" stroke="#e53935" stroke-width="2.5" points="156.81,-650.31 146.26,-651.25 155.09,-657.1 156.81,-650.31"/>
<text text-anchor="start" x="297.04" y="-676.7" font-family="Times,serif" font-size="14.00" fill="#555555">—</text>
</g>
<!-- 24&#45;&gt;22 -->
<g id="edge21" class="edge">
<title>24&#45;&gt;22</title>
<path fill="none" stroke="#9e9e9e" d="M456.76,-713.3C467.42,-706.77 480.68,-698.3 492,-690 531.31,-661.19 533.59,-643.52 576,-619.5 640.32,-583.08 722.3,-565.74 785.65,-557.49"/>
<polygon fill="#9e9e9e" stroke="#9e9e9e" points="785.85,-560.99 795.35,-556.29 784.99,-554.05 785.85,-560.99"/>
<text text-anchor="start" x="576" y="-632.45" font-family="Times,serif" font-size="14.00" fill="#0c8599">&#45;75%</text>
</g>
<!-- _legend -->
<g id="node26" class="node">
<title>_legend</title>
<text text-anchor="start" x="1836.62" y="-1169.2" font-family="Times,serif" font-weight="bold" font-size="14.00">Legend</text>
<text text-anchor="start" x="1724.75" y="-1145.7" font-family="Times,serif" font-size="14.00" fill="#555555">edge label: </text>
<text text-anchor="start" x="1787.75" y="-1145.7" font-family="Times,serif" font-size="14.00" fill="#e8590c">over</text>
<text text-anchor="start" x="1811.75" y="-1145.7" font-family="Times,serif" font-size="14.00" fill="#555555"> / </text>
<text text-anchor="start" x="1823" y="-1145.7" font-family="Times,serif" font-size="14.00" fill="#0c8599">under</text>
<text text-anchor="start" x="1853.75" y="-1145.7" font-family="Times,serif" font-size="14.00" fill="#555555">&#45;forecast %</text>
<text text-anchor="start" x="1724.75" y="-1121.2" font-family="Times,serif" font-size="14.00" fill="#9e9e9e">─────</text>
<text text-anchor="start" x="1780.5" y="-1121.2" font-family="Times,serif" font-size="14.00">matched</text>
<text text-anchor="start" x="1724.75" y="-1097.7" font-family="Times,serif" font-size="14.00" fill="#ffb300">– – –</text>
<text text-anchor="start" x="1780.5" y="-1097.7" font-family="Times,serif" font-size="14.00">happened — forecast missed it</text>
<text text-anchor="start" x="1724.75" y="-1074.2" font-family="Times,serif" font-size="14.00" fill="#e53935">– – –</text>
<text text-anchor="start" x="1780.5" y="-1074.2" font-family="Times,serif" font-size="14.00">forecast predicted it — did not happen</text>
</g>
</g>
</svg>
