<?xml version="1.0" encoding="UTF-8" standalone="no"?>
<!DOCTYPE svg PUBLIC "-//W3C//DTD SVG 1.1//EN"
 "http://www.w3.org/Graphics/SVG/1.1/DTD/svg11.dtd">
<!-- Generated by graphviz version 12.2.1 (20241206.2353)
 -->
<!-- Pages: 1 -->
<svg width="1611pt" height="1018pt"
 viewBox="0.00 0.00 1610.70 1017.50" xmlns="http://www.w3.org/2000/svg" xmlns:xlink="http://www.w3.org/1999/xlink">
<g id="graph0" class="graph" transform="scale(1 1) rotate(0) translate(4 1013.5)">
<polygon fill="white" stroke="none" points="-4,4 -4,-1013.5 1606.7,-1013.5 1606.7,4 -4,4"/>
<!-- 0 -->
<g id="node1" class="node">
<title>0</title>
<ellipse fill="none" stroke="black" cx="688" cy="-991.5" rx="27" ry="18"/>
<text text-anchor="middle" x="688" y="-986.83" font-family="Times,serif" font-size="14.00">▶</text>
</g>
<!-- 6 -->
<g id="node7" class="node">
<title>6</title>
<ellipse fill="none" stroke="black" cx="330" cy="-814.5" rx="95.37" ry="18"/>
<text text-anchor="middle" x="330" y="-809.45" font-family="Times,serif" font-size="14.00">Vendor creates invoice</text>
</g>
<!-- 0&#45;&gt;6 -->
<g id="edge27" class="edge">
<title>0&#45;&gt;6</title>
<path fill="none" stroke="black" d="M662.23,-985.16C620.49,-975.87 536.23,-954.49 471.25,-921 427.99,-898.7 383.97,-863.4 356.83,-839.85"/>
<polygon fill="black" stroke="black" points="359.25,-837.32 349.43,-833.35 354.63,-842.58 359.25,-837.32"/>
<text text-anchor="middle" x="474.62" y="-897.95" font-family="Times,serif" font-size="14.00">2</text>
</g>
<!-- 7 -->
<g id="node8" class="node">
<title>7</title>
<ellipse fill="none" stroke="black" cx="552" cy="-903" rx="64.66" ry="18"/>
<text text-anchor="middle" x="552" y="-897.95" font-family="Times,serif" font-size="14.00">SRM: Created</text>
</g>
<!-- 0&#45;&gt;7 -->
<g id="edge9" class="edge">
<title>0&#45;&gt;7</title>
<path fill="none" stroke="black" d="M668.8,-978.29C647.51,-964.75 612.72,-942.62 586.63,-926.03"/>
<polygon fill="black" stroke="black" points="588.7,-923.2 578.39,-920.78 584.94,-929.1 588.7,-923.2"/>
<text text-anchor="middle" x="635.56" y="-942.2" font-family="Times,serif" font-size="14.00">2</text>
</g>
<!-- 13 -->
<g id="node14" class="node">
<title>13</title>
<ellipse fill="none" stroke="black" cx="794" cy="-726" rx="114.82" ry="18"/>
<text text-anchor="middle" x="794" y="-720.95" font-family="Times,serif" font-size="14.00">Create Purchase Order Item</text>
</g>
<!-- 0&#45;&gt;13 -->
<g id="edge32" class="edge">
<title>0&#45;&gt;13</title>
<path fill="none" stroke="black" d="M715.18,-990.75C763.31,-989.62 863.32,-979.83 915,-921 951.78,-879.13 954.66,-846.48 930,-796.5 917.89,-771.95 893.42,-755.9 868.54,-745.48"/>
<polygon fill="black" stroke="black" points="869.88,-742.25 859.29,-741.9 867.36,-748.78 869.88,-742.25"/>
<text text-anchor="middle" x="959.53" y="-853.7" font-family="Times,serif" font-size="14.00">1332</text>
</g>
<!-- 22 -->
<g id="node23" class="node">
<title>22</title>
<ellipse fill="none" stroke="black" cx="770" cy="-903" rx="135.8" ry="18"/>
<text text-anchor="middle" x="770" y="-897.95" font-family="Times,serif" font-size="14.00">Create Purchase Requisition Item</text>
</g>
<!-- 0&#45;&gt;22 -->
<g id="edge52" class="edge">
<title>0&#45;&gt;22</title>
<path fill="none" stroke="black" d="M701.91,-975.83C714.02,-963.06 731.83,-944.27 746.19,-929.11"/>
<polygon fill="black" stroke="black" points="748.38,-931.89 752.72,-922.23 743.3,-927.07 748.38,-931.89"/>
<text text-anchor="middle" x="749.84" y="-942.2" font-family="Times,serif" font-size="14.00">2318</text>
</g>
<!-- 1 -->
<g id="node2" class="node">
<title>1</title>
<ellipse fill="none" stroke="black" cx="809" cy="-18" rx="27" ry="18"/>
<text text-anchor="middle" x="809" y="-12.95" font-family="Times,serif" font-size="14.00">■</text>
</g>
<!-- 2 -->
<g id="node3" class="node">
<title>2</title>
<ellipse fill="none" stroke="black" cx="242" cy="-460.5" rx="94.86" ry="18"/>
<text text-anchor="middle" x="242" y="-455.45" font-family="Times,serif" font-size="14.00">Record Goods Receipt</text>
</g>
<!-- 2&#45;&gt;1 -->
<g id="edge30" class="edge">
<title>2&#45;&gt;1</title>
<path fill="none" stroke="black" d="M229.35,-442.25C218.29,-425.45 204,-398.75 204,-373 204,-373 204,-373 204,-105.5 204,-48.02 637.54,-25.87 770.62,-20.43"/>
<polygon fill="black" stroke="black" points="770.46,-23.93 780.32,-20.04 770.18,-16.94 770.46,-23.93"/>
<text text-anchor="middle" x="214.12" y="-234.2" font-family="Times,serif" font-size="14.00">121</text>
</g>
<!-- 2&#45;&gt;2 -->
<g id="edge23" class="edge">
<title>2&#45;&gt;2</title>
<path fill="none" stroke="black" d="M328.11,-468.34C343.83,-467.35 354.86,-464.73 354.86,-460.5 354.86,-457.39 348.91,-455.15 339.52,-453.79"/>
<polygon fill="black" stroke="black" points="339.91,-450.31 329.62,-452.81 339.22,-457.28 339.91,-450.31"/>
<text text-anchor="middle" x="361.61" y="-455.45" font-family="Times,serif" font-size="14.00">19</text>
</g>
<!-- 3 -->
<g id="node4" class="node">
<title>3</title>
<ellipse fill="none" stroke="black" cx="517" cy="-372" rx="98.44" ry="18"/>
<text text-anchor="middle" x="517" y="-366.95" font-family="Times,serif" font-size="14.00">Record Invoice Receipt</text>
</g>
<!-- 2&#45;&gt;3 -->
<g id="edge1" class="edge">
<title>2&#45;&gt;3</title>
<path fill="none" stroke="black" d="M282.83,-443.94C316.94,-431.03 362.93,-413.89 381.75,-408 402.94,-401.37 426.27,-395.01 447.5,-389.57"/>
<polygon fill="black" stroke="black" points="448.09,-393.03 456.92,-387.18 446.37,-386.24 448.09,-393.03"/>
<text text-anchor="middle" x="391.88" y="-411.2" font-family="Times,serif" font-size="14.00">937</text>
</g>
<!-- 5 -->
<g id="node6" class="node">
<title>5</title>
<ellipse fill="none" stroke="black" cx="444" cy="-195" rx="102.02" ry="18"/>
<text text-anchor="middle" x="444" y="-189.95" font-family="Times,serif" font-size="14.00">Remove Payment Block</text>
</g>
<!-- 2&#45;&gt;5 -->
<g id="edge4" class="edge">
<title>2&#45;&gt;5</title>
<path fill="none" stroke="black" d="M245.06,-442.19C252.3,-405.61 273.55,-319.42 321,-265.5 339.77,-244.17 366.74,-227.91 390.65,-216.5"/>
<polygon fill="black" stroke="black" points="392.01,-219.73 399.65,-212.38 389.1,-213.36 392.01,-219.73"/>
<text text-anchor="middle" x="295.25" y="-322.7" font-family="Times,serif" font-size="14.00">203</text>
</g>
<!-- 2&#45;&gt;6 -->
<g id="edge6" class="edge">
<title>2&#45;&gt;6</title>
<path fill="none" stroke="black" d="M245.09,-478.94C253.84,-527.21 280.51,-666.44 316,-778.5 316.73,-780.79 317.53,-783.14 318.38,-785.5"/>
<polygon fill="black" stroke="black" points="315.11,-786.75 321.96,-794.82 321.64,-784.23 315.11,-786.75"/>
<text text-anchor="middle" x="295.46" y="-632.45" font-family="Times,serif" font-size="14.00">1179</text>
</g>
<!-- 3&#45;&gt;1 -->
<g id="edge19" class="edge">
<title>3&#45;&gt;1</title>
<path fill="none" stroke="black" d="M589.88,-359.61C661.78,-346.26 761,-321.19 761,-284.5 761,-284.5 761,-284.5 761,-105.5 761,-81.95 774.77,-58.82 787.55,-42.41"/>
<polygon fill="black" stroke="black" points="790.22,-44.68 793.89,-34.74 784.83,-40.22 790.22,-44.68"/>
<text text-anchor="middle" x="771.12" y="-189.95" font-family="Times,serif" font-size="14.00">213</text>
</g>
<!-- 3&#45;&gt;2 -->
<g id="edge17" class="edge">
<title>3&#45;&gt;2</title>
<path fill="none" stroke="black" d="M426.97,-379.57C390.74,-384.48 349.22,-393.05 313.75,-408 302.24,-412.85 301.14,-417.2 291,-424.5 285.67,-428.33 280.01,-432.39 274.5,-436.34"/>
<polygon fill="black" stroke="black" points="272.79,-433.26 266.68,-441.92 276.86,-438.95 272.79,-433.26"/>
<text text-anchor="middle" x="323.88" y="-411.2" font-family="Times,serif" font-size="14.00">125</text>
</g>
<!-- 3&#45;&gt;3 -->
<g id="edge40" class="edge">
<title>3&#45;&gt;3</title>
<path fill="none" stroke="black" d="M606.34,-379.81C622.29,-378.8 633.44,-376.19 633.44,-372 633.44,-368.89 627.3,-366.65 617.61,-365.29"/>
<polygon fill="black" stroke="black" points="618.14,-361.83 607.84,-364.34 617.46,-368.79 618.14,-361.83"/>
<text text-anchor="middle" x="636.81" y="-366.95" font-family="Times,serif" font-size="14.00">3</text>
</g>
<!-- 4 -->
<g id="node5" class="node">
<title>4</title>
<ellipse fill="none" stroke="black" cx="617" cy="-106.5" rx="61.08" ry="18"/>
<text text-anchor="middle" x="617" y="-101.45" font-family="Times,serif" font-size="14.00">Clear Invoice</text>
</g>
<!-- 3&#45;&gt;4 -->
<g id="edge2" class="edge">
<title>3&#45;&gt;4</title>
<path fill="none" stroke="black" d="M523.35,-353.76C537.44,-315.59 572.48,-221.13 603,-142.5 603.92,-140.12 604.89,-137.65 605.87,-135.18"/>
<polygon fill="black" stroke="black" points="609.09,-136.55 609.53,-125.97 602.58,-133.96 609.09,-136.55"/>
<text text-anchor="middle" x="579.03" y="-234.2" font-family="Times,serif" font-size="14.00">548</text>
</g>
<!-- 3&#45;&gt;5 -->
<g id="edge18" class="edge">
<title>3&#45;&gt;5</title>
<path fill="none" stroke="black" d="M509.73,-353.58C497.05,-323.18 470.79,-260.21 455.58,-223.75"/>
<polygon fill="black" stroke="black" points="458.9,-222.63 451.82,-214.75 452.44,-225.32 458.9,-222.63"/>
<text text-anchor="middle" x="497.88" y="-278.45" font-family="Times,serif" font-size="14.00">294</text>
</g>
<!-- 3&#45;&gt;6 -->
<g id="edge45" class="edge">
<title>3&#45;&gt;6</title>
<path fill="none" stroke="black" d="M495.67,-389.84C464.49,-416.03 408.02,-469.92 388,-531 365.99,-598.15 404.62,-621.08 389,-690 380.96,-725.49 361.43,-762.71 347.03,-786.89"/>
<polygon fill="black" stroke="black" points="344.23,-784.76 342.01,-795.12 350.21,-788.41 344.23,-784.76"/>
<text text-anchor="middle" x="391.08" y="-588.2" font-family="Times,serif" font-size="14.00">31</text>
</g>
<!-- 14 -->
<g id="node15" class="node">
<title>14</title>
<ellipse fill="none" stroke="black" cx="391" cy="-283.5" rx="60.56" ry="18"/>
<text text-anchor="middle" x="391" y="-278.45" font-family="Times,serif" font-size="14.00">Change Price</text>
</g>
<!-- 3&#45;&gt;14 -->
<g id="edge22" class="edge">
<title>3&#45;&gt;14</title>
<path fill="none" stroke="black" d="M492.41,-354.12C472.78,-340.64 445.11,-321.65 423.64,-306.91"/>
<polygon fill="black" stroke="black" points="425.73,-304.1 415.5,-301.32 421.77,-309.87 425.73,-304.1"/>
<text text-anchor="middle" x="468.66" y="-322.7" font-family="Times,serif" font-size="14.00">9</text>
</g>
<!-- 4&#45;&gt;1 -->
<g id="edge3" class="edge">
<title>4&#45;&gt;1</title>
<path fill="none" stroke="black" d="M645.53,-90.38C666.03,-79.73 694.43,-65.39 720,-54 738.04,-45.96 758.53,-37.84 775.3,-31.44"/>
<polygon fill="black" stroke="black" points="776.18,-34.85 784.3,-28.04 773.71,-28.3 776.18,-34.85"/>
<text text-anchor="middle" x="733.5" y="-57.2" font-family="Times,serif" font-size="14.00">1387</text>
</g>
<!-- 4&#45;&gt;3 -->
<g id="edge33" class="edge">
<title>4&#45;&gt;3</title>
<path fill="none" stroke="black" d="M615.77,-124.73C613.47,-151.57 607.39,-204.73 593,-247.5 578.86,-289.51 571.81,-299.26 547,-336 544.94,-339.05 542.65,-342.14 540.28,-345.14"/>
<polygon fill="black" stroke="black" points="537.74,-342.73 534.05,-352.66 543.13,-347.19 537.74,-342.73"/>
<text text-anchor="middle" x="601.14" y="-234.2" font-family="Times,serif" font-size="14.00">2</text>
</g>
<!-- 4&#45;&gt;4 -->
<g id="edge20" class="edge">
<title>4&#45;&gt;4</title>
<path fill="none" stroke="black" d="M672.06,-114.68C685.8,-114.11 696.08,-111.38 696.08,-106.5 696.08,-103.1 691.11,-100.75 683.46,-99.44"/>
<polygon fill="black" stroke="black" points="683.86,-95.96 673.57,-98.47 683.18,-102.93 683.86,-95.96"/>
<text text-anchor="middle" x="699.45" y="-101.45" font-family="Times,serif" font-size="14.00">2</text>
</g>
<!-- 5&#45;&gt;1 -->
<g id="edge58" class="edge">
<title>5&#45;&gt;1</title>
<path fill="none" stroke="black" d="M454.83,-176.93C470.68,-153.38 502.45,-111.27 540.25,-88.5 614.09,-44.02 715.95,-27.77 770.63,-22.01"/>
<polygon fill="black" stroke="black" points="770.75,-25.52 780.36,-21.06 770.07,-18.55 770.75,-25.52"/>
<text text-anchor="middle" x="543.62" y="-101.45" font-family="Times,serif" font-size="14.00">7</text>
</g>
<!-- 5&#45;&gt;4 -->
<g id="edge5" class="edge">
<title>5&#45;&gt;4</title>
<path fill="none" stroke="black" d="M473.49,-177.47C492.28,-167.1 517.25,-153.63 539.75,-142.5 550.55,-137.16 562.34,-131.65 573.38,-126.64"/>
<polygon fill="black" stroke="black" points="574.63,-129.92 582.31,-122.62 571.75,-123.53 574.63,-129.92"/>
<text text-anchor="middle" x="549.88" y="-145.7" font-family="Times,serif" font-size="14.00">347</text>
</g>
<!-- 6&#45;&gt;2 -->
<g id="edge8" class="edge">
<title>6&#45;&gt;2</title>
<path fill="none" stroke="black" d="M280.64,-798.78C248.31,-785.74 212,-763.07 212,-727 212,-727 212,-727 212,-548 212,-527.4 219.69,-505.49 227.28,-488.87"/>
<polygon fill="black" stroke="black" points="230.3,-490.67 231.52,-480.14 224,-487.61 230.3,-490.67"/>
<text text-anchor="middle" x="225.5" y="-632.45" font-family="Times,serif" font-size="14.00">1836</text>
</g>
<!-- 6&#45;&gt;3 -->
<g id="edge7" class="edge">
<title>6&#45;&gt;3</title>
<path fill="none" stroke="black" d="M328.34,-796.22C324.66,-750.93 318.76,-625.73 355,-531 366.44,-501.1 405.57,-428.69 430,-408 437.32,-401.8 445.88,-396.6 454.73,-392.26"/>
<polygon fill="black" stroke="black" points="456.11,-395.48 463.8,-388.19 453.24,-389.09 456.11,-395.48"/>
<text text-anchor="middle" x="352.54" y="-588.2" font-family="Times,serif" font-size="14.00">1038</text>
</g>
<!-- 6&#45;&gt;13 -->
<g id="edge28" class="edge">
<title>6&#45;&gt;13</title>
<path fill="none" stroke="black" d="M382.63,-799.09C425.18,-787.83 486.74,-772.39 541.25,-762 556.7,-759.05 632.81,-748.6 697.51,-739.88"/>
<polygon fill="black" stroke="black" points="697.67,-743.39 707.11,-738.59 696.73,-736.46 697.67,-743.39"/>
<text text-anchor="middle" x="544.62" y="-765.2" font-family="Times,serif" font-size="14.00">2</text>
</g>
<!-- 15 -->
<g id="node16" class="node">
<title>15</title>
<ellipse fill="none" stroke="black" cx="102" cy="-637.5" rx="73.87" ry="18"/>
<text text-anchor="middle" x="102" y="-632.45" font-family="Times,serif" font-size="14.00">Change Quantity</text>
</g>
<!-- 6&#45;&gt;15 -->
<g id="edge24" class="edge">
<title>6&#45;&gt;15</title>
<path fill="none" stroke="black" d="M250.63,-804.28C210.7,-798.41 167.36,-789.77 151,-778.5 114.93,-753.65 105.16,-700.01 102.66,-666.81"/>
<polygon fill="black" stroke="black" points="106.17,-666.9 102.12,-657.11 99.19,-667.29 106.17,-666.9"/>
<text text-anchor="middle" x="128.66" y="-720.95" font-family="Times,serif" font-size="14.00">13</text>
</g>
<!-- 8 -->
<g id="node9" class="node">
<title>8</title>
<ellipse fill="none" stroke="black" cx="552" cy="-814.5" rx="72.34" ry="18"/>
<text text-anchor="middle" x="552" y="-809.45" font-family="Times,serif" font-size="14.00">SRM: Complete</text>
</g>
<!-- 7&#45;&gt;8 -->
<g id="edge10" class="edge">
<title>7&#45;&gt;8</title>
<path fill="none" stroke="black" d="M552,-884.91C552,-873.26 552,-857.55 552,-844.02"/>
<polygon fill="black" stroke="black" points="555.5,-844.36 552,-834.36 548.5,-844.36 555.5,-844.36"/>
<text text-anchor="middle" x="555.38" y="-853.7" font-family="Times,serif" font-size="14.00">2</text>
</g>
<!-- 9 -->
<g id="node10" class="node">
<title>9</title>
<ellipse fill="none" stroke="black" cx="552" cy="-726" rx="106.11" ry="18"/>
<text text-anchor="middle" x="552" y="-720.95" font-family="Times,serif" font-size="14.00">SRM: Awaiting Approval</text>
</g>
<!-- 8&#45;&gt;9 -->
<g id="edge11" class="edge">
<title>8&#45;&gt;9</title>
<path fill="none" stroke="black" d="M552,-796.41C552,-784.76 552,-769.05 552,-755.52"/>
<polygon fill="black" stroke="black" points="555.5,-755.86 552,-745.86 548.5,-755.86 555.5,-755.86"/>
<text text-anchor="middle" x="555.38" y="-765.2" font-family="Times,serif" font-size="14.00">2</text>
</g>
<!-- 10 -->
<g id="node11" class="node">
<title>10</title>
<ellipse fill="none" stroke="black" cx="552" cy="-637.5" rx="118.4" ry="18"/>
<text text-anchor="middle" x="552" y="-632.45" font-family="Times,serif" font-size="14.00">SRM: Document Completed</text>
</g>
<!-- 9&#45;&gt;10 -->
<g id="edge12" class="edge">
<title>9&#45;&gt;10</title>
<path fill="none" stroke="black" d="M552,-707.91C552,-696.26 552,-680.55 552,-667.02"/>
<polygon fill="black" stroke="black" points="555.5,-667.36 552,-657.36 548.5,-667.36 555.5,-667.36"/>
<text text-anchor="middle" x="555.38" y="-676.7" font-family="Times,serif" font-size="14.00">2</text>
</g>
<!-- 11 -->
<g id="node12" class="node">
<title>11</title>
<ellipse fill="none" stroke="black" cx="545" cy="-549" rx="147.57" ry="18"/>
<text text-anchor="middle" x="545" y="-543.95" font-family="Times,serif" font-size="14.00">SRM: In Transfer to Execution Syst.</text>
</g>
<!-- 10&#45;&gt;11 -->
<g id="edge13" class="edge">
<title>10&#45;&gt;11</title>
<path fill="none" stroke="black" d="M550.62,-619.41C549.67,-607.76 548.4,-592.05 547.31,-578.52"/>
<polygon fill="black" stroke="black" points="550.82,-578.54 546.53,-568.86 543.84,-579.11 550.82,-578.54"/>
<text text-anchor="middle" x="552.5" y="-588.2" font-family="Times,serif" font-size="14.00">1</text>
</g>
<!-- 12 -->
<g id="node13" class="node">
<title>12</title>
<ellipse fill="none" stroke="black" cx="528" cy="-460.5" rx="66.19" ry="18"/>
<text text-anchor="middle" x="528" y="-455.45" font-family="Times,serif" font-size="14.00">SRM: Ordered</text>
</g>
<!-- 11&#45;&gt;12 -->
<g id="edge14" class="edge">
<title>11&#45;&gt;12</title>
<path fill="none" stroke="black" d="M541.64,-530.91C539.35,-519.26 536.26,-503.55 533.6,-490.02"/>
<polygon fill="black" stroke="black" points="537.06,-489.47 531.7,-480.34 530.2,-490.82 537.06,-489.47"/>
<text text-anchor="middle" x="541.4" y="-499.7" font-family="Times,serif" font-size="14.00">1</text>
</g>
<!-- 13&#45;&gt;1 -->
<g id="edge50" class="edge">
<title>13&#45;&gt;1</title>
<path fill="none" stroke="black" d="M796.06,-707.78C798.95,-686.55 805.11,-649.58 816,-619.5 849.73,-526.29 910,-516.37 910,-417.25 910,-417.25 910,-417.25 910,-105.5 910,-69.41 872.35,-45.15 843.02,-31.72"/>
<polygon fill="black" stroke="black" points="844.64,-28.61 834.07,-27.86 841.87,-35.03 844.64,-28.61"/>
<text text-anchor="middle" x="920.12" y="-366.95" font-family="Times,serif" font-size="14.00">134</text>
</g>
<!-- 13&#45;&gt;2 -->
<g id="edge15" class="edge">
<title>13&#45;&gt;2</title>
<path fill="none" stroke="black" d="M709.24,-713.5C644.48,-704.62 563.72,-693.31 548,-690 488.43,-677.47 328.54,-647.57 288.75,-601.5 257.41,-565.22 282.51,-540.73 264,-496.5 262.88,-493.84 261.58,-491.14 260.16,-488.5"/>
<polygon fill="black" stroke="black" points="263.24,-486.83 255.15,-479.99 257.21,-490.38 263.24,-486.83"/>
<text text-anchor="middle" x="298.88" y="-588.2" font-family="Times,serif" font-size="14.00">716</text>
</g>
<!-- 13&#45;&gt;3 -->
<g id="edge42" class="edge">
<title>13&#45;&gt;3</title>
<path fill="none" stroke="black" d="M788.48,-707.57C786.71,-701.96 784.76,-695.72 783,-690 761.27,-619.46 774.66,-593.26 735,-531 731.04,-524.78 641.97,-446.84 636,-442.5 611.65,-424.78 582.47,-407.68 559.11,-394.88"/>
<polygon fill="black" stroke="black" points="560.94,-391.89 550.48,-390.21 557.61,-398.05 560.94,-391.89"/>
<text text-anchor="middle" x="760.65" y="-543.95" font-family="Times,serif" font-size="14.00">40</text>
</g>
<!-- 13&#45;&gt;6 -->
<g id="edge16" class="edge">
<title>13&#45;&gt;6</title>
<path fill="none" stroke="black" d="M733.44,-741.72C686.99,-752.72 621.17,-767.66 563,-778.5 515.19,-787.41 461.53,-795.59 417.76,-801.8"/>
<polygon fill="black" stroke="black" points="417.48,-798.31 408.07,-803.17 418.46,-805.24 417.48,-798.31"/>
<text text-anchor="middle" x="653.03" y="-765.2" font-family="Times,serif" font-size="14.00">1195</text>
</g>
<!-- 13&#45;&gt;14 -->
<g id="edge44" class="edge">
<title>13&#45;&gt;14</title>
<path fill="none" stroke="black" d="M784.3,-707.67C781.24,-702.08 777.91,-695.81 775,-690 740.21,-620.46 749.96,-592.21 702,-531 696.22,-523.62 642.85,-484.89 636,-478.5 620.12,-463.7 621.54,-453.79 603,-442.5 527.09,-396.25 470.05,-455.54 410,-390 391.16,-369.43 387.87,-336.79 388.37,-313.26"/>
<polygon fill="black" stroke="black" points="391.86,-313.56 388.85,-303.41 384.87,-313.22 391.86,-313.56"/>
<text text-anchor="middle" x="687.03" y="-499.7" font-family="Times,serif" font-size="14.00">46</text>
</g>
<!-- 13&#45;&gt;15 -->
<g id="edge43" class="edge">
<title>13&#45;&gt;15</title>
<path fill="none" stroke="black" d="M711.43,-713.15C696.66,-711.26 681.39,-709.45 667,-708 548.88,-696.12 518.43,-703.62 400.5,-690 306.32,-679.13 283.33,-672.16 190,-655.5 183.16,-654.28 176.04,-652.97 168.93,-651.63"/>
<polygon fill="black" stroke="black" points="169.78,-648.23 159.31,-649.81 168.48,-655.11 169.78,-648.23"/>
<text text-anchor="middle" x="407.25" y="-676.7" font-family="Times,serif" font-size="14.00">97</text>
</g>
<!-- 16 -->
<g id="node17" class="node">
<title>16</title>
<ellipse fill="none" stroke="black" cx="1122" cy="-460.5" rx="114.82" ry="18"/>
<text text-anchor="middle" x="1122" y="-455.45" font-family="Times,serif" font-size="14.00">Delete Purchase Order Item</text>
</g>
<!-- 13&#45;&gt;16 -->
<g id="edge37" class="edge">
<title>13&#45;&gt;16</title>
<path fill="none" stroke="black" d="M908.52,-724.18C1004.74,-721.67 1145.47,-713.72 1266,-690 1314.61,-680.43 1342.89,-695.59 1372,-655.5 1430.86,-574.44 1279.05,-510.44 1186.8,-480.31"/>
<polygon fill="black" stroke="black" points="1187.9,-476.99 1177.31,-477.27 1185.77,-483.65 1187.9,-476.99"/>
<text text-anchor="middle" x="1388.65" y="-588.2" font-family="Times,serif" font-size="14.00">71</text>
</g>
<!-- 19 -->
<g id="node20" class="node">
<title>19</title>
<ellipse fill="none" stroke="black" cx="1235" cy="-637.5" rx="93.83" ry="18"/>
<text text-anchor="middle" x="1235" y="-632.45" font-family="Times,serif" font-size="14.00">Cancel Goods Receipt</text>
</g>
<!-- 13&#45;&gt;19 -->
<g id="edge39" class="edge">
<title>13&#45;&gt;19</title>
<path fill="none" stroke="black" d="M863.88,-711.29C944.68,-695.44 1077.18,-669.46 1160.07,-653.2"/>
<polygon fill="black" stroke="black" points="1160.55,-656.67 1169.69,-651.31 1159.2,-649.8 1160.55,-656.67"/>
<text text-anchor="middle" x="1057.37" y="-676.7" font-family="Times,serif" font-size="14.00">2</text>
</g>
<!-- 20 -->
<g id="node21" class="node">
<title>20</title>
<ellipse fill="none" stroke="black" cx="1166" cy="-549" rx="117.37" ry="18"/>
<text text-anchor="middle" x="1166" y="-543.95" font-family="Times,serif" font-size="14.00">Receive Order Confirmation</text>
</g>
<!-- 13&#45;&gt;20 -->
<g id="edge46" class="edge">
<title>13&#45;&gt;20</title>
<path fill="none" stroke="black" d="M900.32,-718.87C1050.45,-709.1 1309.59,-687.77 1338,-655.5 1373.81,-614.82 1303.52,-584.78 1242.29,-567.37"/>
<polygon fill="black" stroke="black" points="1243.41,-564.05 1232.84,-564.78 1241.56,-570.8 1243.41,-564.05"/>
<text text-anchor="middle" x="1357.83" y="-632.45" font-family="Times,serif" font-size="14.00">708</text>
</g>
<!-- 21 -->
<g id="node22" class="node">
<title>21</title>
<ellipse fill="none" stroke="black" cx="974" cy="-637.5" rx="149.11" ry="18"/>
<text text-anchor="middle" x="974" y="-632.45" font-family="Times,serif" font-size="14.00">Change Approval for Purchase Order</text>
</g>
<!-- 13&#45;&gt;21 -->
<g id="edge51" class="edge">
<title>13&#45;&gt;21</title>
<path fill="none" stroke="black" d="M828.28,-708.53C856.78,-694.83 897.57,-675.23 928.75,-660.24"/>
<polygon fill="black" stroke="black" points="930.06,-663.5 937.56,-656.01 927.03,-657.19 930.06,-663.5"/>
<text text-anchor="middle" x="903.5" y="-676.7" font-family="Times,serif" font-size="14.00">2</text>
</g>
<!-- 14&#45;&gt;2 -->
<g id="edge34" class="edge">
<title>14&#45;&gt;2</title>
<path fill="none" stroke="black" d="M376.6,-301.41C350.39,-332.19 294.76,-397.54 263.85,-433.84"/>
<polygon fill="black" stroke="black" points="261.36,-431.37 257.54,-441.25 266.69,-435.9 261.36,-431.37"/>
<text text-anchor="middle" x="338.06" y="-366.95" font-family="Times,serif" font-size="14.00">14</text>
</g>
<!-- 14&#45;&gt;5 -->
<g id="edge21" class="edge">
<title>14&#45;&gt;5</title>
<path fill="none" stroke="black" d="M401.47,-265.41C408.9,-253.29 419.02,-236.77 427.52,-222.89"/>
<polygon fill="black" stroke="black" points="430.34,-225 432.58,-214.64 424.37,-221.34 430.34,-225"/>
<text text-anchor="middle" x="425.62" y="-234.2" font-family="Times,serif" font-size="14.00">7</text>
</g>
<!-- 14&#45;&gt;6 -->
<g id="edge41" class="edge">
<title>14&#45;&gt;6</title>
<path fill="none" stroke="black" d="M343.66,-295.01C322.09,-300.74 296.61,-308.86 275,-319.5 120.55,-395.52 0,-420.11 0,-592.25 0,-727 0,-727 0,-727 0,-775.07 132.68,-796.96 229.78,-806.54"/>
<polygon fill="black" stroke="black" points="229.34,-810.01 239.63,-807.48 230,-803.04 229.34,-810.01"/>
<text text-anchor="middle" x="12.38" y="-543.95" font-family="Times,serif" font-size="14.00">16</text>
</g>
<!-- 15&#45;&gt;1 -->
<g id="edge54" class="edge">
<title>15&#45;&gt;1</title>
<path fill="none" stroke="black" d="M81.35,-619.96C64,-604.06 42,-578.33 42,-550 42,-550 42,-550 42,-105.5 42,-31.38 614.83,-20.77 770.41,-19.25"/>
<polygon fill="black" stroke="black" points="770.22,-22.75 780.19,-19.16 770.16,-15.75 770.22,-22.75"/>
<text text-anchor="middle" x="45.38" y="-322.7" font-family="Times,serif" font-size="14.00">3</text>
</g>
<!-- 15&#45;&gt;2 -->
<g id="edge25" class="edge">
<title>15&#45;&gt;2</title>
<path fill="none" stroke="black" d="M111.48,-619.37C127.25,-591.74 160.84,-536.39 198,-496.5 201.63,-492.6 205.72,-488.77 209.9,-485.16"/>
<polygon fill="black" stroke="black" points="211.82,-488.11 217.33,-479.06 207.38,-482.7 211.82,-488.11"/>
<text text-anchor="middle" x="175.02" y="-543.95" font-family="Times,serif" font-size="14.00">76</text>
</g>
<!-- 15&#45;&gt;6 -->
<g id="edge29" class="edge">
<title>15&#45;&gt;6</title>
<path fill="none" stroke="black" d="M111.76,-655.74C131.11,-689.38 174.52,-761.93 198,-778.5 211.46,-788 227.33,-794.91 243.32,-799.96"/>
<polygon fill="black" stroke="black" points="242.35,-803.32 252.92,-802.74 244.29,-796.59 242.35,-803.32"/>
<text text-anchor="middle" x="173.25" y="-720.95" font-family="Times,serif" font-size="14.00">52</text>
</g>
<!-- 16&#45;&gt;1 -->
<g id="edge26" class="edge">
<title>16&#45;&gt;1</title>
<path fill="none" stroke="black" d="M1100.68,-442.34C1083.43,-426.4 1062,-400.96 1062,-373 1062,-373 1062,-373 1062,-105.5 1062,-60.54 917.13,-34.09 846.64,-23.88"/>
<polygon fill="black" stroke="black" points="847.49,-20.47 837.1,-22.54 846.51,-27.4 847.49,-20.47"/>
<text text-anchor="middle" x="1068.75" y="-234.2" font-family="Times,serif" font-size="14.00">95</text>
</g>
<!-- 16&#45;&gt;21 -->
<g id="edge55" class="edge">
<title>16&#45;&gt;21</title>
<path fill="none" stroke="black" d="M1095.24,-478.3C1076.32,-491.1 1051.22,-510.06 1033.25,-531 1012.91,-554.7 996.22,-586.46 985.79,-608.92"/>
<polygon fill="black" stroke="black" points="982.73,-607.19 981.81,-617.74 989.11,-610.06 982.73,-607.19"/>
<text text-anchor="middle" x="1036.62" y="-543.95" font-family="Times,serif" font-size="14.00">1</text>
</g>
<!-- 17 -->
<g id="node18" class="node">
<title>17</title>
<ellipse fill="none" stroke="black" cx="785" cy="-460.5" rx="97.41" ry="18"/>
<text text-anchor="middle" x="785" y="-455.45" font-family="Times,serif" font-size="14.00">Cancel Invoice Receipt</text>
</g>
<!-- 17&#45;&gt;1 -->
<g id="edge31" class="edge">
<title>17&#45;&gt;1</title>
<path fill="none" stroke="black" d="M792.73,-442.33C799.74,-425.15 809,-397.78 809,-373 809,-373 809,-373 809,-105.5 809,-86.17 809,-64.4 809,-47.54"/>
<polygon fill="black" stroke="black" points="812.5,-47.75 809,-37.75 805.5,-47.75 812.5,-47.75"/>
<text text-anchor="middle" x="812.38" y="-234.2" font-family="Times,serif" font-size="14.00">4</text>
</g>
<!-- 17&#45;&gt;3 -->
<g id="edge36" class="edge">
<title>17&#45;&gt;3</title>
<path fill="none" stroke="black" d="M740.88,-444.13C726.39,-438.55 710.37,-431.8 696.25,-424.5 684.34,-418.34 683.34,-413.23 671,-408 649.31,-398.8 624.83,-391.83 601.87,-386.64"/>
<polygon fill="black" stroke="black" points="602.74,-383.24 592.22,-384.54 601.25,-390.08 602.74,-383.24"/>
<text text-anchor="middle" x="699.62" y="-411.2" font-family="Times,serif" font-size="14.00">1</text>
</g>
<!-- 17&#45;&gt;4 -->
<g id="edge35" class="edge">
<title>17&#45;&gt;4</title>
<path fill="none" stroke="black" d="M759.73,-442.81C739.68,-427.35 715,-402.36 715,-373 715,-373 715,-373 715,-194 715,-163.45 687.9,-141.11 662.2,-126.79"/>
<polygon fill="black" stroke="black" points="663.93,-123.75 653.44,-122.22 660.68,-129.95 663.93,-123.75"/>
<text text-anchor="middle" x="718.38" y="-278.45" font-family="Times,serif" font-size="14.00">3</text>
</g>
<!-- 18 -->
<g id="node19" class="node">
<title>18</title>
<ellipse fill="none" stroke="black" cx="1493" cy="-106.5" rx="109.7" ry="18"/>
<text text-anchor="middle" x="1493" y="-101.45" font-family="Times,serif" font-size="14.00">Change Delivery Indicator</text>
</g>
<!-- 18&#45;&gt;1 -->
<g id="edge38" class="edge">
<title>18&#45;&gt;1</title>
<path fill="none" stroke="black" d="M1461.34,-88.91C1436.85,-76.93 1401.7,-61.59 1369,-54 1269.54,-30.92 957.43,-22.17 847.66,-19.76"/>
<polygon fill="black" stroke="black" points="847.77,-16.26 837.7,-19.54 847.62,-23.26 847.77,-16.26"/>
<text text-anchor="middle" x="1421.41" y="-57.2" font-family="Times,serif" font-size="14.00">1</text>
</g>
<!-- 20&#45;&gt;1 -->
<g id="edge59" class="edge">
<title>20&#45;&gt;1</title>
<path fill="none" stroke="black" d="M1238.85,-534.58C1277.46,-522.8 1317,-501.08 1317,-461.5 1317,-461.5 1317,-461.5 1317,-105.5 1317,-57.87 965.53,-29.63 847.29,-21.48"/>
<polygon fill="black" stroke="black" points="847.68,-18 837.46,-20.81 847.2,-24.98 847.68,-18"/>
<text text-anchor="middle" x="1320.38" y="-278.45" font-family="Times,serif" font-size="14.00">1</text>
</g>
<!-- 20&#45;&gt;2 -->
<g id="edge49" class="edge">
<title>20&#45;&gt;2</title>
<path fill="none" stroke="black" d="M1076.18,-537.09C1054.54,-534.77 1031.47,-532.55 1010,-531 788.55,-514.96 731.37,-537.97 510.75,-513 442.11,-505.23 364.74,-489.67 310.7,-477.68"/>
<polygon fill="black" stroke="black" points="311.54,-474.28 301.01,-475.51 310.01,-481.11 311.54,-474.28"/>
<text text-anchor="middle" x="520.88" y="-499.7" font-family="Times,serif" font-size="14.00">314</text>
</g>
<!-- 20&#45;&gt;6 -->
<g id="edge48" class="edge">
<title>20&#45;&gt;6</title>
<path fill="none" stroke="black" d="M1249.85,-561.96C1322.09,-575.98 1409.3,-604.13 1372,-655.5 1252.92,-819.48 672.88,-778.71 471,-796.5 453.77,-798.02 435.4,-799.98 417.81,-802.03"/>
<polygon fill="black" stroke="black" points="417.4,-798.55 407.88,-803.21 418.22,-805.51 417.4,-798.55"/>
<text text-anchor="middle" x="1366.39" y="-676.7" font-family="Times,serif" font-size="14.00">131</text>
</g>
<!-- 20&#45;&gt;16 -->
<g id="edge47" class="edge">
<title>20&#45;&gt;16</title>
<path fill="none" stroke="black" d="M1157.31,-530.91C1151.2,-518.9 1142.9,-502.59 1135.88,-488.8"/>
<polygon fill="black" stroke="black" points="1139.17,-487.53 1131.51,-480.2 1132.93,-490.7 1139.17,-487.53"/>
<text text-anchor="middle" x="1154.69" y="-499.7" font-family="Times,serif" font-size="14.00">19</text>
</g>
<!-- 21&#45;&gt;1 -->
<g id="edge56" class="edge">
<title>21&#45;&gt;1</title>
<path fill="none" stroke="black" d="M1073.11,-623.67C1186,-607.68 1355,-578.91 1355,-550 1355,-550 1355,-550 1355,-105.5 1355,-71.82 1354.05,-80.25 1219,-54 1084.15,-27.79 920.55,-21.21 847.48,-19.55"/>
<polygon fill="black" stroke="black" points="847.72,-16.06 837.65,-19.35 847.58,-23.06 847.72,-16.06"/>
<text text-anchor="middle" x="1358.38" y="-322.7" font-family="Times,serif" font-size="14.00">1</text>
</g>
<!-- 21&#45;&gt;20 -->
<g id="edge57" class="edge">
<title>21&#45;&gt;20</title>
<path fill="none" stroke="black" d="M1011.48,-619.62C1042.2,-605.77 1085.86,-586.11 1118.93,-571.2"/>
<polygon fill="black" stroke="black" points="1120.21,-574.47 1127.89,-567.17 1117.34,-568.09 1120.21,-574.47"/>
<text text-anchor="middle" x="1090.57" y="-588.2" font-family="Times,serif" font-size="14.00">1</text>
</g>
<!-- 22&#45;&gt;13 -->
<g id="edge53" class="edge">
<title>22&#45;&gt;13</title>
<path fill="none" stroke="black" d="M824.17,-886.03C850.14,-875.34 878.84,-858.37 894,-832.5 913.27,-799.6 874.97,-768.79 840.33,-749.06"/>
<polygon fill="black" stroke="black" points="842.02,-745.99 831.57,-744.27 838.67,-752.14 842.02,-745.99"/>
<text text-anchor="middle" x="912.67" y="-809.45" font-family="Times,serif" font-size="14.00">2274</text>
</g>
<!-- 23 -->
<g id="node24" class="node">
<title>23</title>
<ellipse fill="none" stroke="black" cx="765" cy="-814.5" rx="120.45" ry="18"/>
<text text-anchor="middle" x="765" y="-809.45" font-family="Times,serif" font-size="14.00">Release Purchase Requisition</text>
</g>
<!-- 22&#45;&gt;23 -->
<g id="edge60" class="edge">
<title>22&#45;&gt;23</title>
<path fill="none" stroke="black" d="M769.01,-884.91C768.34,-873.26 767.43,-857.55 766.65,-844.02"/>
<polygon fill="black" stroke="black" points="770.16,-844.14 766.09,-834.36 763.17,-844.55 770.16,-844.14"/>
<text text-anchor="middle" x="771.32" y="-853.7" font-family="Times,serif" font-size="14.00">2</text>
</g>
<!-- 23&#45;&gt;13 -->
<g id="edge61" class="edge">
<title>23&#45;&gt;13</title>
<path fill="none" stroke="black" d="M770.73,-796.41C774.68,-784.64 780.01,-768.73 784.58,-755.11"/>
<polygon fill="black" stroke="black" points="787.84,-756.38 787.7,-745.79 781.2,-754.15 787.84,-756.38"/>
<text text-anchor="middle" x="785.47" y="-765.2" font-family="Times,serif" font-size="14.00">6</text>
</g>
</g>
</svg>
