<?xml version="1.0" encoding="UTF-8" standalone="no"?>
<!DOCTYPE svg PUBLIC "-//W3C//DTD SVG 1.1//EN"
 "http://www.w3.org/Graphics/SVG/1.1/DTD/svg11.dtd">
<!-- Generated by graphviz version 12.2.1 (20241206.2353)
 -->
<!-- Pages: 1 -->
<svg width="595pt" height="684pt"
 viewBox="0.00 0.00 594.95 683.50" xmlns="http://www.w3.org/2000/svg" xmlns:xlink="http://www.w3.org/1999/xlink">
<g id="graph0" class="graph" transform="scale(1 1) rotate(0) translate(4 679.5)">
<polygon fill="white" stroke="none" points="-4,4 -4,-679.5 590.95,-679.5 590.95,4 -4,4"/>
<g id="clust1" class="cluster">
<title>cluster_legend</title>
<polygon fill="none" stroke="#bdbdbd" stroke-dasharray="5,2" points="270.95,-523 270.95,-667.5 578.95,-667.5 578.95,-523 270.95,-523"/>
</g>
<!-- 0 -->
<g id="node1" class="node">
<title>0</title>
<ellipse fill="none" stroke="black" cx="243.95" cy="-106.5" rx="56.98" ry="18"/>
<text text-anchor="middle" x="243.95" y="-101.45" font-family="Times,serif" font-size="14.00">O_Accepted</text>
</g>
<!-- 8 -->
<g id="node9" class="node">
<title>8</title>
<ellipse fill="none" stroke="black" cx="243.95" cy="-18" rx="27" ry="18"/>
<text text-anchor="middle" x="243.95" y="-12.95" font-family="Times,serif" font-size="14.00">■</text>
</g>
<!-- 0&#45;&gt;8 -->
<g id="edge8" class="edge">
<title>0&#45;&gt;8</title>
<path fill="none" stroke="#9e9e9e" d="M243.95,-88.41C243.95,-76.76 243.95,-61.05 243.95,-47.52"/>
<polygon fill="#9e9e9e" stroke="#9e9e9e" points="247.45,-47.86 243.95,-37.86 240.45,-47.86 247.45,-47.86"/>
<text text-anchor="start" x="243.95" y="-58.2" font-family="Times,serif" font-size="14.00" fill="#1e88e5">242</text>
<text text-anchor="start" x="264.2" y="-58.2" font-family="Times,serif" font-size="14.00" fill="#bdbdbd"> | </text>
<text text-anchor="start" x="274.7" y="-58.2" font-family="Times,serif" font-size="14.00" fill="#2e7d32">547</text>
</g>
<!-- 1 -->
<g id="node2" class="node">
<title>1</title>
<ellipse fill="none" stroke="black" cx="377.95" cy="-106.5" rx="59.03" ry="18"/>
<text text-anchor="middle" x="377.95" y="-101.45" font-family="Times,serif" font-size="14.00">O_Cancelled</text>
</g>
<!-- 1&#45;&gt;8 -->
<g id="edge5" class="edge">
<title>1&#45;&gt;8</title>
<path fill="none" stroke="#9e9e9e" d="M353.79,-89.65C338.17,-79.43 317.39,-65.88 298.95,-54 290.4,-48.49 281.07,-42.54 272.57,-37.13"/>
<polygon fill="#9e9e9e" stroke="#9e9e9e" points="274.66,-34.32 264.35,-31.91 270.91,-40.22 274.66,-34.32"/>
<text text-anchor="start" x="322.88" y="-58.2" font-family="Times,serif" font-size="14.00" fill="#1e88e5">390</text>
<text text-anchor="start" x="343.13" y="-58.2" font-family="Times,serif" font-size="14.00" fill="#bdbdbd"> | </text>
<text text-anchor="start" x="353.63" y="-58.2" font-family="Times,serif" font-size="14.00" fill="#2e7d32">510</text>
</g>
<!-- 2 -->
<g id="node3" class="node">
<title>2</title>
<ellipse fill="none" stroke="black" cx="233.95" cy="-460.5" rx="68.75" ry="18"/>
<text text-anchor="middle" x="233.95" y="-455.45" font-family="Times,serif" font-size="14.00">O_Create Offer</text>
</g>
<!-- 3 -->
<g id="node4" class="node">
<title>3</title>
<ellipse fill="none" stroke="black" cx="233.95" cy="-372" rx="50.84" ry="18"/>
<text text-anchor="middle" x="233.95" y="-366.95" font-family="Times,serif" font-size="14.00">O_Created</text>
</g>
<!-- 2&#45;&gt;3 -->
<g id="edge2" class="edge">
<title>2&#45;&gt;3</title>
<path fill="none" stroke="#9e9e9e" d="M233.95,-442.41C233.95,-430.76 233.95,-415.05 233.95,-401.52"/>
<polygon fill="#9e9e9e" stroke="#9e9e9e" points="237.45,-401.86 233.95,-391.86 230.45,-401.86 237.45,-401.86"/>
<text text-anchor="start" x="233.95" y="-412.2" font-family="Times,serif" font-size="14.00" fill="#1e88e5">808</text>
<text text-anchor="start" x="254.2" y="-412.2" font-family="Times,serif" font-size="14.00" fill="#bdbdbd"> | </text>
<text text-anchor="start" x="264.7" y="-412.2" font-family="Times,serif" font-size="14.00" fill="#2e7d32">622</text>
</g>
<!-- 3&#45;&gt;1 -->
<g id="edge9" class="edge">
<title>3&#45;&gt;1</title>
<path fill="none" stroke="#9e9e9e" d="M279.38,-363.58C339.02,-352.8 438.63,-330.85 459.95,-301.5 499.4,-247.17 440.07,-170.98 403.37,-132.23"/>
<polygon fill="#9e9e9e" stroke="#9e9e9e" points="406.01,-129.93 396.54,-125.19 400.99,-134.81 406.01,-129.93"/>
<text text-anchor="start" x="471.74" y="-235.2" font-family="Times,serif" font-size="14.00" fill="#1e88e5">22</text>
<text text-anchor="start" x="485.24" y="-235.2" font-family="Times,serif" font-size="14.00" fill="#bdbdbd"> | </text>
<text text-anchor="start" x="495.74" y="-235.2" font-family="Times,serif" font-size="14.00" fill="#2e7d32">14</text>
</g>
<!-- 4 -->
<g id="node5" class="node">
<title>4</title>
<ellipse fill="none" stroke="black" cx="56.95" cy="-106.5" rx="52.38" ry="18"/>
<text text-anchor="middle" x="56.95" y="-101.45" font-family="Times,serif" font-size="14.00">O_Refused</text>
</g>
<!-- 3&#45;&gt;4 -->
<g id="edge19" class="edge">
<title>3&#45;&gt;4</title>
<path fill="none" stroke="#ffb300" stroke-width="2.5" stroke-dasharray="5,2" d="M185.99,-365.83C141.3,-358.62 75.49,-341.56 33.95,-301.5 -16.97,-252.4 -2.72,-206.71 26.95,-142.5 28.15,-139.89 29.61,-137.32 31.23,-134.84"/>
<polygon fill="#ffb300" stroke="#ffb300" stroke-width="2.5" points="33.96,-137.02 37.28,-126.96 28.41,-132.76 33.96,-137.02"/>
<text text-anchor="start" x="1.69" y="-235.2" font-family="Times,serif" font-size="14.00" fill="#1e88e5">0</text>
<text text-anchor="start" x="8.44" y="-235.2" font-family="Times,serif" font-size="14.00" fill="#bdbdbd"> | </text>
<text text-anchor="start" x="18.94" y="-235.2" font-family="Times,serif" font-size="14.00" fill="#2e7d32">1</text>
</g>
<!-- 6 -->
<g id="node7" class="node">
<title>6</title>
<ellipse fill="none" stroke="black" cx="344.95" cy="-283.5" rx="105.6" ry="18"/>
<text text-anchor="middle" x="344.95" y="-278.45" font-family="Times,serif" font-size="14.00">O_Sent (mail and online)</text>
</g>
<!-- 3&#45;&gt;6 -->
<g id="edge3" class="edge">
<title>3&#45;&gt;6</title>
<path fill="none" stroke="#9e9e9e" d="M254.31,-355.13C271.09,-342.06 295.15,-323.31 314.27,-308.41"/>
<polygon fill="#9e9e9e" stroke="#9e9e9e" points="316.27,-311.29 322,-302.38 311.97,-305.76 316.27,-311.29"/>
<text text-anchor="start" x="299.39" y="-323.7" font-family="Times,serif" font-size="14.00" fill="#1e88e5">740</text>
<text text-anchor="start" x="319.64" y="-323.7" font-family="Times,serif" font-size="14.00" fill="#bdbdbd"> | </text>
<text text-anchor="start" x="330.14" y="-323.7" font-family="Times,serif" font-size="14.00" fill="#2e7d32">558</text>
</g>
<!-- 7 -->
<g id="node8" class="node">
<title>7</title>
<ellipse fill="none" stroke="black" cx="131.95" cy="-283.5" rx="89.23" ry="18"/>
<text text-anchor="middle" x="131.95" y="-278.45" font-family="Times,serif" font-size="14.00">O_Sent (online only)</text>
</g>
<!-- 3&#45;&gt;7 -->
<g id="edge10" class="edge">
<title>3&#45;&gt;7</title>
<path fill="none" stroke="#9e9e9e" d="M215.24,-355.13C199.96,-342.18 178.11,-323.65 160.62,-308.82"/>
<polygon fill="#9e9e9e" stroke="#9e9e9e" points="162.98,-306.23 153.09,-302.43 158.45,-311.56 162.98,-306.23"/>
<text text-anchor="start" x="192.08" y="-323.7" font-family="Times,serif" font-size="14.00" fill="#1e88e5">42</text>
<text text-anchor="start" x="205.58" y="-323.7" font-family="Times,serif" font-size="14.00" fill="#bdbdbd"> | </text>
<text text-anchor="start" x="216.08" y="-323.7" font-family="Times,serif" font-size="14.00" fill="#2e7d32">40</text>
</g>
<!-- 4&#45;&gt;8 -->
<g id="edge13" class="edge">
<title>4&#45;&gt;8</title>
<path fill="none" stroke="#9e9e9e" d="M60.41,-88.18C63.58,-76.8 69.44,-62.5 79.95,-54 98.98,-38.6 163.79,-28.33 206.01,-23.09"/>
<polygon fill="#9e9e9e" stroke="#9e9e9e" points="206.25,-26.59 215.76,-21.93 205.42,-19.64 206.25,-26.59"/>
<text text-anchor="start" x="79.95" y="-58.2" font-family="Times,serif" font-size="14.00" fill="#1e88e5">102</text>
<text text-anchor="start" x="100.2" y="-58.2" font-family="Times,serif" font-size="14.00" fill="#bdbdbd"> | </text>
<text text-anchor="start" x="110.7" y="-58.2" font-family="Times,serif" font-size="14.00" fill="#2e7d32">101</text>
</g>
<!-- 5 -->
<g id="node6" class="node">
<title>5</title>
<ellipse fill="none" stroke="black" cx="180.95" cy="-195" rx="55.96" ry="18"/>
<text text-anchor="middle" x="180.95" y="-189.95" font-family="Times,serif" font-size="14.00">O_Returned</text>
</g>
<!-- 5&#45;&gt;0 -->
<g id="edge7" class="edge">
<title>5&#45;&gt;0</title>
<path fill="none" stroke="#9e9e9e" d="M177.16,-176.59C175.82,-166.01 175.9,-152.64 181.95,-142.5 185.78,-136.08 191.26,-130.74 197.39,-126.33"/>
<polygon fill="#9e9e9e" stroke="#9e9e9e" points="198.81,-129.57 205.45,-121.31 195.12,-123.63 198.81,-129.57"/>
<text text-anchor="start" x="181.95" y="-146.7" font-family="Times,serif" font-size="14.00" fill="#1e88e5">311</text>
<text text-anchor="start" x="202.2" y="-146.7" font-family="Times,serif" font-size="14.00" fill="#bdbdbd"> | </text>
<text text-anchor="start" x="212.7" y="-146.7" font-family="Times,serif" font-size="14.00" fill="#2e7d32">234</text>
</g>
<!-- 5&#45;&gt;1 -->
<g id="edge15" class="edge">
<title>5&#45;&gt;1</title>
<path fill="none" stroke="#9e9e9e" d="M204.57,-178.24C213.49,-172.26 223.71,-165.35 232.95,-159 243.46,-151.77 244.93,-148.01 256.45,-142.5 268.44,-136.76 296.31,-128.61 322.33,-121.62"/>
<polygon fill="#9e9e9e" stroke="#9e9e9e" points="323.09,-125.04 331.86,-119.09 321.29,-118.27 323.09,-125.04"/>
<text text-anchor="start" x="256.45" y="-146.7" font-family="Times,serif" font-size="14.00" fill="#1e88e5">37</text>
<text text-anchor="start" x="269.95" y="-146.7" font-family="Times,serif" font-size="14.00" fill="#bdbdbd"> | </text>
<text text-anchor="start" x="280.45" y="-146.7" font-family="Times,serif" font-size="14.00" fill="#2e7d32">16</text>
</g>
<!-- 5&#45;&gt;4 -->
<g id="edge12" class="edge">
<title>5&#45;&gt;4</title>
<path fill="none" stroke="#9e9e9e" d="M140.26,-182.43C125.22,-176.9 108.64,-169.21 95.45,-159 86.5,-152.08 78.6,-142.56 72.33,-133.6"/>
<polygon fill="#9e9e9e" stroke="#9e9e9e" points="75.42,-131.93 67.01,-125.49 69.57,-135.77 75.42,-131.93"/>
<text text-anchor="start" x="95.45" y="-146.7" font-family="Times,serif" font-size="14.00" fill="#1e88e5">72</text>
<text text-anchor="start" x="108.95" y="-146.7" font-family="Times,serif" font-size="14.00" fill="#bdbdbd"> | </text>
<text text-anchor="start" x="119.45" y="-146.7" font-family="Times,serif" font-size="14.00" fill="#2e7d32">51</text>
</g>
<!-- 5&#45;&gt;8 -->
<g id="edge17" class="edge">
<title>5&#45;&gt;8</title>
<path fill="none" stroke="#ffb300" stroke-width="2.5" stroke-dasharray="5,2" d="M169.72,-177.18C156.93,-155.72 139.52,-117.86 153.95,-88.5 165.55,-64.88 189.48,-47.01 209.75,-35.31"/>
<polygon fill="#ffb300" stroke="#ffb300" stroke-width="2.5" points="211.29,-38.45 218.42,-30.62 207.96,-32.3 211.29,-38.45"/>
<text text-anchor="start" x="153.95" y="-102.45" font-family="Times,serif" font-size="14.00" fill="#1e88e5">0</text>
<text text-anchor="start" x="160.7" y="-102.45" font-family="Times,serif" font-size="14.00" fill="#bdbdbd"> | </text>
<text text-anchor="start" x="171.2" y="-102.45" font-family="Times,serif" font-size="14.00" fill="#2e7d32">3</text>
</g>
<!-- 6&#45;&gt;1 -->
<g id="edge4" class="edge">
<title>6&#45;&gt;1</title>
<path fill="none" stroke="#9e9e9e" d="M348.23,-265.08C353.94,-234.81 365.74,-172.26 372.62,-135.72"/>
<polygon fill="#9e9e9e" stroke="#9e9e9e" points="375.98,-136.81 374.39,-126.34 369.1,-135.51 375.98,-136.81"/>
<text text-anchor="start" x="364.73" y="-190.95" font-family="Times,serif" font-size="14.00" fill="#1e88e5">47</text>
<text text-anchor="start" x="378.23" y="-190.95" font-family="Times,serif" font-size="14.00" fill="#bdbdbd"> | </text>
<text text-anchor="start" x="388.73" y="-190.95" font-family="Times,serif" font-size="14.00" fill="#2e7d32">20</text>
</g>
<!-- 6&#45;&gt;4 -->
<g id="edge14" class="edge">
<title>6&#45;&gt;4</title>
<path fill="none" stroke="#9e9e9e" d="M266.02,-271.15C221.07,-264.16 169.52,-255.12 147.95,-247.5 117.93,-236.91 104.83,-238.05 85.2,-213 67.84,-190.86 61.12,-158.96 58.53,-136.04"/>
<polygon fill="#9e9e9e" stroke="#9e9e9e" points="62.02,-135.81 57.63,-126.17 55.05,-136.44 62.02,-135.81"/>
<text text-anchor="start" x="85.2" y="-190.95" font-family="Times,serif" font-size="14.00" fill="#1e88e5">13</text>
<text text-anchor="start" x="98.7" y="-190.95" font-family="Times,serif" font-size="14.00" fill="#bdbdbd"> | </text>
<text text-anchor="start" x="109.2" y="-190.95" font-family="Times,serif" font-size="14.00" fill="#2e7d32">1</text>
</g>
<!-- 6&#45;&gt;5 -->
<g id="edge6" class="edge">
<title>6&#45;&gt;5</title>
<path fill="none" stroke="#9e9e9e" d="M313.71,-266.03C286.9,-251.88 248.13,-231.44 219.41,-216.29"/>
<polygon fill="#9e9e9e" stroke="#9e9e9e" points="221.14,-213.24 210.66,-211.67 217.87,-219.43 221.14,-213.24"/>
<text text-anchor="start" x="277.64" y="-235.2" font-family="Times,serif" font-size="14.00" fill="#1e88e5">322</text>
<text text-anchor="start" x="297.89" y="-235.2" font-family="Times,serif" font-size="14.00" fill="#bdbdbd"> | </text>
<text text-anchor="start" x="308.39" y="-235.2" font-family="Times,serif" font-size="14.00" fill="#2e7d32">31</text>
</g>
<!-- 6&#45;&gt;8 -->
<g id="edge20" class="edge">
<title>6&#45;&gt;8</title>
<path fill="none" stroke="#ffb300" stroke-width="2.5" stroke-dasharray="5,2" d="M366.02,-265.45C405.81,-231.13 484.69,-151.6 445.95,-88.5 412.74,-34.42 333.68,-21.58 284.9,-19.02"/>
<polygon fill="#ffb300" stroke="#ffb300" stroke-width="2.5" points="285.31,-15.53 275.19,-18.67 285.06,-22.53 285.31,-15.53"/>
<text text-anchor="start" x="454.58" y="-146.7" font-family="Times,serif" font-size="14.00" fill="#1e88e5">0</text>
<text text-anchor="start" x="461.33" y="-146.7" font-family="Times,serif" font-size="14.00" fill="#bdbdbd"> | </text>
<text text-anchor="start" x="471.83" y="-146.7" font-family="Times,serif" font-size="14.00" fill="#2e7d32">4</text>
</g>
<!-- 7&#45;&gt;1 -->
<g id="edge16" class="edge">
<title>7&#45;&gt;1</title>
<path fill="none" stroke="#9e9e9e" d="M198.17,-271.18C239.51,-263.6 286.29,-253.88 293.95,-247.5 320,-225.77 306.04,-206.26 323.2,-177 332.32,-161.43 344.6,-145.52 355.22,-132.85"/>
<polygon fill="#9e9e9e" stroke="#9e9e9e" points="357.75,-135.27 361.6,-125.4 352.44,-130.72 357.75,-135.27"/>
<text text-anchor="start" x="323.2" y="-190.95" font-family="Times,serif" font-size="14.00" fill="#1e88e5">13</text>
<text text-anchor="start" x="336.7" y="-190.95" font-family="Times,serif" font-size="14.00" fill="#bdbdbd"> | </text>
<text text-anchor="start" x="347.2" y="-190.95" font-family="Times,serif" font-size="14.00" fill="#2e7d32">4</text>
</g>
<!-- 7&#45;&gt;4 -->
<g id="edge18" class="edge">
<title>7&#45;&gt;4</title>
<path fill="none" stroke="#ffb300" stroke-width="2.5" stroke-dasharray="5,2" d="M89.27,-267.28C66.06,-256.31 40.08,-238.83 29.95,-213 20.06,-187.81 29.67,-157.82 40.06,-136.26"/>
<polygon fill="#ffb300" stroke="#ffb300" stroke-width="2.5" points="43.01,-138.18 44.54,-127.7 36.8,-134.93 43.01,-138.18"/>
<text text-anchor="start" x="29.95" y="-190.95" font-family="Times,serif" font-size="14.00" fill="#1e88e5">0</text>
<text text-anchor="start" x="36.7" y="-190.95" font-family="Times,serif" font-size="14.00" fill="#bdbdbd"> | </text>
<text text-anchor="start" x="47.2" y="-190.95" font-family="Times,serif" font-size="14.00" fill="#2e7d32">1</text>
</g>
<!-- 7&#45;&gt;5 -->
<g id="edge11" class="edge">
<title>7&#45;&gt;5</title>
<path fill="none" stroke="#9e9e9e" d="M141.63,-265.41C148.47,-253.33 157.79,-236.88 165.64,-223.03"/>
<polygon fill="#9e9e9e" stroke="#9e9e9e" points="168.66,-224.8 170.54,-214.37 162.57,-221.35 168.66,-224.8"/>
<text text-anchor="start" x="160.83" y="-235.2" font-family="Times,serif" font-size="14.00" fill="#1e88e5">23</text>
<text text-anchor="start" x="174.33" y="-235.2" font-family="Times,serif" font-size="14.00" fill="#bdbdbd"> | </text>
<text text-anchor="start" x="184.83" y="-235.2" font-family="Times,serif" font-size="14.00" fill="#2e7d32">17</text>
</g>
<!-- 9 -->
<g id="node10" class="node">
<title>9</title>
<ellipse fill="none" stroke="black" cx="233.95" cy="-595.25" rx="27" ry="18"/>
<text text-anchor="middle" x="233.95" y="-590.58" font-family="Times,serif" font-size="14.00">▶</text>
</g>
<!-- 9&#45;&gt;2 -->
<g id="edge1" class="edge">
<title>9&#45;&gt;2</title>
<path fill="none" stroke="#9e9e9e" d="M233.95,-576.9C233.95,-554.83 233.95,-516.44 233.95,-490.04"/>
<polygon fill="#9e9e9e" stroke="#9e9e9e" points="237.45,-490.37 233.95,-480.37 230.45,-490.37 237.45,-490.37"/>
<text text-anchor="start" x="233.95" y="-500.7" font-family="Times,serif" font-size="14.00" fill="#1e88e5">808</text>
<text text-anchor="start" x="254.2" y="-500.7" font-family="Times,serif" font-size="14.00" fill="#bdbdbd"> | </text>
<text text-anchor="start" x="264.7" y="-500.7" font-family="Times,serif" font-size="14.00" fill="#2e7d32">622</text>
</g>
<!-- _legend -->
<g id="node11" class="node">
<title>_legend</title>
<text text-anchor="start" x="403.57" y="-638.2" font-family="Times,serif" font-weight="bold" font-size="14.00">Legend</text>
<text text-anchor="start" x="291.7" y="-614.7" font-family="Times,serif" font-size="14.00" fill="#555555">edge numbers: </text>
<text text-anchor="start" x="375.7" y="-614.7" font-family="Times,serif" font-size="14.00" fill="#1e88e5">forecast</text>
<text text-anchor="start" x="418.45" y="-614.7" font-family="Times,serif" font-size="14.00" fill="#bdbdbd"> | </text>
<text text-anchor="start" x="428.95" y="-614.7" font-family="Times,serif" font-size="14.00" fill="#2e7d32">actual</text>
<text text-anchor="start" x="291.7" y="-590.2" font-family="Times,serif" font-size="14.00" fill="#9e9e9e">─────</text>
<text text-anchor="start" x="347.45" y="-590.2" font-family="Times,serif" font-size="14.00">matched</text>
<text text-anchor="start" x="291.7" y="-566.7" font-family="Times,serif" font-size="14.00" fill="#ffb300">– – –</text>
<text text-anchor="start" x="347.45" y="-566.7" font-family="Times,serif" font-size="14.00">happened — forecast missed it</text>
<text text-anchor="start" x="291.7" y="-543.2" font-family="Times,serif" font-size="14.00" fill="#e53935">– – –</text>
<text text-anchor="start" x="347.45" y="-543.2" font-family="Times,serif" font-size="14.00">forecast predicted it — did not happen</text>
</g>
</g>
</svg>
