<?xml version="1.0" encoding="UTF-8" standalone="no"?>
<!DOCTYPE svg PUBLIC "-//W3C//DTD SVG 1.1//EN"
 "http://www.w3.org/Graphics/SVG/1.1/DTD/svg11.dtd">
<!-- Generated by graphviz version 12.2.1 (20241206.2353)
 -->
<!-- Pages: 1 -->
<svg width="774pt" height="684pt"
 viewBox="0.00 0.00 774.33 683.50" xmlns="http://www.w3.org/2000/svg" xmlns:xlink="http://www.w3.org/1999/xlink">
<g id="graph0" class="graph" transform="scale(1 1) rotate(0) translate(4 679.5)">
<polygon fill="white" stroke="none" points="-4,4 -4,-679.5 770.33,-679.5 770.33,4 -4,4"/>
<g id="clust1" class="cluster">
<title>cluster_legend</title>
<polygon fill="none" stroke="#bdbdbd" stroke-dasharray="5,2" points="386.49,-523 386.49,-667.5 694.49,-667.5 694.49,-523 386.49,-523"/>
</g>
<!-- 0 -->
<g id="node1" class="node">
<title>0</title>
<ellipse fill="none" stroke="black" cx="446.49" cy="-106.5" rx="56.98" ry="18"/>
<text text-anchor="middle" x="446.49" y="-101.45" font-family="Times,serif" font-size="14.00">O_Accepted</text>
</g>
<!-- 8 -->
<g id="node9" class="node">
<title>8</title>
<ellipse fill="none" stroke="black" cx="446.49" cy="-18" rx="27" ry="18"/>
<text text-anchor="middle" x="446.49" y="-12.95" font-family="Times,serif" font-size="14.00">■</text>
</g>
<!-- 0&#45;&gt;8 -->
<g id="edge8" class="edge">
<title>0&#45;&gt;8</title>
<path fill="none" stroke="#9e9e9e" d="M446.49,-88.41C446.49,-76.76 446.49,-61.05 446.49,-47.52"/>
<polygon fill="#9e9e9e" stroke="#9e9e9e" points="449.99,-47.86 446.49,-37.86 442.99,-47.86 449.99,-47.86"/>
<text text-anchor="start" x="446.49" y="-58.2" font-family="Times,serif" font-size="14.00" fill="#1e88e5">242</text>
<text text-anchor="start" x="466.74" y="-58.2" font-family="Times,serif" font-size="14.00" fill="#bdbdbd"> | </text>
<text text-anchor="start" x="477.24" y="-58.2" font-family="Times,serif" font-size="14.00" fill="#2e7d32">547</text>
<text text-anchor="start" x="497.49" y="-58.2" font-family="Times,serif" font-size="14.00" fill="#bdbdbd"> (</text>
<text text-anchor="start" x="505.74" y="-58.2" font-family="Times,serif" font-size="14.00" fill="#6a1b9a">&#45;56%</text>
<text text-anchor="start" x="535.74" y="-58.2" font-family="Times,serif" font-size="14.00" fill="#bdbdbd">)</text>
</g>
<!-- 1 -->
<g id="node2" class="node">
<title>1</title>
<ellipse fill="none" stroke="black" cx="580.49" cy="-106.5" rx="59.03" ry="18"/>
<text text-anchor="middle" x="580.49" y="-101.45" font-family="Times,serif" font-size="14.00">O_Cancelled</text>
</g>
<!-- 1&#45;&gt;8 -->
<g id="edge5" class="edge">
<title>1&#45;&gt;8</title>
<path fill="none" stroke="#9e9e9e" d="M572.22,-88.58C565.98,-77.38 556.46,-63.13 544.49,-54 526.6,-40.35 502.92,-31.7 483.32,-26.41"/>
<polygon fill="#9e9e9e" stroke="#9e9e9e" points="484.34,-23.06 473.79,-24.04 482.65,-29.85 484.34,-23.06"/>
<text text-anchor="start" x="560.01" y="-58.2" font-family="Times,serif" font-size="14.00" fill="#1e88e5">390</text>
<text text-anchor="start" x="580.26" y="-58.2" font-family="Times,serif" font-size="14.00" fill="#bdbdbd"> | </text>
<text text-anchor="start" x="590.76" y="-58.2" font-family="Times,serif" font-size="14.00" fill="#2e7d32">510</text>
<text text-anchor="start" x="611.01" y="-58.2" font-family="Times,serif" font-size="14.00" fill="#bdbdbd"> (</text>
<text text-anchor="start" x="619.26" y="-58.2" font-family="Times,serif" font-size="14.00" fill="#6a1b9a">&#45;24%</text>
<text text-anchor="start" x="649.26" y="-58.2" font-family="Times,serif" font-size="14.00" fill="#bdbdbd">)</text>
</g>
<!-- 2 -->
<g id="node3" class="node">
<title>2</title>
<ellipse fill="none" stroke="black" cx="349.49" cy="-460.5" rx="68.75" ry="18"/>
<text text-anchor="middle" x="349.49" y="-455.45" font-family="Times,serif" font-size="14.00">O_Create Offer</text>
</g>
<!-- 3 -->
<g id="node4" class="node">
<title>3</title>
<ellipse fill="none" stroke="black" cx="349.49" cy="-372" rx="50.84" ry="18"/>
<text text-anchor="middle" x="349.49" y="-366.95" font-family="Times,serif" font-size="14.00">O_Created</text>
</g>
<!-- 2&#45;&gt;3 -->
<g id="edge2" class="edge">
<title>2&#45;&gt;3</title>
<path fill="none" stroke="#9e9e9e" d="M349.49,-442.41C349.49,-430.76 349.49,-415.05 349.49,-401.52"/>
<polygon fill="#9e9e9e" stroke="#9e9e9e" points="352.99,-401.86 349.49,-391.86 345.99,-401.86 352.99,-401.86"/>
<text text-anchor="start" x="349.49" y="-412.2" font-family="Times,serif" font-size="14.00" fill="#1e88e5">808</text>
<text text-anchor="start" x="369.74" y="-412.2" font-family="Times,serif" font-size="14.00" fill="#bdbdbd"> | </text>
<text text-anchor="start" x="380.24" y="-412.2" font-family="Times,serif" font-size="14.00" fill="#2e7d32">622</text>
<text text-anchor="start" x="400.49" y="-412.2" font-family="Times,serif" font-size="14.00" fill="#bdbdbd"> (</text>
<text text-anchor="start" x="408.74" y="-412.2" font-family="Times,serif" font-size="14.00" fill="#c2185b">+30%</text>
<text text-anchor="start" x="442.49" y="-412.2" font-family="Times,serif" font-size="14.00" fill="#bdbdbd">)</text>
</g>
<!-- 3&#45;&gt;1 -->
<g id="edge9" class="edge">
<title>3&#45;&gt;1</title>
<path fill="none" stroke="#9e9e9e" d="M396.94,-365.24C430.59,-360.13 476.37,-351.08 514.49,-336 594.34,-304.42 629.86,-292.01 663.49,-213 669.76,-198.28 670.26,-191.5 663.49,-177 654.03,-156.74 635.44,-140.3 618.24,-128.51"/>
<polygon fill="#9e9e9e" stroke="#9e9e9e" points="620.46,-125.78 610.17,-123.26 616.65,-131.65 620.46,-125.78"/>
<text text-anchor="start" x="654.89" y="-235.2" font-family="Times,serif" font-size="14.00" fill="#1e88e5">22</text>
<text text-anchor="start" x="668.39" y="-235.2" font-family="Times,serif" font-size="14.00" fill="#bdbdbd"> | </text>
<text text-anchor="start" x="678.89" y="-235.2" font-family="Times,serif" font-size="14.00" fill="#2e7d32">14</text>
<text text-anchor="start" x="692.39" y="-235.2" font-family="Times,serif" font-size="14.00" fill="#bdbdbd"> (</text>
<text text-anchor="start" x="700.64" y="-235.2" font-family="Times,serif" font-size="14.00" fill="#c2185b">+57%</text>
<text text-anchor="start" x="734.39" y="-235.2" font-family="Times,serif" font-size="14.00" fill="#bdbdbd">)</text>
</g>
<!-- 4 -->
<g id="node5" class="node">
<title>4</title>
<ellipse fill="none" stroke="black" cx="166.49" cy="-106.5" rx="52.38" ry="18"/>
<text text-anchor="middle" x="166.49" y="-101.45" font-family="Times,serif" font-size="14.00">O_Refused</text>
</g>
<!-- 3&#45;&gt;4 -->
<g id="edge19" class="edge">
<title>3&#45;&gt;4</title>
<path fill="none" stroke="#ffb300" stroke-width="2.5" stroke-dasharray="5,2" d="M298.64,-369.86C220.68,-365 73.86,-342.93 8.99,-247.5 -26.86,-194.76 59.14,-148.93 117.67,-125.06"/>
<polygon fill="#ffb300" stroke="#ffb300" stroke-width="2.5" points="118.88,-128.34 126.89,-121.41 116.31,-121.83 118.88,-128.34"/>
<text text-anchor="start" x="8.99" y="-235.2" font-family="Times,serif" font-size="14.00" fill="#1e88e5">0</text>
<text text-anchor="start" x="15.74" y="-235.2" font-family="Times,serif" font-size="14.00" fill="#bdbdbd"> | </text>
<text text-anchor="start" x="26.24" y="-235.2" font-family="Times,serif" font-size="14.00" fill="#2e7d32">1</text>
<text text-anchor="start" x="32.99" y="-235.2" font-family="Times,serif" font-size="14.00" fill="#bdbdbd"> (</text>
<text text-anchor="start" x="41.24" y="-235.2" font-family="Times,serif" font-size="14.00" fill="#6a1b9a">&#45;100%</text>
<text text-anchor="start" x="77.99" y="-235.2" font-family="Times,serif" font-size="14.00" fill="#bdbdbd">)</text>
</g>
<!-- 6 -->
<g id="node7" class="node">
<title>6</title>
<ellipse fill="none" stroke="black" cx="456.49" cy="-283.5" rx="105.6" ry="18"/>
<text text-anchor="middle" x="456.49" y="-278.45" font-family="Times,serif" font-size="14.00">O_Sent (mail and online)</text>
</g>
<!-- 3&#45;&gt;6 -->
<g id="edge3" class="edge">
<title>3&#45;&gt;6</title>
<path fill="none" stroke="#9e9e9e" d="M369.12,-355.13C385.22,-342.12 408.28,-323.48 426.66,-308.61"/>
<polygon fill="#9e9e9e" stroke="#9e9e9e" points="428.77,-311.41 434.35,-302.4 424.37,-305.96 428.77,-311.41"/>
<text text-anchor="start" x="412.57" y="-323.7" font-family="Times,serif" font-size="14.00" fill="#1e88e5">740</text>
<text text-anchor="start" x="432.82" y="-323.7" font-family="Times,serif" font-size="14.00" fill="#bdbdbd"> | </text>
<text text-anchor="start" x="443.32" y="-323.7" font-family="Times,serif" font-size="14.00" fill="#2e7d32">558</text>
<text text-anchor="start" x="463.57" y="-323.7" font-family="Times,serif" font-size="14.00" fill="#bdbdbd"> (</text>
<text text-anchor="start" x="471.82" y="-323.7" font-family="Times,serif" font-size="14.00" fill="#c2185b">+33%</text>
<text text-anchor="start" x="505.57" y="-323.7" font-family="Times,serif" font-size="14.00" fill="#bdbdbd">)</text>
</g>
<!-- 7 -->
<g id="node8" class="node">
<title>7</title>
<ellipse fill="none" stroke="black" cx="243.49" cy="-283.5" rx="89.23" ry="18"/>
<text text-anchor="middle" x="243.49" y="-278.45" font-family="Times,serif" font-size="14.00">O_Sent (online only)</text>
</g>
<!-- 3&#45;&gt;7 -->
<g id="edge10" class="edge">
<title>3&#45;&gt;7</title>
<path fill="none" stroke="#9e9e9e" d="M330.05,-355.13C314.02,-342.06 291.04,-323.31 272.79,-308.41"/>
<polygon fill="#9e9e9e" stroke="#9e9e9e" points="275.39,-306.02 265.43,-302.4 270.97,-311.44 275.39,-306.02"/>
<text text-anchor="start" x="305.98" y="-323.7" font-family="Times,serif" font-size="14.00" fill="#1e88e5">42</text>
<text text-anchor="start" x="319.48" y="-323.7" font-family="Times,serif" font-size="14.00" fill="#bdbdbd"> | </text>
<text text-anchor="start" x="329.98" y="-323.7" font-family="Times,serif" font-size="14.00" fill="#2e7d32">40</text>
<text text-anchor="start" x="343.48" y="-323.7" font-family="Times,serif" font-size="14.00" fill="#bdbdbd"> (</text>
<text text-anchor="start" x="351.73" y="-323.7" font-family="Times,serif" font-size="14.00" fill="#c2185b">+5%</text>
<text text-anchor="start" x="378.73" y="-323.7" font-family="Times,serif" font-size="14.00" fill="#bdbdbd">)</text>
</g>
<!-- 4&#45;&gt;8 -->
<g id="edge13" class="edge">
<title>4&#45;&gt;8</title>
<path fill="none" stroke="#9e9e9e" d="M171.06,-88.36C175.08,-76.76 182.14,-62.12 193.74,-54 227.58,-30.31 346.23,-22.56 408.18,-20.1"/>
<polygon fill="#9e9e9e" stroke="#9e9e9e" points="408.04,-23.61 417.9,-19.74 407.78,-16.61 408.04,-23.61"/>
<text text-anchor="start" x="193.74" y="-58.2" font-family="Times,serif" font-size="14.00" fill="#1e88e5">102</text>
<text text-anchor="start" x="213.99" y="-58.2" font-family="Times,serif" font-size="14.00" fill="#bdbdbd"> | </text>
<text text-anchor="start" x="224.49" y="-58.2" font-family="Times,serif" font-size="14.00" fill="#2e7d32">101</text>
<text text-anchor="start" x="244.74" y="-58.2" font-family="Times,serif" font-size="14.00" fill="#bdbdbd"> (</text>
<text text-anchor="start" x="252.99" y="-58.2" font-family="Times,serif" font-size="14.00" fill="#c2185b">+1%</text>
<text text-anchor="start" x="279.99" y="-58.2" font-family="Times,serif" font-size="14.00" fill="#bdbdbd">)</text>
</g>
<!-- 5 -->
<g id="node6" class="node">
<title>5</title>
<ellipse fill="none" stroke="black" cx="331.49" cy="-195" rx="55.96" ry="18"/>
<text text-anchor="middle" x="331.49" y="-189.95" font-family="Times,serif" font-size="14.00">O_Returned</text>
</g>
<!-- 5&#45;&gt;0 -->
<g id="edge7" class="edge">
<title>5&#45;&gt;0</title>
<path fill="none" stroke="#9e9e9e" d="M327.24,-176.56C325.66,-165.7 325.73,-152.04 332.99,-142.5 336.93,-137.33 364.53,-128.75 391.53,-121.39"/>
<polygon fill="#9e9e9e" stroke="#9e9e9e" points="392.38,-124.79 401.13,-118.82 390.57,-118.02 392.38,-124.79"/>
<text text-anchor="start" x="332.99" y="-146.7" font-family="Times,serif" font-size="14.00" fill="#1e88e5">311</text>
<text text-anchor="start" x="353.24" y="-146.7" font-family="Times,serif" font-size="14.00" fill="#bdbdbd"> | </text>
<text text-anchor="start" x="363.74" y="-146.7" font-family="Times,serif" font-size="14.00" fill="#2e7d32">234</text>
<text text-anchor="start" x="383.99" y="-146.7" font-family="Times,serif" font-size="14.00" fill="#bdbdbd"> (</text>
<text text-anchor="start" x="392.24" y="-146.7" font-family="Times,serif" font-size="14.00" fill="#c2185b">+33%</text>
<text text-anchor="start" x="425.99" y="-146.7" font-family="Times,serif" font-size="14.00" fill="#bdbdbd">)</text>
</g>
<!-- 5&#45;&gt;1 -->
<g id="edge15" class="edge">
<title>5&#45;&gt;1</title>
<path fill="none" stroke="#9e9e9e" d="M372.53,-182.32C390.77,-176.42 412.2,-168.49 430.49,-159 441.74,-153.17 442.29,-147.93 453.74,-142.5 460.61,-139.24 494.69,-129.88 525.77,-121.67"/>
<polygon fill="#9e9e9e" stroke="#9e9e9e" points="526.35,-125.13 535.13,-119.21 524.57,-118.36 526.35,-125.13"/>
<text text-anchor="start" x="453.74" y="-146.7" font-family="Times,serif" font-size="14.00" fill="#1e88e5">37</text>
<text text-anchor="start" x="467.24" y="-146.7" font-family="Times,serif" font-size="14.00" fill="#bdbdbd"> | </text>
<text text-anchor="start" x="477.74" y="-146.7" font-family="Times,serif" font-size="14.00" fill="#2e7d32">16</text>
<text text-anchor="start" x="491.24" y="-146.7" font-family="Times,serif" font-size="14.00" fill="#bdbdbd"> (</text>
<text text-anchor="start" x="499.49" y="-146.7" font-family="Times,serif" font-size="14.00" fill="#c2185b">+131%</text>
<text text-anchor="start" x="539.99" y="-146.7" font-family="Times,serif" font-size="14.00" fill="#bdbdbd">)</text>
</g>
<!-- 5&#45;&gt;4 -->
<g id="edge12" class="edge">
<title>5&#45;&gt;4</title>
<path fill="none" stroke="#9e9e9e" d="M288.14,-183.2C251.43,-173.93 204.19,-161.67 200.49,-159 191.87,-152.79 184.82,-143.66 179.43,-134.81"/>
<polygon fill="#9e9e9e" stroke="#9e9e9e" points="182.49,-133.11 174.59,-126.06 176.36,-136.5 182.49,-133.11"/>
<text text-anchor="start" x="200.49" y="-146.7" font-family="Times,serif" font-size="14.00" fill="#1e88e5">72</text>
<text text-anchor="start" x="213.99" y="-146.7" font-family="Times,serif" font-size="14.00" fill="#bdbdbd"> | </text>
<text text-anchor="start" x="224.49" y="-146.7" font-family="Times,serif" font-size="14.00" fill="#2e7d32">51</text>
<text text-anchor="start" x="237.99" y="-146.7" font-family="Times,serif" font-size="14.00" fill="#bdbdbd"> (</text>
<text text-anchor="start" x="246.24" y="-146.7" font-family="Times,serif" font-size="14.00" fill="#c2185b">+41%</text>
<text text-anchor="start" x="279.99" y="-146.7" font-family="Times,serif" font-size="14.00" fill="#bdbdbd">)</text>
</g>
<!-- 5&#45;&gt;8 -->
<g id="edge17" class="edge">
<title>5&#45;&gt;8</title>
<path fill="none" stroke="#ffb300" stroke-width="2.5" stroke-dasharray="5,2" d="M320.26,-177.02C307.28,-155.06 289.77,-116.32 306.99,-88.5 328.67,-53.47 373.91,-35.53 407.01,-26.73"/>
<polygon fill="#ffb300" stroke="#ffb300" stroke-width="2.5" points="407.78,-30.15 416.67,-24.39 406.13,-23.35 407.78,-30.15"/>
<text text-anchor="start" x="306.99" y="-102.45" font-family="Times,serif" font-size="14.00" fill="#1e88e5">0</text>
<text text-anchor="start" x="313.74" y="-102.45" font-family="Times,serif" font-size="14.00" fill="#bdbdbd"> | </text>
<text text-anchor="start" x="324.24" y="-102.45" font-family="Times,serif" font-size="14.00" fill="#2e7d32">3</text>
<text text-anchor="start" x="330.99" y="-102.45" font-family="Times,serif" font-size="14.00" fill="#bdbdbd"> (</text>
<text text-anchor="start" x="339.24" y="-102.45" font-family="Times,serif" font-size="14.00" fill="#6a1b9a">&#45;100%</text>
<text text-anchor="start" x="375.99" y="-102.45" font-family="Times,serif" font-size="14.00" fill="#bdbdbd">)</text>
</g>
<!-- 6&#45;&gt;1 -->
<g id="edge4" class="edge">
<title>6&#45;&gt;1</title>
<path fill="none" stroke="#9e9e9e" d="M488.29,-266.07C508.94,-253.93 534.99,-235.61 551.49,-213 568.01,-190.37 575.12,-158.8 578.18,-136.1"/>
<polygon fill="#9e9e9e" stroke="#9e9e9e" points="581.64,-136.66 579.3,-126.32 574.68,-135.86 581.64,-136.66"/>
<text text-anchor="start" x="568.91" y="-190.95" font-family="Times,serif" font-size="14.00" fill="#1e88e5">47</text>
<text text-anchor="start" x="582.41" y="-190.95" font-family="Times,serif" font-size="14.00" fill="#bdbdbd"> | </text>
<text text-anchor="start" x="592.91" y="-190.95" font-family="Times,serif" font-size="14.00" fill="#2e7d32">20</text>
<text text-anchor="start" x="606.41" y="-190.95" font-family="Times,serif" font-size="14.00" fill="#bdbdbd"> (</text>
<text text-anchor="start" x="614.66" y="-190.95" font-family="Times,serif" font-size="14.00" fill="#c2185b">+135%</text>
<text text-anchor="start" x="655.16" y="-190.95" font-family="Times,serif" font-size="14.00" fill="#bdbdbd">)</text>
</g>
<!-- 6&#45;&gt;4 -->
<g id="edge14" class="edge">
<title>6&#45;&gt;4</title>
<path fill="none" stroke="#9e9e9e" d="M378.89,-270.96C317.67,-261.75 241.44,-249.99 234.49,-247.5 205.98,-237.3 191.92,-238.6 175.74,-213 161.25,-190.08 160.39,-158.55 162.26,-135.94"/>
<polygon fill="#9e9e9e" stroke="#9e9e9e" points="165.71,-136.54 163.31,-126.22 158.75,-135.79 165.71,-136.54"/>
<text text-anchor="start" x="175.74" y="-190.95" font-family="Times,serif" font-size="14.00" fill="#1e88e5">13</text>
<text text-anchor="start" x="189.24" y="-190.95" font-family="Times,serif" font-size="14.00" fill="#bdbdbd"> | </text>
<text text-anchor="start" x="199.74" y="-190.95" font-family="Times,serif" font-size="14.00" fill="#2e7d32">1</text>
<text text-anchor="start" x="206.49" y="-190.95" font-family="Times,serif" font-size="14.00" fill="#bdbdbd"> (</text>
<text text-anchor="start" x="214.74" y="-190.95" font-family="Times,serif" font-size="14.00" fill="#c2185b">+1200%</text>
<text text-anchor="start" x="261.99" y="-190.95" font-family="Times,serif" font-size="14.00" fill="#bdbdbd">)</text>
</g>
<!-- 6&#45;&gt;5 -->
<g id="edge6" class="edge">
<title>6&#45;&gt;5</title>
<path fill="none" stroke="#9e9e9e" d="M432.09,-265.62C412.5,-252.06 384.83,-232.91 363.46,-218.13"/>
<polygon fill="#9e9e9e" stroke="#9e9e9e" points="365.6,-215.35 355.39,-212.54 361.62,-221.11 365.6,-215.35"/>
<text text-anchor="start" x="405.19" y="-235.2" font-family="Times,serif" font-size="14.00" fill="#1e88e5">322</text>
<text text-anchor="start" x="425.44" y="-235.2" font-family="Times,serif" font-size="14.00" fill="#bdbdbd"> | </text>
<text text-anchor="start" x="435.94" y="-235.2" font-family="Times,serif" font-size="14.00" fill="#2e7d32">31</text>
<text text-anchor="start" x="449.44" y="-235.2" font-family="Times,serif" font-size="14.00" fill="#bdbdbd"> (</text>
<text text-anchor="start" x="457.69" y="-235.2" font-family="Times,serif" font-size="14.00" fill="#c2185b">+939%</text>
<text text-anchor="start" x="498.19" y="-235.2" font-family="Times,serif" font-size="14.00" fill="#bdbdbd">)</text>
</g>
<!-- 6&#45;&gt;8 -->
<g id="edge20" class="edge">
<title>6&#45;&gt;8</title>
<path fill="none" stroke="#ffb300" stroke-width="2.5" stroke-dasharray="5,2" d="M550.66,-275.08C592.33,-266.55 637.65,-248.93 663.49,-213 684.58,-183.68 720.84,-125.13 657.49,-54 635.56,-29.37 542.48,-22.07 487.54,-19.91"/>
<polygon fill="#ffb300" stroke="#ffb300" stroke-width="2.5" points="487.7,-16.41 477.59,-19.57 487.46,-23.41 487.7,-16.41"/>
<text text-anchor="start" x="692.83" y="-146.7" font-family="Times,serif" font-size="14.00" fill="#1e88e5">0</text>
<text text-anchor="start" x="699.58" y="-146.7" font-family="Times,serif" font-size="14.00" fill="#bdbdbd"> | </text>
<text text-anchor="start" x="710.08" y="-146.7" font-family="Times,serif" font-size="14.00" fill="#2e7d32">4</text>
<text text-anchor="start" x="716.83" y="-146.7" font-family="Times,serif" font-size="14.00" fill="#bdbdbd"> (</text>
<text text-anchor="start" x="725.08" y="-146.7" font-family="Times,serif" font-size="14.00" fill="#6a1b9a">&#45;100%</text>
<text text-anchor="start" x="761.83" y="-146.7" font-family="Times,serif" font-size="14.00" fill="#bdbdbd">)</text>
</g>
<!-- 7&#45;&gt;1 -->
<g id="edge16" class="edge">
<title>7&#45;&gt;1</title>
<path fill="none" stroke="#9e9e9e" d="M309.37,-271.01C320.11,-269.16 331.11,-267.27 341.49,-265.5 365.48,-261.42 432.02,-264.44 449.49,-247.5 472.42,-225.26 441.16,-199.84 463.49,-177 489.27,-150.63 513.84,-179.51 544.49,-159 553.71,-152.83 561.29,-143.43 567.07,-134.35"/>
<polygon fill="#9e9e9e" stroke="#9e9e9e" points="570.09,-136.12 572.07,-125.72 564.03,-132.61 570.09,-136.12"/>
<text text-anchor="start" x="463.49" y="-190.95" font-family="Times,serif" font-size="14.00" fill="#1e88e5">13</text>
<text text-anchor="start" x="476.99" y="-190.95" font-family="Times,serif" font-size="14.00" fill="#bdbdbd"> | </text>
<text text-anchor="start" x="487.49" y="-190.95" font-family="Times,serif" font-size="14.00" fill="#2e7d32">4</text>
<text text-anchor="start" x="494.24" y="-190.95" font-family="Times,serif" font-size="14.00" fill="#bdbdbd"> (</text>
<text text-anchor="start" x="502.49" y="-190.95" font-family="Times,serif" font-size="14.00" fill="#c2185b">+225%</text>
<text text-anchor="start" x="542.99" y="-190.95" font-family="Times,serif" font-size="14.00" fill="#bdbdbd">)</text>
</g>
<!-- 7&#45;&gt;4 -->
<g id="edge18" class="edge">
<title>7&#45;&gt;4</title>
<path fill="none" stroke="#ffb300" stroke-width="2.5" stroke-dasharray="5,2" d="M170.84,-272.74C134.27,-263.72 93.1,-246.37 70.99,-213 49.63,-180.76 90.1,-148.5 124.77,-128.3"/>
<polygon fill="#ffb300" stroke="#ffb300" stroke-width="2.5" points="126.34,-131.43 133.38,-123.52 122.94,-125.32 126.34,-131.43"/>
<text text-anchor="start" x="70.99" y="-190.95" font-family="Times,serif" font-size="14.00" fill="#1e88e5">0</text>
<text text-anchor="start" x="77.74" y="-190.95" font-family="Times,serif" font-size="14.00" fill="#bdbdbd"> | </text>
<text text-anchor="start" x="88.24" y="-190.95" font-family="Times,serif" font-size="14.00" fill="#2e7d32">1</text>
<text text-anchor="start" x="94.99" y="-190.95" font-family="Times,serif" font-size="14.00" fill="#bdbdbd"> (</text>
<text text-anchor="start" x="103.24" y="-190.95" font-family="Times,serif" font-size="14.00" fill="#6a1b9a">&#45;100%</text>
<text text-anchor="start" x="139.99" y="-190.95" font-family="Times,serif" font-size="14.00" fill="#bdbdbd">)</text>
</g>
<!-- 7&#45;&gt;5 -->
<g id="edge11" class="edge">
<title>7&#45;&gt;5</title>
<path fill="none" stroke="#9e9e9e" d="M239.32,-265.28C237.73,-254.51 237.69,-240.86 244.49,-231 251.43,-220.94 261.77,-213.78 272.93,-208.67"/>
<polygon fill="#9e9e9e" stroke="#9e9e9e" points="273.93,-212.04 281.92,-205.09 271.34,-205.53 273.93,-212.04"/>
<text text-anchor="start" x="244.49" y="-235.2" font-family="Times,serif" font-size="14.00" fill="#1e88e5">23</text>
<text text-anchor="start" x="257.99" y="-235.2" font-family="Times,serif" font-size="14.00" fill="#bdbdbd"> | </text>
<text text-anchor="start" x="268.49" y="-235.2" font-family="Times,serif" font-size="14.00" fill="#2e7d32">17</text>
<text text-anchor="start" x="281.99" y="-235.2" font-family="Times,serif" font-size="14.00" fill="#bdbdbd"> (</text>
<text text-anchor="start" x="290.24" y="-235.2" font-family="Times,serif" font-size="14.00" fill="#c2185b">+35%</text>
<text text-anchor="start" x="323.99" y="-235.2" font-family="Times,serif" font-size="14.00" fill="#bdbdbd">)</text>
</g>
<!-- 9 -->
<g id="node10" class="node">
<title>9</title>
<ellipse fill="none" stroke="black" cx="349.49" cy="-595.25" rx="27" ry="18"/>
<text text-anchor="middle" x="349.49" y="-590.58" font-family="Times,serif" font-size="14.00">▶</text>
</g>
<!-- 9&#45;&gt;2 -->
<g id="edge1" class="edge">
<title>9&#45;&gt;2</title>
<path fill="none" stroke="#9e9e9e" d="M349.49,-576.9C349.49,-554.83 349.49,-516.44 349.49,-490.04"/>
<polygon fill="#9e9e9e" stroke="#9e9e9e" points="352.99,-490.37 349.49,-480.37 345.99,-490.37 352.99,-490.37"/>
<text text-anchor="start" x="349.49" y="-500.7" font-family="Times,serif" font-size="14.00" fill="#1e88e5">808</text>
<text text-anchor="start" x="369.74" y="-500.7" font-family="Times,serif" font-size="14.00" fill="#bdbdbd"> | </text>
<text text-anchor="start" x="380.24" y="-500.7" font-family="Times,serif" font-size="14.00" fill="#2e7d32">622</text>
<text text-anchor="start" x="400.49" y="-500.7" font-family="Times,serif" font-size="14.00" fill="#bdbdbd"> (</text>
<text text-anchor="start" x="408.74" y="-500.7" font-family="Times,serif" font-size="14.00" fill="#c2185b">+30%</text>
<text text-anchor="start" x="442.49" y="-500.7" font-family="Times,serif" font-size="14.00" fill="#bdbdbd">)</text>
</g>
<!-- _legend -->
<g id="node11" class="node">
<title>_legend</title>
<text text-anchor="start" x="519.12" y="-638.2" font-family="Times,serif" font-weight="bold" font-size="14.00">Legend</text>
<text text-anchor="start" x="407.24" y="-614.7" font-family="Times,serif" font-size="14.00" fill="#555555">edge numbers: </text>
<text text-anchor="start" x="491.24" y="-614.7" font-family="Times,serif" font-size="14.00" fill="#1e88e5">forecast</text>
<text text-anchor="start" x="533.99" y="-614.7" font-family="Times,serif" font-size="14.00" fill="#bdbdbd"> | </text>
<text text-anchor="start" x="544.49" y="-614.7" font-family="Times,serif" font-size="14.00" fill="#2e7d32">actual</text>
<text text-anchor="start" x="576.74" y="-614.7" font-family="Times,serif" font-size="14.00" fill="#bdbdbd"> (</text>
<text text-anchor="start" x="584.99" y="-614.7" font-family="Times,serif" font-size="14.00" fill="#c2185b">over</text>
<text text-anchor="start" x="608.99" y="-614.7" font-family="Times,serif" font-size="14.00" fill="#555555">/</text>
<text text-anchor="start" x="612.74" y="-614.7" font-family="Times,serif" font-size="14.00" fill="#6a1b9a">under</text>
<text text-anchor="start" x="643.49" y="-614.7" font-family="Times,serif" font-size="14.00" fill="#555555"> %)</text>
<text text-anchor="start" x="407.24" y="-590.2" font-family="Times,serif" font-size="14.00" fill="#9e9e9e">─────</text>
<text text-anchor="start" x="462.99" y="-590.2" font-family="Times,serif" font-size="14.00">matched</text>
<text text-anchor="start" x="407.24" y="-566.7" font-family="Times,serif" font-size="14.00" fill="#ffb300">– – –</text>
<text text-anchor="start" x="462.99" y="-566.7" font-family="Times,serif" font-size="14.00">happened — forecast missed it</text>
<text text-anchor="start" x="407.24" y="-543.2" font-family="Times,serif" font-size="14.00" fill="#e53935">– – –</text>
<text text-anchor="start" x="462.99" y="-543.2" font-family="Times,serif" font-size="14.00">forecast predicted it — did not happen</text>
</g>
</g>
</svg>
