<?xml version="1.0" encoding="UTF-8" standalone="no"?>
<!DOCTYPE svg PUBLIC "-//W3C//DTD SVG 1.1//EN"
 "http://www.w3.org/Graphics/SVG/1.1/DTD/svg11.dtd">
<!-- Generated by graphviz version 12.2.1 (20241206.2353)
 -->
<!-- Pages: 1 -->
<svg width="624pt" height="684pt"
 viewBox="0.00 0.00 624.44 683.50" xmlns="http://www.w3.org/2000/svg" xmlns:xlink="http://www.w3.org/1999/xlink">
<g id="graph0" class="graph" transform="scale(1 1) rotate(0) translate(4 679.5)">
<polygon fill="white" stroke="none" points="-4,4 -4,-679.5 620.44,-679.5 620.44,4 -4,4"/>
<g id="clust1" class="cluster">
<title>cluster_legend</title>
<polygon fill="none" stroke="#bdbdbd" stroke-dasharray="5,2" points="300.44,-523 300.44,-667.5 608.44,-667.5 608.44,-523 300.44,-523"/>
</g>
<!-- 0 -->
<g id="node1" class="node">
<title>0</title>
<ellipse fill="none" stroke="black" cx="278.44" cy="-106.5" rx="56.98" ry="18"/>
<text text-anchor="middle" x="278.44" y="-101.45" font-family="Times,serif" font-size="14.00">O_Accepted</text>
</g>
<!-- 8 -->
<g id="node9" class="node">
<title>8</title>
<ellipse fill="none" stroke="black" cx="278.44" cy="-18" rx="27" ry="18"/>
<text text-anchor="middle" x="278.44" y="-12.95" font-family="Times,serif" font-size="14.00">■</text>
</g>
<!-- 0&#45;&gt;8 -->
<g id="edge8" class="edge">
<title>0&#45;&gt;8</title>
<path fill="none" stroke="#9e9e9e" d="M278.44,-88.41C278.44,-76.76 278.44,-61.05 278.44,-47.52"/>
<polygon fill="#9e9e9e" stroke="#9e9e9e" points="281.94,-47.86 278.44,-37.86 274.94,-47.86 281.94,-47.86"/>
<text text-anchor="start" x="278.44" y="-57.2" font-family="Times,serif" font-size="14.00" fill="#0c8599">&#45;56%</text>
</g>
<!-- 1 -->
<g id="node2" class="node">
<title>1</title>
<ellipse fill="none" stroke="black" cx="412.44" cy="-106.5" rx="59.03" ry="18"/>
<text text-anchor="middle" x="412.44" y="-101.45" font-family="Times,serif" font-size="14.00">O_Cancelled</text>
</g>
<!-- 1&#45;&gt;8 -->
<g id="edge5" class="edge">
<title>1&#45;&gt;8</title>
<path fill="none" stroke="#9e9e9e" d="M388.18,-89.84C365.34,-75.1 331.15,-53.02 307.01,-37.44"/>
<polygon fill="#9e9e9e" stroke="#9e9e9e" points="308.91,-34.5 298.61,-32.02 305.11,-40.38 308.91,-34.5"/>
<text text-anchor="start" x="357.45" y="-57.2" font-family="Times,serif" font-size="14.00" fill="#0c8599">&#45;24%</text>
</g>
<!-- 2 -->
<g id="node3" class="node">
<title>2</title>
<ellipse fill="none" stroke="black" cx="263.44" cy="-460.5" rx="68.75" ry="18"/>
<text text-anchor="middle" x="263.44" y="-455.45" font-family="Times,serif" font-size="14.00">O_Create Offer</text>
</g>
<!-- 3 -->
<g id="node4" class="node">
<title>3</title>
<ellipse fill="none" stroke="black" cx="263.44" cy="-372" rx="50.84" ry="18"/>
<text text-anchor="middle" x="263.44" y="-366.95" font-family="Times,serif" font-size="14.00">O_Created</text>
</g>
<!-- 2&#45;&gt;3 -->
<g id="edge2" class="edge">
<title>2&#45;&gt;3</title>
<path fill="none" stroke="#9e9e9e" d="M263.44,-442.41C263.44,-430.76 263.44,-415.05 263.44,-401.52"/>
<polygon fill="#9e9e9e" stroke="#9e9e9e" points="266.94,-401.86 263.44,-391.86 259.94,-401.86 266.94,-401.86"/>
<text text-anchor="start" x="263.44" y="-411.2" font-family="Times,serif" font-size="14.00" fill="#e8590c">+30%</text>
</g>
<!-- 3&#45;&gt;1 -->
<g id="edge9" class="edge">
<title>3&#45;&gt;1</title>
<path fill="none" stroke="#9e9e9e" d="M309.15,-363.67C369.45,-352.95 470.54,-331.04 492.44,-301.5 532.39,-247.63 473.53,-170.93 437.3,-132.08"/>
<polygon fill="#9e9e9e" stroke="#9e9e9e" points="440,-129.84 430.56,-125.03 434.94,-134.68 440,-129.84"/>
<text text-anchor="start" x="504.72" y="-234.2" font-family="Times,serif" font-size="14.00" fill="#e8590c">+57%</text>
</g>
<!-- 4 -->
<g id="node5" class="node">
<title>4</title>
<ellipse fill="none" stroke="black" cx="78.44" cy="-106.5" rx="52.38" ry="18"/>
<text text-anchor="middle" x="78.44" y="-101.45" font-family="Times,serif" font-size="14.00">O_Refused</text>
</g>
<!-- 3&#45;&gt;4 -->
<g id="edge19" class="edge">
<title>3&#45;&gt;4</title>
<path fill="none" stroke="#ffb300" stroke-width="2.5" stroke-dasharray="5,2" d="M215.16,-365.76C151.3,-355.78 42.73,-327.3 7.69,-247.5 -5.97,-216.38 -2.16,-197.98 35.44,-142.5 37.98,-138.76 41.04,-135.21 44.34,-131.91"/>
<polygon fill="#ffb300" stroke="#ffb300" stroke-width="2.5" points="46.64,-134.54 51.84,-125.31 42.02,-129.29 46.64,-134.54"/>
<text text-anchor="start" x="7.69" y="-234.2" font-family="Times,serif" font-size="14.00" fill="#0c8599">&#45;100%</text>
</g>
<!-- 6 -->
<g id="node7" class="node">
<title>6</title>
<ellipse fill="none" stroke="black" cx="377.44" cy="-283.5" rx="105.6" ry="18"/>
<text text-anchor="middle" x="377.44" y="-278.45" font-family="Times,serif" font-size="14.00">O_Sent (mail and online)</text>
</g>
<!-- 3&#45;&gt;6 -->
<g id="edge3" class="edge">
<title>3&#45;&gt;6</title>
<path fill="none" stroke="#9e9e9e" d="M284.35,-355.13C301.67,-342 326.53,-323.14 346.2,-308.21"/>
<polygon fill="#9e9e9e" stroke="#9e9e9e" points="348.05,-311.2 353.9,-302.36 343.82,-305.62 348.05,-311.2"/>
<text text-anchor="start" x="330.65" y="-322.7" font-family="Times,serif" font-size="14.00" fill="#e8590c">+33%</text>
</g>
<!-- 7 -->
<g id="node8" class="node">
<title>7</title>
<ellipse fill="none" stroke="black" cx="164.44" cy="-283.5" rx="89.23" ry="18"/>
<text text-anchor="middle" x="164.44" y="-278.45" font-family="Times,serif" font-size="14.00">O_Sent (online only)</text>
</g>
<!-- 3&#45;&gt;7 -->
<g id="edge10" class="edge">
<title>3&#45;&gt;7</title>
<path fill="none" stroke="#9e9e9e" d="M245.29,-355.13C230.45,-342.18 209.25,-323.65 192.27,-308.82"/>
<polygon fill="#9e9e9e" stroke="#9e9e9e" points="194.81,-306.39 184.98,-302.44 190.21,-311.66 194.81,-306.39"/>
<text text-anchor="start" x="222.81" y="-322.7" font-family="Times,serif" font-size="14.00" fill="#e8590c">+5%</text>
</g>
<!-- 4&#45;&gt;8 -->
<g id="edge13" class="edge">
<title>4&#45;&gt;8</title>
<path fill="none" stroke="#9e9e9e" d="M89.63,-88.62C98.12,-77.14 110.8,-62.54 125.44,-54 160.87,-33.34 207.53,-24.87 239.97,-21.41"/>
<polygon fill="#9e9e9e" stroke="#9e9e9e" points="240.09,-24.91 249.72,-20.48 239.43,-17.94 240.09,-24.91"/>
<text text-anchor="start" x="125.44" y="-57.2" font-family="Times,serif" font-size="14.00" fill="#e8590c">+1%</text>
</g>
<!-- 5 -->
<g id="node6" class="node">
<title>5</title>
<ellipse fill="none" stroke="black" cx="214.44" cy="-195" rx="55.96" ry="18"/>
<text text-anchor="middle" x="214.44" y="-189.95" font-family="Times,serif" font-size="14.00">O_Returned</text>
</g>
<!-- 5&#45;&gt;0 -->
<g id="edge7" class="edge">
<title>5&#45;&gt;0</title>
<path fill="none" stroke="#9e9e9e" d="M210.74,-176.57C209.45,-165.98 209.59,-152.61 215.69,-142.5 219.59,-136.04 225.15,-130.68 231.37,-126.26"/>
<polygon fill="#9e9e9e" stroke="#9e9e9e" points="232.85,-129.46 239.54,-121.23 229.19,-123.49 232.85,-129.46"/>
<text text-anchor="start" x="215.69" y="-145.7" font-family="Times,serif" font-size="14.00" fill="#e8590c">+33%</text>
</g>
<!-- 5&#45;&gt;1 -->
<g id="edge15" class="edge">
<title>5&#45;&gt;1</title>
<path fill="none" stroke="#9e9e9e" d="M231.33,-177.51C245.17,-164.32 263.9,-147.25 272.94,-142.5 273.19,-142.37 318.4,-131.03 357.28,-121.3"/>
<polygon fill="#9e9e9e" stroke="#9e9e9e" points="357.72,-124.8 366.57,-118.98 356.02,-118.01 357.72,-124.8"/>
<text text-anchor="start" x="272.94" y="-145.7" font-family="Times,serif" font-size="14.00" fill="#e8590c">+131%</text>
</g>
<!-- 5&#45;&gt;4 -->
<g id="edge12" class="edge">
<title>5&#45;&gt;4</title>
<path fill="none" stroke="#9e9e9e" d="M172.61,-182.58C156.46,-177 138.37,-169.24 123.69,-159 113.59,-151.95 104.26,-142.19 96.73,-133.05"/>
<polygon fill="#9e9e9e" stroke="#9e9e9e" points="99.69,-131.16 90.77,-125.44 94.18,-135.47 99.69,-131.16"/>
<text text-anchor="start" x="123.69" y="-145.7" font-family="Times,serif" font-size="14.00" fill="#e8590c">+41%</text>
</g>
<!-- 5&#45;&gt;8 -->
<g id="edge17" class="edge">
<title>5&#45;&gt;8</title>
<path fill="none" stroke="#ffb300" stroke-width="2.5" stroke-dasharray="5,2" d="M199.87,-177.32C183.13,-156.01 159.86,-118.32 175.69,-88.5 189.75,-62.02 218.91,-43.78 242.58,-32.66"/>
<polygon fill="#ffb300" stroke="#ffb300" stroke-width="2.5" points="243.82,-35.94 251.57,-28.72 241.01,-29.53 243.82,-35.94"/>
<text text-anchor="start" x="175.69" y="-101.45" font-family="Times,serif" font-size="14.00" fill="#0c8599">&#45;100%</text>
</g>
<!-- 6&#45;&gt;1 -->
<g id="edge4" class="edge">
<title>6&#45;&gt;1</title>
<path fill="none" stroke="#9e9e9e" d="M380.93,-265.08C386.98,-234.81 399.49,-172.26 406.8,-135.72"/>
<polygon fill="#9e9e9e" stroke="#9e9e9e" points="410.15,-136.83 408.68,-126.33 403.28,-135.45 410.15,-136.83"/>
<text text-anchor="start" x="398.42" y="-189.95" font-family="Times,serif" font-size="14.00" fill="#e8590c">+135%</text>
</g>
<!-- 6&#45;&gt;4 -->
<g id="edge14" class="edge">
<title>6&#45;&gt;4</title>
<path fill="none" stroke="#9e9e9e" d="M300.93,-270.71C255.88,-263.41 203.53,-254.18 181.44,-247.5 144.67,-236.38 126.67,-242.61 102.19,-213 84.45,-191.54 79.29,-159.52 78.1,-136.39"/>
<polygon fill="#9e9e9e" stroke="#9e9e9e" points="81.6,-136.31 77.83,-126.41 74.6,-136.5 81.6,-136.31"/>
<text text-anchor="start" x="102.19" y="-189.95" font-family="Times,serif" font-size="14.00" fill="#e8590c">+1200%</text>
</g>
<!-- 6&#45;&gt;5 -->
<g id="edge6" class="edge">
<title>6&#45;&gt;5</title>
<path fill="none" stroke="#9e9e9e" d="M346.4,-266.03C319.75,-251.88 281.22,-231.44 252.67,-216.29"/>
<polygon fill="#9e9e9e" stroke="#9e9e9e" points="254.46,-213.27 243.98,-211.68 251.18,-219.46 254.46,-213.27"/>
<text text-anchor="start" x="310.54" y="-234.2" font-family="Times,serif" font-size="14.00" fill="#e8590c">+939%</text>
</g>
<!-- 6&#45;&gt;8 -->
<g id="edge20" class="edge">
<title>6&#45;&gt;8</title>
<path fill="none" stroke="#ffb300" stroke-width="2.5" stroke-dasharray="5,2" d="M399.04,-265.42C440.28,-230.71 522.57,-150.01 480.44,-88.5 444.76,-36.39 367.17,-22.86 319.21,-19.63"/>
<polygon fill="#ffb300" stroke="#ffb300" stroke-width="2.5" points="319.6,-16.15 309.43,-19.13 319.24,-23.14 319.6,-16.15"/>
<text text-anchor="start" x="490.11" y="-145.7" font-family="Times,serif" font-size="14.00" fill="#0c8599">&#45;100%</text>
</g>
<!-- 7&#45;&gt;1 -->
<g id="edge16" class="edge">
<title>7&#45;&gt;1</title>
<path fill="none" stroke="#9e9e9e" d="M227.33,-270.38C264.8,-262.7 306.41,-253.17 313.44,-247.5 340.44,-225.71 327.36,-205.64 346.94,-177 358.15,-160.61 373.21,-144.34 386.06,-131.67"/>
<polygon fill="#9e9e9e" stroke="#9e9e9e" points="388.26,-134.41 393.03,-124.95 383.4,-129.37 388.26,-134.41"/>
<text text-anchor="start" x="346.94" y="-189.95" font-family="Times,serif" font-size="14.00" fill="#e8590c">+225%</text>
</g>
<!-- 7&#45;&gt;4 -->
<g id="edge18" class="edge">
<title>7&#45;&gt;4</title>
<path fill="none" stroke="#ffb300" stroke-width="2.5" stroke-dasharray="5,2" d="M108.7,-269.17C80.3,-259.04 48.84,-241.78 34.69,-213 21.86,-186.91 38.09,-156.09 54.29,-134.52"/>
<polygon fill="#ffb300" stroke="#ffb300" stroke-width="2.5" points="56.94,-136.81 60.48,-126.82 51.49,-132.42 56.94,-136.81"/>
<text text-anchor="start" x="34.69" y="-189.95" font-family="Times,serif" font-size="14.00" fill="#0c8599">&#45;100%</text>
</g>
<!-- 7&#45;&gt;5 -->
<g id="edge11" class="edge">
<title>7&#45;&gt;5</title>
<path fill="none" stroke="#9e9e9e" d="M174.32,-265.41C181.38,-253.21 191,-236.55 199.06,-222.62"/>
<polygon fill="#9e9e9e" stroke="#9e9e9e" points="201.85,-224.77 203.83,-214.36 195.79,-221.27 201.85,-224.77"/>
<text text-anchor="start" x="193.92" y="-234.2" font-family="Times,serif" font-size="14.00" fill="#e8590c">+35%</text>
</g>
<!-- 9 -->
<g id="node10" class="node">
<title>9</title>
<ellipse fill="none" stroke="black" cx="263.44" cy="-595.25" rx="27" ry="18"/>
<text text-anchor="middle" x="263.44" y="-590.58" font-family="Times,serif" font-size="14.00">▶</text>
</g>
<!-- 9&#45;&gt;2 -->
<g id="edge1" class="edge">
<title>9&#45;&gt;2</title>
<path fill="none" stroke="#9e9e9e" d="M263.44,-576.9C263.44,-554.83 263.44,-516.44 263.44,-490.04"/>
<polygon fill="#9e9e9e" stroke="#9e9e9e" points="266.94,-490.37 263.44,-480.37 259.94,-490.37 266.94,-490.37"/>
<text text-anchor="start" x="263.44" y="-499.7" font-family="Times,serif" font-size="14.00" fill="#e8590c">+30%</text>
</g>
<!-- _legend -->
<g id="node11" class="node">
<title>_legend</title>
<text text-anchor="start" x="433.07" y="-638.2" font-family="Times,serif" font-weight="bold" font-size="14.00">Legend</text>
<text text-anchor="start" x="321.19" y="-614.7" font-family="Times,serif" font-size="14.00" fill="#555555">edge label: </text>
<text text-anchor="start" x="384.19" y="-614.7" font-family="Times,serif" font-size="14.00" fill="#e8590c">over</text>
<text text-anchor="start" x="408.19" y="-614.7" font-family="Times,serif" font-size="14.00" fill="#555555"> / </text>
<text text-anchor="start" x="419.44" y="-614.7" font-family="Times,serif" font-size="14.00" fill="#0c8599">under</text>
<text text-anchor="start" x="450.19" y="-614.7" font-family="Times,serif" font-size="14.00" fill="#555555">&#45;forecast %</text>
<text text-anchor="start" x="321.19" y="-590.2" font-family="Times,serif" font-size="14.00" fill="#9e9e9e">─────</text>
<text text-anchor="start" x="376.94" y="-590.2" font-family="Times,serif" font-size="14.00">matched</text>
<text text-anchor="start" x="321.19" y="-566.7" font-family="Times,serif" font-size="14.00" fill="#ffb300">– – –</text>
<text text-anchor="start" x="376.94" y="-566.7" font-family="Times,serif" font-size="14.00">happened — forecast missed it</text>
<text text-anchor="start" x="321.19" y="-543.2" font-family="Times,serif" font-size="14.00" fill="#e53935">– – –</text>
<text text-anchor="start" x="376.94" y="-543.2" font-family="Times,serif" font-size="14.00">forecast predicted it — did not happen</text>
</g>
</g>
</svg>
