<?xml version="1.0" encoding="UTF-8" standalone="no"?>
<!DOCTYPE svg PUBLIC "-//W3C//DTD SVG 1.1//EN"
 "http://www.w3.org/Graphics/SVG/1.1/DTD/svg11.dtd">
<!-- Generated by graphviz version 12.2.1 (20241206.2353)
 -->
<!-- Pages: 1 -->
<svg width="985pt" height="861pt"
 viewBox="0.00 0.00 985.25 860.50" xmlns="http://www.w3.org/2000/svg" xmlns:xlink="http://www.w3.org/1999/xlink">
<g id="graph0" class="graph" transform="scale(1 1) rotate(0) translate(4 856.5)">
<polygon fill="white" stroke="none" points="-4,4 -4,-856.5 981.25,-856.5 981.25,4 -4,4"/>
<g id="clust1" class="cluster">
<title>cluster_legend</title>
<polygon fill="none" stroke="#bdbdbd" stroke-dasharray="5,2" points="125,-700 125,-844.5 433,-844.5 433,-700 125,-700"/>
</g>
<!-- 0 -->
<g id="node1" class="node">
<title>0</title>
<ellipse fill="none" stroke="black" cx="71" cy="-772.25" rx="43.67" ry="18"/>
<text text-anchor="middle" x="71" y="-767.2" font-family="Times,serif" font-size="14.00">BILLED</text>
</g>
<!-- 12 -->
<g id="node13" class="node">
<title>12</title>
<ellipse fill="none" stroke="black" cx="114" cy="-637.5" rx="47.77" ry="18"/>
<text text-anchor="middle" x="114" y="-632.45" font-family="Times,serif" font-size="14.00">STORNO</text>
</g>
<!-- 0&#45;&gt;12 -->
<g id="edge21" class="edge">
<title>0&#45;&gt;12</title>
<path fill="none" stroke="#9e9e9e" d="M67.08,-754.03C63.35,-733.71 59.96,-699.41 72.25,-673.5 74.45,-668.86 77.6,-664.61 81.2,-660.79"/>
<polygon fill="#9e9e9e" stroke="#9e9e9e" points="83.42,-663.5 88.46,-654.18 78.71,-658.32 83.42,-663.5"/>
<text text-anchor="start" x="72.25" y="-676.7" font-family="Times,serif" font-size="14.00" fill="#e8590c">+80%</text>
</g>
<!-- 13 -->
<g id="node14" class="node">
<title>13</title>
<ellipse fill="none" stroke="black" cx="478" cy="-18" rx="27" ry="18"/>
<text text-anchor="middle" x="478" y="-12.95" font-family="Times,serif" font-size="14.00">■</text>
</g>
<!-- 0&#45;&gt;13 -->
<g id="edge4" class="edge">
<title>0&#45;&gt;13</title>
<path fill="none" stroke="#9e9e9e" d="M55.59,-755.14C34.71,-731.55 0,-685.28 0,-638.5 0,-638.5 0,-638.5 0,-105.5 0,-60.57 44.23,-67.79 87,-54 151.83,-33.1 353.79,-23.5 439.22,-20.3"/>
<polygon fill="#9e9e9e" stroke="#9e9e9e" points="439.33,-23.79 449.2,-19.93 439.08,-16.8 439.33,-23.79"/>
<text text-anchor="start" x="0" y="-366.95" font-family="Times,serif" font-size="14.00" fill="#e8590c">+22%</text>
</g>
<!-- 1 -->
<g id="node2" class="node">
<title>1</title>
<ellipse fill="none" stroke="black" cx="757" cy="-460.5" rx="81.55" ry="18"/>
<text text-anchor="middle" x="757" y="-455.45" font-family="Times,serif" font-size="14.00">CHANGE DIAGN</text>
</g>
<!-- 1&#45;&gt;1 -->
<g id="edge19" class="edge">
<title>1&#45;&gt;1</title>
<path fill="none" stroke="#9e9e9e" d="M830.8,-468.48C845.8,-467.61 856.55,-464.95 856.55,-460.5 856.55,-457.27 850.88,-454.98 842.02,-453.63"/>
<polygon fill="#9e9e9e" stroke="#9e9e9e" points="842.61,-450.18 832.31,-452.67 841.91,-457.14 842.61,-450.18"/>
<text text-anchor="start" x="856.55" y="-455.45" font-family="Times,serif" font-size="14.00" fill="#0c8599">&#45;12%</text>
</g>
<!-- 4 -->
<g id="node5" class="node">
<title>4</title>
<ellipse fill="none" stroke="black" cx="702" cy="-106.5" rx="45.72" ry="18"/>
<text text-anchor="middle" x="702" y="-101.45" font-family="Times,serif" font-size="14.00">DELETE</text>
</g>
<!-- 1&#45;&gt;4 -->
<g id="edge20" class="edge">
<title>1&#45;&gt;4</title>
<path fill="none" stroke="#9e9e9e" d="M763.44,-442.21C769.28,-424.94 777,-397.51 777,-373 777,-373 777,-373 777,-194 777,-166.89 755.71,-144.11 735.81,-128.75"/>
<polygon fill="#9e9e9e" stroke="#9e9e9e" points="737.93,-125.96 727.78,-122.91 733.81,-131.62 737.93,-125.96"/>
<text text-anchor="start" x="777" y="-278.45" font-family="Times,serif" font-size="14.00" fill="#e8590c">+100%</text>
</g>
<!-- 6 -->
<g id="node7" class="node">
<title>6</title>
<ellipse fill="none" stroke="black" cx="628" cy="-372" rx="27" ry="18"/>
<text text-anchor="middle" x="628" y="-366.95" font-family="Times,serif" font-size="14.00">FIN</text>
</g>
<!-- 1&#45;&gt;6 -->
<g id="edge9" class="edge">
<title>1&#45;&gt;6</title>
<path fill="none" stroke="#9e9e9e" d="M732.43,-443.03C710.65,-428.42 678.86,-407.11 656.08,-391.83"/>
<polygon fill="#9e9e9e" stroke="#9e9e9e" points="658.14,-388.99 647.88,-386.33 654.24,-394.81 658.14,-388.99"/>
<text text-anchor="start" x="704.05" y="-411.2" font-family="Times,serif" font-size="14.00" fill="#e8590c">+170%</text>
</g>
<!-- 1&#45;&gt;13 -->
<g id="edge33" class="edge">
<title>1&#45;&gt;13</title>
<path fill="none" stroke="#ffb300" stroke-width="2.5" stroke-dasharray="5,2" d="M790.39,-443.77C815.65,-429.3 846,-405.21 846,-373 846,-373 846,-373 846,-105.5 846,-38.94 614.97,-23.55 519.02,-20.03"/>
<polygon fill="#ffb300" stroke="#ffb300" stroke-width="2.5" points="519.25,-16.54 509.14,-19.7 519.02,-23.53 519.25,-16.54"/>
<text text-anchor="start" x="846" y="-234.2" font-family="Times,serif" font-size="14.00" fill="#0c8599">&#45;100%</text>
</g>
<!-- 2 -->
<g id="node3" class="node">
<title>2</title>
<ellipse fill="none" stroke="black" cx="422" cy="-195" rx="58.52" ry="18"/>
<text text-anchor="middle" x="422" y="-189.95" font-family="Times,serif" font-size="14.00">CODE NOK</text>
</g>
<!-- 3 -->
<g id="node4" class="node">
<title>3</title>
<ellipse fill="none" stroke="black" cx="286" cy="-106.5" rx="51.86" ry="18"/>
<text text-anchor="middle" x="286" y="-101.45" font-family="Times,serif" font-size="14.00">CODE OK</text>
</g>
<!-- 2&#45;&gt;3 -->
<g id="edge37" class="edge">
<title>2&#45;&gt;3</title>
<path fill="none" stroke="#ffb300" stroke-width="2.5" stroke-dasharray="5,2" d="M395.01,-178.68C384.67,-172.69 372.83,-165.66 362.25,-159 348.03,-150.05 332.62,-139.76 319.41,-130.74"/>
<polygon fill="#ffb300" stroke="#ffb300" stroke-width="2.5" points="321.78,-128.13 311.56,-125.35 317.82,-133.9 321.78,-128.13"/>
<text text-anchor="start" x="362.25" y="-145.7" font-family="Times,serif" font-size="14.00" fill="#0c8599">&#45;100%</text>
</g>
<!-- 2&#45;&gt;4 -->
<g id="edge34" class="edge">
<title>2&#45;&gt;4</title>
<path fill="none" stroke="#ffb300" stroke-width="2.5" stroke-dasharray="5,2" d="M439.67,-177.58C454.41,-164.23 474.54,-146.9 484.25,-142.5 534.56,-119.72 597.3,-111.49 642.49,-108.66"/>
<polygon fill="#ffb300" stroke="#ffb300" stroke-width="2.5" points="642.64,-112.16 652.44,-108.13 642.27,-105.17 642.64,-112.16"/>
<text text-anchor="start" x="484.25" y="-145.7" font-family="Times,serif" font-size="14.00" fill="#0c8599">&#45;100%</text>
</g>
<!-- 5 -->
<g id="node6" class="node">
<title>5</title>
<ellipse fill="none" stroke="black" cx="399" cy="-106.5" rx="42.65" ry="18"/>
<text text-anchor="middle" x="399" y="-101.45" font-family="Times,serif" font-size="14.00">EMPTY</text>
</g>
<!-- 2&#45;&gt;5 -->
<g id="edge24" class="edge">
<title>2&#45;&gt;5</title>
<path fill="none" stroke="#9e9e9e" d="M412.99,-176.94C410.37,-171.35 407.75,-165.03 406,-159 403.89,-151.72 402.41,-143.67 401.38,-136.15"/>
<polygon fill="#9e9e9e" stroke="#9e9e9e" points="404.88,-135.97 400.26,-126.43 397.93,-136.77 404.88,-135.97"/>
<text text-anchor="start" x="406" y="-145.7" font-family="Times,serif" font-size="14.00" fill="#0c8599">&#45;40%</text>
</g>
<!-- 10 -->
<g id="node11" class="node">
<title>10</title>
<ellipse fill="none" stroke="black" cx="320" cy="-460.5" rx="46.75" ry="18"/>
<text text-anchor="middle" x="320" y="-455.45" font-family="Times,serif" font-size="14.00">REOPEN</text>
</g>
<!-- 2&#45;&gt;10 -->
<g id="edge32" class="edge">
<title>2&#45;&gt;10</title>
<path fill="none" stroke="#ffb300" stroke-width="2.5" stroke-dasharray="5,2" d="M415.28,-213.35C398.22,-257.44 353.03,-374.16 331.6,-429.54"/>
<polygon fill="#ffb300" stroke="#ffb300" stroke-width="2.5" points="328.4,-428.09 328.06,-438.68 334.93,-430.62 328.4,-428.09"/>
<text text-anchor="start" x="373.35" y="-322.7" font-family="Times,serif" font-size="14.00" fill="#0c8599">&#45;100%</text>
</g>
<!-- 11 -->
<g id="node12" class="node">
<title>11</title>
<ellipse fill="none" stroke="black" cx="153" cy="-106.5" rx="63.12" ry="18"/>
<text text-anchor="middle" x="153" y="-101.45" font-family="Times,serif" font-size="14.00">SET STATUS</text>
</g>
<!-- 2&#45;&gt;11 -->
<g id="edge26" class="edge">
<title>2&#45;&gt;11</title>
<path fill="none" stroke="#ffb300" stroke-width="2.5" stroke-dasharray="5,2" d="M378.84,-182.54C354.97,-176.01 324.84,-167.47 298.25,-159 266.23,-148.81 230.66,-136.22 202.74,-126.04"/>
<polygon fill="#ffb300" stroke="#ffb300" stroke-width="2.5" points="204.24,-122.86 193.64,-122.7 201.83,-129.43 204.24,-122.86"/>
<text text-anchor="start" x="298.25" y="-145.7" font-family="Times,serif" font-size="14.00" fill="#0c8599">&#45;100%</text>
</g>
<!-- 2&#45;&gt;13 -->
<g id="edge28" class="edge">
<title>2&#45;&gt;13</title>
<path fill="none" stroke="#ffb300" stroke-width="2.5" stroke-dasharray="5,2" d="M429.98,-176.84C436.24,-162.94 444.9,-142.73 451,-124.5 459.34,-99.59 466.58,-70.64 471.46,-49.38"/>
<polygon fill="#ffb300" stroke="#ffb300" stroke-width="2.5" points="474.85,-50.24 473.61,-39.72 468.02,-48.72 474.85,-50.24"/>
<text text-anchor="start" x="461.48" y="-101.45" font-family="Times,serif" font-size="14.00" fill="#0c8599">&#45;100%</text>
</g>
<!-- 3&#45;&gt;0 -->
<g id="edge3" class="edge">
<title>3&#45;&gt;0</title>
<path fill="none" stroke="#9e9e9e" d="M264.84,-123.23C248.61,-136.18 226.59,-155.81 212,-177 93.82,-348.63 85.94,-413.14 57,-619.5 51,-662.29 58.35,-712.25 64.46,-742.81"/>
<polygon fill="#9e9e9e" stroke="#9e9e9e" points="61,-743.35 66.49,-752.41 67.85,-741.9 61,-743.35"/>
<text text-anchor="start" x="93.93" y="-411.2" font-family="Times,serif" font-size="14.00" fill="#e8590c">+131%</text>
</g>
<!-- 3&#45;&gt;10 -->
<g id="edge15" class="edge">
<title>3&#45;&gt;10</title>
<path fill="none" stroke="#9e9e9e" d="M287.27,-124.67C288.03,-134.69 289.03,-147.56 290,-159 298.52,-259.08 311.09,-377.66 316.88,-431"/>
<polygon fill="#9e9e9e" stroke="#9e9e9e" points="313.37,-431.17 317.94,-440.73 320.33,-430.41 313.37,-431.17"/>
<text text-anchor="start" x="303.15" y="-278.45" font-family="Times,serif" font-size="14.00" fill="#e8590c">+350%</text>
</g>
<!-- 3&#45;&gt;13 -->
<g id="edge12" class="edge">
<title>3&#45;&gt;13</title>
<path fill="none" stroke="#9e9e9e" d="M311.95,-90.55C331.27,-79.71 358.48,-65.07 383.25,-54 402.87,-45.23 425.42,-36.83 443.6,-30.46"/>
<polygon fill="#9e9e9e" stroke="#9e9e9e" points="444.55,-33.84 452.86,-27.27 442.26,-27.22 444.55,-33.84"/>
<text text-anchor="start" x="383.25" y="-57.2" font-family="Times,serif" font-size="14.00" fill="#e8590c">+24%</text>
</g>
<!-- 4&#45;&gt;13 -->
<g id="edge18" class="edge">
<title>4&#45;&gt;13</title>
<path fill="none" stroke="#9e9e9e" d="M687.29,-89.1C676.02,-77.55 659.47,-62.65 642,-54 601.97,-34.18 551.03,-25.55 516.62,-21.81"/>
<polygon fill="#9e9e9e" stroke="#9e9e9e" points="516.99,-18.33 506.69,-20.83 516.3,-25.29 516.99,-18.33"/>
<text text-anchor="start" x="665.51" y="-57.2" font-family="Times,serif" font-size="14.00" fill="#0c8599">&#45;26%</text>
</g>
<!-- 5&#45;&gt;13 -->
<g id="edge25" class="edge">
<title>5&#45;&gt;13</title>
<path fill="none" stroke="#9e9e9e" d="M408.56,-88.8C415.02,-78.23 424.15,-64.62 434,-54 439.05,-48.55 444.99,-43.25 450.84,-38.49"/>
<polygon fill="#9e9e9e" stroke="#9e9e9e" points="452.88,-41.34 458.63,-32.43 448.59,-35.81 452.88,-41.34"/>
<text text-anchor="start" x="434" y="-57.2" font-family="Times,serif" font-size="14.00" fill="#0c8599">&#45;40%</text>
</g>
<!-- 6&#45;&gt;4 -->
<g id="edge31" class="edge">
<title>6&#45;&gt;4</title>
<path fill="none" stroke="#ffb300" stroke-width="2.5" stroke-dasharray="5,2" d="M634.63,-354.4C636.81,-348.63 639.15,-342.08 641,-336 654.99,-290.09 653.96,-277.4 666.25,-231 674.74,-198.92 685.43,-162.46 692.89,-137.52"/>
<polygon fill="#ffb300" stroke="#ffb300" stroke-width="2.5" points="696.16,-138.82 695.69,-128.24 689.45,-136.8 696.16,-138.82"/>
<text text-anchor="start" x="666.25" y="-234.2" font-family="Times,serif" font-size="14.00" fill="#0c8599">&#45;100%</text>
</g>
<!-- 9 -->
<g id="node10" class="node">
<title>9</title>
<ellipse fill="none" stroke="black" cx="475" cy="-283.5" rx="51.35" ry="18"/>
<text text-anchor="middle" x="475" y="-278.45" font-family="Times,serif" font-size="14.00">RELEASE</text>
</g>
<!-- 6&#45;&gt;9 -->
<g id="edge1" class="edge">
<title>6&#45;&gt;9</title>
<path fill="none" stroke="#9e9e9e" d="M608,-359.69C583.4,-345.79 541.19,-321.92 510.92,-304.81"/>
<polygon fill="#9e9e9e" stroke="#9e9e9e" points="512.9,-301.91 502.47,-300.03 509.46,-308 512.9,-301.91"/>
<text text-anchor="start" x="565.2" y="-322.7" font-family="Times,serif" font-size="14.00" fill="#e8590c">+4%</text>
</g>
<!-- 6&#45;&gt;13 -->
<g id="edge13" class="edge">
<title>6&#45;&gt;13</title>
<path fill="none" stroke="#9e9e9e" d="M628.94,-353.69C630.22,-318.9 630.04,-238.57 606,-177 583.79,-120.13 533.18,-68 502.67,-40.15"/>
<polygon fill="#9e9e9e" stroke="#9e9e9e" points="505.18,-37.7 495.4,-33.64 500.52,-42.92 505.18,-37.7"/>
<text text-anchor="start" x="617.05" y="-189.95" font-family="Times,serif" font-size="14.00" fill="#0c8599">&#45;2%</text>
</g>
<!-- 7 -->
<g id="node8" class="node">
<title>7</title>
<ellipse fill="none" stroke="black" cx="875" cy="-549" rx="32.41" ry="18"/>
<text text-anchor="middle" x="875" y="-543.95" font-family="Times,serif" font-size="14.00">NEW</text>
</g>
<!-- 7&#45;&gt;1 -->
<g id="edge8" class="edge">
<title>7&#45;&gt;1</title>
<path fill="none" stroke="#9e9e9e" d="M856.04,-534.1C837.88,-520.79 810.14,-500.45 788.63,-484.69"/>
<polygon fill="#9e9e9e" stroke="#9e9e9e" points="790.9,-482.01 780.76,-478.92 786.76,-487.65 790.9,-482.01"/>
<text text-anchor="start" x="826.57" y="-499.7" font-family="Times,serif" font-size="14.00" fill="#e8590c">+14%</text>
</g>
<!-- 7&#45;&gt;4 -->
<g id="edge17" class="edge">
<title>7&#45;&gt;4</title>
<path fill="none" stroke="#9e9e9e" d="M881.71,-530.9C886.77,-517.03 893.29,-496.83 896,-478.5 898.79,-459.63 896.19,-254.57 884,-231 855.65,-176.16 790.52,-141.33 746.37,-123.11"/>
<polygon fill="#9e9e9e" stroke="#9e9e9e" points="747.9,-119.95 737.32,-119.5 745.31,-126.46 747.9,-119.95"/>
<text text-anchor="start" x="894.85" y="-322.7" font-family="Times,serif" font-size="14.00" fill="#e8590c">+186%</text>
</g>
<!-- 7&#45;&gt;6 -->
<g id="edge11" class="edge">
<title>7&#45;&gt;6</title>
<path fill="none" stroke="#9e9e9e" d="M842.27,-548.94C790.29,-548.48 689.55,-539.23 639,-478.5 621.34,-457.29 620.59,-424.75 623,-401.42"/>
<polygon fill="#9e9e9e" stroke="#9e9e9e" points="626.45,-402.04 624.28,-391.67 619.51,-401.13 626.45,-402.04"/>
<text text-anchor="start" x="639" y="-455.45" font-family="Times,serif" font-size="14.00" fill="#e8590c">+8%</text>
</g>
<!-- 7&#45;&gt;13 -->
<g id="edge10" class="edge">
<title>7&#45;&gt;13</title>
<path fill="none" stroke="#9e9e9e" d="M897.85,-535.7C921.18,-521.29 954,-495.06 954,-461.5 954,-461.5 954,-461.5 954,-105.5 954,-38.78 878,-69.02 813,-54 707.56,-29.63 579.49,-22.2 516.61,-19.96"/>
<polygon fill="#9e9e9e" stroke="#9e9e9e" points="516.92,-16.47 506.81,-19.64 516.69,-23.46 516.92,-16.47"/>
<text text-anchor="start" x="954" y="-278.45" font-family="Times,serif" font-size="14.00" fill="#0c8599">&#45;1%</text>
</g>
<!-- 8 -->
<g id="node9" class="node">
<title>8</title>
<ellipse fill="none" stroke="black" cx="183" cy="-549" rx="43.67" ry="18"/>
<text text-anchor="middle" x="183" y="-543.95" font-family="Times,serif" font-size="14.00">REJECT</text>
</g>
<!-- 8&#45;&gt;0 -->
<g id="edge30" class="edge">
<title>8&#45;&gt;0</title>
<path fill="none" stroke="#ffb300" stroke-width="2.5" stroke-dasharray="5,2" d="M183.6,-567.44C183.76,-573.05 183.92,-579.29 184,-585 184.1,-592.33 184.86,-594.22 184,-601.5 181.09,-626.01 180.42,-632.68 171,-655.5 164.15,-672.09 163.98,-678.74 150,-690 139.38,-698.55 131.89,-691.8 121,-700 106.25,-711.11 94.19,-727.85 85.61,-742.31"/>
<polygon fill="#ffb300" stroke="#ffb300" stroke-width="2.5" points="82.62,-740.49 80.82,-750.93 88.74,-743.88 82.62,-740.49"/>
<text text-anchor="start" x="181.69" y="-632.45" font-family="Times,serif" font-size="14.00" fill="#0c8599">&#45;100%</text>
</g>
<!-- 8&#45;&gt;10 -->
<g id="edge29" class="edge">
<title>8&#45;&gt;10</title>
<path fill="none" stroke="#ffb300" stroke-width="2.5" stroke-dasharray="5,2" d="M206.24,-533.33C227.89,-519.66 260.46,-499.09 285.21,-483.47"/>
<polygon fill="#ffb300" stroke="#ffb300" stroke-width="2.5" points="286.86,-486.56 293.45,-478.27 283.12,-480.64 286.86,-486.56"/>
<text text-anchor="start" x="263.77" y="-499.7" font-family="Times,serif" font-size="14.00" fill="#0c8599">&#45;100%</text>
</g>
<!-- 8&#45;&gt;11 -->
<g id="edge41" class="edge">
<title>8&#45;&gt;11</title>
<path fill="none" stroke="#ffb300" stroke-width="2.5" stroke-dasharray="5,2" d="M180.04,-530.63C171.8,-481.18 148.63,-335.27 141,-213 139.05,-181.73 135.85,-173.41 141,-142.5 141.26,-140.92 141.59,-139.31 141.96,-137.7"/>
<polygon fill="#ffb300" stroke="#ffb300" stroke-width="2.5" points="145.27,-138.86 144.78,-128.28 138.56,-136.86 145.27,-138.86"/>
<text text-anchor="start" x="152.14" y="-322.7" font-family="Times,serif" font-size="14.00" fill="#0c8599">&#45;100%</text>
</g>
<!-- 9&#45;&gt;2 -->
<g id="edge16" class="edge">
<title>9&#45;&gt;2</title>
<path fill="none" stroke="#9e9e9e" d="M464.53,-265.41C457.05,-253.21 446.85,-236.55 438.31,-222.62"/>
<polygon fill="#9e9e9e" stroke="#9e9e9e" points="441.45,-221.04 433.24,-214.34 435.48,-224.7 441.45,-221.04"/>
<text text-anchor="start" x="453.25" y="-234.2" font-family="Times,serif" font-size="14.00" fill="#e8590c">+64%</text>
</g>
<!-- 9&#45;&gt;3 -->
<g id="edge2" class="edge">
<title>9&#45;&gt;3</title>
<path fill="none" stroke="#9e9e9e" d="M431.85,-273.34C397.17,-263.85 349.56,-245.66 320.25,-213 301.08,-191.64 292.63,-159.4 288.9,-136.18"/>
<polygon fill="#9e9e9e" stroke="#9e9e9e" points="292.4,-135.9 287.56,-126.47 285.46,-136.85 292.4,-135.9"/>
<text text-anchor="start" x="320.25" y="-189.95" font-family="Times,serif" font-size="14.00" fill="#e8590c">+86%</text>
</g>
<!-- 9&#45;&gt;4 -->
<g id="edge35" class="edge">
<title>9&#45;&gt;4</title>
<path fill="none" stroke="#ffb300" stroke-width="2.5" stroke-dasharray="5,2" d="M499.32,-267.33C507.36,-261.67 516.03,-254.82 523,-247.5 548.84,-220.36 541.48,-202.16 569.25,-177 594.63,-154 629.01,-136.28 656.43,-124.49"/>
<polygon fill="#ffb300" stroke="#ffb300" stroke-width="2.5" points="657.47,-127.84 665.37,-120.78 654.79,-121.37 657.47,-127.84"/>
<text text-anchor="start" x="569.25" y="-189.95" font-family="Times,serif" font-size="14.00" fill="#0c8599">&#45;100%</text>
</g>
<!-- 9&#45;&gt;11 -->
<g id="edge36" class="edge">
<title>9&#45;&gt;11</title>
<path fill="none" stroke="#ffb300" stroke-width="2.5" stroke-dasharray="5,2" d="M428.44,-275.57C382.06,-266.91 310.44,-248.69 258.25,-213 225.95,-190.91 195.08,-158.1 175.22,-134.94"/>
<polygon fill="#ffb300" stroke="#ffb300" stroke-width="2.5" points="177.94,-132.74 168.83,-127.34 172.58,-137.25 177.94,-132.74"/>
<text text-anchor="start" x="258.25" y="-189.95" font-family="Times,serif" font-size="14.00" fill="#0c8599">&#45;100%</text>
</g>
<!-- 9&#45;&gt;13 -->
<g id="edge39" class="edge">
<title>9&#45;&gt;13</title>
<path fill="none" stroke="#ffb300" stroke-width="2.5" stroke-dasharray="5,2" d="M483.75,-265.5C495.16,-242.21 514.45,-198.73 521,-159 527.57,-119.15 509.43,-74.85 494.72,-46.97"/>
<polygon fill="#ffb300" stroke="#ffb300" stroke-width="2.5" points="497.85,-45.39 489.93,-38.35 491.73,-48.79 497.85,-45.39"/>
<text text-anchor="start" x="522.38" y="-145.7" font-family="Times,serif" font-size="14.00" fill="#0c8599">&#45;100%</text>
</g>
<!-- 10&#45;&gt;4 -->
<g id="edge23" class="edge">
<title>10&#45;&gt;4</title>
<path fill="none" stroke="#9e9e9e" d="M365.98,-456.38C449.78,-449.73 622.56,-431.28 664,-390 732.57,-321.69 718.55,-192.86 708.11,-135.86"/>
<polygon fill="#9e9e9e" stroke="#9e9e9e" points="711.6,-135.47 706.25,-126.32 704.72,-136.8 711.6,-135.47"/>
<text text-anchor="start" x="714.89" y="-278.45" font-family="Times,serif" font-size="14.00" fill="#0c8599">&#45;69%</text>
</g>
<!-- 10&#45;&gt;6 -->
<g id="edge14" class="edge">
<title>10&#45;&gt;6</title>
<path fill="none" stroke="#9e9e9e" d="M356.85,-449.15C416.57,-432.38 533.76,-399.47 592.57,-382.95"/>
<polygon fill="#9e9e9e" stroke="#9e9e9e" points="593.38,-386.36 602.06,-380.29 591.49,-379.62 593.38,-386.36"/>
<text text-anchor="start" x="501.59" y="-411.2" font-family="Times,serif" font-size="14.00" fill="#0c8599">&#45;40%</text>
</g>
<!-- 11&#45;&gt;13 -->
<g id="edge27" class="edge">
<title>11&#45;&gt;13</title>
<path fill="none" stroke="#ffb300" stroke-width="2.5" stroke-dasharray="5,2" d="M191.1,-91.71C222.72,-80.58 269.04,-65.01 310.25,-54 353.83,-42.36 404.62,-32.23 438.81,-25.9"/>
<polygon fill="#ffb300" stroke="#ffb300" stroke-width="2.5" points="438.99,-29.43 448.2,-24.19 437.74,-22.54 438.99,-29.43"/>
<text text-anchor="start" x="310.25" y="-57.2" font-family="Times,serif" font-size="14.00" fill="#0c8599">&#45;100%</text>
</g>
<!-- 12&#45;&gt;0 -->
<g id="edge38" class="edge">
<title>12&#45;&gt;0</title>
<path fill="none" stroke="#ffb300" stroke-width="2.5" stroke-dasharray="5,2" d="M112.4,-655.9C111.21,-666 109.21,-678.87 106,-690 100.87,-707.81 92.8,-726.88 85.7,-742.06"/>
<polygon fill="#ffb300" stroke="#ffb300" stroke-width="2.5" points="82.65,-740.35 81.46,-750.87 88.95,-743.39 82.65,-740.35"/>
<text text-anchor="start" x="109.57" y="-676.7" font-family="Times,serif" font-size="14.00" fill="#0c8599">&#45;100%</text>
</g>
<!-- 12&#45;&gt;8 -->
<g id="edge22" class="edge">
<title>12&#45;&gt;8</title>
<path fill="none" stroke="#9e9e9e" d="M126.84,-619.7C134.62,-609.58 144.79,-596.48 154,-585 156.62,-581.73 159.41,-578.31 162.17,-574.94"/>
<polygon fill="#9e9e9e" stroke="#9e9e9e" points="164.68,-577.4 168.36,-567.46 159.29,-572.94 164.68,-577.4"/>
<text text-anchor="start" x="154" y="-588.2" font-family="Times,serif" font-size="14.00" fill="#0c8599">&#45;72%</text>
</g>
<!-- 12&#45;&gt;13 -->
<g id="edge40" class="edge">
<title>12&#45;&gt;13</title>
<path fill="none" stroke="#ffb300" stroke-width="2.5" stroke-dasharray="5,2" d="M102.46,-619.59C87.14,-595.46 62,-549.23 62,-505.75 62,-505.75 62,-505.75 62,-105.5 62,-29.41 332.15,-19.78 437.05,-18.91"/>
<polygon fill="#ffb300" stroke="#ffb300" stroke-width="2.5" points="436.94,-22.41 446.92,-18.86 436.9,-15.41 436.94,-22.41"/>
<text text-anchor="start" x="62" y="-322.7" font-family="Times,serif" font-size="14.00" fill="#0c8599">&#45;100%</text>
</g>
<!-- 13&#45;&gt;13 -->
<g id="edge5" class="edge">
<title>13&#45;&gt;13</title>
<path fill="none" stroke="#9e9e9e" d="M502.53,-26.17C513.51,-26.95 523,-24.22 523,-18 523,-14.11 519.29,-11.59 513.83,-10.43"/>
<polygon fill="#9e9e9e" stroke="#9e9e9e" points="514.22,-6.95 504.04,-9.91 513.84,-13.94 514.22,-6.95"/>
<text text-anchor="start" x="523" y="-12.95" font-family="Times,serif" font-size="14.00" fill="#e8590c">+12%</text>
</g>
<!-- 14 -->
<g id="node15" class="node">
<title>14</title>
<ellipse fill="none" stroke="black" cx="875" cy="-637.5" rx="27" ry="18"/>
<text text-anchor="middle" x="875" y="-632.83" font-family="Times,serif" font-size="14.00">▶</text>
</g>
<!-- 14&#45;&gt;7 -->
<g id="edge7" class="edge">
<title>14&#45;&gt;7</title>
<path fill="none" stroke="#9e9e9e" d="M875,-619.41C875,-607.76 875,-592.05 875,-578.52"/>
<polygon fill="#9e9e9e" stroke="#9e9e9e" points="878.5,-578.86 875,-568.86 871.5,-578.86 878.5,-578.86"/>
<text text-anchor="start" x="875" y="-588.2" font-family="Times,serif" font-size="14.00" fill="#0c8599">&#45;3%</text>
</g>
<!-- 14&#45;&gt;14 -->
<g id="edge6" class="edge">
<title>14&#45;&gt;14</title>
<path fill="none" stroke="#9e9e9e" d="M899.53,-645.67C910.51,-646.45 920,-643.72 920,-637.5 920,-633.61 916.29,-631.09 910.83,-629.93"/>
<polygon fill="#9e9e9e" stroke="#9e9e9e" points="911.22,-626.45 901.04,-629.41 910.84,-633.44 911.22,-626.45"/>
<text text-anchor="start" x="920" y="-632.45" font-family="Times,serif" font-size="14.00" fill="#0c8599">&#45;3%</text>
</g>
<!-- _legend -->
<g id="node16" class="node">
<title>_legend</title>
<text text-anchor="start" x="257.62" y="-815.2" font-family="Times,serif" font-weight="bold" font-size="14.00">Legend</text>
<text text-anchor="start" x="145.75" y="-791.7" font-family="Times,serif" font-size="14.00" fill="#555555">edge label: </text>
<text text-anchor="start" x="208.75" y="-791.7" font-family="Times,serif" font-size="14.00" fill="#e8590c">over</text>
<text text-anchor="start" x="232.75" y="-791.7" font-family="Times,serif" font-size="14.00" fill="#555555"> / </text>
<text text-anchor="start" x="244" y="-791.7" font-family="Times,serif" font-size="14.00" fill="#0c8599">under</text>
<text text-anchor="start" x="274.75" y="-791.7" font-family="Times,serif" font-size="14.00" fill="#555555">&#45;forecast %</text>
<text text-anchor="start" x="145.75" y="-767.2" font-family="Times,serif" font-size="14.00" fill="#9e9e9e">─────</text>
<text text-anchor="start" x="201.5" y="-767.2" font-family="Times,serif" font-size="14.00">matched</text>
<text text-anchor="start" x="145.75" y="-743.7" font-family="Times,serif" font-size="14.00" fill="#ffb300">– – –</text>
<text text-anchor="start" x="201.5" y="-743.7" font-family="Times,serif" font-size="14.00">happened — forecast missed it</text>
<text text-anchor="start" x="145.75" y="-720.2" font-family="Times,serif" font-size="14.00" fill="#e53935">– – –</text>
<text text-anchor="start" x="201.5" y="-720.2" font-family="Times,serif" font-size="14.00">forecast predicted it — did not happen</text>
</g>
</g>
</svg>
