<?xml version="1.0" encoding="UTF-8" standalone="no"?>
<!DOCTYPE svg PUBLIC "-//W3C//DTD SVG 1.1//EN"
 "http://www.w3.org/Graphics/SVG/1.1/DTD/svg11.dtd">
<!-- Generated by graphviz version 12.2.1 (20241206.2353)
 -->
<!-- Pages: 1 -->
<svg width="1032pt" height="861pt"
 viewBox="0.00 0.00 1032.00 860.50" xmlns="http://www.w3.org/2000/svg" xmlns:xlink="http://www.w3.org/1999/xlink">
<g id="graph0" class="graph" transform="scale(1 1) rotate(0) translate(4 856.5)">
<polygon fill="white" stroke="none" points="-4,4 -4,-856.5 1028,-856.5 1028,4 -4,4"/>
<g id="clust1" class="cluster">
<title>cluster_legend</title>
<polygon fill="none" stroke="#bdbdbd" stroke-dasharray="5,2" points="141,-700 141,-844.5 449,-844.5 449,-700 141,-700"/>
</g>
<!-- 0 -->
<g id="node1" class="node">
<title>0</title>
<ellipse fill="none" stroke="black" cx="87" cy="-772.25" rx="43.67" ry="18"/>
<text text-anchor="middle" x="87" y="-767.2" font-family="Times,serif" font-size="14.00">BILLED</text>
</g>
<!-- 12 -->
<g id="node13" class="node">
<title>12</title>
<ellipse fill="none" stroke="black" cx="130" cy="-637.5" rx="47.77" ry="18"/>
<text text-anchor="middle" x="130" y="-632.45" font-family="Times,serif" font-size="14.00">STORNO</text>
</g>
<!-- 0&#45;&gt;12 -->
<g id="edge21" class="edge">
<title>0&#45;&gt;12</title>
<path fill="none" stroke="#9e9e9e" d="M83.01,-754.03C79.21,-733.71 75.7,-699.41 88,-673.5 90.21,-668.84 93.38,-664.58 96.99,-660.76"/>
<polygon fill="#9e9e9e" stroke="#9e9e9e" points="99.24,-663.45 104.3,-654.14 94.54,-658.26 99.24,-663.45"/>
<text text-anchor="start" x="88" y="-677.7" font-family="Times,serif" font-size="14.00" fill="#1e88e5">9</text>
<text text-anchor="start" x="94.75" y="-677.7" font-family="Times,serif" font-size="14.00" fill="#bdbdbd"> | </text>
<text text-anchor="start" x="105.25" y="-677.7" font-family="Times,serif" font-size="14.00" fill="#2e7d32">5</text>
</g>
<!-- 13 -->
<g id="node14" class="node">
<title>13</title>
<ellipse fill="none" stroke="black" cx="495" cy="-18" rx="27" ry="18"/>
<text text-anchor="middle" x="495" y="-12.95" font-family="Times,serif" font-size="14.00">■</text>
</g>
<!-- 0&#45;&gt;13 -->
<g id="edge4" class="edge">
<title>0&#45;&gt;13</title>
<path fill="none" stroke="#9e9e9e" d="M68.12,-755.83C42.53,-733.07 0,-687.82 0,-638.5 0,-638.5 0,-638.5 0,-105.5 0,-53.92 54.35,-67.98 104,-54 169.56,-35.53 371.11,-24.57 456.33,-20.65"/>
<polygon fill="#9e9e9e" stroke="#9e9e9e" points="456.44,-24.14 466.27,-20.2 456.13,-17.15 456.44,-24.14"/>
<text text-anchor="start" x="0" y="-367.95" font-family="Times,serif" font-size="14.00" fill="#1e88e5">165</text>
<text text-anchor="start" x="20.25" y="-367.95" font-family="Times,serif" font-size="14.00" fill="#bdbdbd"> | </text>
<text text-anchor="start" x="30.75" y="-367.95" font-family="Times,serif" font-size="14.00" fill="#2e7d32">135</text>
</g>
<!-- 1 -->
<g id="node2" class="node">
<title>1</title>
<ellipse fill="none" stroke="black" cx="783" cy="-460.5" rx="81.55" ry="18"/>
<text text-anchor="middle" x="783" y="-455.45" font-family="Times,serif" font-size="14.00">CHANGE DIAGN</text>
</g>
<!-- 1&#45;&gt;1 -->
<g id="edge19" class="edge">
<title>1&#45;&gt;1</title>
<path fill="none" stroke="#9e9e9e" d="M856.8,-468.48C871.8,-467.61 882.55,-464.95 882.55,-460.5 882.55,-457.27 876.88,-454.98 868.02,-453.63"/>
<polygon fill="#9e9e9e" stroke="#9e9e9e" points="868.61,-450.18 858.31,-452.67 867.91,-457.14 868.61,-450.18"/>
<text text-anchor="start" x="882.55" y="-456.45" font-family="Times,serif" font-size="14.00" fill="#1e88e5">7</text>
<text text-anchor="start" x="889.3" y="-456.45" font-family="Times,serif" font-size="14.00" fill="#bdbdbd"> | </text>
<text text-anchor="start" x="899.8" y="-456.45" font-family="Times,serif" font-size="14.00" fill="#2e7d32">8</text>
</g>
<!-- 4 -->
<g id="node5" class="node">
<title>4</title>
<ellipse fill="none" stroke="black" cx="720" cy="-106.5" rx="45.72" ry="18"/>
<text text-anchor="middle" x="720" y="-101.45" font-family="Times,serif" font-size="14.00">DELETE</text>
</g>
<!-- 1&#45;&gt;4 -->
<g id="edge20" class="edge">
<title>1&#45;&gt;4</title>
<path fill="none" stroke="#9e9e9e" d="M794.13,-442.38C804.05,-425.47 817,-398.49 817,-373 817,-373 817,-373 817,-194 817,-162.43 788.02,-139.53 761.74,-125.25"/>
<polygon fill="#9e9e9e" stroke="#9e9e9e" points="763.34,-122.14 752.84,-120.71 760.16,-128.37 763.34,-122.14"/>
<text text-anchor="start" x="817" y="-279.45" font-family="Times,serif" font-size="14.00" fill="#1e88e5">8</text>
<text text-anchor="start" x="823.75" y="-279.45" font-family="Times,serif" font-size="14.00" fill="#bdbdbd"> | </text>
<text text-anchor="start" x="834.25" y="-279.45" font-family="Times,serif" font-size="14.00" fill="#2e7d32">4</text>
</g>
<!-- 6 -->
<g id="node7" class="node">
<title>6</title>
<ellipse fill="none" stroke="black" cx="646" cy="-372" rx="27" ry="18"/>
<text text-anchor="middle" x="646" y="-366.95" font-family="Times,serif" font-size="14.00">FIN</text>
</g>
<!-- 1&#45;&gt;6 -->
<g id="edge9" class="edge">
<title>1&#45;&gt;6</title>
<path fill="none" stroke="#9e9e9e" d="M756.91,-443.03C733.4,-428.19 698.92,-406.41 674.66,-391.09"/>
<polygon fill="#9e9e9e" stroke="#9e9e9e" points="676.55,-388.15 666.22,-385.77 672.81,-394.07 676.55,-388.15"/>
<text text-anchor="start" x="726.77" y="-412.2" font-family="Times,serif" font-size="14.00" fill="#1e88e5">27</text>
<text text-anchor="start" x="740.27" y="-412.2" font-family="Times,serif" font-size="14.00" fill="#bdbdbd"> | </text>
<text text-anchor="start" x="750.77" y="-412.2" font-family="Times,serif" font-size="14.00" fill="#2e7d32">10</text>
</g>
<!-- 1&#45;&gt;13 -->
<g id="edge33" class="edge">
<title>1&#45;&gt;13</title>
<path fill="none" stroke="#ffb300" stroke-width="2.5" stroke-dasharray="5,2" d="M820.89,-444.1C848.47,-430.09 881,-406.47 881,-373 881,-373 881,-373 881,-105.5 881,-35.3 634.81,-22.06 535.66,-19.57"/>
<polygon fill="#ffb300" stroke="#ffb300" stroke-width="2.5" points="536,-16.08 525.93,-19.36 535.85,-23.07 536,-16.08"/>
<text text-anchor="start" x="881" y="-235.2" font-family="Times,serif" font-size="14.00" fill="#1e88e5">0</text>
<text text-anchor="start" x="887.75" y="-235.2" font-family="Times,serif" font-size="14.00" fill="#bdbdbd"> | </text>
<text text-anchor="start" x="898.25" y="-235.2" font-family="Times,serif" font-size="14.00" fill="#2e7d32">24</text>
</g>
<!-- 2 -->
<g id="node3" class="node">
<title>2</title>
<ellipse fill="none" stroke="black" cx="453" cy="-195" rx="58.52" ry="18"/>
<text text-anchor="middle" x="453" y="-189.95" font-family="Times,serif" font-size="14.00">CODE NOK</text>
</g>
<!-- 3 -->
<g id="node4" class="node">
<title>3</title>
<ellipse fill="none" stroke="black" cx="303" cy="-106.5" rx="51.86" ry="18"/>
<text text-anchor="middle" x="303" y="-101.45" font-family="Times,serif" font-size="14.00">CODE OK</text>
</g>
<!-- 2&#45;&gt;3 -->
<g id="edge37" class="edge">
<title>2&#45;&gt;3</title>
<path fill="none" stroke="#ffb300" stroke-width="2.5" stroke-dasharray="5,2" d="M424.83,-178.9C413.62,-172.82 400.65,-165.67 389,-159 372.55,-149.58 354.54,-138.86 339.27,-129.65"/>
<polygon fill="#ffb300" stroke="#ffb300" stroke-width="2.5" points="341.29,-126.78 330.92,-124.59 337.66,-132.77 341.29,-126.78"/>
<text text-anchor="start" x="389" y="-146.7" font-family="Times,serif" font-size="14.00" fill="#1e88e5">0</text>
<text text-anchor="start" x="395.75" y="-146.7" font-family="Times,serif" font-size="14.00" fill="#bdbdbd"> | </text>
<text text-anchor="start" x="406.25" y="-146.7" font-family="Times,serif" font-size="14.00" fill="#2e7d32">5</text>
</g>
<!-- 2&#45;&gt;4 -->
<g id="edge34" class="edge">
<title>2&#45;&gt;4</title>
<path fill="none" stroke="#ffb300" stroke-width="2.5" stroke-dasharray="5,2" d="M463.97,-177.31C472.59,-165.61 485.68,-150.66 501,-142.5 528.18,-128.02 606.88,-117.97 662.12,-112.47"/>
<polygon fill="#ffb300" stroke="#ffb300" stroke-width="2.5" points="662.23,-115.98 671.84,-111.53 661.56,-109.01 662.23,-115.98"/>
<text text-anchor="start" x="501" y="-146.7" font-family="Times,serif" font-size="14.00" fill="#1e88e5">0</text>
<text text-anchor="start" x="507.75" y="-146.7" font-family="Times,serif" font-size="14.00" fill="#bdbdbd"> | </text>
<text text-anchor="start" x="518.25" y="-146.7" font-family="Times,serif" font-size="14.00" fill="#2e7d32">1</text>
</g>
<!-- 5 -->
<g id="node6" class="node">
<title>5</title>
<ellipse fill="none" stroke="black" cx="416" cy="-106.5" rx="42.65" ry="18"/>
<text text-anchor="middle" x="416" y="-101.45" font-family="Times,serif" font-size="14.00">EMPTY</text>
</g>
<!-- 2&#45;&gt;5 -->
<g id="edge24" class="edge">
<title>2&#45;&gt;5</title>
<path fill="none" stroke="#9e9e9e" d="M435.05,-177.67C430.12,-172.22 425.29,-165.79 422.25,-159 419.11,-151.99 417.37,-143.93 416.44,-136.3"/>
<polygon fill="#9e9e9e" stroke="#9e9e9e" points="419.94,-136.09 415.69,-126.39 412.96,-136.63 419.94,-136.09"/>
<text text-anchor="start" x="422.25" y="-146.7" font-family="Times,serif" font-size="14.00" fill="#1e88e5">6</text>
<text text-anchor="start" x="429" y="-146.7" font-family="Times,serif" font-size="14.00" fill="#bdbdbd"> | </text>
<text text-anchor="start" x="439.5" y="-146.7" font-family="Times,serif" font-size="14.00" fill="#2e7d32">10</text>
</g>
<!-- 10 -->
<g id="node11" class="node">
<title>10</title>
<ellipse fill="none" stroke="black" cx="317" cy="-460.5" rx="46.75" ry="18"/>
<text text-anchor="middle" x="317" y="-455.45" font-family="Times,serif" font-size="14.00">REOPEN</text>
</g>
<!-- 2&#45;&gt;10 -->
<g id="edge32" class="edge">
<title>2&#45;&gt;10</title>
<path fill="none" stroke="#ffb300" stroke-width="2.5" stroke-dasharray="5,2" d="M444.18,-213.08C421.38,-257.27 360.27,-375.67 331.87,-430.68"/>
<polygon fill="#ffb300" stroke="#ffb300" stroke-width="2.5" points="328.93,-428.76 327.45,-439.25 335.15,-431.97 328.93,-428.76"/>
<text text-anchor="start" x="388.14" y="-323.7" font-family="Times,serif" font-size="14.00" fill="#1e88e5">0</text>
<text text-anchor="start" x="394.89" y="-323.7" font-family="Times,serif" font-size="14.00" fill="#bdbdbd"> | </text>
<text text-anchor="start" x="405.39" y="-323.7" font-family="Times,serif" font-size="14.00" fill="#2e7d32">2</text>
</g>
<!-- 11 -->
<g id="node12" class="node">
<title>11</title>
<ellipse fill="none" stroke="black" cx="170" cy="-106.5" rx="63.12" ry="18"/>
<text text-anchor="middle" x="170" y="-101.45" font-family="Times,serif" font-size="14.00">SET STATUS</text>
</g>
<!-- 2&#45;&gt;11 -->
<g id="edge26" class="edge">
<title>2&#45;&gt;11</title>
<path fill="none" stroke="#ffb300" stroke-width="2.5" stroke-dasharray="5,2" d="M411.73,-181.91C389.06,-175.24 360.45,-166.75 335,-159 297.78,-147.67 255.95,-134.61 223.71,-124.48"/>
<polygon fill="#ffb300" stroke="#ffb300" stroke-width="2.5" points="225.17,-121.27 214.58,-121.6 223.07,-127.94 225.17,-121.27"/>
<text text-anchor="start" x="335" y="-146.7" font-family="Times,serif" font-size="14.00" fill="#1e88e5">0</text>
<text text-anchor="start" x="341.75" y="-146.7" font-family="Times,serif" font-size="14.00" fill="#bdbdbd"> | </text>
<text text-anchor="start" x="352.25" y="-146.7" font-family="Times,serif" font-size="14.00" fill="#2e7d32">1</text>
</g>
<!-- 2&#45;&gt;13 -->
<g id="edge28" class="edge">
<title>2&#45;&gt;13</title>
<path fill="none" stroke="#ffb300" stroke-width="2.5" stroke-dasharray="5,2" d="M457.18,-176.58C464.31,-146.89 478.89,-86.14 487.72,-49.35"/>
<polygon fill="#ffb300" stroke="#ffb300" stroke-width="2.5" points="491.08,-50.31 490.02,-39.77 484.28,-48.68 491.08,-50.31"/>
<text text-anchor="start" x="478.18" y="-102.45" font-family="Times,serif" font-size="14.00" fill="#1e88e5">0</text>
<text text-anchor="start" x="484.93" y="-102.45" font-family="Times,serif" font-size="14.00" fill="#bdbdbd"> | </text>
<text text-anchor="start" x="495.43" y="-102.45" font-family="Times,serif" font-size="14.00" fill="#2e7d32">3</text>
</g>
<!-- 3&#45;&gt;0 -->
<g id="edge3" class="edge">
<title>3&#45;&gt;0</title>
<path fill="none" stroke="#9e9e9e" d="M284.77,-123.56C270.47,-136.85 250.74,-156.77 237,-177 119.15,-350.5 103.14,-411.94 73,-619.5 66.79,-662.26 74.2,-712.23 80.38,-742.8"/>
<polygon fill="#9e9e9e" stroke="#9e9e9e" points="76.92,-743.35 82.43,-752.4 83.77,-741.89 76.92,-743.35"/>
<text text-anchor="start" x="114.21" y="-412.2" font-family="Times,serif" font-size="14.00" fill="#1e88e5">141</text>
<text text-anchor="start" x="134.46" y="-412.2" font-family="Times,serif" font-size="14.00" fill="#bdbdbd"> | </text>
<text text-anchor="start" x="144.96" y="-412.2" font-family="Times,serif" font-size="14.00" fill="#2e7d32">61</text>
</g>
<!-- 3&#45;&gt;10 -->
<g id="edge15" class="edge">
<title>3&#45;&gt;10</title>
<path fill="none" stroke="#9e9e9e" d="M302.8,-124.67C302.73,-134.68 302.73,-147.56 303,-159 305.33,-259.03 312.01,-377.63 315.23,-430.99"/>
<polygon fill="#9e9e9e" stroke="#9e9e9e" points="311.72,-430.95 315.82,-440.72 318.71,-430.53 311.72,-430.95"/>
<text text-anchor="start" x="308.16" y="-279.45" font-family="Times,serif" font-size="14.00" fill="#1e88e5">9</text>
<text text-anchor="start" x="314.91" y="-279.45" font-family="Times,serif" font-size="14.00" fill="#bdbdbd"> | </text>
<text text-anchor="start" x="325.41" y="-279.45" font-family="Times,serif" font-size="14.00" fill="#2e7d32">2</text>
</g>
<!-- 3&#45;&gt;13 -->
<g id="edge12" class="edge">
<title>3&#45;&gt;13</title>
<path fill="none" stroke="#9e9e9e" d="M325.83,-90.1C342.91,-79.05 367.13,-64.33 389.75,-54 412.21,-43.74 438.59,-34.98 459.31,-28.78"/>
<polygon fill="#9e9e9e" stroke="#9e9e9e" points="460.11,-32.2 468.73,-26.04 458.15,-25.48 460.11,-32.2"/>
<text text-anchor="start" x="389.75" y="-58.2" font-family="Times,serif" font-size="14.00" fill="#1e88e5">113</text>
<text text-anchor="start" x="410" y="-58.2" font-family="Times,serif" font-size="14.00" fill="#bdbdbd"> | </text>
<text text-anchor="start" x="420.5" y="-58.2" font-family="Times,serif" font-size="14.00" fill="#2e7d32">91</text>
</g>
<!-- 4&#45;&gt;13 -->
<g id="edge18" class="edge">
<title>4&#45;&gt;13</title>
<path fill="none" stroke="#9e9e9e" d="M705.3,-89.1C694.02,-77.54 677.47,-62.64 660,-54 619.44,-33.94 567.72,-25.35 533.1,-21.68"/>
<polygon fill="#9e9e9e" stroke="#9e9e9e" points="533.85,-18.24 523.56,-20.77 533.18,-25.21 533.85,-18.24"/>
<text text-anchor="start" x="683.51" y="-58.2" font-family="Times,serif" font-size="14.00" fill="#1e88e5">49</text>
<text text-anchor="start" x="697.01" y="-58.2" font-family="Times,serif" font-size="14.00" fill="#bdbdbd"> | </text>
<text text-anchor="start" x="707.51" y="-58.2" font-family="Times,serif" font-size="14.00" fill="#2e7d32">66</text>
</g>
<!-- 5&#45;&gt;13 -->
<g id="edge25" class="edge">
<title>5&#45;&gt;13</title>
<path fill="none" stroke="#9e9e9e" d="M425.26,-88.75C431.55,-78.17 440.47,-64.56 450.25,-54 455.35,-48.49 461.38,-43.16 467.32,-38.4"/>
<polygon fill="#9e9e9e" stroke="#9e9e9e" points="469.43,-41.19 475.26,-32.34 465.19,-35.62 469.43,-41.19"/>
<text text-anchor="start" x="450.25" y="-58.2" font-family="Times,serif" font-size="14.00" fill="#1e88e5">6</text>
<text text-anchor="start" x="457" y="-58.2" font-family="Times,serif" font-size="14.00" fill="#bdbdbd"> | </text>
<text text-anchor="start" x="467.5" y="-58.2" font-family="Times,serif" font-size="14.00" fill="#2e7d32">10</text>
</g>
<!-- 6&#45;&gt;4 -->
<g id="edge31" class="edge">
<title>6&#45;&gt;4</title>
<path fill="none" stroke="#ffb300" stroke-width="2.5" stroke-dasharray="5,2" d="M653.12,-354.42C655.47,-348.65 657.99,-342.09 660,-336 682.97,-266.36 703.12,-182.54 713.19,-138.31"/>
<polygon fill="#ffb300" stroke="#ffb300" stroke-width="2.5" points="716.59,-139.13 715.37,-128.6 709.76,-137.59 716.59,-139.13"/>
<text text-anchor="start" x="689.97" y="-235.2" font-family="Times,serif" font-size="14.00" fill="#1e88e5">0</text>
<text text-anchor="start" x="696.72" y="-235.2" font-family="Times,serif" font-size="14.00" fill="#bdbdbd"> | </text>
<text text-anchor="start" x="707.22" y="-235.2" font-family="Times,serif" font-size="14.00" fill="#2e7d32">1</text>
</g>
<!-- 9 -->
<g id="node10" class="node">
<title>9</title>
<ellipse fill="none" stroke="black" cx="513" cy="-283.5" rx="51.35" ry="18"/>
<text text-anchor="middle" x="513" y="-278.45" font-family="Times,serif" font-size="14.00">RELEASE</text>
</g>
<!-- 6&#45;&gt;9 -->
<g id="edge1" class="edge">
<title>6&#45;&gt;9</title>
<path fill="none" stroke="#9e9e9e" d="M624.75,-360.61C611.82,-354.03 595.13,-345.08 581,-336 567.53,-327.35 553.31,-316.82 541.38,-307.54"/>
<polygon fill="#9e9e9e" stroke="#9e9e9e" points="543.56,-304.81 533.54,-301.37 539.23,-310.31 543.56,-304.81"/>
<text text-anchor="start" x="581" y="-323.7" font-family="Times,serif" font-size="14.00" fill="#1e88e5">533</text>
<text text-anchor="start" x="601.25" y="-323.7" font-family="Times,serif" font-size="14.00" fill="#bdbdbd"> | </text>
<text text-anchor="start" x="611.75" y="-323.7" font-family="Times,serif" font-size="14.00" fill="#2e7d32">512</text>
</g>
<!-- 6&#45;&gt;13 -->
<g id="edge13" class="edge">
<title>6&#45;&gt;13</title>
<path fill="none" stroke="#9e9e9e" d="M646,-353.77C646,-336.31 646,-308.53 646,-284.5 646,-284.5 646,-284.5 646,-105.5 646,-53.39 577.45,-32.23 532.73,-23.97"/>
<polygon fill="#9e9e9e" stroke="#9e9e9e" points="533.58,-20.57 523.14,-22.35 532.42,-27.47 533.58,-20.57"/>
<text text-anchor="start" x="646" y="-190.95" font-family="Times,serif" font-size="14.00" fill="#1e88e5">50</text>
<text text-anchor="start" x="659.5" y="-190.95" font-family="Times,serif" font-size="14.00" fill="#bdbdbd"> | </text>
<text text-anchor="start" x="670" y="-190.95" font-family="Times,serif" font-size="14.00" fill="#2e7d32">51</text>
</g>
<!-- 7 -->
<g id="node8" class="node">
<title>7</title>
<ellipse fill="none" stroke="black" cx="897" cy="-549" rx="32.41" ry="18"/>
<text text-anchor="middle" x="897" y="-543.95" font-family="Times,serif" font-size="14.00">NEW</text>
</g>
<!-- 7&#45;&gt;1 -->
<g id="edge8" class="edge">
<title>7&#45;&gt;1</title>
<path fill="none" stroke="#9e9e9e" d="M878.43,-533.91C861.03,-520.71 834.69,-500.72 814.09,-485.09"/>
<polygon fill="#9e9e9e" stroke="#9e9e9e" points="816.37,-482.42 806.28,-479.17 812.13,-488 816.37,-482.42"/>
<text text-anchor="start" x="850.21" y="-500.7" font-family="Times,serif" font-size="14.00" fill="#1e88e5">216</text>
<text text-anchor="start" x="870.46" y="-500.7" font-family="Times,serif" font-size="14.00" fill="#bdbdbd"> | </text>
<text text-anchor="start" x="880.96" y="-500.7" font-family="Times,serif" font-size="14.00" fill="#2e7d32">190</text>
</g>
<!-- 7&#45;&gt;4 -->
<g id="edge17" class="edge">
<title>7&#45;&gt;4</title>
<path fill="none" stroke="#9e9e9e" d="M903.07,-530.84C907.65,-516.94 913.55,-496.72 916,-478.5 920.84,-442.43 939.33,-287.28 913,-231 885.55,-172.33 814.95,-138.34 767.19,-121.36"/>
<polygon fill="#9e9e9e" stroke="#9e9e9e" points="768.5,-118.11 757.91,-118.19 766.24,-124.73 768.5,-118.11"/>
<text text-anchor="start" x="926.83" y="-323.7" font-family="Times,serif" font-size="14.00" fill="#1e88e5">20</text>
<text text-anchor="start" x="940.33" y="-323.7" font-family="Times,serif" font-size="14.00" fill="#bdbdbd"> | </text>
<text text-anchor="start" x="950.83" y="-323.7" font-family="Times,serif" font-size="14.00" fill="#2e7d32">7</text>
</g>
<!-- 7&#45;&gt;6 -->
<g id="edge11" class="edge">
<title>7&#45;&gt;6</title>
<path fill="none" stroke="#9e9e9e" d="M865.95,-543.53C806.8,-534.33 681.41,-511.37 654.5,-478.5 637.05,-457.19 637.12,-424.67 640.18,-401.37"/>
<polygon fill="#9e9e9e" stroke="#9e9e9e" points="643.61,-402.06 641.73,-391.63 636.7,-400.96 643.61,-402.06"/>
<text text-anchor="start" x="654.5" y="-456.45" font-family="Times,serif" font-size="14.00" fill="#1e88e5">42</text>
<text text-anchor="start" x="668" y="-456.45" font-family="Times,serif" font-size="14.00" fill="#bdbdbd"> | </text>
<text text-anchor="start" x="678.5" y="-456.45" font-family="Times,serif" font-size="14.00" fill="#2e7d32">39</text>
</g>
<!-- 7&#45;&gt;13 -->
<g id="edge10" class="edge">
<title>7&#45;&gt;13</title>
<path fill="none" stroke="#9e9e9e" d="M918.98,-535.48C941.43,-520.88 973,-494.48 973,-461.5 973,-461.5 973,-461.5 973,-105.5 973,-47.87 909.8,-68.41 854,-54 739.89,-24.52 599.53,-19.47 533.19,-18.86"/>
<polygon fill="#9e9e9e" stroke="#9e9e9e" points="533.6,-15.36 523.58,-18.8 533.56,-22.36 533.6,-15.36"/>
<text text-anchor="start" x="973" y="-279.45" font-family="Times,serif" font-size="14.00" fill="#1e88e5">285</text>
<text text-anchor="start" x="993.25" y="-279.45" font-family="Times,serif" font-size="14.00" fill="#bdbdbd"> | </text>
<text text-anchor="start" x="1003.75" y="-279.45" font-family="Times,serif" font-size="14.00" fill="#2e7d32">288</text>
</g>
<!-- 8 -->
<g id="node9" class="node">
<title>8</title>
<ellipse fill="none" stroke="black" cx="202" cy="-549" rx="43.67" ry="18"/>
<text text-anchor="middle" x="202" y="-543.95" font-family="Times,serif" font-size="14.00">REJECT</text>
</g>
<!-- 8&#45;&gt;0 -->
<g id="edge30" class="edge">
<title>8&#45;&gt;0</title>
<path fill="none" stroke="#ffb300" stroke-width="2.5" stroke-dasharray="5,2" d="M203.48,-567.42C204.52,-589.52 203.45,-628.05 187,-655.5 171.71,-681.02 156.79,-677.79 137,-700 125.23,-713.22 113.76,-729.26 104.78,-742.77"/>
<polygon fill="#ffb300" stroke="#ffb300" stroke-width="2.5" points="101.86,-740.84 99.36,-751.14 107.73,-744.65 101.86,-740.84"/>
<text text-anchor="start" x="200.1" y="-633.45" font-family="Times,serif" font-size="14.00" fill="#1e88e5">0</text>
<text text-anchor="start" x="206.85" y="-633.45" font-family="Times,serif" font-size="14.00" fill="#bdbdbd"> | </text>
<text text-anchor="start" x="217.35" y="-633.45" font-family="Times,serif" font-size="14.00" fill="#2e7d32">2</text>
</g>
<!-- 8&#45;&gt;10 -->
<g id="edge29" class="edge">
<title>8&#45;&gt;10</title>
<path fill="none" stroke="#ffb300" stroke-width="2.5" stroke-dasharray="5,2" d="M222.29,-532.73C239.84,-519.54 265.49,-500.25 285.67,-485.07"/>
<polygon fill="#ffb300" stroke="#ffb300" stroke-width="2.5" points="287.61,-487.99 293.5,-479.18 283.4,-482.39 287.61,-487.99"/>
<text text-anchor="start" x="269.8" y="-500.7" font-family="Times,serif" font-size="14.00" fill="#1e88e5">0</text>
<text text-anchor="start" x="276.55" y="-500.7" font-family="Times,serif" font-size="14.00" fill="#bdbdbd"> | </text>
<text text-anchor="start" x="287.05" y="-500.7" font-family="Times,serif" font-size="14.00" fill="#2e7d32">17</text>
</g>
<!-- 8&#45;&gt;11 -->
<g id="edge41" class="edge">
<title>8&#45;&gt;11</title>
<path fill="none" stroke="#ffb300" stroke-width="2.5" stroke-dasharray="5,2" d="M199.54,-530.61C192.66,-481.1 173.36,-335.05 167,-213 165.37,-181.71 165.66,-173.8 167,-142.5 167.06,-141.16 167.13,-139.79 167.21,-138.4"/>
<polygon fill="#ffb300" stroke="#ffb300" stroke-width="2.5" points="170.68,-138.93 167.93,-128.7 163.7,-138.41 170.68,-138.93"/>
<text text-anchor="start" x="176.28" y="-323.7" font-family="Times,serif" font-size="14.00" fill="#1e88e5">0</text>
<text text-anchor="start" x="183.03" y="-323.7" font-family="Times,serif" font-size="14.00" fill="#bdbdbd"> | </text>
<text text-anchor="start" x="193.53" y="-323.7" font-family="Times,serif" font-size="14.00" fill="#2e7d32">5</text>
</g>
<!-- 9&#45;&gt;2 -->
<g id="edge16" class="edge">
<title>9&#45;&gt;2</title>
<path fill="none" stroke="#9e9e9e" d="M501.26,-265.78C497.21,-260 492.65,-253.47 488.5,-247.5 482.77,-239.26 476.56,-230.25 470.95,-222.11"/>
<polygon fill="#9e9e9e" stroke="#9e9e9e" points="473.89,-220.22 465.34,-213.97 468.13,-224.19 473.89,-220.22"/>
<text text-anchor="start" x="488.5" y="-235.2" font-family="Times,serif" font-size="14.00" fill="#1e88e5">18</text>
<text text-anchor="start" x="502" y="-235.2" font-family="Times,serif" font-size="14.00" fill="#bdbdbd"> | </text>
<text text-anchor="start" x="512.5" y="-235.2" font-family="Times,serif" font-size="14.00" fill="#2e7d32">11</text>
</g>
<!-- 9&#45;&gt;3 -->
<g id="edge2" class="edge">
<title>9&#45;&gt;3</title>
<path fill="none" stroke="#9e9e9e" d="M465.75,-275.96C425.33,-267.93 368.4,-250.44 334,-213 314.64,-191.93 307.32,-159.37 304.58,-136"/>
<polygon fill="#9e9e9e" stroke="#9e9e9e" points="308.09,-135.86 303.67,-126.23 301.12,-136.51 308.09,-135.86"/>
<text text-anchor="start" x="334" y="-190.95" font-family="Times,serif" font-size="14.00" fill="#1e88e5">492</text>
<text text-anchor="start" x="354.25" y="-190.95" font-family="Times,serif" font-size="14.00" fill="#bdbdbd"> | </text>
<text text-anchor="start" x="364.75" y="-190.95" font-family="Times,serif" font-size="14.00" fill="#2e7d32">265</text>
</g>
<!-- 9&#45;&gt;4 -->
<g id="edge35" class="edge">
<title>9&#45;&gt;4</title>
<path fill="none" stroke="#ffb300" stroke-width="2.5" stroke-dasharray="5,2" d="M533.65,-266.83C540.52,-261.13 547.94,-254.39 554,-247.5 578.7,-219.4 572.85,-202.74 600,-177 622.54,-155.63 652.84,-138.15 677.35,-126.06"/>
<polygon fill="#ffb300" stroke="#ffb300" stroke-width="2.5" points="678.63,-129.33 686.15,-121.87 675.62,-123.01 678.63,-129.33"/>
<text text-anchor="start" x="600" y="-190.95" font-family="Times,serif" font-size="14.00" fill="#1e88e5">0</text>
<text text-anchor="start" x="606.75" y="-190.95" font-family="Times,serif" font-size="14.00" fill="#bdbdbd"> | </text>
<text text-anchor="start" x="617.25" y="-190.95" font-family="Times,serif" font-size="14.00" fill="#2e7d32">1</text>
</g>
<!-- 9&#45;&gt;11 -->
<g id="edge36" class="edge">
<title>9&#45;&gt;11</title>
<path fill="none" stroke="#ffb300" stroke-width="2.5" stroke-dasharray="5,2" d="M465.96,-275.85C433.1,-270.37 388.57,-261.23 351,-247.5 320.28,-236.27 312.75,-231.82 286,-213 252.21,-189.23 217.72,-156.57 195.23,-133.91"/>
<polygon fill="#ffb300" stroke="#ffb300" stroke-width="2.5" points="197.93,-131.67 188.44,-126.97 192.93,-136.57 197.93,-131.67"/>
<text text-anchor="start" x="286" y="-190.95" font-family="Times,serif" font-size="14.00" fill="#1e88e5">0</text>
<text text-anchor="start" x="292.75" y="-190.95" font-family="Times,serif" font-size="14.00" fill="#bdbdbd"> | </text>
<text text-anchor="start" x="303.25" y="-190.95" font-family="Times,serif" font-size="14.00" fill="#2e7d32">1</text>
</g>
<!-- 9&#45;&gt;13 -->
<g id="edge39" class="edge">
<title>9&#45;&gt;13</title>
<path fill="none" stroke="#ffb300" stroke-width="2.5" stroke-dasharray="5,2" d="M520.73,-265.4C522.88,-259.81 524.92,-253.5 526,-247.5 527.3,-240.28 526.04,-238.33 526,-231 525.78,-191.66 529.9,-181.53 525,-142.5 520.94,-110.11 511.55,-73.9 504.35,-49.11"/>
<polygon fill="#ffb300" stroke="#ffb300" stroke-width="2.5" points="507.72,-48.16 501.5,-39.58 501.01,-50.16 507.72,-48.16"/>
<text text-anchor="start" x="526.67" y="-146.7" font-family="Times,serif" font-size="14.00" fill="#1e88e5">0</text>
<text text-anchor="start" x="533.42" y="-146.7" font-family="Times,serif" font-size="14.00" fill="#bdbdbd"> | </text>
<text text-anchor="start" x="543.92" y="-146.7" font-family="Times,serif" font-size="14.00" fill="#2e7d32">7</text>
</g>
<!-- 10&#45;&gt;4 -->
<g id="edge23" class="edge">
<title>10&#45;&gt;4</title>
<path fill="none" stroke="#9e9e9e" d="M363.12,-457.08C451.09,-451.47 638.02,-434.51 682,-390 750.03,-321.15 736.29,-192.6 726.02,-135.77"/>
<polygon fill="#9e9e9e" stroke="#9e9e9e" points="729.51,-135.42 724.19,-126.26 722.64,-136.74 729.51,-135.42"/>
<text text-anchor="start" x="732.57" y="-279.45" font-family="Times,serif" font-size="14.00" fill="#1e88e5">4</text>
<text text-anchor="start" x="739.32" y="-279.45" font-family="Times,serif" font-size="14.00" fill="#bdbdbd"> | </text>
<text text-anchor="start" x="749.82" y="-279.45" font-family="Times,serif" font-size="14.00" fill="#2e7d32">13</text>
</g>
<!-- 10&#45;&gt;6 -->
<g id="edge14" class="edge">
<title>10&#45;&gt;6</title>
<path fill="none" stroke="#9e9e9e" d="M354.74,-449.58C418.78,-432.74 547.83,-398.81 610.39,-382.36"/>
<polygon fill="#9e9e9e" stroke="#9e9e9e" points="611.02,-385.82 619.8,-379.89 609.24,-379.05 611.02,-385.82"/>
<text text-anchor="start" x="510.97" y="-412.2" font-family="Times,serif" font-size="14.00" fill="#1e88e5">15</text>
<text text-anchor="start" x="524.47" y="-412.2" font-family="Times,serif" font-size="14.00" fill="#bdbdbd"> | </text>
<text text-anchor="start" x="534.97" y="-412.2" font-family="Times,serif" font-size="14.00" fill="#2e7d32">25</text>
</g>
<!-- 11&#45;&gt;13 -->
<g id="edge27" class="edge">
<title>11&#45;&gt;13</title>
<path fill="none" stroke="#ffb300" stroke-width="2.5" stroke-dasharray="5,2" d="M208.97,-91.95C241.59,-80.88 289.5,-65.29 332,-54 373.98,-42.85 422.75,-32.74 455.93,-26.29"/>
<polygon fill="#ffb300" stroke="#ffb300" stroke-width="2.5" points="456.25,-29.79 465.41,-24.47 454.93,-22.92 456.25,-29.79"/>
<text text-anchor="start" x="332" y="-58.2" font-family="Times,serif" font-size="14.00" fill="#1e88e5">0</text>
<text text-anchor="start" x="338.75" y="-58.2" font-family="Times,serif" font-size="14.00" fill="#bdbdbd"> | </text>
<text text-anchor="start" x="349.25" y="-58.2" font-family="Times,serif" font-size="14.00" fill="#2e7d32">7</text>
</g>
<!-- 12&#45;&gt;0 -->
<g id="edge38" class="edge">
<title>12&#45;&gt;0</title>
<path fill="none" stroke="#ffb300" stroke-width="2.5" stroke-dasharray="5,2" d="M124.49,-655.52C117.5,-677.09 105.33,-714.66 96.76,-741.13"/>
<polygon fill="#ffb300" stroke="#ffb300" stroke-width="2.5" points="93.45,-739.98 93.7,-750.57 100.11,-742.13 93.45,-739.98"/>
<text text-anchor="start" x="118.47" y="-677.7" font-family="Times,serif" font-size="14.00" fill="#1e88e5">0</text>
<text text-anchor="start" x="125.22" y="-677.7" font-family="Times,serif" font-size="14.00" fill="#bdbdbd"> | </text>
<text text-anchor="start" x="135.72" y="-677.7" font-family="Times,serif" font-size="14.00" fill="#2e7d32">1</text>
</g>
<!-- 12&#45;&gt;8 -->
<g id="edge22" class="edge">
<title>12&#45;&gt;8</title>
<path fill="none" stroke="#9e9e9e" d="M141.96,-619.93C149.54,-609.67 159.67,-596.33 169.25,-585 172.19,-581.52 175.36,-577.94 178.55,-574.44"/>
<polygon fill="#9e9e9e" stroke="#9e9e9e" points="181.05,-576.89 185.29,-567.18 175.92,-572.12 181.05,-576.89"/>
<text text-anchor="start" x="169.25" y="-589.2" font-family="Times,serif" font-size="14.00" fill="#1e88e5">7</text>
<text text-anchor="start" x="176" y="-589.2" font-family="Times,serif" font-size="14.00" fill="#bdbdbd"> | </text>
<text text-anchor="start" x="186.5" y="-589.2" font-family="Times,serif" font-size="14.00" fill="#2e7d32">25</text>
</g>
<!-- 12&#45;&gt;13 -->
<g id="edge40" class="edge">
<title>12&#45;&gt;13</title>
<path fill="none" stroke="#ffb300" stroke-width="2.5" stroke-dasharray="5,2" d="M113.3,-620.29C98.43,-604.04 79,-577.54 79,-550 79,-550 79,-550 79,-105.5 79,-29.41 349.15,-19.78 454.05,-18.91"/>
<polygon fill="#ffb300" stroke="#ffb300" stroke-width="2.5" points="453.94,-22.41 463.92,-18.86 453.9,-15.41 453.94,-22.41"/>
<text text-anchor="start" x="79" y="-323.7" font-family="Times,serif" font-size="14.00" fill="#1e88e5">0</text>
<text text-anchor="start" x="85.75" y="-323.7" font-family="Times,serif" font-size="14.00" fill="#bdbdbd"> | </text>
<text text-anchor="start" x="96.25" y="-323.7" font-family="Times,serif" font-size="14.00" fill="#2e7d32">7</text>
</g>
<!-- 13&#45;&gt;13 -->
<g id="edge5" class="edge">
<title>13&#45;&gt;13</title>
<path fill="none" stroke="#9e9e9e" d="M519.53,-26.17C530.51,-26.95 540,-24.22 540,-18 540,-14.11 536.29,-11.59 530.83,-10.43"/>
<polygon fill="#9e9e9e" stroke="#9e9e9e" points="531.22,-6.95 521.04,-9.91 530.84,-13.94 531.22,-6.95"/>
<text text-anchor="start" x="540" y="-13.95" font-family="Times,serif" font-size="14.00" fill="#1e88e5">456</text>
<text text-anchor="start" x="560.25" y="-13.95" font-family="Times,serif" font-size="14.00" fill="#bdbdbd"> | </text>
<text text-anchor="start" x="570.75" y="-13.95" font-family="Times,serif" font-size="14.00" fill="#2e7d32">408</text>
</g>
<!-- 14 -->
<g id="node15" class="node">
<title>14</title>
<ellipse fill="none" stroke="black" cx="897" cy="-637.5" rx="27" ry="18"/>
<text text-anchor="middle" x="897" y="-632.83" font-family="Times,serif" font-size="14.00">▶</text>
</g>
<!-- 14&#45;&gt;7 -->
<g id="edge7" class="edge">
<title>14&#45;&gt;7</title>
<path fill="none" stroke="#9e9e9e" d="M897,-619.41C897,-607.76 897,-592.05 897,-578.52"/>
<polygon fill="#9e9e9e" stroke="#9e9e9e" points="900.5,-578.86 897,-568.86 893.5,-578.86 900.5,-578.86"/>
<text text-anchor="start" x="897" y="-589.2" font-family="Times,serif" font-size="14.00" fill="#1e88e5">658</text>
<text text-anchor="start" x="917.25" y="-589.2" font-family="Times,serif" font-size="14.00" fill="#bdbdbd"> | </text>
<text text-anchor="start" x="927.75" y="-589.2" font-family="Times,serif" font-size="14.00" fill="#2e7d32">680</text>
</g>
<!-- 14&#45;&gt;14 -->
<g id="edge6" class="edge">
<title>14&#45;&gt;14</title>
<path fill="none" stroke="#9e9e9e" d="M921.53,-645.67C932.51,-646.45 942,-643.72 942,-637.5 942,-633.61 938.29,-631.09 932.83,-629.93"/>
<polygon fill="#9e9e9e" stroke="#9e9e9e" points="933.22,-626.45 923.04,-629.41 932.84,-633.44 933.22,-626.45"/>
<text text-anchor="start" x="942" y="-633.45" font-family="Times,serif" font-size="14.00" fill="#1e88e5">658</text>
<text text-anchor="start" x="962.25" y="-633.45" font-family="Times,serif" font-size="14.00" fill="#bdbdbd"> | </text>
<text text-anchor="start" x="972.75" y="-633.45" font-family="Times,serif" font-size="14.00" fill="#2e7d32">680</text>
</g>
<!-- _legend -->
<g id="node16" class="node">
<title>_legend</title>
<text text-anchor="start" x="273.62" y="-815.2" font-family="Times,serif" font-weight="bold" font-size="14.00">Legend</text>
<text text-anchor="start" x="161.75" y="-791.7" font-family="Times,serif" font-size="14.00" fill="#555555">edge numbers: </text>
<text text-anchor="start" x="245.75" y="-791.7" font-family="Times,serif" font-size="14.00" fill="#1e88e5">forecast</text>
<text text-anchor="start" x="288.5" y="-791.7" font-family="Times,serif" font-size="14.00" fill="#bdbdbd"> | </text>
<text text-anchor="start" x="299" y="-791.7" font-family="Times,serif" font-size="14.00" fill="#2e7d32">actual</text>
<text text-anchor="start" x="161.75" y="-767.2" font-family="Times,serif" font-size="14.00" fill="#9e9e9e">─────</text>
<text text-anchor="start" x="217.5" y="-767.2" font-family="Times,serif" font-size="14.00">matched</text>
<text text-anchor="start" x="161.75" y="-743.7" font-family="Times,serif" font-size="14.00" fill="#ffb300">– – –</text>
<text text-anchor="start" x="217.5" y="-743.7" font-family="Times,serif" font-size="14.00">happened — forecast missed it</text>
<text text-anchor="start" x="161.75" y="-720.2" font-family="Times,serif" font-size="14.00" fill="#e53935">– – –</text>
<text text-anchor="start" x="217.5" y="-720.2" font-family="Times,serif" font-size="14.00">forecast predicted it — did not happen</text>
</g>
</g>
</svg>
