<?xml version="1.0" encoding="UTF-8" standalone="no"?>
<!DOCTYPE svg PUBLIC "-//W3C//DTD SVG 1.1//EN"
 "http://www.w3.org/Graphics/SVG/1.1/DTD/svg11.dtd">
<!-- Generated by graphviz version 12.2.1 (20241206.2353)
 -->
<!-- Pages: 1 -->
<svg width="485pt" height="772pt"
 viewBox="0.00 0.00 484.50 771.50" xmlns="http://www.w3.org/2000/svg" xmlns:xlink="http://www.w3.org/1999/xlink">
<g id="graph0" class="graph" transform="scale(1 1) rotate(0) translate(4 767.5)">
<polygon fill="white" stroke="none" points="-4,4 -4,-767.5 480.5,-767.5 480.5,4 -4,4"/>
<!-- 0 -->
<g id="node1" class="node">
<title>0</title>
<ellipse fill="none" stroke="black" cx="232" cy="-745.5" rx="27" ry="18"/>
<text text-anchor="middle" x="232" y="-740.83" font-family="Times,serif" font-size="14.00">▶</text>
</g>
<!-- 0&#45;&gt;0 -->
<g id="edge6" class="edge">
<title>0&#45;&gt;0</title>
<path fill="none" stroke="black" d="M256.53,-753.67C267.51,-754.45 277,-751.72 277,-745.5 277,-741.61 273.29,-739.09 267.83,-737.93"/>
<polygon fill="black" stroke="black" points="268.22,-734.45 258.04,-737.41 267.84,-741.44 268.22,-734.45"/>
<text text-anchor="middle" x="287.12" y="-740.45" font-family="Times,serif" font-size="14.00">658</text>
</g>
<!-- 6 -->
<g id="node7" class="node">
<title>6</title>
<ellipse fill="none" stroke="black" cx="232" cy="-657" rx="32.41" ry="18"/>
<text text-anchor="middle" x="232" y="-651.95" font-family="Times,serif" font-size="14.00">NEW</text>
</g>
<!-- 0&#45;&gt;6 -->
<g id="edge7" class="edge">
<title>0&#45;&gt;6</title>
<path fill="none" stroke="black" d="M232,-727.41C232,-715.76 232,-700.05 232,-686.52"/>
<polygon fill="black" stroke="black" points="235.5,-686.86 232,-676.86 228.5,-686.86 235.5,-686.86"/>
<text text-anchor="middle" x="242.12" y="-696.2" font-family="Times,serif" font-size="14.00">658</text>
</g>
<!-- 1 -->
<g id="node2" class="node">
<title>1</title>
<ellipse fill="none" stroke="black" cx="129" cy="-18" rx="27" ry="18"/>
<text text-anchor="middle" x="129" y="-12.95" font-family="Times,serif" font-size="14.00">■</text>
</g>
<!-- 1&#45;&gt;1 -->
<g id="edge5" class="edge">
<title>1&#45;&gt;1</title>
<path fill="none" stroke="black" d="M153.53,-26.17C164.51,-26.95 174,-24.22 174,-18 174,-14.11 170.29,-11.59 164.83,-10.43"/>
<polygon fill="black" stroke="black" points="165.22,-6.95 155.04,-9.91 164.84,-13.94 165.22,-6.95"/>
<text text-anchor="middle" x="184.12" y="-12.95" font-family="Times,serif" font-size="14.00">456</text>
</g>
<!-- 2 -->
<g id="node3" class="node">
<title>2</title>
<ellipse fill="none" stroke="black" cx="226" cy="-480" rx="27" ry="18"/>
<text text-anchor="middle" x="226" y="-474.95" font-family="Times,serif" font-size="14.00">FIN</text>
</g>
<!-- 2&#45;&gt;1 -->
<g id="edge13" class="edge">
<title>2&#45;&gt;1</title>
<path fill="none" stroke="black" d="M198.66,-478.52C146.52,-476.01 38,-462.38 38,-392.5 38,-392.5 38,-392.5 38,-105.5 38,-72.21 70.39,-47.85 96.52,-33.62"/>
<polygon fill="black" stroke="black" points="97.86,-36.87 105.16,-29.18 94.67,-30.64 97.86,-36.87"/>
<text text-anchor="middle" x="44.75" y="-253.7" font-family="Times,serif" font-size="14.00">50</text>
</g>
<!-- 3 -->
<g id="node4" class="node">
<title>3</title>
<ellipse fill="none" stroke="black" cx="226" cy="-391.5" rx="51.35" ry="18"/>
<text text-anchor="middle" x="226" y="-386.45" font-family="Times,serif" font-size="14.00">RELEASE</text>
</g>
<!-- 2&#45;&gt;3 -->
<g id="edge1" class="edge">
<title>2&#45;&gt;3</title>
<path fill="none" stroke="black" d="M226,-461.91C226,-450.26 226,-434.55 226,-421.02"/>
<polygon fill="black" stroke="black" points="229.5,-421.36 226,-411.36 222.5,-421.36 229.5,-421.36"/>
<text text-anchor="middle" x="236.12" y="-430.7" font-family="Times,serif" font-size="14.00">533</text>
</g>
<!-- 4 -->
<g id="node5" class="node">
<title>4</title>
<ellipse fill="none" stroke="black" cx="253" cy="-303" rx="51.86" ry="18"/>
<text text-anchor="middle" x="253" y="-297.95" font-family="Times,serif" font-size="14.00">CODE OK</text>
</g>
<!-- 3&#45;&gt;4 -->
<g id="edge2" class="edge">
<title>3&#45;&gt;4</title>
<path fill="none" stroke="black" d="M231.33,-373.41C235.01,-361.64 239.97,-345.73 244.23,-332.11"/>
<polygon fill="black" stroke="black" points="247.49,-333.38 247.13,-322.79 240.81,-331.3 247.49,-333.38"/>
<text text-anchor="middle" x="252.04" y="-342.2" font-family="Times,serif" font-size="14.00">492</text>
</g>
<!-- 9 -->
<g id="node10" class="node">
<title>9</title>
<ellipse fill="none" stroke="black" cx="125" cy="-303" rx="58.52" ry="18"/>
<text text-anchor="middle" x="125" y="-297.95" font-family="Times,serif" font-size="14.00">CODE NOK</text>
</g>
<!-- 3&#45;&gt;9 -->
<g id="edge16" class="edge">
<title>3&#45;&gt;9</title>
<path fill="none" stroke="black" d="M207.48,-374.63C192.15,-361.51 170.15,-342.67 152.73,-327.75"/>
<polygon fill="black" stroke="black" points="155.12,-325.18 145.24,-321.34 150.56,-330.5 155.12,-325.18"/>
<text text-anchor="middle" x="191.3" y="-342.2" font-family="Times,serif" font-size="14.00">18</text>
</g>
<!-- 4&#45;&gt;1 -->
<g id="edge12" class="edge">
<title>4&#45;&gt;1</title>
<path fill="none" stroke="black" d="M231.2,-286.46C214.97,-273.74 193.54,-254.35 181,-232.5 162.89,-200.95 142.91,-97.92 133.89,-47.42"/>
<polygon fill="black" stroke="black" points="137.38,-47.08 132.2,-37.84 130.49,-48.3 137.38,-47.08"/>
<text text-anchor="middle" x="171.92" y="-155.45" font-family="Times,serif" font-size="14.00">113</text>
</g>
<!-- 5 -->
<g id="node6" class="node">
<title>5</title>
<ellipse fill="none" stroke="black" cx="234" cy="-214.5" rx="43.67" ry="18"/>
<text text-anchor="middle" x="234" y="-209.45" font-family="Times,serif" font-size="14.00">BILLED</text>
</g>
<!-- 4&#45;&gt;5 -->
<g id="edge3" class="edge">
<title>4&#45;&gt;5</title>
<path fill="none" stroke="black" d="M249.25,-284.91C246.69,-273.26 243.24,-257.55 240.26,-244.02"/>
<polygon fill="black" stroke="black" points="243.7,-243.34 238.14,-234.33 236.86,-244.85 243.7,-243.34"/>
<text text-anchor="middle" x="255.33" y="-253.7" font-family="Times,serif" font-size="14.00">141</text>
</g>
<!-- 8 -->
<g id="node9" class="node">
<title>8</title>
<ellipse fill="none" stroke="black" cx="342" cy="-214.5" rx="46.75" ry="18"/>
<text text-anchor="middle" x="342" y="-209.45" font-family="Times,serif" font-size="14.00">REOPEN</text>
</g>
<!-- 4&#45;&gt;8 -->
<g id="edge15" class="edge">
<title>4&#45;&gt;8</title>
<path fill="none" stroke="black" d="M269.74,-285.73C283.17,-272.68 302.2,-254.18 317.37,-239.44"/>
<polygon fill="black" stroke="black" points="319.52,-242.23 324.25,-232.75 314.64,-237.21 319.52,-242.23"/>
<text text-anchor="middle" x="308.85" y="-253.7" font-family="Times,serif" font-size="14.00">9</text>
</g>
<!-- 5&#45;&gt;1 -->
<g id="edge4" class="edge">
<title>5&#45;&gt;1</title>
<path fill="none" stroke="black" d="M231.09,-196.12C225.18,-165.02 209.42,-98.91 176,-54 171.18,-47.53 164.84,-41.71 158.39,-36.76"/>
<polygon fill="black" stroke="black" points="160.43,-33.92 150.24,-31.02 156.4,-39.64 160.43,-33.92"/>
<text text-anchor="middle" x="221.18" y="-101.45" font-family="Times,serif" font-size="14.00">165</text>
</g>
<!-- 11 -->
<g id="node12" class="node">
<title>11</title>
<ellipse fill="none" stroke="black" cx="294" cy="-106.5" rx="47.77" ry="18"/>
<text text-anchor="middle" x="294" y="-101.45" font-family="Times,serif" font-size="14.00">STORNO</text>
</g>
<!-- 5&#45;&gt;11 -->
<g id="edge21" class="edge">
<title>5&#45;&gt;11</title>
<path fill="none" stroke="black" d="M243.64,-196.47C253.13,-179.7 267.77,-153.84 278.82,-134.31"/>
<polygon fill="black" stroke="black" points="281.76,-136.23 283.64,-125.81 275.67,-132.78 281.76,-136.23"/>
<text text-anchor="middle" x="276.25" y="-155.45" font-family="Times,serif" font-size="14.00">9</text>
</g>
<!-- 6&#45;&gt;1 -->
<g id="edge10" class="edge">
<title>6&#45;&gt;1</title>
<path fill="none" stroke="black" d="M201.19,-651.16C138.08,-640.38 0,-611.95 0,-569.5 0,-569.5 0,-569.5 0,-105.5 0,-60.71 54.31,-37.63 92.45,-26.94"/>
<polygon fill="black" stroke="black" points="92.95,-30.43 101.74,-24.51 91.18,-23.65 92.95,-30.43"/>
<text text-anchor="middle" x="10.12" y="-342.2" font-family="Times,serif" font-size="14.00">285</text>
</g>
<!-- 6&#45;&gt;2 -->
<g id="edge11" class="edge">
<title>6&#45;&gt;2</title>
<path fill="none" stroke="black" d="M229.6,-638.62C227.79,-624.59 225.46,-604.31 224.5,-586.5 223.1,-560.51 223.72,-530.86 224.54,-509.63"/>
<polygon fill="black" stroke="black" points="228.04,-509.85 224.97,-499.7 221.04,-509.54 228.04,-509.85"/>
<text text-anchor="middle" x="231.25" y="-563.45" font-family="Times,serif" font-size="14.00">42</text>
</g>
<!-- 7 -->
<g id="node8" class="node">
<title>7</title>
<ellipse fill="none" stroke="black" cx="329" cy="-568.5" rx="81.55" ry="18"/>
<text text-anchor="middle" x="329" y="-563.45" font-family="Times,serif" font-size="14.00">CHANGE DIAGN</text>
</g>
<!-- 6&#45;&gt;7 -->
<g id="edge8" class="edge">
<title>6&#45;&gt;7</title>
<path fill="none" stroke="black" d="M248.45,-641.33C263,-628.36 284.5,-609.18 301.64,-593.9"/>
<polygon fill="black" stroke="black" points="303.87,-596.6 309.01,-587.33 299.21,-591.37 303.87,-596.6"/>
<text text-anchor="middle" x="299.31" y="-607.7" font-family="Times,serif" font-size="14.00">216</text>
</g>
<!-- 10 -->
<g id="node11" class="node">
<title>10</title>
<ellipse fill="none" stroke="black" cx="411" cy="-106.5" rx="45.72" ry="18"/>
<text text-anchor="middle" x="411" y="-101.45" font-family="Times,serif" font-size="14.00">DELETE</text>
</g>
<!-- 6&#45;&gt;10 -->
<g id="edge17" class="edge">
<title>6&#45;&gt;10</title>
<path fill="none" stroke="black" d="M263.15,-651.06C326.21,-640.17 463,-611.68 463,-569.5 463,-569.5 463,-569.5 463,-213.5 463,-183.73 446.26,-153.62 431.78,-133.14"/>
<polygon fill="black" stroke="black" points="434.6,-131.07 425.84,-125.12 428.98,-135.24 434.6,-131.07"/>
<text text-anchor="middle" x="469.75" y="-386.45" font-family="Times,serif" font-size="14.00">20</text>
</g>
<!-- 7&#45;&gt;2 -->
<g id="edge9" class="edge">
<title>7&#45;&gt;2</title>
<path fill="none" stroke="black" d="M309.14,-550.82C292.61,-536.94 268.99,-517.1 251.14,-502.12"/>
<polygon fill="black" stroke="black" points="253.47,-499.5 243.57,-495.75 248.97,-504.86 253.47,-499.5"/>
<text text-anchor="middle" x="293.48" y="-519.2" font-family="Times,serif" font-size="14.00">27</text>
</g>
<!-- 7&#45;&gt;7 -->
<g id="edge19" class="edge">
<title>7&#45;&gt;7</title>
<path fill="none" stroke="black" d="M402.8,-576.48C417.8,-575.61 428.55,-572.95 428.55,-568.5 428.55,-565.27 422.88,-562.98 414.02,-561.63"/>
<polygon fill="black" stroke="black" points="414.61,-558.18 404.31,-560.67 413.91,-565.14 414.61,-558.18"/>
<text text-anchor="middle" x="431.92" y="-563.45" font-family="Times,serif" font-size="14.00">7</text>
</g>
<!-- 7&#45;&gt;10 -->
<g id="edge20" class="edge">
<title>7&#45;&gt;10</title>
<path fill="none" stroke="black" d="M362.02,-551.67C386.99,-537.15 417,-513.03 417,-481 417,-481 417,-481 417,-213.5 417,-187.18 415.13,-157.25 413.48,-135.92"/>
<polygon fill="black" stroke="black" points="417,-135.93 412.7,-126.25 410.02,-136.5 417,-135.93"/>
<text text-anchor="middle" x="420.38" y="-342.2" font-family="Times,serif" font-size="14.00">8</text>
</g>
<!-- 8&#45;&gt;2 -->
<g id="edge14" class="edge">
<title>8&#45;&gt;2</title>
<path fill="none" stroke="black" d="M339.69,-232.86C334.45,-268.08 319.41,-349.66 286,-409.5 276.28,-426.91 261.72,-443.91 249.39,-456.73"/>
<polygon fill="black" stroke="black" points="246.91,-454.26 242.35,-463.83 251.88,-459.19 246.91,-454.26"/>
<text text-anchor="middle" x="322.26" y="-342.2" font-family="Times,serif" font-size="14.00">15</text>
</g>
<!-- 8&#45;&gt;10 -->
<g id="edge23" class="edge">
<title>8&#45;&gt;10</title>
<path fill="none" stroke="black" d="M352.78,-196.94C363.76,-180.08 380.94,-153.69 393.79,-133.93"/>
<polygon fill="black" stroke="black" points="396.72,-135.85 399.24,-125.56 390.85,-132.04 396.72,-135.85"/>
<text text-anchor="middle" x="390.09" y="-155.45" font-family="Times,serif" font-size="14.00">4</text>
</g>
<!-- 13 -->
<g id="node14" class="node">
<title>13</title>
<ellipse fill="none" stroke="black" cx="96" cy="-160.5" rx="42.65" ry="18"/>
<text text-anchor="middle" x="96" y="-155.45" font-family="Times,serif" font-size="14.00">EMPTY</text>
</g>
<!-- 9&#45;&gt;13 -->
<g id="edge24" class="edge">
<title>9&#45;&gt;13</title>
<path fill="none" stroke="black" d="M121.44,-284.77C116.57,-261.18 107.77,-218.5 101.9,-190.08"/>
<polygon fill="black" stroke="black" points="105.34,-189.44 99.89,-180.35 98.48,-190.85 105.34,-189.44"/>
<text text-anchor="middle" x="121.04" y="-253.7" font-family="Times,serif" font-size="14.00">6</text>
</g>
<!-- 10&#45;&gt;1 -->
<g id="edge18" class="edge">
<title>10&#45;&gt;1</title>
<path fill="none" stroke="black" d="M374.89,-95.02C367.03,-92.81 358.75,-90.53 351,-88.5 318.05,-79.86 309.18,-80.13 276.5,-70.5 236.93,-58.84 192.33,-42.86 162.63,-31.81"/>
<polygon fill="black" stroke="black" points="164.03,-28.6 153.43,-28.36 161.57,-35.15 164.03,-28.6"/>
<text text-anchor="middle" x="283.25" y="-57.2" font-family="Times,serif" font-size="14.00">49</text>
</g>
<!-- 12 -->
<g id="node13" class="node">
<title>12</title>
<ellipse fill="none" stroke="black" cx="294" cy="-18" rx="43.67" ry="18"/>
<text text-anchor="middle" x="294" y="-12.95" font-family="Times,serif" font-size="14.00">REJECT</text>
</g>
<!-- 11&#45;&gt;12 -->
<g id="edge22" class="edge">
<title>11&#45;&gt;12</title>
<path fill="none" stroke="black" d="M294,-88.41C294,-76.76 294,-61.05 294,-47.52"/>
<polygon fill="black" stroke="black" points="297.5,-47.86 294,-37.86 290.5,-47.86 297.5,-47.86"/>
<text text-anchor="middle" x="297.38" y="-57.2" font-family="Times,serif" font-size="14.00">7</text>
</g>
<!-- 13&#45;&gt;1 -->
<g id="edge25" class="edge">
<title>13&#45;&gt;1</title>
<path fill="none" stroke="black" d="M100.05,-142.27C105.62,-118.55 115.72,-75.54 122.4,-47.12"/>
<polygon fill="black" stroke="black" points="125.8,-47.94 124.68,-37.4 118.98,-46.34 125.8,-47.94"/>
<text text-anchor="middle" x="115.88" y="-101.45" font-family="Times,serif" font-size="14.00">6</text>
</g>
</g>
</svg>
