<?xml version="1.0" encoding="UTF-8" standalone="no"?>
<!DOCTYPE svg PUBLIC "-//W3C//DTD SVG 1.1//EN"
 "http://www.w3.org/Graphics/SVG/1.1/DTD/svg11.dtd">
<!-- Generated by graphviz version 12.2.1 (20241206.2353)
 -->
<!-- Pages: 1 -->
<svg width="2033pt" height="1215pt"
 viewBox="0.00 0.00 2033.00 1214.50" xmlns="http://www.w3.org/2000/svg" xmlns:xlink="http://www.w3.org/1999/xlink">
<g id="graph0" class="graph" transform="scale(1 1) rotate(0) translate(4 1210.5)">
<polygon fill="white" stroke="none" points="-4,4 -4,-1210.5 2029,-1210.5 2029,4 -4,4"/>
<g id="clust1" class="cluster">
<title>cluster_legend</title>
<polygon fill="none" stroke="#bdbdbd" stroke-dasharray="5,2" points="1709,-1054 1709,-1198.5 2017,-1198.5 2017,-1054 1709,-1054"/>
</g>
<!-- 0 -->
<g id="node1" class="node">
<title>0</title>
<ellipse fill="none" stroke="black" cx="394" cy="-372" rx="93.83" ry="18"/>
<text text-anchor="middle" x="394" y="-366.95" font-family="Times,serif" font-size="14.00">Cancel Goods Receipt</text>
</g>
<!-- 23 -->
<g id="node24" class="node">
<title>23</title>
<ellipse fill="none" stroke="black" cx="1167" cy="-18" rx="27" ry="18"/>
<text text-anchor="middle" x="1167" y="-12.95" font-family="Times,serif" font-size="14.00">■</text>
</g>
<!-- 0&#45;&gt;23 -->
<g id="edge30" class="edge">
<title>0&#45;&gt;23</title>
<path fill="none" stroke="#9e9e9e" d="M404.48,-353.8C413.81,-336.82 426,-309.8 426,-284.5 426,-284.5 426,-284.5 426,-105.5 426,-64.7 463.32,-66.99 502,-54 561.31,-34.08 995.79,-22.82 1128.57,-19.82"/>
<polygon fill="#9e9e9e" stroke="#9e9e9e" points="1128.31,-23.33 1138.23,-19.61 1128.16,-16.33 1128.31,-23.33"/>
<text text-anchor="start" x="426" y="-189.95" font-family="Times,serif" font-size="14.00" fill="#0c8599">&#45;88%</text>
</g>
<!-- 1 -->
<g id="node2" class="node">
<title>1</title>
<ellipse fill="none" stroke="black" cx="1601" cy="-1126.25" rx="97.41" ry="18"/>
<text text-anchor="middle" x="1601" y="-1121.2" font-family="Times,serif" font-size="14.00">Cancel Invoice Receipt</text>
</g>
<!-- 6 -->
<g id="node7" class="node">
<title>6</title>
<ellipse fill="none" stroke="black" cx="1533" cy="-991.5" rx="61.08" ry="18"/>
<text text-anchor="middle" x="1533" y="-986.45" font-family="Times,serif" font-size="14.00">Clear Invoice</text>
</g>
<!-- 1&#45;&gt;6 -->
<g id="edge29" class="edge">
<title>1&#45;&gt;6</title>
<path fill="none" stroke="#9e9e9e" d="M1592.11,-1107.9C1580.59,-1085.41 1560.39,-1045.97 1546.85,-1019.54"/>
<polygon fill="#9e9e9e" stroke="#9e9e9e" points="1550.04,-1018.09 1542.37,-1010.79 1543.81,-1021.28 1550.04,-1018.09"/>
<text text-anchor="start" x="1558.91" y="-1030.7" font-family="Times,serif" font-size="14.00" fill="#0c8599">&#45;75%</text>
</g>
<!-- 1&#45;&gt;23 -->
<g id="edge25" class="edge">
<title>1&#45;&gt;23</title>
<path fill="none" stroke="#9e9e9e" d="M1616.66,-1108.26C1637.02,-1084.33 1670,-1038.47 1670,-992.5 1670,-992.5 1670,-992.5 1670,-105.5 1670,-60.95 1626.41,-67.66 1584,-54 1514.18,-31.51 1295.05,-22.72 1205.6,-20.01"/>
<polygon fill="#9e9e9e" stroke="#9e9e9e" points="1205.97,-16.52 1195.88,-19.73 1205.77,-23.52 1205.97,-16.52"/>
<text text-anchor="start" x="1670" y="-543.95" font-family="Times,serif" font-size="14.00" fill="#e8590c">+40%</text>
</g>
<!-- 2 -->
<g id="node3" class="node">
<title>2</title>
<ellipse fill="none" stroke="black" cx="931" cy="-106.5" rx="149.11" ry="18"/>
<text text-anchor="middle" x="931" y="-101.45" font-family="Times,serif" font-size="14.00">Change Approval for Purchase Order</text>
</g>
<!-- 2&#45;&gt;23 -->
<g id="edge60" class="edge">
<title>2&#45;&gt;23</title>
<path fill="none" stroke="#ffb300" stroke-width="2.5" stroke-dasharray="5,2" d="M973.48,-88.77C999.82,-78.5 1034.4,-65.22 1065.25,-54 1086.69,-46.2 1110.82,-37.88 1130.2,-31.31"/>
<polygon fill="#ffb300" stroke="#ffb300" stroke-width="2.5" points="1131.13,-34.69 1139.48,-28.18 1128.89,-28.06 1131.13,-34.69"/>
<text text-anchor="start" x="1065.25" y="-57.2" font-family="Times,serif" font-size="14.00" fill="#0c8599">&#45;100%</text>
</g>
<!-- 3 -->
<g id="node4" class="node">
<title>3</title>
<ellipse fill="none" stroke="black" cx="654" cy="-106.5" rx="109.7" ry="18"/>
<text text-anchor="middle" x="654" y="-101.45" font-family="Times,serif" font-size="14.00">Change Delivery Indicator</text>
</g>
<!-- 3&#45;&gt;23 -->
<g id="edge32" class="edge">
<title>3&#45;&gt;23</title>
<path fill="none" stroke="#9e9e9e" d="M728.59,-92.92C839.95,-74.15 1045.55,-39.48 1129.66,-25.3"/>
<polygon fill="#9e9e9e" stroke="#9e9e9e" points="1130.16,-28.76 1139.43,-23.65 1128.99,-21.86 1130.16,-28.76"/>
<text text-anchor="start" x="956.45" y="-57.2" font-family="Times,serif" font-size="14.00" fill="#555555">0%</text>
</g>
<!-- 4 -->
<g id="node5" class="node">
<title>4</title>
<ellipse fill="none" stroke="black" cx="838" cy="-814.5" rx="60.56" ry="18"/>
<text text-anchor="middle" x="838" y="-809.45" font-family="Times,serif" font-size="14.00">Change Price</text>
</g>
<!-- 11 -->
<g id="node12" class="node">
<title>11</title>
<ellipse fill="none" stroke="black" cx="1206" cy="-726" rx="94.86" ry="18"/>
<text text-anchor="middle" x="1206" y="-720.95" font-family="Times,serif" font-size="14.00">Record Goods Receipt</text>
</g>
<!-- 4&#45;&gt;11 -->
<g id="edge28" class="edge">
<title>4&#45;&gt;11</title>
<path fill="none" stroke="#9e9e9e" d="M886.34,-803.38C918.36,-796.59 961.25,-787.3 999,-778.5 1046.31,-767.48 1099.48,-754.23 1140.09,-743.93"/>
<polygon fill="#9e9e9e" stroke="#9e9e9e" points="1140.9,-747.34 1149.73,-741.48 1139.17,-740.55 1140.9,-747.34"/>
<text text-anchor="start" x="1067.44" y="-765.2" font-family="Times,serif" font-size="14.00" fill="#e8590c">+90%</text>
</g>
<!-- 14 -->
<g id="node15" class="node">
<title>14</title>
<ellipse fill="none" stroke="black" cx="1443" cy="-637.5" rx="102.02" ry="18"/>
<text text-anchor="middle" x="1443" y="-632.45" font-family="Times,serif" font-size="14.00">Remove Payment Block</text>
</g>
<!-- 4&#45;&gt;14 -->
<g id="edge15" class="edge">
<title>4&#45;&gt;14</title>
<path fill="none" stroke="#9e9e9e" d="M897.95,-811.05C1017.43,-805.27 1280.38,-787.83 1358,-744 1374.95,-734.43 1405.5,-693.15 1424.99,-665.15"/>
<polygon fill="#9e9e9e" stroke="#9e9e9e" points="1427.73,-667.34 1430.53,-657.12 1421.97,-663.37 1427.73,-667.34"/>
<text text-anchor="start" x="1392.95" y="-720.95" font-family="Times,serif" font-size="14.00" fill="#0c8599">&#45;79%</text>
</g>
<!-- 22 -->
<g id="node23" class="node">
<title>22</title>
<ellipse fill="none" stroke="black" cx="882" cy="-549" rx="95.37" ry="18"/>
<text text-anchor="middle" x="882" y="-543.95" font-family="Times,serif" font-size="14.00">Vendor creates invoice</text>
</g>
<!-- 4&#45;&gt;22 -->
<g id="edge35" class="edge">
<title>4&#45;&gt;22</title>
<path fill="none" stroke="#9e9e9e" d="M831.42,-796.2C819.25,-761.43 796.5,-681.13 820,-619.5 826.55,-602.31 839.52,-586.68 851.91,-574.61"/>
<polygon fill="#9e9e9e" stroke="#9e9e9e" points="854.23,-577.23 859.2,-567.88 849.48,-572.09 854.23,-577.23"/>
<text text-anchor="start" x="809.91" y="-676.7" font-family="Times,serif" font-size="14.00" fill="#e8590c">+500%</text>
</g>
<!-- 4&#45;&gt;23 -->
<g id="edge49" class="edge">
<title>4&#45;&gt;23</title>
<path fill="none" stroke="#9e9e9e" d="M778.4,-810.49C586.96,-800.06 0,-761.62 0,-682.75 0,-682.75 0,-682.75 0,-105.5 0,-47.58 926.41,-24.2 1128.41,-19.79"/>
<polygon fill="#9e9e9e" stroke="#9e9e9e" points="1128.44,-23.3 1138.36,-19.58 1128.28,-16.3 1128.44,-23.3"/>
<text text-anchor="start" x="0" y="-411.2" font-family="Times,serif" font-size="14.00" fill="#0c8599">&#45;92%</text>
</g>
<!-- 5 -->
<g id="node6" class="node">
<title>5</title>
<ellipse fill="none" stroke="black" cx="1058" cy="-283.5" rx="73.87" ry="18"/>
<text text-anchor="middle" x="1058" y="-278.45" font-family="Times,serif" font-size="14.00">Change Quantity</text>
</g>
<!-- 9 -->
<g id="node10" class="node">
<title>9</title>
<ellipse fill="none" stroke="black" cx="975" cy="-195" rx="114.82" ry="18"/>
<text text-anchor="middle" x="975" y="-189.95" font-family="Times,serif" font-size="14.00">Delete Purchase Order Item</text>
</g>
<!-- 5&#45;&gt;9 -->
<g id="edge58" class="edge">
<title>5&#45;&gt;9</title>
<path fill="none" stroke="#ffb300" stroke-width="2.5" stroke-dasharray="5,2" d="M1052.11,-265.29C1047.79,-254.52 1041.09,-240.88 1032,-231 1028.43,-227.12 1024.34,-223.52 1020.01,-220.21"/>
<polygon fill="#ffb300" stroke="#ffb300" stroke-width="2.5" points="1022.31,-217.55 1012.09,-214.77 1018.35,-223.32 1022.31,-217.55"/>
<text text-anchor="start" x="1042.99" y="-234.2" font-family="Times,serif" font-size="14.00" fill="#0c8599">&#45;100%</text>
</g>
<!-- 5&#45;&gt;11 -->
<g id="edge19" class="edge">
<title>5&#45;&gt;11</title>
<path fill="none" stroke="#9e9e9e" d="M1103.62,-298.05C1117.38,-303.42 1132.01,-310.5 1144,-319.5 1228.89,-383.24 1238,-426.21 1255,-531 1266.43,-601.42 1261.9,-624.77 1233,-690 1231.69,-692.96 1230.08,-695.9 1228.3,-698.73"/>
<polygon fill="#9e9e9e" stroke="#9e9e9e" points="1225.6,-696.48 1222.68,-706.67 1231.32,-700.53 1225.6,-696.48"/>
<text text-anchor="start" x="1251.91" y="-499.7" font-family="Times,serif" font-size="14.00" fill="#e8590c">+12%</text>
</g>
<!-- 5&#45;&gt;22 -->
<g id="edge23" class="edge">
<title>5&#45;&gt;22</title>
<path fill="none" stroke="#9e9e9e" d="M1071.08,-301.58C1085.75,-322.98 1105.71,-360.45 1091,-390 1057.8,-456.72 981.48,-502.76 930.84,-527.26"/>
<polygon fill="#9e9e9e" stroke="#9e9e9e" points="929.37,-524.08 921.82,-531.51 932.36,-530.41 929.37,-524.08"/>
<text text-anchor="start" x="1080.29" y="-411.2" font-family="Times,serif" font-size="14.00" fill="#e8590c">+244%</text>
</g>
<!-- 5&#45;&gt;23 -->
<g id="edge48" class="edge">
<title>5&#45;&gt;23</title>
<path fill="none" stroke="#9e9e9e" d="M1071.52,-265.44C1075.72,-259.85 1080.22,-253.53 1084,-247.5 1116.7,-195.27 1128.09,-182.82 1148,-124.5 1156.64,-99.21 1161.56,-69.09 1164.22,-47.52"/>
<polygon fill="#9e9e9e" stroke="#9e9e9e" points="1167.69,-48.04 1165.34,-37.71 1160.73,-47.25 1167.69,-48.04"/>
<text text-anchor="start" x="1141.4" y="-145.7" font-family="Times,serif" font-size="14.00" fill="#0c8599">&#45;33%</text>
</g>
<!-- 6&#45;&gt;6 -->
<g id="edge14" class="edge">
<title>6&#45;&gt;6</title>
<path fill="none" stroke="#9e9e9e" d="M1588.06,-999.68C1601.8,-999.11 1612.08,-996.38 1612.08,-991.5 1612.08,-988.1 1607.11,-985.75 1599.46,-984.44"/>
<polygon fill="#9e9e9e" stroke="#9e9e9e" points="1599.86,-980.96 1589.57,-983.47 1599.18,-987.93 1599.86,-980.96"/>
<text text-anchor="start" x="1612.08" y="-986.45" font-family="Times,serif" font-size="14.00" fill="#0c8599">&#45;33%</text>
</g>
<!-- 12 -->
<g id="node13" class="node">
<title>12</title>
<ellipse fill="none" stroke="black" cx="1252" cy="-903" rx="98.44" ry="18"/>
<text text-anchor="middle" x="1252" y="-897.95" font-family="Times,serif" font-size="14.00">Record Invoice Receipt</text>
</g>
<!-- 6&#45;&gt;12 -->
<g id="edge27" class="edge">
<title>6&#45;&gt;12</title>
<path fill="none" stroke="#9e9e9e" d="M1474.05,-986.3C1433.33,-981.94 1378.52,-973.14 1333,-955.5 1315.16,-948.58 1297.02,-937.51 1282.45,-927.4"/>
<polygon fill="#9e9e9e" stroke="#9e9e9e" points="1284.82,-924.79 1274.65,-921.83 1280.75,-930.49 1284.82,-924.79"/>
<text text-anchor="start" x="1333" y="-942.2" font-family="Times,serif" font-size="14.00" fill="#0c8599">&#45;75%</text>
</g>
<!-- 6&#45;&gt;23 -->
<g id="edge3" class="edge">
<title>6&#45;&gt;23</title>
<path fill="none" stroke="#9e9e9e" d="M1565.6,-975.82C1591.71,-961.57 1624,-937.24 1624,-904 1624,-904 1624,-904 1624,-105.5 1624,-60.57 1579.73,-67.9 1537,-54 1476.1,-34.2 1287.21,-24.06 1205.41,-20.51"/>
<polygon fill="#9e9e9e" stroke="#9e9e9e" points="1205.8,-17.02 1195.66,-20.09 1205.5,-24.01 1205.8,-17.02"/>
<text text-anchor="start" x="1624" y="-499.7" font-family="Times,serif" font-size="14.00" fill="#0c8599">&#45;21%</text>
</g>
<!-- 7 -->
<g id="node8" class="node">
<title>7</title>
<ellipse fill="none" stroke="black" cx="665" cy="-460.5" rx="114.82" ry="18"/>
<text text-anchor="middle" x="665" y="-455.45" font-family="Times,serif" font-size="14.00">Create Purchase Order Item</text>
</g>
<!-- 7&#45;&gt;0 -->
<g id="edge33" class="edge">
<title>7&#45;&gt;0</title>
<path fill="none" stroke="#9e9e9e" d="M570.1,-450.08C538.15,-444.88 502.82,-436.86 472,-424.5 454.87,-417.63 437.56,-406.7 423.62,-396.67"/>
<polygon fill="#9e9e9e" stroke="#9e9e9e" points="425.87,-393.98 415.76,-390.83 421.7,-399.6 425.87,-393.98"/>
<text text-anchor="start" x="472" y="-411.2" font-family="Times,serif" font-size="14.00" fill="#0c8599">&#45;83%</text>
</g>
<!-- 7&#45;&gt;2 -->
<g id="edge68" class="edge">
<title>7&#45;&gt;2</title>
<path fill="none" stroke="#e53935" stroke-width="2.5" stroke-dasharray="5,2" d="M665.32,-442.27C665.61,-424.81 666,-397.03 666,-373 666,-373 666,-373 666,-194 666,-159.43 748.52,-136.51 821.47,-123"/>
<polygon fill="#e53935" stroke="#e53935" stroke-width="2.5" points="822,-126.46 831.23,-121.25 820.77,-119.57 822,-126.46"/>
<text text-anchor="start" x="666" y="-278.45" font-family="Times,serif" font-size="14.00" fill="#555555">—</text>
</g>
<!-- 7&#45;&gt;4 -->
<g id="edge38" class="edge">
<title>7&#45;&gt;4</title>
<path fill="none" stroke="#9e9e9e" d="M661.44,-478.76C652.59,-526.75 634.71,-663.53 699,-744 720.05,-770.36 753.7,-787.54 782.61,-798.23"/>
<polygon fill="#9e9e9e" stroke="#9e9e9e" points="781.4,-801.52 792,-801.52 783.72,-794.91 781.4,-801.52"/>
<text text-anchor="start" x="659.68" y="-632.45" font-family="Times,serif" font-size="14.00" fill="#e8590c">+52%</text>
</g>
<!-- 7&#45;&gt;5 -->
<g id="edge37" class="edge">
<title>7&#45;&gt;5</title>
<path fill="none" stroke="#9e9e9e" d="M698.2,-442.89C707.82,-437.51 718.12,-431.2 727,-424.5 762.63,-397.63 759.77,-376.18 798.5,-354 815.69,-344.16 924.38,-316.76 995.53,-299.45"/>
<polygon fill="#9e9e9e" stroke="#9e9e9e" points="996.24,-302.88 1005.14,-297.12 994.59,-296.08 996.24,-302.88"/>
<text text-anchor="start" x="798.5" y="-366.95" font-family="Times,serif" font-size="14.00" fill="#e8590c">+100%</text>
</g>
<!-- 7&#45;&gt;9 -->
<g id="edge31" class="edge">
<title>7&#45;&gt;9</title>
<path fill="none" stroke="#9e9e9e" d="M677.77,-442.34C694.44,-420.52 725.16,-382.28 756,-354 814.95,-299.95 892.59,-247.77 937.83,-218.97"/>
<polygon fill="#9e9e9e" stroke="#9e9e9e" points="939.65,-221.96 946.23,-213.66 935.91,-216.04 939.65,-221.96"/>
<text text-anchor="start" x="794.71" y="-322.7" font-family="Times,serif" font-size="14.00" fill="#e8590c">+85%</text>
</g>
<!-- 10 -->
<g id="node11" class="node">
<title>10</title>
<ellipse fill="none" stroke="black" cx="965" cy="-372" rx="117.37" ry="18"/>
<text text-anchor="middle" x="965" y="-366.95" font-family="Times,serif" font-size="14.00">Receive Order Confirmation</text>
</g>
<!-- 7&#45;&gt;10 -->
<g id="edge40" class="edge">
<title>7&#45;&gt;10</title>
<path fill="none" stroke="#9e9e9e" d="M726.01,-444.86C750.08,-438.86 777.93,-431.66 803,-424.5 837.78,-414.57 876.38,-402.35 907.18,-392.3"/>
<polygon fill="#9e9e9e" stroke="#9e9e9e" points="907.88,-395.75 916.29,-389.31 905.7,-389.1 907.88,-395.75"/>
<text text-anchor="start" x="856.73" y="-411.2" font-family="Times,serif" font-size="14.00" fill="#e8590c">+47%</text>
</g>
<!-- 7&#45;&gt;11 -->
<g id="edge9" class="edge">
<title>7&#45;&gt;11</title>
<path fill="none" stroke="#9e9e9e" d="M673.41,-478.89C693.1,-517.6 746.18,-610.95 820,-655.5 867.95,-684.44 1013.64,-704.88 1111.67,-715.8"/>
<polygon fill="#9e9e9e" stroke="#9e9e9e" points="1111.25,-719.27 1121.58,-716.89 1112.02,-712.32 1111.25,-719.27"/>
<text text-anchor="start" x="755.05" y="-588.2" font-family="Times,serif" font-size="14.00" fill="#e8590c">+419%</text>
</g>
<!-- 7&#45;&gt;12 -->
<g id="edge36" class="edge">
<title>7&#45;&gt;12</title>
<path fill="none" stroke="#9e9e9e" d="M558.37,-467.4C394.29,-477.41 94.76,-499.71 57,-531 35.05,-549.18 38,-563.75 38,-592.25 38,-815.5 38,-815.5 38,-815.5 38,-870.64 845.24,-893.37 1143.21,-899.88"/>
<polygon fill="#9e9e9e" stroke="#9e9e9e" points="1142.86,-903.38 1152.94,-900.09 1143.01,-896.38 1142.86,-903.38"/>
<text text-anchor="start" x="38" y="-676.7" font-family="Times,serif" font-size="14.00" fill="#e8590c">+116%</text>
</g>
<!-- 7&#45;&gt;22 -->
<g id="edge10" class="edge">
<title>7&#45;&gt;22</title>
<path fill="none" stroke="#9e9e9e" d="M716.61,-476.98C734.34,-482.67 754.19,-489.45 772,-496.5 794.71,-505.49 819.38,-516.89 839.6,-526.67"/>
<polygon fill="#9e9e9e" stroke="#9e9e9e" points="837.84,-529.71 848.37,-530.96 840.92,-523.42 837.84,-529.71"/>
<text text-anchor="start" x="808.84" y="-499.7" font-family="Times,serif" font-size="14.00" fill="#e8590c">+289%</text>
</g>
<!-- 7&#45;&gt;23 -->
<g id="edge44" class="edge">
<title>7&#45;&gt;23</title>
<path fill="none" stroke="#9e9e9e" d="M593.99,-446.07C555.61,-434.25 516,-412.48 516,-373 516,-373 516,-373 516,-105.5 516,-43.32 988.69,-24.3 1128.5,-20.04"/>
<polygon fill="#9e9e9e" stroke="#9e9e9e" points="1128.45,-23.54 1138.34,-19.74 1128.24,-16.54 1128.45,-23.54"/>
<text text-anchor="start" x="516" y="-234.2" font-family="Times,serif" font-size="14.00" fill="#0c8599">&#45;70%</text>
</g>
<!-- 8 -->
<g id="node9" class="node">
<title>8</title>
<ellipse fill="none" stroke="black" cx="349" cy="-637.5" rx="135.8" ry="18"/>
<text text-anchor="middle" x="349" y="-632.45" font-family="Times,serif" font-size="14.00">Create Purchase Requisition Item</text>
</g>
<!-- 8&#45;&gt;7 -->
<g id="edge47" class="edge">
<title>8&#45;&gt;7</title>
<path fill="none" stroke="#9e9e9e" d="M386.09,-619.72C412.72,-606.92 448.9,-587.97 478,-567 515.12,-540.26 513.5,-519.58 553,-496.5 564.61,-489.72 577.68,-484.1 590.69,-479.51"/>
<polygon fill="#9e9e9e" stroke="#9e9e9e" points="591.75,-482.85 600.13,-476.37 589.54,-476.21 591.75,-482.85"/>
<text text-anchor="start" x="513.99" y="-543.95" font-family="Times,serif" font-size="14.00" fill="#e8590c">+60%</text>
</g>
<!-- 13 -->
<g id="node14" class="node">
<title>13</title>
<ellipse fill="none" stroke="black" cx="349" cy="-549" rx="120.45" ry="18"/>
<text text-anchor="middle" x="349" y="-543.95" font-family="Times,serif" font-size="14.00">Release Purchase Requisition</text>
</g>
<!-- 8&#45;&gt;13 -->
<g id="edge52" class="edge">
<title>8&#45;&gt;13</title>
<path fill="none" stroke="#9e9e9e" d="M349,-619.41C349,-607.76 349,-592.05 349,-578.52"/>
<polygon fill="#9e9e9e" stroke="#9e9e9e" points="352.5,-578.86 349,-568.86 345.5,-578.86 352.5,-578.86"/>
<text text-anchor="start" x="349" y="-588.2" font-family="Times,serif" font-size="14.00" fill="#0c8599">&#45;75%</text>
</g>
<!-- 9&#45;&gt;2 -->
<g id="edge59" class="edge">
<title>9&#45;&gt;2</title>
<path fill="none" stroke="#ffb300" stroke-width="2.5" stroke-dasharray="5,2" d="M966.31,-176.91C960.5,-165.49 952.71,-150.18 945.93,-136.84"/>
<polygon fill="#ffb300" stroke="#ffb300" stroke-width="2.5" points="949.19,-135.55 941.54,-128.22 942.96,-138.72 949.19,-135.55"/>
<text text-anchor="start" x="956.94" y="-145.7" font-family="Times,serif" font-size="14.00" fill="#0c8599">&#45;100%</text>
</g>
<!-- 9&#45;&gt;5 -->
<g id="edge61" class="edge">
<title>9&#45;&gt;5</title>
<path fill="none" stroke="#ffb300" stroke-width="2.5" stroke-dasharray="5,2" d="M977.06,-213.38C979.11,-224.21 983.19,-237.86 991.25,-247.5 995.49,-252.56 1000.65,-256.99 1006.2,-260.84"/>
<polygon fill="#ffb300" stroke="#ffb300" stroke-width="2.5" points="1004.38,-263.82 1014.75,-265.98 1007.99,-257.83 1004.38,-263.82"/>
<text text-anchor="start" x="991.25" y="-234.2" font-family="Times,serif" font-size="14.00" fill="#0c8599">&#45;100%</text>
</g>
<!-- 9&#45;&gt;23 -->
<g id="edge20" class="edge">
<title>9&#45;&gt;23</title>
<path fill="none" stroke="#9e9e9e" d="M1009.51,-177.48C1033.43,-165 1065.14,-146.32 1089,-124.5 1114.8,-100.9 1137.7,-67.68 1151.91,-44.85"/>
<polygon fill="#9e9e9e" stroke="#9e9e9e" points="1154.8,-46.82 1157.01,-36.46 1148.82,-43.18 1154.8,-46.82"/>
<text text-anchor="start" x="1121.19" y="-101.45" font-family="Times,serif" font-size="14.00" fill="#0c8599">&#45;7%</text>
</g>
<!-- 10&#45;&gt;5 -->
<g id="edge45" class="edge">
<title>10&#45;&gt;5</title>
<path fill="none" stroke="#9e9e9e" d="M983.37,-353.91C997.22,-341.03 1016.4,-323.2 1031.84,-308.83"/>
<polygon fill="#9e9e9e" stroke="#9e9e9e" points="1033.93,-311.66 1038.87,-302.29 1029.17,-306.54 1033.93,-311.66"/>
<text text-anchor="start" x="1019.83" y="-322.7" font-family="Times,serif" font-size="14.00" fill="#0c8599">&#45;67%</text>
</g>
<!-- 10&#45;&gt;9 -->
<g id="edge41" class="edge">
<title>10&#45;&gt;9</title>
<path fill="none" stroke="#9e9e9e" d="M954.12,-353.88C942.27,-333.05 926.05,-296.79 934.5,-265.5 938.64,-250.18 947.08,-234.77 955.19,-222.36"/>
<polygon fill="#9e9e9e" stroke="#9e9e9e" points="957.91,-224.59 960.68,-214.37 952.14,-220.63 957.91,-224.59"/>
<text text-anchor="start" x="934.5" y="-278.45" font-family="Times,serif" font-size="14.00" fill="#e8590c">+380%</text>
</g>
<!-- 10&#45;&gt;11 -->
<g id="edge43" class="edge">
<title>10&#45;&gt;11</title>
<path fill="none" stroke="#9e9e9e" d="M1050.33,-384.65C1081.87,-390.39 1112.9,-398.21 1125,-408 1205.27,-472.91 1199.17,-518.6 1221,-619.5 1226.61,-645.44 1221.22,-675.43 1215.4,-696.79"/>
<polygon fill="#9e9e9e" stroke="#9e9e9e" points="1212.09,-695.65 1212.62,-706.24 1218.8,-697.63 1212.09,-695.65"/>
<text text-anchor="start" x="1210.61" y="-543.95" font-family="Times,serif" font-size="14.00" fill="#e8590c">+864%</text>
</g>
<!-- 10&#45;&gt;22 -->
<g id="edge42" class="edge">
<title>10&#45;&gt;22</title>
<path fill="none" stroke="#9e9e9e" d="M957.49,-390.42C945.91,-417.08 922.73,-469.48 901,-513 899.73,-515.54 898.38,-518.17 897,-520.8"/>
<polygon fill="#9e9e9e" stroke="#9e9e9e" points="894.06,-518.88 892.42,-529.34 900.23,-522.18 894.06,-518.88"/>
<text text-anchor="start" x="933.99" y="-455.45" font-family="Times,serif" font-size="14.00" fill="#e8590c">+56%</text>
</g>
<!-- 10&#45;&gt;23 -->
<g id="edge51" class="edge">
<title>10&#45;&gt;23</title>
<path fill="none" stroke="#9e9e9e" d="M1040.72,-357.86C1075.91,-348 1115.51,-330.93 1141,-301.5 1208.98,-223.01 1175.41,-174.34 1176,-70.5 1176.04,-63.17 1176.92,-61.28 1176,-54 1175.7,-51.67 1175.3,-49.26 1174.83,-46.87"/>
<polygon fill="#9e9e9e" stroke="#9e9e9e" points="1178.3,-46.33 1172.61,-37.4 1171.49,-47.93 1178.3,-46.33"/>
<text text-anchor="start" x="1183.78" y="-189.95" font-family="Times,serif" font-size="14.00" fill="#0c8599">&#45;50%</text>
</g>
<!-- 11&#45;&gt;11 -->
<g id="edge17" class="edge">
<title>11&#45;&gt;11</title>
<path fill="none" stroke="#9e9e9e" d="M1292.11,-733.84C1307.83,-732.85 1318.86,-730.23 1318.86,-726 1318.86,-722.89 1312.91,-720.65 1303.52,-719.29"/>
<polygon fill="#9e9e9e" stroke="#9e9e9e" points="1303.91,-715.81 1293.62,-718.31 1303.22,-722.78 1303.91,-715.81"/>
<text text-anchor="start" x="1318.86" y="-720.95" font-family="Times,serif" font-size="14.00" fill="#0c8599">&#45;40%</text>
</g>
<!-- 11&#45;&gt;12 -->
<g id="edge1" class="edge">
<title>11&#45;&gt;12</title>
<path fill="none" stroke="#9e9e9e" d="M1242.47,-742.94C1263.23,-754.38 1286.87,-772.09 1296,-796.5 1306.25,-823.9 1290.1,-854.73 1274.56,-875.95"/>
<polygon fill="#9e9e9e" stroke="#9e9e9e" points="1271.85,-873.74 1268.49,-883.78 1277.38,-878.03 1271.85,-873.74"/>
<text text-anchor="start" x="1299.22" y="-809.45" font-family="Times,serif" font-size="14.00" fill="#e8590c">+219%</text>
</g>
<!-- 11&#45;&gt;14 -->
<g id="edge4" class="edge">
<title>11&#45;&gt;14</title>
<path fill="none" stroke="#9e9e9e" d="M1262.82,-711.22C1281.22,-705.76 1301.41,-698.69 1319,-690 1330.36,-684.39 1330.99,-679.3 1342.25,-673.5 1354.21,-667.34 1367.5,-661.85 1380.39,-657.16"/>
<polygon fill="#9e9e9e" stroke="#9e9e9e" points="1381.39,-660.52 1389.67,-653.91 1379.07,-653.91 1381.39,-660.52"/>
<text text-anchor="start" x="1342.25" y="-676.7" font-family="Times,serif" font-size="14.00" fill="#e8590c">+95%</text>
</g>
<!-- 21 -->
<g id="node22" class="node">
<title>21</title>
<ellipse fill="none" stroke="black" cx="942" cy="-637.5" rx="113.28" ry="18"/>
<text text-anchor="middle" x="942" y="-632.45" font-family="Times,serif" font-size="14.00">Vendor creates debit memo</text>
</g>
<!-- 11&#45;&gt;21 -->
<g id="edge57" class="edge">
<title>11&#45;&gt;21</title>
<path fill="none" stroke="#ffb300" stroke-width="2.5" stroke-dasharray="5,2" d="M1133.42,-714.14C1103.99,-708.59 1070,-700.71 1040.25,-690 1019.88,-682.67 998.46,-671.85 980.84,-662.02"/>
<polygon fill="#ffb300" stroke="#ffb300" stroke-width="2.5" points="982.73,-659.07 972.31,-657.14 979.25,-665.14 982.73,-659.07"/>
<text text-anchor="start" x="1040.25" y="-676.7" font-family="Times,serif" font-size="14.00" fill="#0c8599">&#45;100%</text>
</g>
<!-- 11&#45;&gt;22 -->
<g id="edge6" class="edge">
<title>11&#45;&gt;22</title>
<path fill="none" stroke="#9e9e9e" d="M1180.78,-708.22C1172.25,-702.49 1162.68,-696.01 1154,-690 1132.25,-674.95 1126.29,-671.85 1105.5,-655.5 1086.31,-640.41 1084.95,-632.05 1064,-619.5 1026.79,-597.21 981.19,-579.82 944.95,-568"/>
<polygon fill="#9e9e9e" stroke="#9e9e9e" points="946.05,-564.68 935.46,-564.97 943.92,-571.35 946.05,-564.68"/>
<text text-anchor="start" x="1105.5" y="-632.45" font-family="Times,serif" font-size="14.00" fill="#e8590c">+136%</text>
</g>
<!-- 11&#45;&gt;23 -->
<g id="edge24" class="edge">
<title>11&#45;&gt;23</title>
<path fill="none" stroke="#9e9e9e" d="M1233,-708.3C1264.7,-686.38 1313,-644.7 1313,-594.25 1313,-594.25 1313,-594.25 1313,-105.5 1313,-55.17 1247.98,-33.49 1204.72,-24.64"/>
<polygon fill="#9e9e9e" stroke="#9e9e9e" points="1205.4,-21.21 1194.93,-22.8 1204.11,-28.08 1205.4,-21.21"/>
<text text-anchor="start" x="1313" y="-366.95" font-family="Times,serif" font-size="14.00" fill="#0c8599">&#45;64%</text>
</g>
<!-- 12&#45;&gt;4 -->
<g id="edge16" class="edge">
<title>12&#45;&gt;4</title>
<path fill="none" stroke="#9e9e9e" d="M1157.76,-897.39C1073.66,-892.33 957.31,-882.78 914,-867 896.48,-860.62 879.1,-849.31 865.39,-838.92"/>
<polygon fill="#9e9e9e" stroke="#9e9e9e" points="867.74,-836.31 857.72,-832.87 863.41,-841.81 867.74,-836.31"/>
<text text-anchor="start" x="914" y="-853.7" font-family="Times,serif" font-size="14.00" fill="#0c8599">&#45;33%</text>
</g>
<!-- 12&#45;&gt;6 -->
<g id="edge2" class="edge">
<title>12&#45;&gt;6</title>
<path fill="none" stroke="#9e9e9e" d="M1300.83,-919.03C1351.2,-934.54 1429.44,-958.62 1480.95,-974.48"/>
<polygon fill="#9e9e9e" stroke="#9e9e9e" points="1479.81,-977.79 1490.39,-977.38 1481.87,-971.1 1479.81,-977.79"/>
<text text-anchor="start" x="1417.67" y="-942.2" font-family="Times,serif" font-size="14.00" fill="#e8590c">+358%</text>
</g>
<!-- 12&#45;&gt;11 -->
<g id="edge11" class="edge">
<title>12&#45;&gt;11</title>
<path fill="none" stroke="#9e9e9e" d="M1247.42,-884.58C1239.46,-854.31 1223.02,-791.76 1213.42,-755.22"/>
<polygon fill="#9e9e9e" stroke="#9e9e9e" points="1216.87,-754.59 1210.95,-745.81 1210.1,-756.37 1216.87,-754.59"/>
<text text-anchor="start" x="1233.57" y="-809.45" font-family="Times,serif" font-size="14.00" fill="#e8590c">+118%</text>
</g>
<!-- 12&#45;&gt;12 -->
<g id="edge34" class="edge">
<title>12&#45;&gt;12</title>
<path fill="none" stroke="#9e9e9e" d="M1341.34,-910.81C1357.29,-909.8 1368.44,-907.19 1368.44,-903 1368.44,-899.89 1362.3,-897.65 1352.61,-896.29"/>
<polygon fill="#9e9e9e" stroke="#9e9e9e" points="1353.14,-892.83 1342.84,-895.34 1352.46,-899.79 1353.14,-892.83"/>
<text text-anchor="start" x="1368.44" y="-897.95" font-family="Times,serif" font-size="14.00" fill="#0c8599">&#45;50%</text>
</g>
<!-- 12&#45;&gt;14 -->
<g id="edge12" class="edge">
<title>12&#45;&gt;14</title>
<path fill="none" stroke="#9e9e9e" d="M1281.63,-885.4C1322.6,-860.61 1395.09,-809.73 1427,-744 1438.74,-719.81 1442.31,-689.15 1443.2,-667.12"/>
<polygon fill="#9e9e9e" stroke="#9e9e9e" points="1446.7,-667.45 1443.42,-657.38 1439.7,-667.29 1446.7,-667.45"/>
<text text-anchor="start" x="1416.37" y="-765.2" font-family="Times,serif" font-size="14.00" fill="#555555">0%</text>
</g>
<!-- 12&#45;&gt;22 -->
<g id="edge39" class="edge">
<title>12&#45;&gt;22</title>
<path fill="none" stroke="#9e9e9e" d="M1155.9,-898.63C978.39,-891.12 617,-869.22 617,-815.5 617,-815.5 617,-815.5 617,-636.5 617,-598.5 716.7,-574.57 793.8,-561.75"/>
<polygon fill="#9e9e9e" stroke="#9e9e9e" points="794.19,-565.23 803.5,-560.18 793.07,-558.32 794.19,-565.23"/>
<text text-anchor="start" x="617" y="-720.95" font-family="Times,serif" font-size="14.00" fill="#0c8599">&#45;36%</text>
</g>
<!-- 12&#45;&gt;23 -->
<g id="edge13" class="edge">
<title>12&#45;&gt;23</title>
<path fill="none" stroke="#9e9e9e" d="M1293.2,-886.32C1306.75,-880.72 1321.74,-874.04 1335,-867 1454.52,-803.55 1501.17,-780.08 1554,-655.5 1595.39,-557.89 1566,-523.27 1566,-417.25 1566,-417.25 1566,-417.25 1566,-105.5 1566,-32.28 1306.13,-20.9 1205.84,-19.24"/>
<polygon fill="#9e9e9e" stroke="#9e9e9e" points="1205.99,-15.74 1195.94,-19.1 1205.89,-22.74 1205.99,-15.74"/>
<text text-anchor="start" x="1569.14" y="-455.45" font-family="Times,serif" font-size="14.00" fill="#0c8599">&#45;79%</text>
</g>
<!-- 13&#45;&gt;7 -->
<g id="edge53" class="edge">
<title>13&#45;&gt;7</title>
<path fill="none" stroke="#9e9e9e" d="M378.42,-531.26C399.69,-519.84 429.46,-505.26 457.25,-496.5 490.39,-486.05 527.55,-478.53 561.18,-473.22"/>
<polygon fill="#9e9e9e" stroke="#9e9e9e" points="561.58,-476.69 570.94,-471.72 560.52,-469.78 561.58,-476.69"/>
<text text-anchor="start" x="457.25" y="-499.7" font-family="Times,serif" font-size="14.00" fill="#e8590c">+25%</text>
</g>
<!-- 14&#45;&gt;6 -->
<g id="edge5" class="edge">
<title>14&#45;&gt;6</title>
<path fill="none" stroke="#9e9e9e" d="M1485.71,-654.15C1514.78,-667.87 1548,-690.99 1548,-725 1548,-904 1548,-904 1548,-904 1548,-923.69 1544.18,-945.54 1540.4,-962.35"/>
<polygon fill="#9e9e9e" stroke="#9e9e9e" points="1537.1,-961.08 1538.18,-971.62 1543.91,-962.71 1537.1,-961.08"/>
<text text-anchor="start" x="1548" y="-809.45" font-family="Times,serif" font-size="14.00" fill="#e8590c">+142%</text>
</g>
<!-- 14&#45;&gt;23 -->
<g id="edge50" class="edge">
<title>14&#45;&gt;23</title>
<path fill="none" stroke="#9e9e9e" d="M1431.01,-619.15C1420.54,-602.29 1407,-575.54 1407,-550 1407,-550 1407,-550 1407,-105.5 1407,-62.9 1271.48,-35.48 1204.11,-24.48"/>
<polygon fill="#9e9e9e" stroke="#9e9e9e" points="1205.06,-21.09 1194.64,-22.97 1203.96,-28 1205.06,-21.09"/>
<text text-anchor="start" x="1407" y="-322.7" font-family="Times,serif" font-size="14.00" fill="#0c8599">&#45;98%</text>
</g>
<!-- 15 -->
<g id="node16" class="node">
<title>15</title>
<ellipse fill="none" stroke="black" cx="140" cy="-460.5" rx="106.11" ry="18"/>
<text text-anchor="middle" x="140" y="-455.45" font-family="Times,serif" font-size="14.00">SRM: Awaiting Approval</text>
</g>
<!-- 18 -->
<g id="node19" class="node">
<title>18</title>
<ellipse fill="none" stroke="black" cx="158" cy="-372" rx="118.4" ry="18"/>
<text text-anchor="middle" x="158" y="-366.95" font-family="Times,serif" font-size="14.00">SRM: Document Completed</text>
</g>
<!-- 15&#45;&gt;18 -->
<g id="edge65" class="edge">
<title>15&#45;&gt;18</title>
<path fill="none" stroke="#e53935" stroke-width="2.5" stroke-dasharray="5,2" d="M143.56,-442.41C145.86,-431.35 148.92,-416.62 151.64,-403.58"/>
<polygon fill="#e53935" stroke="#e53935" stroke-width="2.5" points="155.01,-404.56 153.62,-394.05 148.15,-403.13 155.01,-404.56"/>
<text text-anchor="start" x="150.61" y="-411.2" font-family="Times,serif" font-size="14.00" fill="#555555">—</text>
</g>
<!-- 16 -->
<g id="node17" class="node">
<title>16</title>
<ellipse fill="none" stroke="black" cx="138" cy="-549" rx="72.34" ry="18"/>
<text text-anchor="middle" x="138" y="-543.95" font-family="Times,serif" font-size="14.00">SRM: Complete</text>
</g>
<!-- 16&#45;&gt;15 -->
<g id="edge64" class="edge">
<title>16&#45;&gt;15</title>
<path fill="none" stroke="#e53935" stroke-width="2.5" stroke-dasharray="5,2" d="M138.4,-530.91C138.65,-519.96 138.98,-505.44 139.28,-492.5"/>
<polygon fill="#e53935" stroke="#e53935" stroke-width="2.5" points="142.78,-492.71 139.51,-482.63 135.78,-492.55 142.78,-492.71"/>
<text text-anchor="start" x="139.18" y="-499.7" font-family="Times,serif" font-size="14.00" fill="#555555">—</text>
</g>
<!-- 17 -->
<g id="node18" class="node">
<title>17</title>
<ellipse fill="none" stroke="black" cx="131" cy="-637.5" rx="64.66" ry="18"/>
<text text-anchor="middle" x="131" y="-632.45" font-family="Times,serif" font-size="14.00">SRM: Created</text>
</g>
<!-- 17&#45;&gt;16 -->
<g id="edge63" class="edge">
<title>17&#45;&gt;16</title>
<path fill="none" stroke="#e53935" stroke-width="2.5" stroke-dasharray="5,2" d="M132.38,-619.41C133.27,-608.46 134.44,-593.94 135.49,-581"/>
<polygon fill="#e53935" stroke="#e53935" stroke-width="2.5" points="138.97,-581.37 136.29,-571.12 132,-580.81 138.97,-581.37"/>
<text text-anchor="start" x="135.13" y="-588.2" font-family="Times,serif" font-size="14.00" fill="#555555">—</text>
</g>
<!-- 19 -->
<g id="node20" class="node">
<title>19</title>
<ellipse fill="none" stroke="black" cx="176" cy="-283.5" rx="147.57" ry="18"/>
<text text-anchor="middle" x="176" y="-278.45" font-family="Times,serif" font-size="14.00">SRM: In Transfer to Execution Syst.</text>
</g>
<!-- 18&#45;&gt;19 -->
<g id="edge66" class="edge">
<title>18&#45;&gt;19</title>
<path fill="none" stroke="#e53935" stroke-width="2.5" stroke-dasharray="5,2" d="M161.56,-353.91C163.86,-342.85 166.92,-328.12 169.64,-315.08"/>
<polygon fill="#e53935" stroke="#e53935" stroke-width="2.5" points="173.01,-316.06 171.62,-305.55 166.15,-314.63 173.01,-316.06"/>
<text text-anchor="start" x="168.61" y="-322.7" font-family="Times,serif" font-size="14.00" fill="#555555">—</text>
</g>
<!-- 20 -->
<g id="node21" class="node">
<title>20</title>
<ellipse fill="none" stroke="black" cx="176" cy="-195" rx="66.19" ry="18"/>
<text text-anchor="middle" x="176" y="-189.95" font-family="Times,serif" font-size="14.00">SRM: Ordered</text>
</g>
<!-- 19&#45;&gt;20 -->
<g id="edge67" class="edge">
<title>19&#45;&gt;20</title>
<path fill="none" stroke="#e53935" stroke-width="2.5" stroke-dasharray="5,2" d="M176,-265.41C176,-254.46 176,-239.94 176,-227"/>
<polygon fill="#e53935" stroke="#e53935" stroke-width="2.5" points="179.5,-227.13 176,-217.13 172.5,-227.13 179.5,-227.13"/>
<text text-anchor="start" x="176" y="-234.2" font-family="Times,serif" font-size="14.00" fill="#555555">—</text>
</g>
<!-- 21&#45;&gt;12 -->
<g id="edge56" class="edge">
<title>21&#45;&gt;12</title>
<path fill="none" stroke="#ffb300" stroke-width="2.5" stroke-dasharray="5,2" d="M938.92,-655.56C934.77,-684.08 930.77,-741.91 958.25,-778.5 1006.53,-842.78 1094.64,-873.88 1161.82,-888.75"/>
<polygon fill="#ffb300" stroke="#ffb300" stroke-width="2.5" points="1160.75,-892.1 1171.25,-890.74 1162.19,-885.25 1160.75,-892.1"/>
<text text-anchor="start" x="958.25" y="-765.2" font-family="Times,serif" font-size="14.00" fill="#0c8599">&#45;100%</text>
</g>
<!-- 21&#45;&gt;22 -->
<g id="edge54" class="edge">
<title>21&#45;&gt;22</title>
<path fill="none" stroke="#ffb300" stroke-width="2.5" stroke-dasharray="5,2" d="M902.16,-620.28C894.65,-615.38 887.74,-609.19 883.25,-601.5 879.67,-595.37 878.19,-588.09 877.85,-580.96"/>
<polygon fill="#ffb300" stroke="#ffb300" stroke-width="2.5" points="881.34,-581.28 878.25,-571.15 874.34,-581 881.34,-581.28"/>
<text text-anchor="start" x="883.25" y="-588.2" font-family="Times,serif" font-size="14.00" fill="#0c8599">&#45;100%</text>
</g>
<!-- 22&#45;&gt;5 -->
<g id="edge18" class="edge">
<title>22&#45;&gt;5</title>
<path fill="none" stroke="#9e9e9e" d="M974.81,-544.46C1033.17,-540.41 1101.52,-531.7 1124,-513 1190.12,-458.01 1179.73,-385 1124,-319.5 1119.14,-313.79 1113.12,-308.88 1106.7,-304.69"/>
<polygon fill="#9e9e9e" stroke="#9e9e9e" points="1108.8,-301.87 1098.4,-299.83 1105.26,-307.91 1108.8,-301.87"/>
<text text-anchor="start" x="1169.77" y="-411.2" font-family="Times,serif" font-size="14.00" fill="#e8590c">+240%</text>
</g>
<!-- 22&#45;&gt;7 -->
<g id="edge22" class="edge">
<title>22&#45;&gt;7</title>
<path fill="none" stroke="#9e9e9e" d="M876.73,-531.01C872.26,-519.48 864.68,-504.86 853,-496.5 838.81,-486.35 804.57,-478.63 769.14,-473.06"/>
<polygon fill="#9e9e9e" stroke="#9e9e9e" points="770.04,-469.66 759.63,-471.63 768.99,-476.58 770.04,-469.66"/>
<text text-anchor="start" x="866.99" y="-499.7" font-family="Times,serif" font-size="14.00" fill="#0c8599">&#45;43%</text>
</g>
<!-- 22&#45;&gt;11 -->
<g id="edge8" class="edge">
<title>22&#45;&gt;11</title>
<path fill="none" stroke="#9e9e9e" d="M971.34,-555.63C1026.62,-563.15 1096.28,-580.37 1146,-619.5 1171.3,-639.41 1187.77,-673.14 1196.94,-697.1"/>
<polygon fill="#9e9e9e" stroke="#9e9e9e" points="1193.55,-698.01 1200.24,-706.23 1200.14,-695.63 1193.55,-698.01"/>
<text text-anchor="start" x="1176.71" y="-632.45" font-family="Times,serif" font-size="14.00" fill="#e8590c">+101%</text>
</g>
<!-- 22&#45;&gt;12 -->
<g id="edge7" class="edge">
<title>22&#45;&gt;12</title>
<path fill="none" stroke="#9e9e9e" d="M805.55,-560.08C776.31,-565.63 747.84,-573.74 739,-585 670.63,-672.13 696.89,-747.59 768,-832.5 814.49,-888.02 1013.96,-900.4 1141.87,-902.49"/>
<polygon fill="#9e9e9e" stroke="#9e9e9e" points="1141.69,-905.99 1151.74,-902.63 1141.79,-898.99 1141.69,-905.99"/>
<text text-anchor="start" x="711.08" y="-720.95" font-family="Times,serif" font-size="14.00" fill="#e8590c">+262%</text>
</g>
<!-- 22&#45;&gt;21 -->
<g id="edge55" class="edge">
<title>22&#45;&gt;21</title>
<path fill="none" stroke="#ffb300" stroke-width="2.5" stroke-dasharray="5,2" d="M903.34,-566.75C909.26,-572.12 915.34,-578.41 920,-585 924.63,-591.55 928.56,-599.23 931.76,-606.63"/>
<polygon fill="#ffb300" stroke="#ffb300" stroke-width="2.5" points="928.45,-607.77 935.35,-615.81 934.97,-605.22 928.45,-607.77"/>
<text text-anchor="start" x="929.17" y="-588.2" font-family="Times,serif" font-size="14.00" fill="#0c8599">&#45;100%</text>
</g>
<!-- 24 -->
<g id="node25" class="node">
<title>24</title>
<ellipse fill="none" stroke="black" cx="431" cy="-726" rx="27" ry="18"/>
<text text-anchor="middle" x="431" y="-721.33" font-family="Times,serif" font-size="14.00">▶</text>
</g>
<!-- 24&#45;&gt;7 -->
<g id="edge26" class="edge">
<title>24&#45;&gt;7</title>
<path fill="none" stroke="#9e9e9e" d="M445.13,-710.14C458.15,-696.28 477.83,-674.89 494,-655.5 519.28,-625.19 522.39,-615.03 548,-585 578.17,-549.62 615.48,-511.04 639.74,-486.59"/>
<polygon fill="#9e9e9e" stroke="#9e9e9e" points="642.1,-489.18 646.68,-479.63 637.14,-484.24 642.1,-489.18"/>
<text text-anchor="start" x="548" y="-588.2" font-family="Times,serif" font-size="14.00" fill="#0c8599">&#45;20%</text>
</g>
<!-- 24&#45;&gt;8 -->
<g id="edge46" class="edge">
<title>24&#45;&gt;8</title>
<path fill="none" stroke="#9e9e9e" d="M417.09,-710.33C404.98,-697.56 387.17,-678.77 372.81,-663.61"/>
<polygon fill="#9e9e9e" stroke="#9e9e9e" points="375.7,-661.57 366.28,-656.73 370.62,-666.39 375.7,-661.57"/>
<text text-anchor="start" x="397.34" y="-676.7" font-family="Times,serif" font-size="14.00" fill="#e8590c">+31%</text>
</g>
<!-- 24&#45;&gt;17 -->
<g id="edge62" class="edge">
<title>24&#45;&gt;17</title>
<path fill="none" stroke="#e53935" stroke-width="2.5" stroke-dasharray="5,2" d="M406.45,-717.92C358.99,-704.24 253.55,-673.84 187.76,-654.87"/>
<polygon fill="#e53935" stroke="#e53935" stroke-width="2.5" points="188.98,-651.57 178.4,-652.17 187.04,-658.3 188.98,-651.57"/>
<text text-anchor="start" x="307.87" y="-676.7" font-family="Times,serif" font-size="14.00" fill="#555555">—</text>
</g>
<!-- 24&#45;&gt;22 -->
<g id="edge21" class="edge">
<title>24&#45;&gt;22</title>
<path fill="none" stroke="#9e9e9e" d="M456.86,-720.29C477.57,-715.47 506.44,-706.33 527,-690 572.11,-654.17 552.17,-612.11 603,-585 632.93,-569.04 712.57,-560.09 779.14,-555.25"/>
<polygon fill="#9e9e9e" stroke="#9e9e9e" points="779.31,-558.75 789.04,-554.56 778.82,-551.76 779.31,-558.75"/>
<text text-anchor="start" x="568.94" y="-632.45" font-family="Times,serif" font-size="14.00" fill="#0c8599">&#45;38%</text>
</g>
<!-- _legend -->
<g id="node26" class="node">
<title>_legend</title>
<text text-anchor="start" x="1841.62" y="-1169.2" font-family="Times,serif" font-weight="bold" font-size="14.00">Legend</text>
<text text-anchor="start" x="1729.75" y="-1145.7" font-family="Times,serif" font-size="14.00" fill="#555555">edge label: </text>
<text text-anchor="start" x="1792.75" y="-1145.7" font-family="Times,serif" font-size="14.00" fill="#e8590c">over</text>
<text text-anchor="start" x="1816.75" y="-1145.7" font-family="Times,serif" font-size="14.00" fill="#555555"> / </text>
<text text-anchor="start" x="1828" y="-1145.7" font-family="Times,serif" font-size="14.00" fill="#0c8599">under</text>
<text text-anchor="start" x="1858.75" y="-1145.7" font-family="Times,serif" font-size="14.00" fill="#555555">&#45;forecast %</text>
<text text-anchor="start" x="1729.75" y="-1121.2" font-family="Times,serif" font-size="14.00" fill="#9e9e9e">─────</text>
<text text-anchor="start" x="1785.5" y="-1121.2" font-family="Times,serif" font-size="14.00">matched</text>
<text text-anchor="start" x="1729.75" y="-1097.7" font-family="Times,serif" font-size="14.00" fill="#ffb300">– – –</text>
<text text-anchor="start" x="1785.5" y="-1097.7" font-family="Times,serif" font-size="14.00">happened — forecast missed it</text>
<text text-anchor="start" x="1729.75" y="-1074.2" font-family="Times,serif" font-size="14.00" fill="#e53935">– – –</text>
<text text-anchor="start" x="1785.5" y="-1074.2" font-family="Times,serif" font-size="14.00">forecast predicted it — did not happen</text>
</g>
</g>
</svg>
