<?xml version="1.0" encoding="UTF-8" standalone="no"?>
<!DOCTYPE svg PUBLIC "-//W3C//DTD SVG 1.1//EN"
 "http://www.w3.org/Graphics/SVG/1.1/DTD/svg11.dtd">
<!-- Generated by graphviz version 12.2.1 (20241206.2353)
 -->
<!-- Pages: 1 -->
<svg width="1530pt" height="1037pt"
 viewBox="0.00 0.00 1529.57 1037.00" xmlns="http://www.w3.org/2000/svg" xmlns:xlink="http://www.w3.org/1999/xlink">
<g id="graph0" class="graph" transform="scale(1 1) rotate(0) translate(4 1033)">
<polygon fill="white" stroke="none" points="-4,4 -4,-1033 1525.57,-1033 1525.57,4 -4,4"/>
<!-- 0 -->
<g id="node1" class="node">
<title>0</title>
<ellipse fill="none" stroke="black" cx="614" cy="-1011" rx="27" ry="18"/>
<text text-anchor="middle" x="614" y="-1006.33" font-family="Times,serif" font-size="14.00">▶</text>
</g>
<!-- 6 -->
<g id="node7" class="node">
<title>6</title>
<ellipse fill="none" stroke="black" cx="210" cy="-834" rx="95.37" ry="18"/>
<text text-anchor="middle" x="210" y="-828.95" font-family="Times,serif" font-size="14.00">Vendor creates invoice</text>
</g>
<!-- 0&#45;&gt;6 -->
<g id="edge27" class="edge">
<title>0&#45;&gt;6</title>
<path fill="none" stroke="black" d="M587.29,-1007.15C536.58,-1000.92 423.86,-983.07 339.25,-940.5 298.05,-919.77 258.1,-884.01 233.78,-859.94"/>
<polygon fill="black" stroke="black" points="236.45,-857.66 226.92,-853.03 231.49,-862.6 236.45,-857.66"/>
<text text-anchor="middle" x="342.62" y="-917.45" font-family="Times,serif" font-size="14.00">5</text>
</g>
<!-- 7 -->
<g id="node8" class="node">
<title>7</title>
<ellipse fill="none" stroke="black" cx="751" cy="-922.5" rx="64.66" ry="18"/>
<text text-anchor="middle" x="751" y="-917.45" font-family="Times,serif" font-size="14.00">SRM: Created</text>
</g>
<!-- 0&#45;&gt;7 -->
<g id="edge9" class="edge">
<title>0&#45;&gt;7</title>
<path fill="none" stroke="black" d="M633.05,-997.97C654.56,-984.39 690.01,-962.01 716.44,-945.32"/>
<polygon fill="black" stroke="black" points="718.21,-948.34 724.8,-940.04 714.48,-942.42 718.21,-948.34"/>
<text text-anchor="middle" x="698.15" y="-961.7" font-family="Times,serif" font-size="14.00">2</text>
</g>
<!-- 13 -->
<g id="node14" class="node">
<title>13</title>
<ellipse fill="none" stroke="black" cx="585" cy="-745.5" rx="114.82" ry="18"/>
<text text-anchor="middle" x="585" y="-740.45" font-family="Times,serif" font-size="14.00">Create Purchase Order Item</text>
</g>
<!-- 0&#45;&gt;13 -->
<g id="edge32" class="edge">
<title>0&#45;&gt;13</title>
<path fill="none" stroke="black" d="M620.92,-993.21C626.23,-979.35 633.14,-959.01 636,-940.5 645.34,-880.04 617.85,-811.21 599.68,-773.96"/>
<polygon fill="black" stroke="black" points="602.91,-772.61 595.29,-765.25 596.66,-775.75 602.91,-772.61"/>
<text text-anchor="middle" x="649.42" y="-873.2" font-family="Times,serif" font-size="14.00">1358</text>
</g>
<!-- 22 -->
<g id="node23" class="node">
<title>22</title>
<ellipse fill="none" stroke="black" cx="491" cy="-922.5" rx="135.8" ry="18"/>
<text text-anchor="middle" x="491" y="-917.45" font-family="Times,serif" font-size="14.00">Create Purchase Requisition Item</text>
</g>
<!-- 0&#45;&gt;22 -->
<g id="edge53" class="edge">
<title>0&#45;&gt;22</title>
<path fill="none" stroke="black" d="M595.85,-997.24C577.14,-984.08 547.54,-963.26 524.55,-947.09"/>
<polygon fill="black" stroke="black" points="526.59,-944.25 516.39,-941.36 522.56,-949.97 526.59,-944.25"/>
<text text-anchor="middle" x="577.02" y="-961.7" font-family="Times,serif" font-size="14.00">2260</text>
</g>
<!-- 1 -->
<g id="node2" class="node">
<title>1</title>
<ellipse fill="none" stroke="black" cx="618" cy="-18" rx="27" ry="18"/>
<text text-anchor="middle" x="618" y="-12.95" font-family="Times,serif" font-size="14.00">■</text>
</g>
<!-- 2 -->
<g id="node3" class="node">
<title>2</title>
<ellipse fill="none" stroke="black" cx="313" cy="-460.5" rx="94.86" ry="18"/>
<text text-anchor="middle" x="313" y="-455.45" font-family="Times,serif" font-size="14.00">Record Goods Receipt</text>
</g>
<!-- 2&#45;&gt;1 -->
<g id="edge30" class="edge">
<title>2&#45;&gt;1</title>
<path fill="none" stroke="black" d="M372.75,-446.17C442.32,-427.14 554.27,-384.86 606,-301.5 656.05,-220.84 637.34,-100.85 625.18,-46.97"/>
<polygon fill="black" stroke="black" points="628.63,-46.32 622.92,-37.39 621.81,-47.93 628.63,-46.32"/>
<text text-anchor="middle" x="642.82" y="-234.2" font-family="Times,serif" font-size="14.00">157</text>
</g>
<!-- 2&#45;&gt;2 -->
<g id="edge23" class="edge">
<title>2&#45;&gt;2</title>
<path fill="none" stroke="black" d="M399.11,-468.34C414.83,-467.35 425.86,-464.73 425.86,-460.5 425.86,-457.39 419.91,-455.15 410.52,-453.79"/>
<polygon fill="black" stroke="black" points="410.91,-450.31 400.62,-452.81 410.22,-457.28 410.91,-450.31"/>
<text text-anchor="middle" x="432.61" y="-455.45" font-family="Times,serif" font-size="14.00">18</text>
</g>
<!-- 3 -->
<g id="node4" class="node">
<title>3</title>
<ellipse fill="none" stroke="black" cx="336" cy="-372" rx="98.44" ry="18"/>
<text text-anchor="middle" x="336" y="-366.95" font-family="Times,serif" font-size="14.00">Record Invoice Receipt</text>
</g>
<!-- 2&#45;&gt;3 -->
<g id="edge1" class="edge">
<title>2&#45;&gt;3</title>
<path fill="none" stroke="black" d="M305.36,-442.35C301.91,-432.11 299.45,-419 303.75,-408 305,-404.79 306.7,-401.7 308.67,-398.78"/>
<polygon fill="black" stroke="black" points="311.19,-401.23 314.7,-391.23 305.72,-396.86 311.19,-401.23"/>
<text text-anchor="middle" x="313.88" y="-411.2" font-family="Times,serif" font-size="14.00">996</text>
</g>
<!-- 5 -->
<g id="node6" class="node">
<title>5</title>
<ellipse fill="none" stroke="black" cx="168" cy="-195" rx="102.02" ry="18"/>
<text text-anchor="middle" x="168" y="-189.95" font-family="Times,serif" font-size="14.00">Remove Payment Block</text>
</g>
<!-- 2&#45;&gt;5 -->
<g id="edge4" class="edge">
<title>2&#45;&gt;5</title>
<path fill="none" stroke="black" d="M285.6,-442.9C267.19,-430.44 243.68,-411.83 229,-390 193.91,-337.83 178.12,-264.37 171.76,-224.48"/>
<polygon fill="black" stroke="black" points="175.24,-224.11 170.3,-214.74 168.32,-225.14 175.24,-224.11"/>
<text text-anchor="middle" x="211" y="-322.7" font-family="Times,serif" font-size="14.00">211</text>
</g>
<!-- 2&#45;&gt;6 -->
<g id="edge6" class="edge">
<title>2&#45;&gt;6</title>
<path fill="none" stroke="black" d="M312.59,-478.92C310.88,-511.27 302.63,-580.99 264,-621 247.01,-638.59 226.29,-619.15 212,-639 176.63,-688.14 189.94,-763.92 201.01,-804.7"/>
<polygon fill="black" stroke="black" points="197.63,-805.6 203.76,-814.24 204.36,-803.66 197.63,-805.6"/>
<text text-anchor="middle" x="225.5" y="-651.95" font-family="Times,serif" font-size="14.00">1364</text>
</g>
<!-- 3&#45;&gt;1 -->
<g id="edge19" class="edge">
<title>3&#45;&gt;1</title>
<path fill="none" stroke="black" d="M412.71,-360.41C488.76,-347.69 594,-323.12 594,-284.5 594,-284.5 594,-284.5 594,-105.5 594,-85.11 600.27,-62.98 606.4,-46.2"/>
<polygon fill="black" stroke="black" points="609.63,-47.53 609.99,-36.94 603.11,-45 609.63,-47.53"/>
<text text-anchor="middle" x="604.12" y="-189.95" font-family="Times,serif" font-size="14.00">299</text>
</g>
<!-- 3&#45;&gt;2 -->
<g id="edge17" class="edge">
<title>3&#45;&gt;2</title>
<path fill="none" stroke="black" d="M332.32,-390.25C330.1,-400.29 327.1,-413.16 324,-424.5 323.41,-426.67 322.77,-428.9 322.11,-431.14"/>
<polygon fill="black" stroke="black" points="318.77,-430.1 319.19,-440.68 325.46,-432.15 318.77,-430.1"/>
<text text-anchor="middle" x="338.1" y="-411.2" font-family="Times,serif" font-size="14.00">109</text>
</g>
<!-- 3&#45;&gt;3 -->
<g id="edge40" class="edge">
<title>3&#45;&gt;3</title>
<path fill="none" stroke="black" d="M425.34,-379.81C441.29,-378.8 452.44,-376.19 452.44,-372 452.44,-368.89 446.3,-366.65 436.61,-365.29"/>
<polygon fill="black" stroke="black" points="437.14,-361.83 426.84,-364.34 436.46,-368.79 437.14,-361.83"/>
<text text-anchor="middle" x="455.81" y="-366.95" font-family="Times,serif" font-size="14.00">2</text>
</g>
<!-- 4 -->
<g id="node5" class="node">
<title>4</title>
<ellipse fill="none" stroke="black" cx="336" cy="-106.5" rx="61.08" ry="18"/>
<text text-anchor="middle" x="336" y="-101.45" font-family="Times,serif" font-size="14.00">Clear Invoice</text>
</g>
<!-- 3&#45;&gt;4 -->
<g id="edge2" class="edge">
<title>3&#45;&gt;4</title>
<path fill="none" stroke="black" d="M329.05,-353.78C319.95,-330.24 304.5,-286.49 298.75,-247.5 292.85,-207.52 309.03,-162.58 321.9,-134.65"/>
<polygon fill="black" stroke="black" points="324.95,-136.37 326.13,-125.84 318.64,-133.34 324.95,-136.37"/>
<text text-anchor="middle" x="308.88" y="-234.2" font-family="Times,serif" font-size="14.00">408</text>
</g>
<!-- 3&#45;&gt;5 -->
<g id="edge18" class="edge">
<title>3&#45;&gt;5</title>
<path fill="none" stroke="black" d="M306.82,-354.45C298.89,-349.16 290.66,-342.88 284,-336 245.64,-296.42 256,-270.93 218,-231 214.08,-226.88 209.61,-222.96 204.99,-219.32"/>
<polygon fill="black" stroke="black" points="207.38,-216.73 197.25,-213.61 203.22,-222.36 207.38,-216.73"/>
<text text-anchor="middle" x="268.97" y="-278.45" font-family="Times,serif" font-size="14.00">154</text>
</g>
<!-- 3&#45;&gt;6 -->
<g id="edge45" class="edge">
<title>3&#45;&gt;6</title>
<path fill="none" stroke="black" d="M280.1,-387.15C214.86,-407.03 110.19,-450.19 65,-531 8.98,-631.19 125.52,-756.4 181.85,-808.5"/>
<polygon fill="black" stroke="black" points="179.15,-810.77 188.9,-814.91 183.86,-805.59 179.15,-810.77"/>
<text text-anchor="middle" x="60.45" y="-597.95" font-family="Times,serif" font-size="14.00">38</text>
</g>
<!-- 14 -->
<g id="node15" class="node">
<title>14</title>
<ellipse fill="none" stroke="black" cx="105" cy="-283.5" rx="60.56" ry="18"/>
<text text-anchor="middle" x="105" y="-278.45" font-family="Times,serif" font-size="14.00">Change Price</text>
</g>
<!-- 3&#45;&gt;14 -->
<g id="edge22" class="edge">
<title>3&#45;&gt;14</title>
<path fill="none" stroke="black" d="M258.92,-360.46C232.31,-355.15 202.78,-347.35 177.25,-336 172.55,-333.91 153.05,-319.96 135.49,-307.1"/>
<polygon fill="black" stroke="black" points="137.93,-304.55 127.8,-301.44 133.78,-310.19 137.93,-304.55"/>
<text text-anchor="middle" x="180.62" y="-322.7" font-family="Times,serif" font-size="14.00">8</text>
</g>
<!-- 4&#45;&gt;1 -->
<g id="edge3" class="edge">
<title>4&#45;&gt;1</title>
<path fill="none" stroke="black" d="M371.28,-91.42C399.59,-80.42 440.49,-65.16 477,-54 511.98,-43.3 552.57,-33.49 581.2,-27"/>
<polygon fill="black" stroke="black" points="581.83,-30.44 590.83,-24.84 580.3,-23.61 581.83,-30.44"/>
<text text-anchor="middle" x="490.5" y="-57.2" font-family="Times,serif" font-size="14.00">5119</text>
</g>
<!-- 4&#45;&gt;3 -->
<g id="edge33" class="edge">
<title>4&#45;&gt;3</title>
<path fill="none" stroke="black" d="M336,-124.85C336,-169.31 336,-287.64 336,-342.43"/>
<polygon fill="black" stroke="black" points="332.5,-342.2 336,-352.2 339.5,-342.2 332.5,-342.2"/>
<text text-anchor="middle" x="339.38" y="-234.2" font-family="Times,serif" font-size="14.00">2</text>
</g>
<!-- 4&#45;&gt;4 -->
<g id="edge20" class="edge">
<title>4&#45;&gt;4</title>
<path fill="none" stroke="black" d="M391.06,-114.68C404.8,-114.11 415.08,-111.38 415.08,-106.5 415.08,-103.1 410.11,-100.75 402.46,-99.44"/>
<polygon fill="black" stroke="black" points="402.86,-95.96 392.57,-98.47 402.18,-102.93 402.86,-95.96"/>
<text text-anchor="middle" x="418.45" y="-101.45" font-family="Times,serif" font-size="14.00">4</text>
</g>
<!-- 5&#45;&gt;1 -->
<g id="edge57" class="edge">
<title>5&#45;&gt;1</title>
<path fill="none" stroke="black" d="M177.9,-176.66C192.48,-152.8 222.08,-110.32 259.25,-88.5 363.2,-27.47 510.48,-18.75 579.5,-18.31"/>
<polygon fill="black" stroke="black" points="579.15,-21.81 589.15,-18.31 579.15,-14.81 579.15,-21.81"/>
<text text-anchor="middle" x="262.62" y="-101.45" font-family="Times,serif" font-size="14.00">6</text>
</g>
<!-- 5&#45;&gt;4 -->
<g id="edge5" class="edge">
<title>5&#45;&gt;4</title>
<path fill="none" stroke="black" d="M198.01,-177.43C216.8,-167.17 241.56,-153.83 263.75,-142.5 273.61,-137.46 284.3,-132.19 294.36,-127.3"/>
<polygon fill="black" stroke="black" points="295.72,-130.53 303.2,-123.03 292.67,-124.23 295.72,-130.53"/>
<text text-anchor="middle" x="273.88" y="-145.7" font-family="Times,serif" font-size="14.00">348</text>
</g>
<!-- 6&#45;&gt;2 -->
<g id="edge8" class="edge">
<title>6&#45;&gt;2</title>
<path fill="none" stroke="black" d="M197.3,-815.68C172.15,-779.09 121.93,-692.88 164,-639 184.3,-613 210.41,-641.82 236,-621 257.69,-603.35 287.43,-530.26 302.83,-489.42"/>
<polygon fill="black" stroke="black" points="306.04,-490.84 306.25,-480.25 299.48,-488.4 306.04,-490.84"/>
<text text-anchor="middle" x="177.5" y="-651.95" font-family="Times,serif" font-size="14.00">1899</text>
</g>
<!-- 6&#45;&gt;3 -->
<g id="edge7" class="edge">
<title>6&#45;&gt;3</title>
<path fill="none" stroke="black" d="M221.32,-816C239.92,-787.61 277.43,-728.4 303,-675 321.47,-636.43 303.73,-611.86 337,-585 378.96,-551.12 421.81,-607.86 457,-567 472.27,-549.27 472.1,-481.08 448,-442.5 434.39,-420.72 411.19,-404.68 389.42,-393.53"/>
<polygon fill="black" stroke="black" points="391.12,-390.46 380.6,-389.26 388.07,-396.77 391.12,-390.46"/>
<text text-anchor="middle" x="350.5" y="-597.95" font-family="Times,serif" font-size="14.00">1136</text>
</g>
<!-- 6&#45;&gt;13 -->
<g id="edge28" class="edge">
<title>6&#45;&gt;13</title>
<path fill="none" stroke="black" d="M280.3,-821.53C291.89,-819.66 303.78,-817.76 315,-816 367.41,-807.76 381.87,-812.16 433,-798 451.63,-792.84 455.06,-788.06 473.25,-781.5 488.87,-775.87 505.89,-770.26 521.83,-765.25"/>
<polygon fill="black" stroke="black" points="522.72,-768.64 531.22,-762.33 520.64,-761.96 522.72,-768.64"/>
<text text-anchor="middle" x="476.62" y="-784.7" font-family="Times,serif" font-size="14.00">4</text>
</g>
<!-- 15 -->
<g id="node16" class="node">
<title>15</title>
<ellipse fill="none" stroke="black" cx="148" cy="-549" rx="73.87" ry="18"/>
<text text-anchor="middle" x="148" y="-543.95" font-family="Times,serif" font-size="14.00">Change Quantity</text>
</g>
<!-- 6&#45;&gt;15 -->
<g id="edge24" class="edge">
<title>6&#45;&gt;15</title>
<path fill="none" stroke="black" d="M130.3,-823.74C114.68,-818.44 99.82,-810.33 89,-798 57.74,-762.38 53.55,-624.97 79,-585 82.88,-578.9 88.18,-573.82 94.13,-569.6"/>
<polygon fill="black" stroke="black" points="95.89,-572.63 102.61,-564.44 92.25,-566.65 95.89,-572.63"/>
<text text-anchor="middle" x="70.46" y="-696.2" font-family="Times,serif" font-size="14.00">17</text>
</g>
<!-- 8 -->
<g id="node9" class="node">
<title>8</title>
<ellipse fill="none" stroke="black" cx="953" cy="-834" rx="72.34" ry="18"/>
<text text-anchor="middle" x="953" y="-828.95" font-family="Times,serif" font-size="14.00">SRM: Complete</text>
</g>
<!-- 7&#45;&gt;8 -->
<g id="edge10" class="edge">
<title>7&#45;&gt;8</title>
<path fill="none" stroke="black" d="M785.27,-906.83C818.87,-892.44 870.31,-870.41 907.36,-854.54"/>
<polygon fill="black" stroke="black" points="908.68,-857.79 916.5,-850.63 905.92,-851.35 908.68,-857.79"/>
<text text-anchor="middle" x="873.47" y="-873.2" font-family="Times,serif" font-size="14.00">2</text>
</g>
<!-- 9 -->
<g id="node10" class="node">
<title>9</title>
<ellipse fill="none" stroke="black" cx="1173" cy="-745.5" rx="106.11" ry="18"/>
<text text-anchor="middle" x="1173" y="-740.45" font-family="Times,serif" font-size="14.00">SRM: Awaiting Approval</text>
</g>
<!-- 8&#45;&gt;9 -->
<g id="edge11" class="edge">
<title>8&#45;&gt;9</title>
<path fill="none" stroke="black" d="M990.32,-818.33C1026.37,-804.15 1081.26,-782.57 1121.47,-766.76"/>
<polygon fill="black" stroke="black" points="1122.69,-770.04 1130.72,-763.12 1120.13,-763.53 1122.69,-770.04"/>
<text text-anchor="middle" x="1086.08" y="-784.7" font-family="Times,serif" font-size="14.00">2</text>
</g>
<!-- 10 -->
<g id="node11" class="node">
<title>10</title>
<ellipse fill="none" stroke="black" cx="1374" cy="-657" rx="118.4" ry="18"/>
<text text-anchor="middle" x="1374" y="-651.95" font-family="Times,serif" font-size="14.00">SRM: Document Completed</text>
</g>
<!-- 9&#45;&gt;10 -->
<g id="edge12" class="edge">
<title>9&#45;&gt;10</title>
<path fill="none" stroke="black" d="M1210.81,-728.23C1243.17,-714.3 1289.97,-694.16 1325.16,-679.02"/>
<polygon fill="black" stroke="black" points="1326.49,-682.26 1334.29,-675.09 1323.72,-675.83 1326.49,-682.26"/>
<text text-anchor="middle" x="1294.88" y="-696.2" font-family="Times,serif" font-size="14.00">2</text>
</g>
<!-- 11 -->
<g id="node12" class="node">
<title>11</title>
<ellipse fill="none" stroke="black" cx="1374" cy="-549" rx="147.57" ry="18"/>
<text text-anchor="middle" x="1374" y="-543.95" font-family="Times,serif" font-size="14.00">SRM: In Transfer to Execution Syst.</text>
</g>
<!-- 10&#45;&gt;11 -->
<g id="edge13" class="edge">
<title>10&#45;&gt;11</title>
<path fill="none" stroke="black" d="M1374,-638.97C1374,-622.76 1374,-598.06 1374,-578.79"/>
<polygon fill="black" stroke="black" points="1377.5,-578.85 1374,-568.85 1370.5,-578.85 1377.5,-578.85"/>
<text text-anchor="middle" x="1377.38" y="-597.95" font-family="Times,serif" font-size="14.00">1</text>
</g>
<!-- 12 -->
<g id="node13" class="node">
<title>12</title>
<ellipse fill="none" stroke="black" cx="1374" cy="-460.5" rx="66.19" ry="18"/>
<text text-anchor="middle" x="1374" y="-455.45" font-family="Times,serif" font-size="14.00">SRM: Ordered</text>
</g>
<!-- 11&#45;&gt;12 -->
<g id="edge14" class="edge">
<title>11&#45;&gt;12</title>
<path fill="none" stroke="black" d="M1374,-530.91C1374,-519.26 1374,-503.55 1374,-490.02"/>
<polygon fill="black" stroke="black" points="1377.5,-490.36 1374,-480.36 1370.5,-490.36 1377.5,-490.36"/>
<text text-anchor="middle" x="1377.38" y="-499.7" font-family="Times,serif" font-size="14.00">1</text>
</g>
<!-- 13&#45;&gt;1 -->
<g id="edge50" class="edge">
<title>13&#45;&gt;1</title>
<path fill="none" stroke="black" d="M661.48,-731.74C680.44,-726.59 700.14,-719.42 717,-709.5 792.71,-664.92 821.18,-648.49 854,-567 877.96,-507.51 960.04,-628.95 736,-88.5 729.21,-72.13 729.62,-65.34 716,-54 698.71,-39.6 675.04,-30.93 655.3,-25.82"/>
<polygon fill="black" stroke="black" points="656.22,-22.44 645.68,-23.55 654.61,-29.25 656.22,-22.44"/>
<text text-anchor="middle" x="864.54" y="-366.95" font-family="Times,serif" font-size="14.00">161</text>
</g>
<!-- 13&#45;&gt;2 -->
<g id="edge15" class="edge">
<title>13&#45;&gt;2</title>
<path fill="none" stroke="black" d="M516.67,-730.62C481.54,-720.41 440.29,-703.25 412,-675 351.47,-614.55 382.52,-570.73 340,-496.5 338.35,-493.63 336.5,-490.73 334.55,-487.9"/>
<polygon fill="black" stroke="black" points="337.37,-485.83 328.62,-479.86 331.74,-489.99 337.37,-485.83"/>
<text text-anchor="middle" x="386.57" y="-597.95" font-family="Times,serif" font-size="14.00">748</text>
</g>
<!-- 13&#45;&gt;3 -->
<g id="edge42" class="edge">
<title>13&#45;&gt;3</title>
<path fill="none" stroke="black" d="M613.14,-727.69C643.81,-707.17 685.81,-671.21 664,-639 651.92,-621.16 635.55,-634.79 619,-621 533.09,-549.39 576.03,-472.98 485,-408 469.45,-396.9 450.89,-389.28 432.22,-384.05"/>
<polygon fill="black" stroke="black" points="433.27,-380.7 422.71,-381.61 431.53,-387.48 433.27,-380.7"/>
<text text-anchor="middle" x="581.04" y="-543.95" font-family="Times,serif" font-size="14.00">41</text>
</g>
<!-- 13&#45;&gt;6 -->
<g id="edge16" class="edge">
<title>13&#45;&gt;6</title>
<path fill="none" stroke="black" d="M547.53,-762.85C535.13,-768.5 521.36,-775.04 509,-781.5 496.2,-788.2 494.71,-793.45 481,-798 410.56,-821.36 388.54,-806.07 315,-816 307.07,-817.07 298.82,-818.27 290.59,-819.51"/>
<polygon fill="black" stroke="black" points="290.24,-816.02 280.89,-821.01 291.31,-822.94 290.24,-816.02"/>
<text text-anchor="middle" x="522.5" y="-784.7" font-family="Times,serif" font-size="14.00">1171</text>
</g>
<!-- 13&#45;&gt;14 -->
<g id="edge44" class="edge">
<title>13&#45;&gt;14</title>
<path fill="none" stroke="black" d="M491.85,-734.61C451.87,-725.5 408.2,-708.1 381,-675 353.21,-641.18 367.67,-619.71 341,-585 295.08,-525.22 263.61,-530.46 209,-478.5 170.8,-442.16 155.67,-436.06 130,-390 116.7,-366.14 110.45,-335.43 107.52,-313.3"/>
<polygon fill="black" stroke="black" points="111.01,-313.02 106.39,-303.49 104.06,-313.83 111.01,-313.02"/>
<text text-anchor="middle" x="259.04" y="-499.7" font-family="Times,serif" font-size="14.00">50</text>
</g>
<!-- 13&#45;&gt;15 -->
<g id="edge43" class="edge">
<title>13&#45;&gt;15</title>
<path fill="none" stroke="black" d="M500.81,-732.9C431.78,-723.31 344.81,-711.03 341,-709.5 291.23,-689.45 288.59,-667.28 243,-639 228.47,-629.99 222.36,-631.67 209,-621 192.85,-608.1 177.7,-590.5 166.53,-576.05"/>
<polygon fill="black" stroke="black" points="169.52,-574.2 160.71,-568.3 163.92,-578.4 169.52,-574.2"/>
<text text-anchor="middle" x="293.84" y="-651.95" font-family="Times,serif" font-size="14.00">94</text>
</g>
<!-- 16 -->
<g id="node17" class="node">
<title>16</title>
<ellipse fill="none" stroke="black" cx="730" cy="-549" rx="114.82" ry="18"/>
<text text-anchor="middle" x="730" y="-543.95" font-family="Times,serif" font-size="14.00">Delete Purchase Order Item</text>
</g>
<!-- 13&#45;&gt;16 -->
<g id="edge37" class="edge">
<title>13&#45;&gt;16</title>
<path fill="none" stroke="black" d="M663.02,-731.98C675.8,-726.83 687.84,-719.62 697,-709.5 729.6,-673.5 733.31,-614.02 732.22,-578.76"/>
<polygon fill="black" stroke="black" points="735.73,-578.71 731.75,-568.89 728.73,-579.04 735.73,-578.71"/>
<text text-anchor="middle" x="734.83" y="-651.95" font-family="Times,serif" font-size="14.00">76</text>
</g>
<!-- 18 -->
<g id="node19" class="node">
<title>18</title>
<ellipse fill="none" stroke="black" cx="1006" cy="-603" rx="93.83" ry="18"/>
<text text-anchor="middle" x="1006" y="-597.95" font-family="Times,serif" font-size="14.00">Cancel Goods Receipt</text>
</g>
<!-- 13&#45;&gt;18 -->
<g id="edge39" class="edge">
<title>13&#45;&gt;18</title>
<path fill="none" stroke="black" d="M697.61,-741.62C770.03,-737.86 856.16,-729.24 887,-709.5 917.91,-689.72 902.59,-663.4 930,-639 936.34,-633.36 943.74,-628.47 951.39,-624.28"/>
<polygon fill="black" stroke="black" points="952.81,-627.49 960.17,-619.86 949.66,-621.23 952.81,-627.49"/>
<text text-anchor="middle" x="906.56" y="-696.2" font-family="Times,serif" font-size="14.00">1</text>
</g>
<!-- 20 -->
<g id="node21" class="node">
<title>20</title>
<ellipse fill="none" stroke="black" cx="538" cy="-657" rx="117.37" ry="18"/>
<text text-anchor="middle" x="538" y="-651.95" font-family="Times,serif" font-size="14.00">Receive Order Confirmation</text>
</g>
<!-- 13&#45;&gt;20 -->
<g id="edge46" class="edge">
<title>13&#45;&gt;20</title>
<path fill="none" stroke="black" d="M575.71,-727.41C569.19,-715.4 560.33,-699.09 552.83,-685.3"/>
<polygon fill="black" stroke="black" points="556,-683.8 548.15,-676.68 549.85,-687.14 556,-683.8"/>
<text text-anchor="middle" x="575.83" y="-696.2" font-family="Times,serif" font-size="14.00">688</text>
</g>
<!-- 21 -->
<g id="node22" class="node">
<title>21</title>
<ellipse fill="none" stroke="black" cx="1088" cy="-657" rx="149.11" ry="18"/>
<text text-anchor="middle" x="1088" y="-651.95" font-family="Times,serif" font-size="14.00">Change Approval for Purchase Order</text>
</g>
<!-- 13&#45;&gt;21 -->
<g id="edge52" class="edge">
<title>13&#45;&gt;21</title>
<path fill="none" stroke="black" d="M692.07,-738.79C758.72,-733.91 845.94,-725.09 922,-709.5 959.42,-701.83 1000.41,-689.16 1032.3,-678.3"/>
<polygon fill="black" stroke="black" points="1033.44,-681.61 1041.75,-675.04 1031.16,-674.99 1033.44,-681.61"/>
<text text-anchor="middle" x="985.53" y="-696.2" font-family="Times,serif" font-size="14.00">1</text>
</g>
<!-- 14&#45;&gt;1 -->
<g id="edge56" class="edge">
<title>14&#45;&gt;1</title>
<path fill="none" stroke="black" d="M87.61,-265.91C67.56,-244.69 39.48,-207.08 57,-177 116.73,-74.45 179.17,-83.95 294,-54 394.6,-27.76 517.71,-21.16 579.18,-19.52"/>
<polygon fill="black" stroke="black" points="579.2,-23.02 589.12,-19.29 579.04,-16.02 579.2,-23.02"/>
<text text-anchor="middle" x="82.64" y="-145.7" font-family="Times,serif" font-size="14.00">1</text>
</g>
<!-- 14&#45;&gt;2 -->
<g id="edge34" class="edge">
<title>14&#45;&gt;2</title>
<path fill="none" stroke="black" d="M110.64,-301.56C121.3,-331.14 147.26,-391.93 190,-424.5 201.75,-433.45 215.7,-440.12 229.92,-445.08"/>
<polygon fill="black" stroke="black" points="228.77,-448.39 239.36,-448.09 230.9,-441.72 228.77,-448.39"/>
<text text-anchor="middle" x="162.67" y="-366.95" font-family="Times,serif" font-size="14.00">19</text>
</g>
<!-- 14&#45;&gt;5 -->
<g id="edge21" class="edge">
<title>14&#45;&gt;5</title>
<path fill="none" stroke="black" d="M117.45,-265.41C126.36,-253.17 138.54,-236.45 148.71,-222.49"/>
<polygon fill="black" stroke="black" points="151.41,-224.72 154.47,-214.57 145.76,-220.6 151.41,-224.72"/>
<text text-anchor="middle" x="145.52" y="-234.2" font-family="Times,serif" font-size="14.00">7</text>
</g>
<!-- 14&#45;&gt;6 -->
<g id="edge41" class="edge">
<title>14&#45;&gt;6</title>
<path fill="none" stroke="black" d="M98.24,-301.77C83.12,-341.47 46.89,-442.62 34.5,-531 20.14,-633.46 16.99,-664.19 46,-763.5 50.79,-779.91 49.64,-787.34 63,-798 77.59,-809.64 95.42,-817.51 113.57,-822.81"/>
<polygon fill="black" stroke="black" points="112.55,-826.16 123.11,-825.33 114.33,-819.39 112.55,-826.16"/>
<text text-anchor="middle" x="41.25" y="-543.95" font-family="Times,serif" font-size="14.00">18</text>
</g>
<!-- 15&#45;&gt;1 -->
<g id="edge55" class="edge">
<title>15&#45;&gt;1</title>
<path fill="none" stroke="black" d="M126.16,-531.33C84.99,-497.82 0,-417.84 0,-328.75 0,-328.75 0,-328.75 0,-105.5 0,-46.74 443.85,-25.45 579.25,-20.32"/>
<polygon fill="black" stroke="black" points="579.27,-23.82 589.14,-19.96 579.01,-16.83 579.27,-23.82"/>
<text text-anchor="middle" x="6.75" y="-278.45" font-family="Times,serif" font-size="14.00">14</text>
</g>
<!-- 15&#45;&gt;2 -->
<g id="edge25" class="edge">
<title>15&#45;&gt;2</title>
<path fill="none" stroke="black" d="M148.13,-530.93C149.14,-519.66 152.35,-505.39 161.5,-496.5 171.46,-486.83 197.87,-479.28 225.9,-473.71"/>
<polygon fill="black" stroke="black" points="226.45,-477.17 235.63,-471.87 225.16,-470.29 226.45,-477.17"/>
<text text-anchor="middle" x="168.25" y="-499.7" font-family="Times,serif" font-size="14.00">81</text>
</g>
<!-- 15&#45;&gt;6 -->
<g id="edge29" class="edge">
<title>15&#45;&gt;6</title>
<path fill="none" stroke="black" d="M95.73,-561.94C83.34,-567.12 71.33,-574.5 63,-585 43.77,-609.25 38.9,-665.34 45.5,-709.5 46.67,-717.34 67.07,-790.88 75,-798 86.85,-808.65 101.53,-816.14 116.8,-821.39"/>
<polygon fill="black" stroke="black" points="115.41,-824.62 126,-824.22 117.48,-817.93 115.41,-824.62"/>
<text text-anchor="middle" x="52.25" y="-696.2" font-family="Times,serif" font-size="14.00">55</text>
</g>
<!-- 16&#45;&gt;1 -->
<g id="edge26" class="edge">
<title>16&#45;&gt;1</title>
<path fill="none" stroke="black" d="M727.47,-530.81C725.12,-513.39 722,-485.63 722,-461.5 722,-461.5 722,-461.5 722,-105.5 722,-79.45 713.02,-71.8 694,-54 682.53,-43.27 667.2,-35.36 653.31,-29.8"/>
<polygon fill="black" stroke="black" points="654.59,-26.55 644,-26.37 652.17,-33.11 654.59,-26.55"/>
<text text-anchor="middle" x="728.75" y="-278.45" font-family="Times,serif" font-size="14.00">98</text>
</g>
<!-- 17 -->
<g id="node18" class="node">
<title>17</title>
<ellipse fill="none" stroke="black" cx="461" cy="-195" rx="97.41" ry="18"/>
<text text-anchor="middle" x="461" y="-189.95" font-family="Times,serif" font-size="14.00">Cancel Invoice Receipt</text>
</g>
<!-- 17&#45;&gt;1 -->
<g id="edge31" class="edge">
<title>17&#45;&gt;1</title>
<path fill="none" stroke="black" d="M474.29,-177.05C495.65,-150.13 539.33,-96.32 580,-54 584.35,-49.47 589.16,-44.8 593.86,-40.41"/>
<polygon fill="black" stroke="black" points="595.94,-43.25 600.95,-33.91 591.21,-38.09 595.94,-43.25"/>
<text text-anchor="middle" x="554.52" y="-101.45" font-family="Times,serif" font-size="14.00">14</text>
</g>
<!-- 17&#45;&gt;4 -->
<g id="edge35" class="edge">
<title>17&#45;&gt;4</title>
<path fill="none" stroke="black" d="M436.6,-177.12C417.13,-163.64 389.69,-144.65 368.38,-129.91"/>
<polygon fill="black" stroke="black" points="370.53,-127.14 360.31,-124.33 366.55,-132.89 370.53,-127.14"/>
<text text-anchor="middle" x="413.07" y="-145.7" font-family="Times,serif" font-size="14.00">2</text>
</g>
<!-- 18&#45;&gt;1 -->
<g id="edge36" class="edge">
<title>18&#45;&gt;1</title>
<path fill="none" stroke="black" d="M1015.43,-584.83C1024.87,-566.01 1038,-534.63 1038,-505.75 1038,-505.75 1038,-505.75 1038,-105.5 1038,-28.07 760.7,-19.36 656.74,-18.82"/>
<polygon fill="black" stroke="black" points="656.76,-15.32 646.75,-18.79 656.74,-22.32 656.76,-15.32"/>
<text text-anchor="middle" x="1041.38" y="-322.7" font-family="Times,serif" font-size="14.00">1</text>
</g>
<!-- 19 -->
<g id="node20" class="node">
<title>19</title>
<ellipse fill="none" stroke="black" cx="900" cy="-106.5" rx="109.7" ry="18"/>
<text text-anchor="middle" x="900" y="-101.45" font-family="Times,serif" font-size="14.00">Change Delivery Indicator</text>
</g>
<!-- 19&#45;&gt;1 -->
<g id="edge38" class="edge">
<title>19&#45;&gt;1</title>
<path fill="none" stroke="black" d="M865.07,-89.05C840.56,-78 806.79,-63.72 776,-54 735.44,-41.19 687.59,-31.29 655.26,-25.34"/>
<polygon fill="black" stroke="black" points="656.04,-21.92 645.58,-23.6 654.8,-28.81 656.04,-21.92"/>
<text text-anchor="middle" x="824.47" y="-57.2" font-family="Times,serif" font-size="14.00">1</text>
</g>
<!-- 20&#45;&gt;1 -->
<g id="edge58" class="edge">
<title>20&#45;&gt;1</title>
<path fill="none" stroke="black" d="M539.38,-638.81C541.58,-614.52 546.62,-568.88 556,-531 589.8,-394.43 660.18,-371.65 657,-231 655.22,-152.07 672.79,-126.7 642,-54 640.53,-50.54 638.7,-47.07 636.7,-43.73"/>
<polygon fill="black" stroke="black" points="639.7,-41.91 631.26,-35.51 633.86,-45.78 639.7,-41.91"/>
<text text-anchor="middle" x="649.99" y="-322.7" font-family="Times,serif" font-size="14.00">9</text>
</g>
<!-- 20&#45;&gt;2 -->
<g id="edge49" class="edge">
<title>20&#45;&gt;2</title>
<path fill="none" stroke="black" d="M525.85,-638.75C502.75,-606.98 449.53,-538.63 391,-496.5 383.29,-490.95 374.57,-485.99 365.82,-481.67"/>
<polygon fill="black" stroke="black" points="367.5,-478.6 356.96,-477.54 364.54,-484.94 367.5,-478.6"/>
<text text-anchor="middle" x="476.18" y="-543.95" font-family="Times,serif" font-size="14.00">347</text>
</g>
<!-- 20&#45;&gt;6 -->
<g id="edge48" class="edge">
<title>20&#45;&gt;6</title>
<path fill="none" stroke="black" d="M514.87,-675C469.36,-708.22 369.31,-780.05 331,-798 315.32,-805.34 297.77,-811.49 281.01,-816.48"/>
<polygon fill="black" stroke="black" points="280.23,-813.06 271.58,-819.18 282.16,-819.79 280.23,-813.06"/>
<text text-anchor="middle" x="447.86" y="-740.45" font-family="Times,serif" font-size="14.00">95</text>
</g>
<!-- 20&#45;&gt;15 -->
<g id="edge51" class="edge">
<title>20&#45;&gt;15</title>
<path fill="none" stroke="black" d="M430.64,-649.4C384.74,-644.49 331.07,-635.93 284.25,-621 264.56,-614.72 218.78,-590.03 185.71,-571.51"/>
<polygon fill="black" stroke="black" points="187.65,-568.59 177.22,-566.73 184.22,-574.69 187.65,-568.59"/>
<text text-anchor="middle" x="287.62" y="-597.95" font-family="Times,serif" font-size="14.00">1</text>
</g>
<!-- 20&#45;&gt;16 -->
<g id="edge47" class="edge">
<title>20&#45;&gt;16</title>
<path fill="none" stroke="black" d="M568.42,-639.2C601.28,-621.06 653.78,-592.08 689.97,-572.1"/>
<polygon fill="black" stroke="black" points="691.33,-575.35 698.39,-567.45 687.95,-569.22 691.33,-575.35"/>
<text text-anchor="middle" x="669.17" y="-597.95" font-family="Times,serif" font-size="14.00">24</text>
</g>
<!-- 22&#45;&gt;13 -->
<g id="edge54" class="edge">
<title>22&#45;&gt;13</title>
<path fill="none" stroke="black" d="M519.77,-904.48C537.92,-892.2 560.27,-873.96 573,-852 586.5,-828.72 588.5,-797.69 587.73,-775.31"/>
<polygon fill="black" stroke="black" points="591.23,-775.17 587.16,-765.39 584.24,-775.57 591.23,-775.17"/>
<text text-anchor="middle" x="598.51" y="-828.95" font-family="Times,serif" font-size="14.00">2230</text>
</g>
<!-- 23 -->
<g id="node24" class="node">
<title>23</title>
<ellipse fill="none" stroke="black" cx="444" cy="-834" rx="120.45" ry="18"/>
<text text-anchor="middle" x="444" y="-828.95" font-family="Times,serif" font-size="14.00">Release Purchase Requisition</text>
</g>
<!-- 22&#45;&gt;23 -->
<g id="edge59" class="edge">
<title>22&#45;&gt;23</title>
<path fill="none" stroke="black" d="M481.71,-904.41C475.19,-892.4 466.33,-876.09 458.83,-862.3"/>
<polygon fill="black" stroke="black" points="462,-860.8 454.15,-853.68 455.85,-864.14 462,-860.8"/>
<text text-anchor="middle" x="478.46" y="-873.2" font-family="Times,serif" font-size="14.00">29</text>
</g>
<!-- 23&#45;&gt;13 -->
<g id="edge60" class="edge">
<title>23&#45;&gt;13</title>
<path fill="none" stroke="black" d="M500.64,-817.69C514.19,-812.61 528.15,-806.13 540,-798 549.88,-791.22 558.97,-781.78 566.35,-772.83"/>
<polygon fill="black" stroke="black" points="569.06,-775.05 572.45,-765.01 563.54,-770.74 569.06,-775.05"/>
<text text-anchor="middle" x="568.38" y="-784.7" font-family="Times,serif" font-size="14.00">178</text>
</g>
</g>
</svg>
