<?xml version="1.0" encoding="UTF-8" standalone="no"?>
<!DOCTYPE svg PUBLIC "-//W3C//DTD SVG 1.1//EN"
 "http://www.w3.org/Graphics/SVG/1.1/DTD/svg11.dtd">
<!-- Generated by graphviz version 12.2.1 (20241206.2353)
 -->
<!-- Pages: 1 -->
<svg width="925pt" height="1126pt"
 viewBox="0.00 0.00 925.25 1125.50" xmlns="http://www.w3.org/2000/svg" xmlns:xlink="http://www.w3.org/1999/xlink">
<g id="graph0" class="graph" transform="scale(1 1) rotate(0) translate(4 1121.5)">
<polygon fill="white" stroke="none" points="-4,4 -4,-1121.5 921.25,-1121.5 921.25,4 -4,4"/>
<!-- 0 -->
<g id="node1" class="node">
<title>0</title>
<ellipse fill="none" stroke="black" cx="825" cy="-1099.5" rx="27" ry="18"/>
<text text-anchor="middle" x="825" y="-1094.83" font-family="Times,serif" font-size="14.00">▶</text>
</g>
<!-- 0&#45;&gt;0 -->
<g id="edge6" class="edge">
<title>0&#45;&gt;0</title>
<path fill="none" stroke="black" d="M849.53,-1107.67C860.51,-1108.45 870,-1105.72 870,-1099.5 870,-1095.61 866.29,-1093.09 860.83,-1091.93"/>
<polygon fill="black" stroke="black" points="861.22,-1088.45 851.04,-1091.41 860.84,-1095.44 861.22,-1088.45"/>
<text text-anchor="middle" x="880.12" y="-1094.45" font-family="Times,serif" font-size="14.00">680</text>
</g>
<!-- 6 -->
<g id="node7" class="node">
<title>6</title>
<ellipse fill="none" stroke="black" cx="825" cy="-1011" rx="32.41" ry="18"/>
<text text-anchor="middle" x="825" y="-1005.95" font-family="Times,serif" font-size="14.00">NEW</text>
</g>
<!-- 0&#45;&gt;6 -->
<g id="edge7" class="edge">
<title>0&#45;&gt;6</title>
<path fill="none" stroke="black" d="M825,-1081.41C825,-1069.76 825,-1054.05 825,-1040.52"/>
<polygon fill="black" stroke="black" points="828.5,-1040.86 825,-1030.86 821.5,-1040.86 828.5,-1040.86"/>
<text text-anchor="middle" x="835.12" y="-1050.2" font-family="Times,serif" font-size="14.00">680</text>
</g>
<!-- 1 -->
<g id="node2" class="node">
<title>1</title>
<ellipse fill="none" stroke="black" cx="306" cy="-18" rx="27" ry="18"/>
<text text-anchor="middle" x="306" y="-12.95" font-family="Times,serif" font-size="14.00">■</text>
</g>
<!-- 1&#45;&gt;1 -->
<g id="edge5" class="edge">
<title>1&#45;&gt;1</title>
<path fill="none" stroke="black" d="M330.53,-26.17C341.51,-26.95 351,-24.22 351,-18 351,-14.11 347.29,-11.59 341.83,-10.43"/>
<polygon fill="black" stroke="black" points="342.22,-6.95 332.04,-9.91 341.84,-13.94 342.22,-6.95"/>
<text text-anchor="middle" x="361.12" y="-12.95" font-family="Times,serif" font-size="14.00">408</text>
</g>
<!-- 2 -->
<g id="node3" class="node">
<title>2</title>
<ellipse fill="none" stroke="black" cx="649" cy="-834" rx="27" ry="18"/>
<text text-anchor="middle" x="649" y="-828.95" font-family="Times,serif" font-size="14.00">FIN</text>
</g>
<!-- 2&#45;&gt;1 -->
<g id="edge13" class="edge">
<title>2&#45;&gt;1</title>
<path fill="none" stroke="black" d="M621.94,-832.29C499.11,-828.72 0,-810.3 0,-746.5 0,-746.5 0,-746.5 0,-105.5 0,-50.51 185.28,-28.73 267.5,-21.76"/>
<polygon fill="black" stroke="black" points="267.65,-25.26 277.34,-20.97 267.09,-18.29 267.65,-25.26"/>
<text text-anchor="middle" x="6.75" y="-411.2" font-family="Times,serif" font-size="14.00">51</text>
</g>
<!-- 3 -->
<g id="node4" class="node">
<title>3</title>
<ellipse fill="none" stroke="black" cx="534" cy="-745.5" rx="51.35" ry="18"/>
<text text-anchor="middle" x="534" y="-740.45" font-family="Times,serif" font-size="14.00">RELEASE</text>
</g>
<!-- 2&#45;&gt;3 -->
<g id="edge1" class="edge">
<title>2&#45;&gt;3</title>
<path fill="none" stroke="black" d="M631.53,-819.86C613.58,-806.36 585.29,-785.08 563.79,-768.91"/>
<polygon fill="black" stroke="black" points="566.06,-766.23 555.96,-763.02 561.85,-771.83 566.06,-766.23"/>
<text text-anchor="middle" x="611.93" y="-784.7" font-family="Times,serif" font-size="14.00">512</text>
</g>
<!-- 11 -->
<g id="node12" class="node">
<title>11</title>
<ellipse fill="none" stroke="black" cx="680" cy="-106.5" rx="45.72" ry="18"/>
<text text-anchor="middle" x="680" y="-101.45" font-family="Times,serif" font-size="14.00">DELETE</text>
</g>
<!-- 2&#45;&gt;11 -->
<g id="edge29" class="edge">
<title>2&#45;&gt;11</title>
<path fill="none" stroke="black" d="M668.56,-821.33C690.19,-806.77 722,-779.71 722,-746.5 722,-746.5 722,-746.5 722,-194 722,-172.02 710.89,-149.77 700.1,-133.34"/>
<polygon fill="black" stroke="black" points="702.98,-131.35 694.39,-125.15 697.24,-135.36 702.98,-131.35"/>
<text text-anchor="middle" x="725.38" y="-455.45" font-family="Times,serif" font-size="14.00">1</text>
</g>
<!-- 3&#45;&gt;1 -->
<g id="edge39" class="edge">
<title>3&#45;&gt;1</title>
<path fill="none" stroke="black" d="M482.67,-743.89C385.44,-742.14 178.24,-735.4 112,-709.5 77.35,-695.95 46,-695.21 46,-658 46,-658 46,-658 46,-105.5 46,-59.2 196.34,-33.3 268.37,-23.54"/>
<polygon fill="black" stroke="black" points="268.68,-27.03 278.14,-22.26 267.77,-20.09 268.68,-27.03"/>
<text text-anchor="middle" x="49.38" y="-366.95" font-family="Times,serif" font-size="14.00">7</text>
</g>
<!-- 4 -->
<g id="node5" class="node">
<title>4</title>
<ellipse fill="none" stroke="black" cx="466" cy="-568.5" rx="51.86" ry="18"/>
<text text-anchor="middle" x="466" y="-563.45" font-family="Times,serif" font-size="14.00">CODE OK</text>
</g>
<!-- 3&#45;&gt;4 -->
<g id="edge2" class="edge">
<title>3&#45;&gt;4</title>
<path fill="none" stroke="black" d="M537.84,-727.3C541.81,-705.77 545.9,-668.17 534,-639 526.45,-620.49 511.33,-604.23 497.27,-592.11"/>
<polygon fill="black" stroke="black" points="499.85,-589.69 489.89,-586.06 495.41,-595.11 499.85,-589.69"/>
<text text-anchor="middle" x="551.65" y="-651.95" font-family="Times,serif" font-size="14.00">265</text>
</g>
<!-- 9 -->
<g id="node10" class="node">
<title>9</title>
<ellipse fill="none" stroke="black" cx="466" cy="-657" rx="58.52" ry="18"/>
<text text-anchor="middle" x="466" y="-651.95" font-family="Times,serif" font-size="14.00">CODE NOK</text>
</g>
<!-- 3&#45;&gt;9 -->
<g id="edge16" class="edge">
<title>3&#45;&gt;9</title>
<path fill="none" stroke="black" d="M520.89,-727.82C511.07,-715.34 497.47,-698.03 486.26,-683.77"/>
<polygon fill="black" stroke="black" points="489.17,-681.81 480.24,-676.11 483.67,-686.14 489.17,-681.81"/>
<text text-anchor="middle" x="512.84" y="-696.2" font-family="Times,serif" font-size="14.00">11</text>
</g>
<!-- 10 -->
<g id="node11" class="node">
<title>10</title>
<ellipse fill="none" stroke="black" cx="215" cy="-195" rx="63.12" ry="18"/>
<text text-anchor="middle" x="215" y="-189.95" font-family="Times,serif" font-size="14.00">SET STATUS</text>
</g>
<!-- 3&#45;&gt;10 -->
<g id="edge36" class="edge">
<title>3&#45;&gt;10</title>
<path fill="none" stroke="black" d="M482.43,-745.12C365.84,-745.13 92,-736.78 92,-658 92,-658 92,-658 92,-326.75 92,-277.33 139.2,-238.96 175.13,-216.92"/>
<polygon fill="black" stroke="black" points="176.78,-220.01 183.61,-211.91 173.22,-213.98 176.78,-220.01"/>
<text text-anchor="middle" x="95.38" y="-455.45" font-family="Times,serif" font-size="14.00">1</text>
</g>
<!-- 3&#45;&gt;11 -->
<g id="edge33" class="edge">
<title>3&#45;&gt;11</title>
<path fill="none" stroke="black" d="M569.21,-731.99C599.38,-718.74 638,-694.64 638,-658 638,-658 638,-658 638,-326.75 638,-275.17 651.32,-263.66 661,-213 665.99,-186.9 671.32,-157.1 675.06,-135.84"/>
<polygon fill="black" stroke="black" points="678.48,-136.64 676.76,-126.19 671.58,-135.43 678.48,-136.64"/>
<text text-anchor="middle" x="641.38" y="-411.2" font-family="Times,serif" font-size="14.00">1</text>
</g>
<!-- 4&#45;&gt;1 -->
<g id="edge12" class="edge">
<title>4&#45;&gt;1</title>
<path fill="none" stroke="black" d="M418.36,-561.14C363.54,-550.83 281,-524.8 281,-461.5 281,-461.5 281,-461.5 281,-282.5 281,-276.67 296.7,-114.6 303.22,-47.58"/>
<polygon fill="black" stroke="black" points="306.69,-48.03 304.17,-37.74 299.72,-47.35 306.69,-48.03"/>
<text text-anchor="middle" x="287.75" y="-278.45" font-family="Times,serif" font-size="14.00">91</text>
</g>
<!-- 5 -->
<g id="node6" class="node">
<title>5</title>
<ellipse fill="none" stroke="black" cx="425" cy="-460.5" rx="43.67" ry="18"/>
<text text-anchor="middle" x="425" y="-455.45" font-family="Times,serif" font-size="14.00">BILLED</text>
</g>
<!-- 4&#45;&gt;5 -->
<g id="edge3" class="edge">
<title>4&#45;&gt;5</title>
<path fill="none" stroke="black" d="M459.41,-550.47C453.02,-533.93 443.2,-508.55 435.69,-489.13"/>
<polygon fill="black" stroke="black" points="438.99,-487.96 432.12,-479.9 432.46,-490.49 438.99,-487.96"/>
<text text-anchor="middle" x="458.32" y="-509.45" font-family="Times,serif" font-size="14.00">61</text>
</g>
<!-- 8 -->
<g id="node9" class="node">
<title>8</title>
<ellipse fill="none" stroke="black" cx="605" cy="-195" rx="46.75" ry="18"/>
<text text-anchor="middle" x="605" y="-189.95" font-family="Times,serif" font-size="14.00">REOPEN</text>
</g>
<!-- 4&#45;&gt;8 -->
<g id="edge15" class="edge">
<title>4&#45;&gt;8</title>
<path fill="none" stroke="black" d="M470.85,-550.22C485.28,-499.77 530.42,-348.8 586,-231 587.24,-228.37 588.58,-225.67 589.96,-222.98"/>
<polygon fill="black" stroke="black" points="593.01,-224.7 594.62,-214.23 586.83,-221.41 593.01,-224.7"/>
<text text-anchor="middle" x="537.51" y="-366.95" font-family="Times,serif" font-size="14.00">2</text>
</g>
<!-- 5&#45;&gt;1 -->
<g id="edge4" class="edge">
<title>5&#45;&gt;1</title>
<path fill="none" stroke="black" d="M398.18,-446.17C377.76,-434.44 351,-415.27 338,-390 320.9,-356.75 328.05,-90.51 320,-54 319.42,-51.36 318.66,-48.66 317.79,-45.98"/>
<polygon fill="black" stroke="black" points="321.14,-44.95 314.37,-36.8 314.58,-47.39 321.14,-44.95"/>
<text text-anchor="middle" x="336.2" y="-234.2" font-family="Times,serif" font-size="14.00">135</text>
</g>
<!-- 12 -->
<g id="node13" class="node">
<title>12</title>
<ellipse fill="none" stroke="black" cx="395" cy="-372" rx="47.77" ry="18"/>
<text text-anchor="middle" x="395" y="-366.95" font-family="Times,serif" font-size="14.00">STORNO</text>
</g>
<!-- 5&#45;&gt;12 -->
<g id="edge24" class="edge">
<title>5&#45;&gt;12</title>
<path fill="none" stroke="black" d="M419.07,-442.41C414.99,-430.64 409.47,-414.73 404.75,-401.11"/>
<polygon fill="black" stroke="black" points="408.1,-400.08 401.51,-391.78 401.48,-402.37 408.1,-400.08"/>
<text text-anchor="middle" x="416.06" y="-411.2" font-family="Times,serif" font-size="14.00">5</text>
</g>
<!-- 6&#45;&gt;1 -->
<g id="edge10" class="edge">
<title>6&#45;&gt;1</title>
<path fill="none" stroke="black" d="M846.21,-996.93C867.45,-982.03 897,-955.54 897,-923.5 897,-923.5 897,-923.5 897,-105.5 897,-49.5 476.23,-26.42 344.77,-20.57"/>
<polygon fill="black" stroke="black" points="344.97,-17.08 334.83,-20.14 344.67,-24.07 344.97,-17.08"/>
<text text-anchor="middle" x="907.12" y="-509.45" font-family="Times,serif" font-size="14.00">288</text>
</g>
<!-- 6&#45;&gt;2 -->
<g id="edge11" class="edge">
<title>6&#45;&gt;2</title>
<path fill="none" stroke="black" d="M792.41,-1009.79C745.41,-1007.51 659.91,-995.52 620.5,-940.5 603.35,-916.56 617.48,-882.86 631.26,-860.04"/>
<polygon fill="black" stroke="black" points="634.17,-861.98 636.63,-851.67 628.28,-858.2 634.17,-861.98"/>
<text text-anchor="middle" x="627.25" y="-917.45" font-family="Times,serif" font-size="14.00">39</text>
</g>
<!-- 7 -->
<g id="node8" class="node">
<title>7</title>
<ellipse fill="none" stroke="black" cx="725" cy="-922.5" rx="81.55" ry="18"/>
<text text-anchor="middle" x="725" y="-917.45" font-family="Times,serif" font-size="14.00">CHANGE DIAGN</text>
</g>
<!-- 6&#45;&gt;7 -->
<g id="edge8" class="edge">
<title>6&#45;&gt;7</title>
<path fill="none" stroke="black" d="M808.04,-995.33C792.9,-982.24 770.46,-962.83 752.73,-947.48"/>
<polygon fill="black" stroke="black" points="755.45,-945.21 745.59,-941.31 750.87,-950.5 755.45,-945.21"/>
<text text-anchor="middle" x="794.08" y="-961.7" font-family="Times,serif" font-size="14.00">190</text>
</g>
<!-- 6&#45;&gt;11 -->
<g id="edge20" class="edge">
<title>6&#45;&gt;11</title>
<path fill="none" stroke="black" d="M835.76,-993.52C845.72,-976.65 859,-949.32 859,-923.5 859,-923.5 859,-923.5 859,-611.75 859,-414.87 859.62,-354.29 774,-177 766.29,-161.04 767.05,-154.5 754,-142.5 745.53,-134.71 735.01,-128.34 724.59,-123.28"/>
<polygon fill="black" stroke="black" points="726.21,-120.17 715.65,-119.27 723.34,-126.56 726.21,-120.17"/>
<text text-anchor="middle" x="862.37" y="-563.45" font-family="Times,serif" font-size="14.00">7</text>
</g>
<!-- 7&#45;&gt;1 -->
<g id="edge31" class="edge">
<title>7&#45;&gt;1</title>
<path fill="none" stroke="black" d="M758.02,-905.67C782.99,-891.15 813,-867.03 813,-835 813,-835 813,-835 813,-567.5 813,-459.65 819.72,-155.24 735,-88.5 674.6,-40.92 438.45,-25.05 344.68,-20.56"/>
<polygon fill="black" stroke="black" points="344.86,-17.06 334.71,-20.1 344.54,-24.05 344.86,-17.06"/>
<text text-anchor="middle" x="819.72" y="-455.45" font-family="Times,serif" font-size="14.00">24</text>
</g>
<!-- 7&#45;&gt;2 -->
<g id="edge9" class="edge">
<title>7&#45;&gt;2</title>
<path fill="none" stroke="black" d="M709.98,-904.41C698.45,-891.28 682.39,-873 669.64,-858.5"/>
<polygon fill="black" stroke="black" points="672.44,-856.37 663.21,-851.17 667.18,-860.99 672.44,-856.37"/>
<text text-anchor="middle" x="700.56" y="-873.2" font-family="Times,serif" font-size="14.00">10</text>
</g>
<!-- 7&#45;&gt;7 -->
<g id="edge22" class="edge">
<title>7&#45;&gt;7</title>
<path fill="none" stroke="black" d="M798.8,-930.48C813.8,-929.61 824.55,-926.95 824.55,-922.5 824.55,-919.27 818.88,-916.98 810.02,-915.63"/>
<polygon fill="black" stroke="black" points="810.61,-912.18 800.31,-914.67 809.91,-919.14 810.61,-912.18"/>
<text text-anchor="middle" x="827.92" y="-917.45" font-family="Times,serif" font-size="14.00">8</text>
</g>
<!-- 7&#45;&gt;11 -->
<g id="edge23" class="edge">
<title>7&#45;&gt;11</title>
<path fill="none" stroke="black" d="M736.46,-904.43C746.67,-887.55 760,-860.6 760,-835 760,-835 760,-835 760,-194 760,-165.85 736.88,-142.96 715.49,-127.82"/>
<polygon fill="black" stroke="black" points="717.71,-125.1 707.45,-122.45 713.83,-130.92 717.71,-125.1"/>
<text text-anchor="middle" x="763.38" y="-509.45" font-family="Times,serif" font-size="14.00">4</text>
</g>
<!-- 8&#45;&gt;2 -->
<g id="edge14" class="edge">
<title>8&#45;&gt;2</title>
<path fill="none" stroke="black" d="M620.76,-212.21C641.67,-235.52 676,-280.77 676,-326.75 676,-746.5 676,-746.5 676,-746.5 676,-767.28 668.81,-789.64 661.86,-806.42"/>
<polygon fill="black" stroke="black" points="658.82,-804.62 658,-815.18 665.23,-807.44 658.82,-804.62"/>
<text text-anchor="middle" x="682.75" y="-509.45" font-family="Times,serif" font-size="14.00">25</text>
</g>
<!-- 8&#45;&gt;11 -->
<g id="edge27" class="edge">
<title>8&#45;&gt;11</title>
<path fill="none" stroke="black" d="M619.11,-177.73C630.14,-165 645.67,-147.09 658.29,-132.54"/>
<polygon fill="black" stroke="black" points="660.8,-134.98 664.71,-125.13 655.51,-130.4 660.8,-134.98"/>
<text text-anchor="middle" x="655.97" y="-145.7" font-family="Times,serif" font-size="14.00">13</text>
</g>
<!-- 9&#45;&gt;1 -->
<g id="edge19" class="edge">
<title>9&#45;&gt;1</title>
<path fill="none" stroke="black" d="M408.62,-653C312.66,-646.39 130,-626.35 130,-569.5 130,-569.5 130,-569.5 130,-326.75 130,-219.23 101.56,-169.73 172,-88.5 198.03,-58.48 240.24,-39.64 270.32,-29.27"/>
<polygon fill="black" stroke="black" points="271.35,-32.61 279.76,-26.17 269.17,-25.96 271.35,-32.61"/>
<text text-anchor="middle" x="133.38" y="-322.7" font-family="Times,serif" font-size="14.00">3</text>
</g>
<!-- 9&#45;&gt;4 -->
<g id="edge37" class="edge">
<title>9&#45;&gt;4</title>
<path fill="none" stroke="black" d="M466,-638.91C466,-627.26 466,-611.55 466,-598.02"/>
<polygon fill="black" stroke="black" points="469.5,-598.36 466,-588.36 462.5,-598.36 469.5,-598.36"/>
<text text-anchor="middle" x="469.38" y="-607.7" font-family="Times,serif" font-size="14.00">5</text>
</g>
<!-- 9&#45;&gt;8 -->
<g id="edge30" class="edge">
<title>9&#45;&gt;8</title>
<path fill="none" stroke="black" d="M507.59,-643.92C529.92,-636.9 554.74,-628.07 564,-621 586.2,-604.06 600,-597.43 600,-569.5 600,-569.5 600,-569.5 600,-282.5 600,-263.13 601.26,-241.37 602.52,-224.51"/>
<polygon fill="black" stroke="black" points="606,-224.97 603.3,-214.72 599.02,-224.42 606,-224.97"/>
<text text-anchor="middle" x="603.38" y="-411.2" font-family="Times,serif" font-size="14.00">2</text>
</g>
<!-- 9&#45;&gt;10 -->
<g id="edge17" class="edge">
<title>9&#45;&gt;10</title>
<path fill="none" stroke="black" d="M427.03,-643.22C380.82,-625.91 305.24,-590.32 267,-532.5 202.19,-434.51 206.67,-285.85 211.91,-224.26"/>
<polygon fill="black" stroke="black" points="215.37,-224.93 212.81,-214.65 208.4,-224.28 215.37,-224.93"/>
<text text-anchor="middle" x="226.29" y="-411.2" font-family="Times,serif" font-size="14.00">1</text>
</g>
<!-- 9&#45;&gt;11 -->
<g id="edge32" class="edge">
<title>9&#45;&gt;11</title>
<path fill="none" stroke="black" d="M485.93,-639.69C500.06,-626.85 518.04,-607.64 527,-586.5 561.19,-505.82 538.21,-477.49 543,-390 543.65,-378.18 542.76,-187.06 549,-177 567,-148 601.49,-130.4 630.56,-120.17"/>
<polygon fill="black" stroke="black" points="631.55,-123.53 639.95,-117.07 629.36,-116.88 631.55,-123.53"/>
<text text-anchor="middle" x="546.7" y="-366.95" font-family="Times,serif" font-size="14.00">1</text>
</g>
<!-- 14 -->
<g id="node15" class="node">
<title>14</title>
<ellipse fill="none" stroke="black" cx="188" cy="-514.5" rx="42.65" ry="18"/>
<text text-anchor="middle" x="188" y="-509.45" font-family="Times,serif" font-size="14.00">EMPTY</text>
</g>
<!-- 9&#45;&gt;14 -->
<g id="edge34" class="edge">
<title>9&#45;&gt;14</title>
<path fill="none" stroke="black" d="M407.55,-654.89C343.43,-652.46 245.95,-644.83 218.5,-621 196.58,-601.97 189.94,-568.25 188.17,-544.05"/>
<polygon fill="black" stroke="black" points="191.67,-544.05 187.7,-534.23 184.68,-544.38 191.67,-544.05"/>
<text text-anchor="middle" x="225.25" y="-607.7" font-family="Times,serif" font-size="14.00">10</text>
</g>
<!-- 10&#45;&gt;1 -->
<g id="edge18" class="edge">
<title>10&#45;&gt;1</title>
<path fill="none" stroke="black" d="M223.89,-176.9C239.85,-146.22 273.44,-81.62 292.34,-45.28"/>
<polygon fill="black" stroke="black" points="295.27,-47.23 296.77,-36.74 289.06,-44 295.27,-47.23"/>
<text text-anchor="middle" x="272.92" y="-101.45" font-family="Times,serif" font-size="14.00">7</text>
</g>
<!-- 11&#45;&gt;1 -->
<g id="edge21" class="edge">
<title>11&#45;&gt;1</title>
<path fill="none" stroke="black" d="M641.38,-96.57C568.72,-79.76 412.64,-43.66 342.02,-27.33"/>
<polygon fill="black" stroke="black" points="343.06,-23.98 332.52,-25.13 341.48,-30.8 343.06,-23.98"/>
<text text-anchor="middle" x="533.25" y="-57.2" font-family="Times,serif" font-size="14.00">66</text>
</g>
<!-- 12&#45;&gt;1 -->
<g id="edge40" class="edge">
<title>12&#45;&gt;1</title>
<path fill="none" stroke="black" d="M394.85,-353.54C394.05,-294.76 389.07,-104.98 358,-54 353.18,-46.09 345.82,-39.58 338.14,-34.4"/>
<polygon fill="black" stroke="black" points="340.09,-31.48 329.71,-29.33 336.48,-37.48 340.09,-31.48"/>
<text text-anchor="middle" x="392.08" y="-189.95" font-family="Times,serif" font-size="14.00">7</text>
</g>
<!-- 12&#45;&gt;5 -->
<g id="edge38" class="edge">
<title>12&#45;&gt;5</title>
<path fill="none" stroke="black" d="M393.62,-390.22C393.4,-400.48 394.17,-413.59 398.25,-424.5 399.47,-427.76 401.1,-430.97 402.96,-434.04"/>
<polygon fill="black" stroke="black" points="399.97,-435.87 408.58,-442.04 405.7,-431.85 399.97,-435.87"/>
<text text-anchor="middle" x="401.62" y="-411.2" font-family="Times,serif" font-size="14.00">1</text>
</g>
<!-- 13 -->
<g id="node14" class="node">
<title>13</title>
<ellipse fill="none" stroke="black" cx="452" cy="-283.5" rx="43.67" ry="18"/>
<text text-anchor="middle" x="452" y="-278.45" font-family="Times,serif" font-size="14.00">REJECT</text>
</g>
<!-- 12&#45;&gt;13 -->
<g id="edge25" class="edge">
<title>12&#45;&gt;13</title>
<path fill="none" stroke="black" d="M405.99,-354.32C414.19,-341.88 425.55,-324.64 434.93,-310.41"/>
<polygon fill="black" stroke="black" points="437.63,-312.67 440.21,-302.39 431.79,-308.81 437.63,-312.67"/>
<text text-anchor="middle" x="435.36" y="-322.7" font-family="Times,serif" font-size="14.00">25</text>
</g>
<!-- 13&#45;&gt;5 -->
<g id="edge28" class="edge">
<title>13&#45;&gt;5</title>
<path fill="none" stroke="black" d="M453.94,-301.86C455.85,-322.91 457.74,-359.4 452,-390 449.29,-404.47 443.66,-419.79 438.24,-432.36"/>
<polygon fill="black" stroke="black" points="435.16,-430.67 434.23,-441.22 441.54,-433.55 435.16,-430.67"/>
<text text-anchor="middle" x="458.99" y="-366.95" font-family="Times,serif" font-size="14.00">2</text>
</g>
<!-- 13&#45;&gt;8 -->
<g id="edge26" class="edge">
<title>13&#45;&gt;8</title>
<path fill="none" stroke="black" d="M472.21,-267.29C487.07,-256.46 507.99,-241.95 527.5,-231 538.74,-224.69 551.32,-218.62 563.03,-213.35"/>
<polygon fill="black" stroke="black" points="564.34,-216.6 572.08,-209.37 561.52,-210.19 564.34,-216.6"/>
<text text-anchor="middle" x="534.25" y="-234.2" font-family="Times,serif" font-size="14.00">17</text>
</g>
<!-- 13&#45;&gt;10 -->
<g id="edge41" class="edge">
<title>13&#45;&gt;10</title>
<path fill="none" stroke="black" d="M413.28,-274.74C385.98,-268.71 348.8,-259.39 317.25,-247.5 294.97,-239.1 271.14,-227.29 252.1,-217.09"/>
<polygon fill="black" stroke="black" points="253.84,-214.05 243.39,-212.35 250.5,-220.2 253.84,-214.05"/>
<text text-anchor="middle" x="320.62" y="-234.2" font-family="Times,serif" font-size="14.00">5</text>
</g>
<!-- 14&#45;&gt;1 -->
<g id="edge35" class="edge">
<title>14&#45;&gt;1</title>
<path fill="none" stroke="black" d="M184.66,-496.31C172.3,-431.85 130.42,-206.72 143,-177 170.14,-112.9 237.42,-62.04 276.53,-36.66"/>
<polygon fill="black" stroke="black" points="278.21,-39.74 284.78,-31.43 274.46,-33.83 278.21,-39.74"/>
<text text-anchor="middle" x="157.74" y="-278.45" font-family="Times,serif" font-size="14.00">10</text>
</g>
</g>
</svg>
