<?xml version="1.0" encoding="UTF-8" standalone="no"?>
<!DOCTYPE svg PUBLIC "-//W3C//DTD SVG 1.1//EN"
 "http://www.w3.org/Graphics/SVG/1.1/DTD/svg11.dtd">
<!-- Generated by graphviz version 12.2.1 (20241206.2353)
 -->
<!-- Pages: 1 -->
<svg width="982pt" height="861pt"
 viewBox="0.00 0.00 982.25 860.50" xmlns="http://www.w3.org/2000/svg" xmlns:xlink="http://www.w3.org/1999/xlink">
<g id="graph0" class="graph" transform="scale(1 1) rotate(0) translate(4 856.5)">
<polygon fill="white" stroke="none" points="-4,4 -4,-856.5 978.25,-856.5 978.25,4 -4,4"/>
<g id="clust1" class="cluster">
<title>cluster_legend</title>
<polygon fill="none" stroke="#bdbdbd" stroke-dasharray="5,2" points="125,-700 125,-844.5 433,-844.5 433,-700 125,-700"/>
</g>
<!-- 0 -->
<g id="node1" class="node">
<title>0</title>
<ellipse fill="none" stroke="black" cx="71" cy="-772.25" rx="43.67" ry="18"/>
<text text-anchor="middle" x="71" y="-767.2" font-family="Times,serif" font-size="14.00">BILLED</text>
</g>
<!-- 12 -->
<g id="node13" class="node">
<title>12</title>
<ellipse fill="none" stroke="black" cx="114" cy="-637.5" rx="47.77" ry="18"/>
<text text-anchor="middle" x="114" y="-632.45" font-family="Times,serif" font-size="14.00">STORNO</text>
</g>
<!-- 0&#45;&gt;12 -->
<g id="edge22" class="edge">
<title>0&#45;&gt;12</title>
<path fill="none" stroke="#9e9e9e" d="M67.08,-754.03C63.35,-733.71 59.96,-699.41 72.25,-673.5 74.45,-668.86 77.6,-664.61 81.2,-660.79"/>
<polygon fill="#9e9e9e" stroke="#9e9e9e" points="83.42,-663.5 88.46,-654.18 78.71,-658.32 83.42,-663.5"/>
<text text-anchor="start" x="72.25" y="-676.7" font-family="Times,serif" font-size="14.00" fill="#e8590c">+20%</text>
</g>
<!-- 13 -->
<g id="node14" class="node">
<title>13</title>
<ellipse fill="none" stroke="black" cx="478" cy="-18" rx="27" ry="18"/>
<text text-anchor="middle" x="478" y="-12.95" font-family="Times,serif" font-size="14.00">■</text>
</g>
<!-- 0&#45;&gt;13 -->
<g id="edge4" class="edge">
<title>0&#45;&gt;13</title>
<path fill="none" stroke="#9e9e9e" d="M55.59,-755.14C34.71,-731.55 0,-685.28 0,-638.5 0,-638.5 0,-638.5 0,-105.5 0,-60.57 44.23,-67.79 87,-54 151.83,-33.1 353.79,-23.5 439.22,-20.3"/>
<polygon fill="#9e9e9e" stroke="#9e9e9e" points="439.33,-23.79 449.2,-19.93 439.08,-16.8 439.33,-23.79"/>
<text text-anchor="start" x="0" y="-366.95" font-family="Times,serif" font-size="14.00" fill="#e8590c">+31%</text>
</g>
<!-- 1 -->
<g id="node2" class="node">
<title>1</title>
<ellipse fill="none" stroke="black" cx="752" cy="-460.5" rx="81.55" ry="18"/>
<text text-anchor="middle" x="752" y="-455.45" font-family="Times,serif" font-size="14.00">CHANGE DIAGN</text>
</g>
<!-- 1&#45;&gt;1 -->
<g id="edge20" class="edge">
<title>1&#45;&gt;1</title>
<path fill="none" stroke="#9e9e9e" d="M825.8,-468.48C840.8,-467.61 851.55,-464.95 851.55,-460.5 851.55,-457.27 845.88,-454.98 837.02,-453.63"/>
<polygon fill="#9e9e9e" stroke="#9e9e9e" points="837.61,-450.18 827.31,-452.67 836.91,-457.14 837.61,-450.18"/>
<text text-anchor="start" x="851.55" y="-455.45" font-family="Times,serif" font-size="14.00" fill="#e8590c">+12%</text>
</g>
<!-- 4 -->
<g id="node5" class="node">
<title>4</title>
<ellipse fill="none" stroke="black" cx="702" cy="-106.5" rx="45.72" ry="18"/>
<text text-anchor="middle" x="702" y="-101.45" font-family="Times,serif" font-size="14.00">DELETE</text>
</g>
<!-- 1&#45;&gt;4 -->
<g id="edge21" class="edge">
<title>1&#45;&gt;4</title>
<path fill="none" stroke="#9e9e9e" d="M759.4,-442.3C766.13,-425.09 775,-397.71 775,-373 775,-373 775,-373 775,-194 775,-167.2 754.28,-144.4 734.91,-128.95"/>
<polygon fill="#9e9e9e" stroke="#9e9e9e" points="737.21,-126.3 727.11,-123.08 733,-131.89 737.21,-126.3"/>
<text text-anchor="start" x="775" y="-278.45" font-family="Times,serif" font-size="14.00" fill="#e8590c">+100%</text>
</g>
<!-- 6 -->
<g id="node7" class="node">
<title>6</title>
<ellipse fill="none" stroke="black" cx="625" cy="-372" rx="27" ry="18"/>
<text text-anchor="middle" x="625" y="-366.95" font-family="Times,serif" font-size="14.00">FIN</text>
</g>
<!-- 1&#45;&gt;6 -->
<g id="edge9" class="edge">
<title>1&#45;&gt;6</title>
<path fill="none" stroke="#9e9e9e" d="M727.81,-443.03C706.37,-428.42 675.07,-407.11 652.65,-391.83"/>
<polygon fill="#9e9e9e" stroke="#9e9e9e" points="654.82,-389.08 644.59,-386.34 650.88,-394.86 654.82,-389.08"/>
<text text-anchor="start" x="699.88" y="-411.2" font-family="Times,serif" font-size="14.00" fill="#e8590c">+200%</text>
</g>
<!-- 1&#45;&gt;13 -->
<g id="edge26" class="edge">
<title>1&#45;&gt;13</title>
<path fill="none" stroke="#9e9e9e" d="M789.89,-444.1C817.47,-430.09 850,-406.47 850,-373 850,-373 850,-373 850,-105.5 850,-37.62 612.05,-22.99 516.77,-19.85"/>
<polygon fill="#9e9e9e" stroke="#9e9e9e" points="516.97,-16.36 506.87,-19.55 516.76,-23.35 516.97,-16.36"/>
<text text-anchor="start" x="850" y="-234.2" font-family="Times,serif" font-size="14.00" fill="#0c8599">&#45;79%</text>
</g>
<!-- 2 -->
<g id="node3" class="node">
<title>2</title>
<ellipse fill="none" stroke="black" cx="422" cy="-195" rx="58.52" ry="18"/>
<text text-anchor="middle" x="422" y="-189.95" font-family="Times,serif" font-size="14.00">CODE NOK</text>
</g>
<!-- 3 -->
<g id="node4" class="node">
<title>3</title>
<ellipse fill="none" stroke="black" cx="286" cy="-106.5" rx="51.86" ry="18"/>
<text text-anchor="middle" x="286" y="-101.45" font-family="Times,serif" font-size="14.00">CODE OK</text>
</g>
<!-- 2&#45;&gt;3 -->
<g id="edge38" class="edge">
<title>2&#45;&gt;3</title>
<path fill="none" stroke="#ffb300" stroke-width="2.5" stroke-dasharray="5,2" d="M395.01,-178.68C384.67,-172.69 372.83,-165.66 362.25,-159 348.03,-150.05 332.62,-139.76 319.41,-130.74"/>
<polygon fill="#ffb300" stroke="#ffb300" stroke-width="2.5" points="321.78,-128.13 311.56,-125.35 317.82,-133.9 321.78,-128.13"/>
<text text-anchor="start" x="362.25" y="-145.7" font-family="Times,serif" font-size="14.00" fill="#0c8599">&#45;100%</text>
</g>
<!-- 2&#45;&gt;4 -->
<g id="edge35" class="edge">
<title>2&#45;&gt;4</title>
<path fill="none" stroke="#ffb300" stroke-width="2.5" stroke-dasharray="5,2" d="M439.67,-177.58C454.41,-164.23 474.54,-146.9 484.25,-142.5 534.56,-119.72 597.3,-111.49 642.49,-108.66"/>
<polygon fill="#ffb300" stroke="#ffb300" stroke-width="2.5" points="642.64,-112.16 652.44,-108.13 642.27,-105.17 642.64,-112.16"/>
<text text-anchor="start" x="484.25" y="-145.7" font-family="Times,serif" font-size="14.00" fill="#0c8599">&#45;100%</text>
</g>
<!-- 5 -->
<g id="node6" class="node">
<title>5</title>
<ellipse fill="none" stroke="black" cx="399" cy="-106.5" rx="42.65" ry="18"/>
<text text-anchor="middle" x="399" y="-101.45" font-family="Times,serif" font-size="14.00">EMPTY</text>
</g>
<!-- 2&#45;&gt;5 -->
<g id="edge27" class="edge">
<title>2&#45;&gt;5</title>
<path fill="none" stroke="#9e9e9e" d="M412.99,-176.94C410.37,-171.35 407.75,-165.03 406,-159 403.89,-151.72 402.41,-143.67 401.38,-136.15"/>
<polygon fill="#9e9e9e" stroke="#9e9e9e" points="404.88,-135.97 400.26,-126.43 397.93,-136.77 404.88,-135.97"/>
<text text-anchor="start" x="406" y="-145.7" font-family="Times,serif" font-size="14.00" fill="#0c8599">&#45;30%</text>
</g>
<!-- 10 -->
<g id="node11" class="node">
<title>10</title>
<ellipse fill="none" stroke="black" cx="320" cy="-460.5" rx="46.75" ry="18"/>
<text text-anchor="middle" x="320" y="-455.45" font-family="Times,serif" font-size="14.00">REOPEN</text>
</g>
<!-- 2&#45;&gt;10 -->
<g id="edge34" class="edge">
<title>2&#45;&gt;10</title>
<path fill="none" stroke="#ffb300" stroke-width="2.5" stroke-dasharray="5,2" d="M415.28,-213.35C398.22,-257.44 353.03,-374.16 331.6,-429.54"/>
<polygon fill="#ffb300" stroke="#ffb300" stroke-width="2.5" points="328.4,-428.09 328.06,-438.68 334.93,-430.62 328.4,-428.09"/>
<text text-anchor="start" x="373.35" y="-322.7" font-family="Times,serif" font-size="14.00" fill="#0c8599">&#45;100%</text>
</g>
<!-- 11 -->
<g id="node12" class="node">
<title>11</title>
<ellipse fill="none" stroke="black" cx="153" cy="-106.5" rx="63.12" ry="18"/>
<text text-anchor="middle" x="153" y="-101.45" font-family="Times,serif" font-size="14.00">SET STATUS</text>
</g>
<!-- 2&#45;&gt;11 -->
<g id="edge30" class="edge">
<title>2&#45;&gt;11</title>
<path fill="none" stroke="#ffb300" stroke-width="2.5" stroke-dasharray="5,2" d="M378.84,-182.54C354.97,-176.01 324.84,-167.47 298.25,-159 266.23,-148.81 230.66,-136.22 202.74,-126.04"/>
<polygon fill="#ffb300" stroke="#ffb300" stroke-width="2.5" points="204.24,-122.86 193.64,-122.7 201.83,-129.43 204.24,-122.86"/>
<text text-anchor="start" x="298.25" y="-145.7" font-family="Times,serif" font-size="14.00" fill="#0c8599">&#45;100%</text>
</g>
<!-- 2&#45;&gt;13 -->
<g id="edge31" class="edge">
<title>2&#45;&gt;13</title>
<path fill="none" stroke="#ffb300" stroke-width="2.5" stroke-dasharray="5,2" d="M429.98,-176.84C436.24,-162.94 444.9,-142.73 451,-124.5 459.34,-99.59 466.58,-70.64 471.46,-49.38"/>
<polygon fill="#ffb300" stroke="#ffb300" stroke-width="2.5" points="474.85,-50.24 473.61,-39.72 468.02,-48.72 474.85,-50.24"/>
<text text-anchor="start" x="461.48" y="-101.45" font-family="Times,serif" font-size="14.00" fill="#0c8599">&#45;100%</text>
</g>
<!-- 3&#45;&gt;0 -->
<g id="edge3" class="edge">
<title>3&#45;&gt;0</title>
<path fill="none" stroke="#9e9e9e" d="M265.12,-123.28C249.11,-136.25 227.39,-155.89 213,-177 95.52,-349.29 86.41,-413.05 57,-619.5 50.91,-662.28 58.29,-712.24 64.43,-742.8"/>
<polygon fill="#9e9e9e" stroke="#9e9e9e" points="60.97,-743.35 66.46,-752.41 67.81,-741.9 60.97,-743.35"/>
<text text-anchor="start" x="94.76" y="-411.2" font-family="Times,serif" font-size="14.00" fill="#e8590c">+121%</text>
</g>
<!-- 3&#45;&gt;10 -->
<g id="edge15" class="edge">
<title>3&#45;&gt;10</title>
<path fill="none" stroke="#9e9e9e" d="M287.24,-124.67C287.99,-134.69 288.99,-147.57 290,-159 298.88,-259.05 311.27,-377.64 316.94,-431"/>
<polygon fill="#9e9e9e" stroke="#9e9e9e" points="313.44,-431.16 317.98,-440.73 320.4,-430.42 313.44,-431.16"/>
<text text-anchor="start" x="303.36" y="-278.45" font-family="Times,serif" font-size="14.00" fill="#e8590c">+400%</text>
</g>
<!-- 3&#45;&gt;13 -->
<g id="edge12" class="edge">
<title>3&#45;&gt;13</title>
<path fill="none" stroke="#9e9e9e" d="M311.95,-90.55C331.27,-79.71 358.48,-65.07 383.25,-54 402.87,-45.23 425.42,-36.83 443.6,-30.46"/>
<polygon fill="#9e9e9e" stroke="#9e9e9e" points="444.55,-33.84 452.86,-27.27 442.26,-27.22 444.55,-33.84"/>
<text text-anchor="start" x="383.25" y="-57.2" font-family="Times,serif" font-size="14.00" fill="#e8590c">+36%</text>
</g>
<!-- 4&#45;&gt;13 -->
<g id="edge19" class="edge">
<title>4&#45;&gt;13</title>
<path fill="none" stroke="#9e9e9e" d="M687.29,-89.1C676.02,-77.55 659.47,-62.65 642,-54 601.97,-34.18 551.03,-25.55 516.62,-21.81"/>
<polygon fill="#9e9e9e" stroke="#9e9e9e" points="516.99,-18.33 506.69,-20.83 516.3,-25.29 516.99,-18.33"/>
<text text-anchor="start" x="665.51" y="-57.2" font-family="Times,serif" font-size="14.00" fill="#0c8599">&#45;24%</text>
</g>
<!-- 5&#45;&gt;13 -->
<g id="edge28" class="edge">
<title>5&#45;&gt;13</title>
<path fill="none" stroke="#9e9e9e" d="M408.56,-88.8C415.02,-78.23 424.15,-64.62 434,-54 439.05,-48.55 444.99,-43.25 450.84,-38.49"/>
<polygon fill="#9e9e9e" stroke="#9e9e9e" points="452.88,-41.34 458.63,-32.43 448.59,-35.81 452.88,-41.34"/>
<text text-anchor="start" x="434" y="-57.2" font-family="Times,serif" font-size="14.00" fill="#0c8599">&#45;30%</text>
</g>
<!-- 6&#45;&gt;4 -->
<g id="edge33" class="edge">
<title>6&#45;&gt;4</title>
<path fill="none" stroke="#ffb300" stroke-width="2.5" stroke-dasharray="5,2" d="M632.19,-354.44C634.55,-348.67 637.05,-342.11 639,-336 653.56,-290.27 651.62,-277.3 664.25,-231 673.02,-198.85 684.33,-162.39 692.28,-137.47"/>
<polygon fill="#ffb300" stroke="#ffb300" stroke-width="2.5" points="695.54,-138.78 695.26,-128.19 688.87,-136.64 695.54,-138.78"/>
<text text-anchor="start" x="664.25" y="-234.2" font-family="Times,serif" font-size="14.00" fill="#0c8599">&#45;100%</text>
</g>
<!-- 9 -->
<g id="node10" class="node">
<title>9</title>
<ellipse fill="none" stroke="black" cx="466" cy="-283.5" rx="51.35" ry="18"/>
<text text-anchor="middle" x="466" y="-278.45" font-family="Times,serif" font-size="14.00">RELEASE</text>
</g>
<!-- 6&#45;&gt;9 -->
<g id="edge1" class="edge">
<title>6&#45;&gt;9</title>
<path fill="none" stroke="#9e9e9e" d="M604.54,-359.87C578.88,-345.91 534.43,-321.73 502.8,-304.52"/>
<polygon fill="#9e9e9e" stroke="#9e9e9e" points="504.81,-301.63 494.35,-299.92 501.46,-307.78 504.81,-301.63"/>
<text text-anchor="start" x="559.74" y="-322.7" font-family="Times,serif" font-size="14.00" fill="#e8590c">+1%</text>
</g>
<!-- 6&#45;&gt;13 -->
<g id="edge13" class="edge">
<title>6&#45;&gt;13</title>
<path fill="none" stroke="#9e9e9e" d="M626.26,-353.72C628.16,-318.97 629.37,-238.71 606,-177 584.38,-119.91 533.56,-67.85 502.86,-40.08"/>
<polygon fill="#9e9e9e" stroke="#9e9e9e" points="505.34,-37.6 495.53,-33.59 500.69,-42.84 505.34,-37.6"/>
<text text-anchor="start" x="616.61" y="-189.95" font-family="Times,serif" font-size="14.00" fill="#555555">0%</text>
</g>
<!-- 7 -->
<g id="node8" class="node">
<title>7</title>
<ellipse fill="none" stroke="black" cx="872" cy="-549" rx="32.41" ry="18"/>
<text text-anchor="middle" x="872" y="-543.95" font-family="Times,serif" font-size="14.00">NEW</text>
</g>
<!-- 7&#45;&gt;1 -->
<g id="edge8" class="edge">
<title>7&#45;&gt;1</title>
<path fill="none" stroke="#9e9e9e" d="M852.72,-534.1C834.25,-520.79 806.04,-500.45 784.17,-484.69"/>
<polygon fill="#9e9e9e" stroke="#9e9e9e" points="786.31,-481.92 776.15,-478.91 782.22,-487.6 786.31,-481.92"/>
<text text-anchor="start" x="822.75" y="-499.7" font-family="Times,serif" font-size="14.00" fill="#e8590c">+17%</text>
</g>
<!-- 7&#45;&gt;4 -->
<g id="edge18" class="edge">
<title>7&#45;&gt;4</title>
<path fill="none" stroke="#9e9e9e" d="M879.02,-530.93C884.33,-517.07 891.16,-496.89 894,-478.5 896.9,-459.72 893.5,-255.17 881,-231 853.02,-176.9 789.22,-141.94 745.85,-123.48"/>
<polygon fill="#9e9e9e" stroke="#9e9e9e" points="747.28,-120.28 736.7,-119.72 744.62,-126.76 747.28,-120.28"/>
<text text-anchor="start" x="892.43" y="-322.7" font-family="Times,serif" font-size="14.00" fill="#e8590c">+186%</text>
</g>
<!-- 7&#45;&gt;6 -->
<g id="edge11" class="edge">
<title>7&#45;&gt;6</title>
<path fill="none" stroke="#9e9e9e" d="M841.09,-543.36C782.85,-533.94 660.38,-510.73 634,-478.5 616.55,-457.18 616.45,-424.66 619.36,-401.37"/>
<polygon fill="#9e9e9e" stroke="#9e9e9e" points="622.8,-402.05 620.85,-391.63 615.88,-400.98 622.8,-402.05"/>
<text text-anchor="start" x="634" y="-455.45" font-family="Times,serif" font-size="14.00" fill="#e8590c">+8%</text>
</g>
<!-- 7&#45;&gt;13 -->
<g id="edge10" class="edge">
<title>7&#45;&gt;13</title>
<path fill="none" stroke="#9e9e9e" d="M894.85,-535.7C918.18,-521.29 951,-495.06 951,-461.5 951,-461.5 951,-461.5 951,-105.5 951,-41.7 879.05,-68.85 817,-54 710.24,-28.45 580.16,-21.55 516.64,-19.69"/>
<polygon fill="#9e9e9e" stroke="#9e9e9e" points="516.81,-16.19 506.73,-19.43 516.63,-23.19 516.81,-16.19"/>
<text text-anchor="start" x="951" y="-278.45" font-family="Times,serif" font-size="14.00" fill="#0c8599">&#45;1%</text>
</g>
<!-- 8 -->
<g id="node9" class="node">
<title>8</title>
<ellipse fill="none" stroke="black" cx="185" cy="-549" rx="43.67" ry="18"/>
<text text-anchor="middle" x="185" y="-543.95" font-family="Times,serif" font-size="14.00">REJECT</text>
</g>
<!-- 8&#45;&gt;0 -->
<g id="edge32" class="edge">
<title>8&#45;&gt;0</title>
<path fill="none" stroke="#ffb300" stroke-width="2.5" stroke-dasharray="5,2" d="M185.59,-567.24C185.71,-577.27 185.46,-590.15 184,-601.5 180.85,-625.98 180.42,-632.68 171,-655.5 164.15,-672.09 163.98,-678.74 150,-690 139.38,-698.55 131.89,-691.8 121,-700 106.25,-711.11 94.19,-727.85 85.61,-742.31"/>
<polygon fill="#ffb300" stroke="#ffb300" stroke-width="2.5" points="82.62,-740.49 80.82,-750.93 88.74,-743.88 82.62,-740.49"/>
<text text-anchor="start" x="181.58" y="-632.45" font-family="Times,serif" font-size="14.00" fill="#0c8599">&#45;100%</text>
</g>
<!-- 8&#45;&gt;10 -->
<g id="edge24" class="edge">
<title>8&#45;&gt;10</title>
<path fill="none" stroke="#9e9e9e" d="M207.9,-533.33C229.59,-519.43 262.39,-498.41 286.92,-482.7"/>
<polygon fill="#9e9e9e" stroke="#9e9e9e" points="288.73,-485.69 295.26,-477.35 284.95,-479.8 288.73,-485.69"/>
<text text-anchor="start" x="264.59" y="-499.7" font-family="Times,serif" font-size="14.00" fill="#0c8599">&#45;71%</text>
</g>
<!-- 8&#45;&gt;11 -->
<g id="edge41" class="edge">
<title>8&#45;&gt;11</title>
<path fill="none" stroke="#ffb300" stroke-width="2.5" stroke-dasharray="5,2" d="M181.9,-530.64C173.26,-481.2 149,-335.34 141,-213 138.96,-181.73 135.85,-173.41 141,-142.5 141.26,-140.92 141.59,-139.31 141.96,-137.7"/>
<polygon fill="#ffb300" stroke="#ffb300" stroke-width="2.5" points="145.27,-138.86 144.78,-128.28 138.56,-136.86 145.27,-138.86"/>
<text text-anchor="start" x="152.67" y="-322.7" font-family="Times,serif" font-size="14.00" fill="#0c8599">&#45;100%</text>
</g>
<!-- 9&#45;&gt;2 -->
<g id="edge16" class="edge">
<title>9&#45;&gt;2</title>
<path fill="none" stroke="#9e9e9e" d="M457.31,-265.41C451.16,-253.33 442.79,-236.88 435.75,-223.03"/>
<polygon fill="#9e9e9e" stroke="#9e9e9e" points="439.01,-221.73 431.36,-214.4 432.78,-224.9 439.01,-221.73"/>
<text text-anchor="start" x="447.94" y="-234.2" font-family="Times,serif" font-size="14.00" fill="#e8590c">+55%</text>
</g>
<!-- 9&#45;&gt;3 -->
<g id="edge2" class="edge">
<title>9&#45;&gt;3</title>
<path fill="none" stroke="#9e9e9e" d="M424.67,-272.48C392.04,-262.55 347.6,-244.2 320.25,-213 301.33,-191.42 292.83,-159.22 289.03,-136.07"/>
<polygon fill="#9e9e9e" stroke="#9e9e9e" points="292.53,-135.8 287.66,-126.39 285.6,-136.78 292.53,-135.8"/>
<text text-anchor="start" x="320.25" y="-189.95" font-family="Times,serif" font-size="14.00" fill="#e8590c">+80%</text>
</g>
<!-- 9&#45;&gt;4 -->
<g id="edge36" class="edge">
<title>9&#45;&gt;4</title>
<path fill="none" stroke="#ffb300" stroke-width="2.5" stroke-dasharray="5,2" d="M494.71,-268.19C504.36,-262.55 514.75,-255.51 523,-247.5 549.89,-221.4 541.48,-202.16 569.25,-177 594.63,-154 629.01,-136.28 656.43,-124.49"/>
<polygon fill="#ffb300" stroke="#ffb300" stroke-width="2.5" points="657.47,-127.84 665.37,-120.78 654.79,-121.37 657.47,-127.84"/>
<text text-anchor="start" x="569.25" y="-189.95" font-family="Times,serif" font-size="14.00" fill="#0c8599">&#45;100%</text>
</g>
<!-- 9&#45;&gt;11 -->
<g id="edge37" class="edge">
<title>9&#45;&gt;11</title>
<path fill="none" stroke="#ffb300" stroke-width="2.5" stroke-dasharray="5,2" d="M420.4,-274.73C376.18,-265.54 308.71,-247 259.25,-213 226.85,-190.73 195.64,-157.95 175.53,-134.85"/>
<polygon fill="#ffb300" stroke="#ffb300" stroke-width="2.5" points="178.21,-132.59 169.05,-127.26 172.88,-137.13 178.21,-132.59"/>
<text text-anchor="start" x="259.25" y="-189.95" font-family="Times,serif" font-size="14.00" fill="#0c8599">&#45;100%</text>
</g>
<!-- 9&#45;&gt;13 -->
<g id="edge40" class="edge">
<title>9&#45;&gt;13</title>
<path fill="none" stroke="#ffb300" stroke-width="2.5" stroke-dasharray="5,2" d="M476.49,-265.74C490.17,-242.73 513.27,-199.58 521,-159 528.56,-119.33 510.18,-74.99 495.15,-47.05"/>
<polygon fill="#ffb300" stroke="#ffb300" stroke-width="2.5" points="498.21,-45.35 490.23,-38.38 492.12,-48.81 498.21,-45.35"/>
<text text-anchor="start" x="522.72" y="-145.7" font-family="Times,serif" font-size="14.00" fill="#0c8599">&#45;100%</text>
</g>
<!-- 10&#45;&gt;4 -->
<g id="edge25" class="edge">
<title>10&#45;&gt;4</title>
<path fill="none" stroke="#9e9e9e" d="M365.88,-456.27C449.04,-449.47 619.87,-430.79 661,-390 729.83,-321.75 717.42,-192.89 707.73,-135.87"/>
<polygon fill="#9e9e9e" stroke="#9e9e9e" points="711.23,-135.55 706,-126.33 704.34,-136.79 711.23,-135.55"/>
<text text-anchor="start" x="712.92" y="-278.45" font-family="Times,serif" font-size="14.00" fill="#0c8599">&#45;46%</text>
</g>
<!-- 10&#45;&gt;6 -->
<g id="edge14" class="edge">
<title>10&#45;&gt;6</title>
<path fill="none" stroke="#9e9e9e" d="M356.79,-449.07C415.91,-432.3 531.3,-399.57 589.55,-383.05"/>
<polygon fill="#9e9e9e" stroke="#9e9e9e" points="590.29,-386.48 598.95,-380.39 588.38,-379.75 590.29,-386.48"/>
<text text-anchor="start" x="499.82" y="-411.2" font-family="Times,serif" font-size="14.00" fill="#0c8599">&#45;40%</text>
</g>
<!-- 11&#45;&gt;13 -->
<g id="edge17" class="edge">
<title>11&#45;&gt;13</title>
<path fill="none" stroke="#9e9e9e" d="M192.48,-92C225.51,-80.97 274.02,-65.4 317,-54 359.29,-42.79 408.53,-32.48 441.31,-26"/>
<polygon fill="#9e9e9e" stroke="#9e9e9e" points="441.55,-29.51 450.69,-24.16 440.2,-22.65 441.55,-29.51"/>
<text text-anchor="start" x="317" y="-57.2" font-family="Times,serif" font-size="14.00" fill="#0c8599">&#45;57%</text>
</g>
<!-- 12&#45;&gt;0 -->
<g id="edge39" class="edge">
<title>12&#45;&gt;0</title>
<path fill="none" stroke="#ffb300" stroke-width="2.5" stroke-dasharray="5,2" d="M112.4,-655.9C111.21,-666 109.21,-678.87 106,-690 100.87,-707.81 92.8,-726.88 85.7,-742.06"/>
<polygon fill="#ffb300" stroke="#ffb300" stroke-width="2.5" points="82.65,-740.35 81.46,-750.87 88.95,-743.39 82.65,-740.35"/>
<text text-anchor="start" x="109.57" y="-676.7" font-family="Times,serif" font-size="14.00" fill="#0c8599">&#45;100%</text>
</g>
<!-- 12&#45;&gt;8 -->
<g id="edge23" class="edge">
<title>12&#45;&gt;8</title>
<path fill="none" stroke="#9e9e9e" d="M126.35,-620.05C134.12,-609.83 144.46,-596.5 154,-585 156.83,-581.58 159.87,-578.03 162.9,-574.55"/>
<polygon fill="#9e9e9e" stroke="#9e9e9e" points="165.28,-577.14 169.27,-567.33 160.03,-572.51 165.28,-577.14"/>
<text text-anchor="start" x="154" y="-588.2" font-family="Times,serif" font-size="14.00" fill="#0c8599">&#45;72%</text>
</g>
<!-- 12&#45;&gt;13 -->
<g id="edge29" class="edge">
<title>12&#45;&gt;13</title>
<path fill="none" stroke="#9e9e9e" d="M102.46,-619.59C87.14,-595.46 62,-549.23 62,-505.75 62,-505.75 62,-505.75 62,-105.5 62,-28.87 336.03,-19.65 439.27,-18.89"/>
<polygon fill="#9e9e9e" stroke="#9e9e9e" points="439.21,-22.39 449.19,-18.85 439.18,-15.39 439.21,-22.39"/>
<text text-anchor="start" x="62" y="-322.7" font-family="Times,serif" font-size="14.00" fill="#0c8599">&#45;71%</text>
</g>
<!-- 13&#45;&gt;13 -->
<g id="edge5" class="edge">
<title>13&#45;&gt;13</title>
<path fill="none" stroke="#9e9e9e" d="M502.53,-26.17C513.51,-26.95 523,-24.22 523,-18 523,-14.11 519.29,-11.59 513.83,-10.43"/>
<polygon fill="#9e9e9e" stroke="#9e9e9e" points="514.22,-6.95 504.04,-9.91 513.84,-13.94 514.22,-6.95"/>
<text text-anchor="start" x="523" y="-12.95" font-family="Times,serif" font-size="14.00" fill="#e8590c">+16%</text>
</g>
<!-- 14 -->
<g id="node15" class="node">
<title>14</title>
<ellipse fill="none" stroke="black" cx="872" cy="-637.5" rx="27" ry="18"/>
<text text-anchor="middle" x="872" y="-632.83" font-family="Times,serif" font-size="14.00">▶</text>
</g>
<!-- 14&#45;&gt;7 -->
<g id="edge7" class="edge">
<title>14&#45;&gt;7</title>
<path fill="none" stroke="#9e9e9e" d="M872,-619.41C872,-607.76 872,-592.05 872,-578.52"/>
<polygon fill="#9e9e9e" stroke="#9e9e9e" points="875.5,-578.86 872,-568.86 868.5,-578.86 875.5,-578.86"/>
<text text-anchor="start" x="872" y="-588.2" font-family="Times,serif" font-size="14.00" fill="#0c8599">&#45;4%</text>
</g>
<!-- 14&#45;&gt;14 -->
<g id="edge6" class="edge">
<title>14&#45;&gt;14</title>
<path fill="none" stroke="#9e9e9e" d="M896.53,-645.67C907.51,-646.45 917,-643.72 917,-637.5 917,-633.61 913.29,-631.09 907.83,-629.93"/>
<polygon fill="#9e9e9e" stroke="#9e9e9e" points="908.22,-626.45 898.04,-629.41 907.84,-633.44 908.22,-626.45"/>
<text text-anchor="start" x="917" y="-632.45" font-family="Times,serif" font-size="14.00" fill="#0c8599">&#45;4%</text>
</g>
<!-- _legend -->
<g id="node16" class="node">
<title>_legend</title>
<text text-anchor="start" x="257.62" y="-815.2" font-family="Times,serif" font-weight="bold" font-size="14.00">Legend</text>
<text text-anchor="start" x="145.75" y="-791.7" font-family="Times,serif" font-size="14.00" fill="#555555">edge label: </text>
<text text-anchor="start" x="208.75" y="-791.7" font-family="Times,serif" font-size="14.00" fill="#e8590c">over</text>
<text text-anchor="start" x="232.75" y="-791.7" font-family="Times,serif" font-size="14.00" fill="#555555"> / </text>
<text text-anchor="start" x="244" y="-791.7" font-family="Times,serif" font-size="14.00" fill="#0c8599">under</text>
<text text-anchor="start" x="274.75" y="-791.7" font-family="Times,serif" font-size="14.00" fill="#555555">&#45;forecast %</text>
<text text-anchor="start" x="145.75" y="-767.2" font-family="Times,serif" font-size="14.00" fill="#9e9e9e">─────</text>
<text text-anchor="start" x="201.5" y="-767.2" font-family="Times,serif" font-size="14.00">matched</text>
<text text-anchor="start" x="145.75" y="-743.7" font-family="Times,serif" font-size="14.00" fill="#ffb300">– – –</text>
<text text-anchor="start" x="201.5" y="-743.7" font-family="Times,serif" font-size="14.00">happened — forecast missed it</text>
<text text-anchor="start" x="145.75" y="-720.2" font-family="Times,serif" font-size="14.00" fill="#e53935">– – –</text>
<text text-anchor="start" x="201.5" y="-720.2" font-family="Times,serif" font-size="14.00">forecast predicted it — did not happen</text>
</g>
</g>
</svg>
