<?xml version="1.0" encoding="UTF-8" standalone="no"?>
<!DOCTYPE svg PUBLIC "-//W3C//DTD SVG 1.1//EN"
 "http://www.w3.org/Graphics/SVG/1.1/DTD/svg11.dtd">
<!-- Generated by graphviz version 12.2.1 (20241206.2353)
 -->
<!-- Pages: 1 -->
<svg width="663pt" height="1037pt"
 viewBox="0.00 0.00 663.25 1037.00" xmlns="http://www.w3.org/2000/svg" xmlns:xlink="http://www.w3.org/1999/xlink">
<g id="graph0" class="graph" transform="scale(1 1) rotate(0) translate(4 1033)">
<polygon fill="white" stroke="none" points="-4,4 -4,-1033 659.25,-1033 659.25,4 -4,4"/>
<!-- 0 -->
<g id="node1" class="node">
<title>0</title>
<ellipse fill="none" stroke="black" cx="446" cy="-1011" rx="27" ry="18"/>
<text text-anchor="middle" x="446" y="-1006.33" font-family="Times,serif" font-size="14.00">▶</text>
</g>
<!-- 0&#45;&gt;0 -->
<g id="edge6" class="edge">
<title>0&#45;&gt;0</title>
<path fill="none" stroke="black" d="M470.53,-1019.17C481.51,-1019.95 491,-1017.22 491,-1011 491,-1007.11 487.29,-1004.59 481.83,-1003.43"/>
<polygon fill="black" stroke="black" points="482.22,-999.95 472.04,-1002.91 481.84,-1006.94 482.22,-999.95"/>
<text text-anchor="middle" x="501.12" y="-1005.95" font-family="Times,serif" font-size="14.00">651</text>
</g>
<!-- 6 -->
<g id="node7" class="node">
<title>6</title>
<ellipse fill="none" stroke="black" cx="446" cy="-922.5" rx="32.41" ry="18"/>
<text text-anchor="middle" x="446" y="-917.45" font-family="Times,serif" font-size="14.00">NEW</text>
</g>
<!-- 0&#45;&gt;6 -->
<g id="edge7" class="edge">
<title>0&#45;&gt;6</title>
<path fill="none" stroke="black" d="M446,-992.91C446,-981.26 446,-965.55 446,-952.02"/>
<polygon fill="black" stroke="black" points="449.5,-952.36 446,-942.36 442.5,-952.36 449.5,-952.36"/>
<text text-anchor="middle" x="456.12" y="-961.7" font-family="Times,serif" font-size="14.00">650</text>
</g>
<!-- 1 -->
<g id="node2" class="node">
<title>1</title>
<ellipse fill="none" stroke="black" cx="194" cy="-18" rx="27" ry="18"/>
<text text-anchor="middle" x="194" y="-12.95" font-family="Times,serif" font-size="14.00">■</text>
</g>
<!-- 1&#45;&gt;1 -->
<g id="edge5" class="edge">
<title>1&#45;&gt;1</title>
<path fill="none" stroke="black" d="M218.53,-26.17C229.51,-26.95 239,-24.22 239,-18 239,-14.11 235.29,-11.59 229.83,-10.43"/>
<polygon fill="black" stroke="black" points="230.22,-6.95 220.04,-9.91 229.84,-13.94 230.22,-6.95"/>
<text text-anchor="middle" x="249.12" y="-12.95" font-family="Times,serif" font-size="14.00">474</text>
</g>
<!-- 2 -->
<g id="node3" class="node">
<title>2</title>
<ellipse fill="none" stroke="black" cx="349" cy="-745.5" rx="27" ry="18"/>
<text text-anchor="middle" x="349" y="-740.45" font-family="Times,serif" font-size="14.00">FIN</text>
</g>
<!-- 2&#45;&gt;1 -->
<g id="edge13" class="edge">
<title>2&#45;&gt;1</title>
<path fill="none" stroke="black" d="M321.9,-743.59C239.91,-740.1 0,-724.25 0,-658 0,-658 0,-658 0,-105.5 0,-38.19 98.61,-22.89 155.22,-19.65"/>
<polygon fill="black" stroke="black" points="155.27,-23.15 165.1,-19.2 154.95,-16.16 155.27,-23.15"/>
<text text-anchor="middle" x="6.75" y="-366.95" font-family="Times,serif" font-size="14.00">51</text>
</g>
<!-- 3 -->
<g id="node4" class="node">
<title>3</title>
<ellipse fill="none" stroke="black" cx="224" cy="-657" rx="51.35" ry="18"/>
<text text-anchor="middle" x="224" y="-651.95" font-family="Times,serif" font-size="14.00">RELEASE</text>
</g>
<!-- 2&#45;&gt;3 -->
<g id="edge1" class="edge">
<title>2&#45;&gt;3</title>
<path fill="none" stroke="black" d="M330.82,-731.92C311.18,-718.33 279.52,-696.42 255.75,-679.97"/>
<polygon fill="black" stroke="black" points="257.89,-677.19 247.67,-674.38 253.9,-682.95 257.89,-677.19"/>
<text text-anchor="middle" x="307.82" y="-696.2" font-family="Times,serif" font-size="14.00">518</text>
</g>
<!-- 4 -->
<g id="node5" class="node">
<title>4</title>
<ellipse fill="none" stroke="black" cx="224" cy="-568.5" rx="51.86" ry="18"/>
<text text-anchor="middle" x="224" y="-563.45" font-family="Times,serif" font-size="14.00">CODE OK</text>
</g>
<!-- 3&#45;&gt;4 -->
<g id="edge2" class="edge">
<title>3&#45;&gt;4</title>
<path fill="none" stroke="black" d="M224,-638.91C224,-627.26 224,-611.55 224,-598.02"/>
<polygon fill="black" stroke="black" points="227.5,-598.36 224,-588.36 220.5,-598.36 227.5,-598.36"/>
<text text-anchor="middle" x="234.12" y="-607.7" font-family="Times,serif" font-size="14.00">476</text>
</g>
<!-- 9 -->
<g id="node10" class="node">
<title>9</title>
<ellipse fill="none" stroke="black" cx="90" cy="-568.5" rx="58.52" ry="18"/>
<text text-anchor="middle" x="90" y="-563.45" font-family="Times,serif" font-size="14.00">CODE NOK</text>
</g>
<!-- 3&#45;&gt;9 -->
<g id="edge16" class="edge">
<title>3&#45;&gt;9</title>
<path fill="none" stroke="black" d="M200.35,-640.73C179.09,-627.01 147.62,-606.69 123.72,-591.26"/>
<polygon fill="black" stroke="black" points="125.89,-588.5 115.59,-586.02 122.09,-594.38 125.89,-588.5"/>
<text text-anchor="middle" x="175.75" y="-607.7" font-family="Times,serif" font-size="14.00">17</text>
</g>
<!-- 4&#45;&gt;1 -->
<g id="edge12" class="edge">
<title>4&#45;&gt;1</title>
<path fill="none" stroke="black" d="M208.42,-551.07C196.57,-537.72 180.69,-517.92 171,-498 119.21,-391.57 104,-358.61 104,-240.25 104,-240.25 104,-240.25 104,-105.5 104,-72.4 136.03,-48.01 161.88,-33.71"/>
<polygon fill="black" stroke="black" points="163.17,-36.99 170.41,-29.26 159.93,-30.78 163.17,-36.99"/>
<text text-anchor="middle" x="115.98" y="-278.45" font-family="Times,serif" font-size="14.00">124</text>
</g>
<!-- 5 -->
<g id="node6" class="node">
<title>5</title>
<ellipse fill="none" stroke="black" cx="224" cy="-480" rx="43.67" ry="18"/>
<text text-anchor="middle" x="224" y="-474.95" font-family="Times,serif" font-size="14.00">BILLED</text>
</g>
<!-- 4&#45;&gt;5 -->
<g id="edge3" class="edge">
<title>4&#45;&gt;5</title>
<path fill="none" stroke="black" d="M224,-550.41C224,-538.76 224,-523.05 224,-509.52"/>
<polygon fill="black" stroke="black" points="227.5,-509.86 224,-499.86 220.5,-509.86 227.5,-509.86"/>
<text text-anchor="middle" x="234.12" y="-519.2" font-family="Times,serif" font-size="14.00">135</text>
</g>
<!-- 8 -->
<g id="node9" class="node">
<title>8</title>
<ellipse fill="none" stroke="black" cx="337" cy="-195" rx="46.75" ry="18"/>
<text text-anchor="middle" x="337" y="-189.95" font-family="Times,serif" font-size="14.00">REOPEN</text>
</g>
<!-- 4&#45;&gt;8 -->
<g id="edge15" class="edge">
<title>4&#45;&gt;8</title>
<path fill="none" stroke="black" d="M240.15,-550.94C252.15,-537.69 267.95,-518.06 277,-498 319.51,-403.78 332.03,-279.58 335.62,-224.46"/>
<polygon fill="black" stroke="black" points="339.1,-224.88 336.2,-214.69 332.11,-224.47 339.1,-224.88"/>
<text text-anchor="middle" x="326.29" y="-366.95" font-family="Times,serif" font-size="14.00">10</text>
</g>
<!-- 5&#45;&gt;1 -->
<g id="edge4" class="edge">
<title>5&#45;&gt;1</title>
<path fill="none" stroke="black" d="M210.45,-462.54C197.43,-445.57 178.63,-417.74 171,-390 136.82,-265.79 169.93,-109.69 186.17,-46.97"/>
<polygon fill="black" stroke="black" points="189.5,-48.07 188.69,-37.51 182.74,-46.27 189.5,-48.07"/>
<text text-anchor="middle" x="167.08" y="-234.2" font-family="Times,serif" font-size="14.00">177</text>
</g>
<!-- 12 -->
<g id="node13" class="node">
<title>12</title>
<ellipse fill="none" stroke="black" cx="228" cy="-372" rx="47.77" ry="18"/>
<text text-anchor="middle" x="228" y="-366.95" font-family="Times,serif" font-size="14.00">STORNO</text>
</g>
<!-- 5&#45;&gt;12 -->
<g id="edge22" class="edge">
<title>5&#45;&gt;12</title>
<path fill="none" stroke="black" d="M224.64,-461.97C225.25,-445.76 226.19,-421.06 226.91,-401.79"/>
<polygon fill="black" stroke="black" points="230.41,-401.98 227.29,-391.85 223.41,-401.71 230.41,-401.98"/>
<text text-anchor="middle" x="229.97" y="-420.95" font-family="Times,serif" font-size="14.00">6</text>
</g>
<!-- 6&#45;&gt;1 -->
<g id="edge10" class="edge">
<title>6&#45;&gt;1</title>
<path fill="none" stroke="black" d="M478.49,-920.82C532.53,-917.77 635,-903.02 635,-835 635,-835 635,-835 635,-105.5 635,-23.81 339.94,-17.89 232.52,-18.43"/>
<polygon fill="black" stroke="black" points="232.74,-14.93 222.77,-18.51 232.79,-21.93 232.74,-14.93"/>
<text text-anchor="middle" x="645.12" y="-474.95" font-family="Times,serif" font-size="14.00">285</text>
</g>
<!-- 6&#45;&gt;2 -->
<g id="edge11" class="edge">
<title>6&#45;&gt;2</title>
<path fill="none" stroke="black" d="M418.13,-912.74C404.2,-907.15 388.02,-898.63 377,-886.5 349.35,-856.04 345.78,-806.23 346.69,-774.97"/>
<polygon fill="black" stroke="black" points="350.18,-775.25 347.17,-765.1 343.19,-774.91 350.18,-775.25"/>
<text text-anchor="middle" x="363.72" y="-828.95" font-family="Times,serif" font-size="14.00">42</text>
</g>
<!-- 7 -->
<g id="node8" class="node">
<title>7</title>
<ellipse fill="none" stroke="black" cx="501" cy="-834" rx="81.55" ry="18"/>
<text text-anchor="middle" x="501" y="-828.95" font-family="Times,serif" font-size="14.00">CHANGE DIAGN</text>
</g>
<!-- 6&#45;&gt;7 -->
<g id="edge8" class="edge">
<title>6&#45;&gt;7</title>
<path fill="none" stroke="black" d="M456.35,-905.23C464.18,-892.9 475.12,-875.71 484.2,-861.42"/>
<polygon fill="black" stroke="black" points="486.91,-863.68 489.32,-853.36 481.01,-859.92 486.91,-863.68"/>
<text text-anchor="middle" x="488.55" y="-873.2" font-family="Times,serif" font-size="14.00">223</text>
</g>
<!-- 11 -->
<g id="node12" class="node">
<title>11</title>
<ellipse fill="none" stroke="black" cx="413" cy="-106.5" rx="45.72" ry="18"/>
<text text-anchor="middle" x="413" y="-101.45" font-family="Times,serif" font-size="14.00">DELETE</text>
</g>
<!-- 6&#45;&gt;11 -->
<g id="edge18" class="edge">
<title>6&#45;&gt;11</title>
<path fill="none" stroke="black" d="M435.11,-905.16C426.66,-891.56 415.48,-871.35 410,-852 388.48,-775.99 414,-657.27 414,-525.25 414,-525.25 414,-525.25 414,-194 414,-174.66 413.75,-152.9 413.5,-136.04"/>
<polygon fill="black" stroke="black" points="417,-136.19 413.34,-126.25 410,-136.3 417,-136.19"/>
<text text-anchor="middle" x="420.75" y="-519.2" font-family="Times,serif" font-size="14.00">20</text>
</g>
<!-- 7&#45;&gt;1 -->
<g id="edge26" class="edge">
<title>7&#45;&gt;1</title>
<path fill="none" stroke="black" d="M500.68,-815.77C500.39,-798.31 500,-770.53 500,-746.5 500,-746.5 500,-746.5 500,-105.5 500,-50.51 314.72,-28.73 232.5,-21.76"/>
<polygon fill="black" stroke="black" points="232.91,-18.29 222.66,-20.97 232.35,-25.26 232.91,-18.29"/>
<text text-anchor="middle" x="503.38" y="-420.95" font-family="Times,serif" font-size="14.00">5</text>
</g>
<!-- 7&#45;&gt;2 -->
<g id="edge9" class="edge">
<title>7&#45;&gt;2</title>
<path fill="none" stroke="black" d="M469.17,-817.06C457.82,-811.23 445,-804.48 433.5,-798 414.53,-787.32 393.64,-774.6 377.38,-764.47"/>
<polygon fill="black" stroke="black" points="379.52,-761.68 369.19,-759.34 375.81,-767.61 379.52,-761.68"/>
<text text-anchor="middle" x="440.25" y="-784.7" font-family="Times,serif" font-size="14.00">30</text>
</g>
<!-- 7&#45;&gt;7 -->
<g id="edge20" class="edge">
<title>7&#45;&gt;7</title>
<path fill="none" stroke="black" d="M574.8,-841.98C589.8,-841.11 600.55,-838.45 600.55,-834 600.55,-830.77 594.88,-828.48 586.02,-827.13"/>
<polygon fill="black" stroke="black" points="586.61,-823.68 576.31,-826.17 585.91,-830.64 586.61,-823.68"/>
<text text-anchor="middle" x="603.92" y="-828.95" font-family="Times,serif" font-size="14.00">9</text>
</g>
<!-- 7&#45;&gt;11 -->
<g id="edge21" class="edge">
<title>7&#45;&gt;11</title>
<path fill="none" stroke="black" d="M487.68,-815.85C476.04,-799.12 461,-772.48 461,-746.5 461,-746.5 461,-746.5 461,-194 461,-171.32 448.22,-149.01 435.85,-132.74"/>
<polygon fill="black" stroke="black" points="438.67,-130.66 429.67,-125.07 433.22,-135.05 438.67,-130.66"/>
<text text-anchor="middle" x="464.38" y="-474.95" font-family="Times,serif" font-size="14.00">8</text>
</g>
<!-- 8&#45;&gt;2 -->
<g id="edge14" class="edge">
<title>8&#45;&gt;2</title>
<path fill="none" stroke="black" d="M348.27,-212.75C358.5,-229.61 372,-256.74 372,-282.5 372,-658 372,-658 372,-658 372,-678.33 365.99,-700.47 360.12,-717.26"/>
<polygon fill="black" stroke="black" points="356.88,-715.93 356.68,-726.52 363.44,-718.37 356.88,-715.93"/>
<text text-anchor="middle" x="378.75" y="-474.95" font-family="Times,serif" font-size="14.00">15</text>
</g>
<!-- 8&#45;&gt;11 -->
<g id="edge25" class="edge">
<title>8&#45;&gt;11</title>
<path fill="none" stroke="black" d="M351.3,-177.73C362.48,-165 378.22,-147.09 391,-132.54"/>
<polygon fill="black" stroke="black" points="393.54,-134.95 397.51,-125.13 388.28,-130.33 393.54,-134.95"/>
<text text-anchor="middle" x="385.18" y="-145.7" font-family="Times,serif" font-size="14.00">7</text>
</g>
<!-- 14 -->
<g id="node15" class="node">
<title>14</title>
<ellipse fill="none" stroke="black" cx="58" cy="-426" rx="42.65" ry="18"/>
<text text-anchor="middle" x="58" y="-420.95" font-family="Times,serif" font-size="14.00">EMPTY</text>
</g>
<!-- 9&#45;&gt;14 -->
<g id="edge27" class="edge">
<title>9&#45;&gt;14</title>
<path fill="none" stroke="black" d="M86.08,-550.27C80.7,-526.68 70.98,-484 64.51,-455.58"/>
<polygon fill="black" stroke="black" points="67.93,-454.82 62.29,-445.84 61.1,-456.37 67.93,-454.82"/>
<text text-anchor="middle" x="85.28" y="-519.2" font-family="Times,serif" font-size="14.00">7</text>
</g>
<!-- 10 -->
<g id="node11" class="node">
<title>10</title>
<ellipse fill="none" stroke="black" cx="285" cy="-106.5" rx="63.12" ry="18"/>
<text text-anchor="middle" x="285" y="-101.45" font-family="Times,serif" font-size="14.00">SET STATUS</text>
</g>
<!-- 10&#45;&gt;1 -->
<g id="edge17" class="edge">
<title>10&#45;&gt;1</title>
<path fill="none" stroke="black" d="M267.45,-88.82C253.16,-75.24 232.86,-55.94 217.22,-41.07"/>
<polygon fill="black" stroke="black" points="219.83,-38.73 210.17,-34.38 215.01,-43.8 219.83,-38.73"/>
<text text-anchor="middle" x="251.03" y="-57.2" font-family="Times,serif" font-size="14.00">3</text>
</g>
<!-- 11&#45;&gt;1 -->
<g id="edge19" class="edge">
<title>11&#45;&gt;1</title>
<path fill="none" stroke="black" d="M381.62,-93.11C340.69,-76.94 269.37,-48.77 227.45,-32.21"/>
<polygon fill="black" stroke="black" points="228.95,-29.04 218.36,-28.62 226.38,-35.55 228.95,-29.04"/>
<text text-anchor="middle" x="329.87" y="-57.2" font-family="Times,serif" font-size="14.00">50</text>
</g>
<!-- 12&#45;&gt;1 -->
<g id="edge29" class="edge">
<title>12&#45;&gt;1</title>
<path fill="none" stroke="black" d="M222.19,-353.8C217.76,-339.87 211.93,-319.65 209,-301.5 194.19,-209.67 193.08,-99.1 193.51,-47.78"/>
<polygon fill="black" stroke="black" points="197.01,-47.89 193.62,-37.85 190.01,-47.81 197.01,-47.89"/>
<text text-anchor="middle" x="202.18" y="-189.95" font-family="Times,serif" font-size="14.00">2</text>
</g>
<!-- 13 -->
<g id="node14" class="node">
<title>13</title>
<ellipse fill="none" stroke="black" cx="262" cy="-283.5" rx="43.67" ry="18"/>
<text text-anchor="middle" x="262" y="-278.45" font-family="Times,serif" font-size="14.00">REJECT</text>
</g>
<!-- 12&#45;&gt;13 -->
<g id="edge23" class="edge">
<title>12&#45;&gt;13</title>
<path fill="none" stroke="black" d="M234.72,-353.91C239.42,-341.94 245.81,-325.7 251.22,-311.93"/>
<polygon fill="black" stroke="black" points="254.34,-313.55 254.74,-302.96 247.83,-310.99 254.34,-313.55"/>
<text text-anchor="middle" x="251.42" y="-322.7" font-family="Times,serif" font-size="14.00">7</text>
</g>
<!-- 13&#45;&gt;8 -->
<g id="edge24" class="edge">
<title>13&#45;&gt;8</title>
<path fill="none" stroke="black" d="M276.11,-266.23C287.14,-253.5 302.67,-235.59 315.29,-221.04"/>
<polygon fill="black" stroke="black" points="317.8,-223.48 321.71,-213.63 312.51,-218.9 317.8,-223.48"/>
<text text-anchor="middle" x="309.59" y="-234.2" font-family="Times,serif" font-size="14.00">5</text>
</g>
<!-- 14&#45;&gt;1 -->
<g id="edge28" class="edge">
<title>14&#45;&gt;1</title>
<path fill="none" stroke="black" d="M58,-407.61C58,-388.34 58,-356.32 58,-328.75 58,-328.75 58,-328.75 58,-105.5 58,-58.54 116.45,-35.97 156.71,-26"/>
<polygon fill="black" stroke="black" points="157.34,-29.45 166.3,-23.8 155.77,-22.63 157.34,-29.45"/>
<text text-anchor="middle" x="61.38" y="-234.2" font-family="Times,serif" font-size="14.00">7</text>
</g>
</g>
</svg>
