<?xml version="1.0" encoding="UTF-8" standalone="no"?>
<!DOCTYPE svg PUBLIC "-//W3C//DTD SVG 1.1//EN"
 "http://www.w3.org/Graphics/SVG/1.1/DTD/svg11.dtd">
<!-- Generated by graphviz version 12.2.1 (20241206.2353)
 -->
<!-- Pages: 1 -->
<svg width="1759pt" height="1215pt"
 viewBox="0.00 0.00 1759.00 1214.50" xmlns="http://www.w3.org/2000/svg" xmlns:xlink="http://www.w3.org/1999/xlink">
<g id="graph0" class="graph" transform="scale(1 1) rotate(0) translate(4 1210.5)">
<polygon fill="white" stroke="none" points="-4,4 -4,-1210.5 1755,-1210.5 1755,4 -4,4"/>
<g id="clust1" class="cluster">
<title>cluster_legend</title>
<polygon fill="none" stroke="#bdbdbd" stroke-dasharray="5,2" points="548,-1054 548,-1198.5 856,-1198.5 856,-1054 548,-1054"/>
</g>
<!-- 0 -->
<g id="node1" class="node">
<title>0</title>
<ellipse fill="none" stroke="black" cx="1107" cy="-372" rx="93.83" ry="18"/>
<text text-anchor="middle" x="1107" y="-366.95" font-family="Times,serif" font-size="14.00">Cancel Goods Receipt</text>
</g>
<!-- 23 -->
<g id="node24" class="node">
<title>23</title>
<ellipse fill="none" stroke="black" cx="441" cy="-18" rx="27" ry="18"/>
<text text-anchor="middle" x="441" y="-12.95" font-family="Times,serif" font-size="14.00">■</text>
</g>
<!-- 0&#45;&gt;23 -->
<g id="edge53" class="edge">
<title>0&#45;&gt;23</title>
<path fill="none" stroke="#ffb300" stroke-width="2.5" stroke-dasharray="5,2" d="M1098.63,-353.89C1091.03,-336.76 1081,-309.43 1081,-284.5 1081,-284.5 1081,-284.5 1081,-105.5 1081,-71.03 1054.84,-67.2 1023,-54 973.36,-33.42 605.65,-22.9 481.67,-19.91"/>
<polygon fill="#ffb300" stroke="#ffb300" stroke-width="2.5" points="481.99,-16.42 471.91,-19.68 481.83,-23.42 481.99,-16.42"/>
<text text-anchor="start" x="1081" y="-189.95" font-family="Times,serif" font-size="14.00" fill="#0c8599">&#45;100%</text>
</g>
<!-- 1 -->
<g id="node2" class="node">
<title>1</title>
<ellipse fill="none" stroke="black" cx="440" cy="-1126.25" rx="97.41" ry="18"/>
<text text-anchor="middle" x="440" y="-1121.2" font-family="Times,serif" font-size="14.00">Cancel Invoice Receipt</text>
</g>
<!-- 6 -->
<g id="node7" class="node">
<title>6</title>
<ellipse fill="none" stroke="black" cx="295" cy="-991.5" rx="61.08" ry="18"/>
<text text-anchor="middle" x="295" y="-986.45" font-family="Times,serif" font-size="14.00">Clear Invoice</text>
</g>
<!-- 1&#45;&gt;6 -->
<g id="edge29" class="edge">
<title>1&#45;&gt;6</title>
<path fill="none" stroke="#9e9e9e" d="M421.34,-1108.17C395.97,-1084.94 350.45,-1043.26 321.53,-1016.79"/>
<polygon fill="#9e9e9e" stroke="#9e9e9e" points="323.99,-1014.29 314.25,-1010.12 319.26,-1019.46 323.99,-1014.29"/>
<text text-anchor="start" x="350.25" y="-1030.7" font-family="Times,serif" font-size="14.00" fill="#0c8599">&#45;62%</text>
</g>
<!-- 12 -->
<g id="node13" class="node">
<title>12</title>
<ellipse fill="none" stroke="black" cx="421" cy="-903" rx="98.44" ry="18"/>
<text text-anchor="middle" x="421" y="-897.95" font-family="Times,serif" font-size="14.00">Record Invoice Receipt</text>
</g>
<!-- 1&#45;&gt;12 -->
<g id="edge68" class="edge">
<title>1&#45;&gt;12</title>
<path fill="none" stroke="#e53935" stroke-width="2.5" stroke-dasharray="5,2" d="M438.51,-1107.89C435.3,-1070.49 427.69,-981.89 423.64,-934.74"/>
<polygon fill="#e53935" stroke="#e53935" stroke-width="2.5" points="427.15,-934.71 422.81,-925.05 420.18,-935.31 427.15,-934.71"/>
<text text-anchor="start" x="429.87" y="-986.45" font-family="Times,serif" font-size="14.00" fill="#555555">—</text>
</g>
<!-- 1&#45;&gt;23 -->
<g id="edge25" class="edge">
<title>1&#45;&gt;23</title>
<path fill="none" stroke="#9e9e9e" d="M458.18,-1108.08C477.69,-1090.88 510.42,-1065.37 544,-1054 606.02,-1033 1721,-1057.98 1721,-992.5 1721,-992.5 1721,-992.5 1721,-105.5 1721,-41.63 693.07,-22.77 479.55,-19.54"/>
<polygon fill="#9e9e9e" stroke="#9e9e9e" points="479.89,-16.04 469.84,-19.39 479.79,-23.04 479.89,-16.04"/>
<text text-anchor="start" x="1721" y="-543.95" font-family="Times,serif" font-size="14.00" fill="#0c8599">&#45;70%</text>
</g>
<!-- 2 -->
<g id="node3" class="node">
<title>2</title>
<ellipse fill="none" stroke="black" cx="756" cy="-195" rx="149.11" ry="18"/>
<text text-anchor="middle" x="756" y="-189.95" font-family="Times,serif" font-size="14.00">Change Approval for Purchase Order</text>
</g>
<!-- 10 -->
<g id="node11" class="node">
<title>10</title>
<ellipse fill="none" stroke="black" cx="586" cy="-106.5" rx="117.37" ry="18"/>
<text text-anchor="middle" x="586" y="-101.45" font-family="Times,serif" font-size="14.00">Receive Order Confirmation</text>
</g>
<!-- 2&#45;&gt;10 -->
<g id="edge71" class="edge">
<title>2&#45;&gt;10</title>
<path fill="none" stroke="#e53935" stroke-width="2.5" stroke-dasharray="5,2" d="M722.82,-177.12C696.64,-163.8 659.86,-145.08 631.03,-130.41"/>
<polygon fill="#e53935" stroke="#e53935" stroke-width="2.5" points="632.68,-127.33 622.18,-125.91 629.51,-133.56 632.68,-127.33"/>
<text text-anchor="start" x="686.23" y="-145.7" font-family="Times,serif" font-size="14.00" fill="#555555">—</text>
</g>
<!-- 2&#45;&gt;23 -->
<g id="edge60" class="edge">
<title>2&#45;&gt;23</title>
<path fill="none" stroke="#ffb300" stroke-width="2.5" stroke-dasharray="5,2" d="M753.6,-176.63C749.43,-153.12 738.56,-111.49 712,-88.5 646.31,-31.66 540.14,-20.32 482.11,-18.64"/>
<polygon fill="#ffb300" stroke="#ffb300" stroke-width="2.5" points="482.29,-15.15 472.23,-18.47 482.17,-22.15 482.29,-15.15"/>
<text text-anchor="start" x="737.73" y="-101.45" font-family="Times,serif" font-size="14.00" fill="#0c8599">&#45;100%</text>
</g>
<!-- 3 -->
<g id="node4" class="node">
<title>3</title>
<ellipse fill="none" stroke="black" cx="1329" cy="-372" rx="109.7" ry="18"/>
<text text-anchor="middle" x="1329" y="-366.95" font-family="Times,serif" font-size="14.00">Change Delivery Indicator</text>
</g>
<!-- 3&#45;&gt;23 -->
<g id="edge31" class="edge">
<title>3&#45;&gt;23</title>
<path fill="none" stroke="#9e9e9e" d="M1301.87,-354.34C1280.75,-339.07 1255,-314.34 1255,-284.5 1255,-284.5 1255,-284.5 1255,-105.5 1255,-26.47 640.47,-19.47 479.31,-19"/>
<polygon fill="#9e9e9e" stroke="#9e9e9e" points="479.6,-15.5 469.6,-18.97 479.59,-22.5 479.6,-15.5"/>
<text text-anchor="start" x="1255" y="-189.95" font-family="Times,serif" font-size="14.00" fill="#555555">0%</text>
</g>
<!-- 4 -->
<g id="node5" class="node">
<title>4</title>
<ellipse fill="none" stroke="black" cx="502" cy="-814.5" rx="60.56" ry="18"/>
<text text-anchor="middle" x="502" y="-809.45" font-family="Times,serif" font-size="14.00">Change Price</text>
</g>
<!-- 11 -->
<g id="node12" class="node">
<title>11</title>
<ellipse fill="none" stroke="black" cx="421" cy="-726" rx="94.86" ry="18"/>
<text text-anchor="middle" x="421" y="-720.95" font-family="Times,serif" font-size="14.00">Record Goods Receipt</text>
</g>
<!-- 4&#45;&gt;11 -->
<g id="edge28" class="edge">
<title>4&#45;&gt;11</title>
<path fill="none" stroke="#9e9e9e" d="M486.38,-796.82C474.55,-784.18 458.08,-766.6 444.63,-752.24"/>
<polygon fill="#9e9e9e" stroke="#9e9e9e" points="447.55,-750.23 438.16,-745.32 442.44,-755.02 447.55,-750.23"/>
<text text-anchor="start" x="468.76" y="-765.2" font-family="Times,serif" font-size="14.00" fill="#e8590c">+40%</text>
</g>
<!-- 14 -->
<g id="node15" class="node">
<title>14</title>
<ellipse fill="none" stroke="black" cx="130" cy="-637.5" rx="102.02" ry="18"/>
<text text-anchor="middle" x="130" y="-632.45" font-family="Times,serif" font-size="14.00">Remove Payment Block</text>
</g>
<!-- 4&#45;&gt;14 -->
<g id="edge15" class="edge">
<title>4&#45;&gt;14</title>
<path fill="none" stroke="#9e9e9e" d="M457.31,-802C431.7,-795.33 398.99,-786.65 370,-778.5 318.22,-763.94 301.28,-769.65 254,-744 233.08,-732.65 186.04,-690.59 156.28,-663.13"/>
<polygon fill="#9e9e9e" stroke="#9e9e9e" points="158.84,-660.73 149.13,-656.5 154.08,-665.86 158.84,-660.73"/>
<text text-anchor="start" x="254" y="-720.95" font-family="Times,serif" font-size="14.00" fill="#0c8599">&#45;79%</text>
</g>
<!-- 22 -->
<g id="node23" class="node">
<title>22</title>
<ellipse fill="none" stroke="black" cx="768" cy="-549" rx="95.37" ry="18"/>
<text text-anchor="middle" x="768" y="-543.95" font-family="Times,serif" font-size="14.00">Vendor creates invoice</text>
</g>
<!-- 4&#45;&gt;22 -->
<g id="edge34" class="edge">
<title>4&#45;&gt;22</title>
<path fill="none" stroke="#9e9e9e" d="M553.5,-804.6C626.53,-788.91 757.65,-748.68 815,-655.5 830.89,-629.68 811.62,-597.57 793.18,-575.6"/>
<polygon fill="#9e9e9e" stroke="#9e9e9e" points="795.95,-573.44 786.7,-568.27 790.7,-578.08 795.95,-573.44"/>
<text text-anchor="start" x="800.56" y="-676.7" font-family="Times,serif" font-size="14.00" fill="#e8590c">+567%</text>
</g>
<!-- 4&#45;&gt;23 -->
<g id="edge48" class="edge">
<title>4&#45;&gt;23</title>
<path fill="none" stroke="#9e9e9e" d="M462.13,-800.6C410.91,-783.71 327.36,-754.98 317,-744 297.44,-723.26 298,-711.25 298,-682.75 298,-682.75 298,-682.75 298,-503.75 298,-425.72 284,-406.78 284,-328.75 284,-328.75 284,-328.75 284,-105.5 284,-51.28 356.73,-30.79 403.18,-23.24"/>
<polygon fill="#9e9e9e" stroke="#9e9e9e" points="403.49,-26.73 412.87,-21.81 402.47,-19.81 403.49,-26.73"/>
<text text-anchor="start" x="292.16" y="-411.2" font-family="Times,serif" font-size="14.00" fill="#e8590c">+8%</text>
</g>
<!-- 5 -->
<g id="node6" class="node">
<title>5</title>
<ellipse fill="none" stroke="black" cx="616" cy="-372" rx="73.87" ry="18"/>
<text text-anchor="middle" x="616" y="-366.95" font-family="Times,serif" font-size="14.00">Change Quantity</text>
</g>
<!-- 9 -->
<g id="node10" class="node">
<title>9</title>
<ellipse fill="none" stroke="black" cx="549" cy="-283.5" rx="114.82" ry="18"/>
<text text-anchor="middle" x="549" y="-278.45" font-family="Times,serif" font-size="14.00">Delete Purchase Order Item</text>
</g>
<!-- 5&#45;&gt;9 -->
<g id="edge58" class="edge">
<title>5&#45;&gt;9</title>
<path fill="none" stroke="#ffb300" stroke-width="2.5" stroke-dasharray="5,2" d="M579.66,-356.01C571.1,-350.86 562.85,-344.25 557.25,-336 553.1,-329.88 550.76,-322.43 549.49,-315.11"/>
<polygon fill="#ffb300" stroke="#ffb300" stroke-width="2.5" points="553,-314.99 548.56,-305.37 546.03,-315.66 553,-314.99"/>
<text text-anchor="start" x="557.25" y="-322.7" font-family="Times,serif" font-size="14.00" fill="#0c8599">&#45;100%</text>
</g>
<!-- 5&#45;&gt;11 -->
<g id="edge19" class="edge">
<title>5&#45;&gt;11</title>
<path fill="none" stroke="#9e9e9e" d="M601.04,-389.96C568.03,-428.23 488.35,-525.31 444,-619.5 432.41,-644.11 426.57,-674.72 423.68,-696.62"/>
<polygon fill="#9e9e9e" stroke="#9e9e9e" points="420.24,-695.96 422.54,-706.3 427.19,-696.78 420.24,-695.96"/>
<text text-anchor="start" x="494.22" y="-543.95" font-family="Times,serif" font-size="14.00" fill="#e8590c">+11%</text>
</g>
<!-- 5&#45;&gt;22 -->
<g id="edge23" class="edge">
<title>5&#45;&gt;22</title>
<path fill="none" stroke="#9e9e9e" d="M630.69,-389.91C657.42,-420.69 714.18,-486.04 745.71,-522.34"/>
<polygon fill="#9e9e9e" stroke="#9e9e9e" points="742.96,-524.5 752.16,-529.76 748.24,-519.91 742.96,-524.5"/>
<text text-anchor="start" x="707.11" y="-455.45" font-family="Times,serif" font-size="14.00" fill="#e8590c">+194%</text>
</g>
<!-- 5&#45;&gt;23 -->
<g id="edge47" class="edge">
<title>5&#45;&gt;23</title>
<path fill="none" stroke="#9e9e9e" d="M548.56,-364.31C475.12,-352.87 368,-322.14 368,-240.25 368,-240.25 368,-240.25 368,-105.5 368,-76.83 391.71,-52.74 412.1,-37.33"/>
<polygon fill="#9e9e9e" stroke="#9e9e9e" points="414.1,-40.21 420.21,-31.55 410.03,-34.51 414.1,-40.21"/>
<text text-anchor="start" x="368" y="-189.95" font-family="Times,serif" font-size="14.00" fill="#0c8599">&#45;33%</text>
</g>
<!-- 6&#45;&gt;6 -->
<g id="edge14" class="edge">
<title>6&#45;&gt;6</title>
<path fill="none" stroke="#9e9e9e" d="M350.06,-999.68C363.8,-999.11 374.08,-996.38 374.08,-991.5 374.08,-988.1 369.11,-985.75 361.46,-984.44"/>
<polygon fill="#9e9e9e" stroke="#9e9e9e" points="361.86,-980.96 351.57,-983.47 361.18,-987.93 361.86,-980.96"/>
<text text-anchor="start" x="374.08" y="-986.45" font-family="Times,serif" font-size="14.00" fill="#0c8599">&#45;67%</text>
</g>
<!-- 6&#45;&gt;12 -->
<g id="edge27" class="edge">
<title>6&#45;&gt;12</title>
<path fill="none" stroke="#9e9e9e" d="M297.09,-973.1C299.28,-961.98 303.79,-948 313,-939 320.98,-931.2 330.72,-925.14 341.04,-920.43"/>
<polygon fill="#9e9e9e" stroke="#9e9e9e" points="342.17,-923.74 350.11,-916.72 339.53,-917.26 342.17,-923.74"/>
<text text-anchor="start" x="313" y="-942.2" font-family="Times,serif" font-size="14.00" fill="#0c8599">&#45;62%</text>
</g>
<!-- 6&#45;&gt;23 -->
<g id="edge3" class="edge">
<title>6&#45;&gt;23</title>
<path fill="none" stroke="#9e9e9e" d="M237.07,-985.36C151.16,-976.12 0,-952.9 0,-904 0,-904 0,-904 0,-105.5 0,-23.81 295.06,-17.89 402.48,-18.43"/>
<polygon fill="#9e9e9e" stroke="#9e9e9e" points="402.21,-21.93 412.23,-18.51 402.26,-14.93 402.21,-21.93"/>
<text text-anchor="start" x="0" y="-499.7" font-family="Times,serif" font-size="14.00" fill="#0c8599">&#45;81%</text>
</g>
<!-- 7 -->
<g id="node8" class="node">
<title>7</title>
<ellipse fill="none" stroke="black" cx="966" cy="-460.5" rx="114.82" ry="18"/>
<text text-anchor="middle" x="966" y="-455.45" font-family="Times,serif" font-size="14.00">Create Purchase Order Item</text>
</g>
<!-- 7&#45;&gt;0 -->
<g id="edge32" class="edge">
<title>7&#45;&gt;0</title>
<path fill="none" stroke="#9e9e9e" d="M993.52,-442.62C1015.5,-429.13 1046.49,-410.12 1070.53,-395.38"/>
<polygon fill="#9e9e9e" stroke="#9e9e9e" points="1072.04,-398.55 1078.74,-390.34 1068.38,-392.58 1072.04,-398.55"/>
<text text-anchor="start" x="1049.13" y="-411.2" font-family="Times,serif" font-size="14.00" fill="#0c8599">&#45;67%</text>
</g>
<!-- 7&#45;&gt;2 -->
<g id="edge70" class="edge">
<title>7&#45;&gt;2</title>
<path fill="none" stroke="#e53935" stroke-width="2.5" stroke-dasharray="5,2" d="M947.72,-442.26C942.58,-436.87 937.25,-430.7 933,-424.5 903.81,-381.85 913.11,-361.51 883,-319.5 855.79,-281.54 816.18,-245.17 788.45,-221.85"/>
<polygon fill="#e53935" stroke="#e53935" stroke-width="2.5" points="790.95,-219.37 781.01,-215.69 786.48,-224.76 790.95,-219.37"/>
<text text-anchor="start" x="893.45" y="-322.7" font-family="Times,serif" font-size="14.00" fill="#555555">—</text>
</g>
<!-- 7&#45;&gt;3 -->
<g id="edge69" class="edge">
<title>7&#45;&gt;3</title>
<path fill="none" stroke="#e53935" stroke-width="2.5" stroke-dasharray="5,2" d="M1027.17,-444.92C1090.15,-429.92 1188.32,-406.52 1255.49,-390.52"/>
<polygon fill="#e53935" stroke="#e53935" stroke-width="2.5" points="1255.89,-394.02 1264.81,-388.3 1254.27,-387.21 1255.89,-394.02"/>
<text text-anchor="start" x="1180.01" y="-411.2" font-family="Times,serif" font-size="14.00" fill="#555555">—</text>
</g>
<!-- 7&#45;&gt;4 -->
<g id="edge37" class="edge">
<title>7&#45;&gt;4</title>
<path fill="none" stroke="#9e9e9e" d="M967.64,-478.83C969.5,-506.27 970.11,-560.78 951,-601.5 927.69,-651.15 909.2,-657.53 865,-690 773.85,-756.95 643.81,-789.43 566.64,-803.71"/>
<polygon fill="#9e9e9e" stroke="#9e9e9e" points="566.36,-800.2 557.14,-805.42 567.6,-807.09 566.36,-800.2"/>
<text text-anchor="start" x="941.33" y="-632.45" font-family="Times,serif" font-size="14.00" fill="#e8590c">+48%</text>
</g>
<!-- 7&#45;&gt;5 -->
<g id="edge36" class="edge">
<title>7&#45;&gt;5</title>
<path fill="none" stroke="#9e9e9e" d="M897.28,-445.76C867.91,-439.64 833.31,-432.11 802.25,-424.5 758.54,-413.8 709.51,-400.17 672.73,-389.63"/>
<polygon fill="#9e9e9e" stroke="#9e9e9e" points="673.76,-386.28 663.18,-386.88 671.82,-393.01 673.76,-386.28"/>
<text text-anchor="start" x="802.25" y="-411.2" font-family="Times,serif" font-size="14.00" fill="#e8590c">+94%</text>
</g>
<!-- 7&#45;&gt;9 -->
<g id="edge30" class="edge">
<title>7&#45;&gt;9</title>
<path fill="none" stroke="#9e9e9e" d="M930.07,-443.08C870.87,-416.2 748.95,-361.61 644,-319.5 631.26,-314.39 617.44,-309.13 604.4,-304.3"/>
<polygon fill="#9e9e9e" stroke="#9e9e9e" points="605.68,-301.05 595.09,-300.88 603.26,-307.62 605.68,-301.05"/>
<text text-anchor="start" x="810.69" y="-366.95" font-family="Times,serif" font-size="14.00" fill="#e8590c">+68%</text>
</g>
<!-- 7&#45;&gt;10 -->
<g id="edge39" class="edge">
<title>7&#45;&gt;10</title>
<path fill="none" stroke="#9e9e9e" d="M965.59,-442.22C963.97,-377.6 957.59,-153.25 947,-142.5 928.31,-123.53 734.48,-127.34 708,-124.5 698.75,-123.51 689.13,-122.36 679.52,-121.15"/>
<polygon fill="#9e9e9e" stroke="#9e9e9e" points="680.14,-117.7 669.77,-119.88 679.24,-124.64 680.14,-117.7"/>
<text text-anchor="start" x="960.91" y="-278.45" font-family="Times,serif" font-size="14.00" fill="#e8590c">+45%</text>
</g>
<!-- 7&#45;&gt;11 -->
<g id="edge9" class="edge">
<title>7&#45;&gt;11</title>
<path fill="none" stroke="#9e9e9e" d="M958.1,-478.63C934.48,-529.49 864.81,-676.93 845,-690 818.93,-707.19 642.26,-716.95 525.35,-721.58"/>
<polygon fill="#9e9e9e" stroke="#9e9e9e" points="525.25,-718.09 515.39,-721.97 525.52,-725.08 525.25,-718.09"/>
<text text-anchor="start" x="906.89" y="-588.2" font-family="Times,serif" font-size="14.00" fill="#e8590c">+354%</text>
</g>
<!-- 7&#45;&gt;12 -->
<g id="edge35" class="edge">
<title>7&#45;&gt;12</title>
<path fill="none" stroke="#9e9e9e" d="M979.97,-478.77C1007.26,-514.29 1065,-599.1 1065,-680.75 1065,-815.5 1065,-815.5 1065,-815.5 1065,-868.99 711.55,-890.7 528.34,-898.36"/>
<polygon fill="#9e9e9e" stroke="#9e9e9e" points="528.43,-894.85 518.58,-898.76 528.71,-901.85 528.43,-894.85"/>
<text text-anchor="start" x="1065" y="-676.7" font-family="Times,serif" font-size="14.00" fill="#e8590c">+100%</text>
</g>
<!-- 7&#45;&gt;22 -->
<g id="edge10" class="edge">
<title>7&#45;&gt;22</title>
<path fill="none" stroke="#9e9e9e" d="M907.63,-476.34C890.41,-481.68 871.82,-488.42 855.5,-496.5 844.06,-502.16 842.84,-506.26 832,-513 824.9,-517.41 817.21,-521.88 809.7,-526.07"/>
<polygon fill="#9e9e9e" stroke="#9e9e9e" points="808.06,-522.98 800.98,-530.87 811.43,-529.12 808.06,-522.98"/>
<text text-anchor="start" x="855.5" y="-499.7" font-family="Times,serif" font-size="14.00" fill="#e8590c">+286%</text>
</g>
<!-- 7&#45;&gt;23 -->
<g id="edge43" class="edge">
<title>7&#45;&gt;23</title>
<path fill="none" stroke="#9e9e9e" d="M971.8,-442.11C983.54,-405.31 1009,-316.67 1009,-240.25 1009,-240.25 1009,-240.25 1009,-105.5 1009,-51.81 607.23,-27.25 479.5,-20.79"/>
<polygon fill="#9e9e9e" stroke="#9e9e9e" points="479.69,-17.3 469.53,-20.3 479.34,-24.29 479.69,-17.3"/>
<text text-anchor="start" x="1009" y="-234.2" font-family="Times,serif" font-size="14.00" fill="#0c8599">&#45;79%</text>
</g>
<!-- 8 -->
<g id="node9" class="node">
<title>8</title>
<ellipse fill="none" stroke="black" cx="1295" cy="-637.5" rx="135.8" ry="18"/>
<text text-anchor="middle" x="1295" y="-632.45" font-family="Times,serif" font-size="14.00">Create Purchase Requisition Item</text>
</g>
<!-- 8&#45;&gt;7 -->
<g id="edge46" class="edge">
<title>8&#45;&gt;7</title>
<path fill="none" stroke="#9e9e9e" d="M1232.19,-621.17C1197.75,-610.37 1155.94,-593.09 1125.25,-567 1097.24,-543.19 1111.11,-518.94 1082,-496.5 1072.37,-489.08 1061.17,-483.22 1049.61,-478.6"/>
<polygon fill="#9e9e9e" stroke="#9e9e9e" points="1050.94,-475.36 1040.35,-475.22 1048.54,-481.94 1050.94,-475.36"/>
<text text-anchor="start" x="1125.25" y="-543.95" font-family="Times,serif" font-size="14.00" fill="#e8590c">+66%</text>
</g>
<!-- 13 -->
<g id="node14" class="node">
<title>13</title>
<ellipse fill="none" stroke="black" cx="1288" cy="-549" rx="120.45" ry="18"/>
<text text-anchor="middle" x="1288" y="-543.95" font-family="Times,serif" font-size="14.00">Release Purchase Requisition</text>
</g>
<!-- 8&#45;&gt;13 -->
<g id="edge51" class="edge">
<title>8&#45;&gt;13</title>
<path fill="none" stroke="#9e9e9e" d="M1293.62,-619.41C1292.67,-607.76 1291.4,-592.05 1290.31,-578.52"/>
<polygon fill="#9e9e9e" stroke="#9e9e9e" points="1293.82,-578.54 1289.53,-568.86 1286.84,-579.11 1293.82,-578.54"/>
<text text-anchor="start" x="1292.13" y="-588.2" font-family="Times,serif" font-size="14.00" fill="#0c8599">&#45;71%</text>
</g>
<!-- 9&#45;&gt;2 -->
<g id="edge59" class="edge">
<title>9&#45;&gt;2</title>
<path fill="none" stroke="#ffb300" stroke-width="2.5" stroke-dasharray="5,2" d="M565.77,-265.3C577.74,-253.98 594.75,-239.69 612.25,-231 626.45,-223.95 642.15,-218.26 657.82,-213.69"/>
<polygon fill="#ffb300" stroke="#ffb300" stroke-width="2.5" points="658.56,-217.12 667.28,-211.11 656.71,-210.36 658.56,-217.12"/>
<text text-anchor="start" x="612.25" y="-234.2" font-family="Times,serif" font-size="14.00" fill="#0c8599">&#45;100%</text>
</g>
<!-- 9&#45;&gt;5 -->
<g id="edge61" class="edge">
<title>9&#45;&gt;5</title>
<path fill="none" stroke="#ffb300" stroke-width="2.5" stroke-dasharray="5,2" d="M575.3,-301.39C582.02,-306.6 588.8,-312.76 594,-319.5 598.9,-325.85 602.92,-333.46 606.13,-340.85"/>
<polygon fill="#ffb300" stroke="#ffb300" stroke-width="2.5" points="602.82,-342 609.67,-350.08 609.36,-339.49 602.82,-342"/>
<text text-anchor="start" x="603.51" y="-322.7" font-family="Times,serif" font-size="14.00" fill="#0c8599">&#45;100%</text>
</g>
<!-- 9&#45;&gt;23 -->
<g id="edge20" class="edge">
<title>9&#45;&gt;23</title>
<path fill="none" stroke="#9e9e9e" d="M533.99,-265.24C529.55,-259.75 524.85,-253.54 521,-247.5 488.2,-196.05 479.15,-182.44 460,-124.5 451.61,-99.12 446.65,-69.02 443.92,-47.47"/>
<polygon fill="#9e9e9e" stroke="#9e9e9e" points="447.41,-47.2 442.77,-37.68 440.46,-48.02 447.41,-47.2"/>
<text text-anchor="start" x="472.06" y="-145.7" font-family="Times,serif" font-size="14.00" fill="#0c8599">&#45;1%</text>
</g>
<!-- 10&#45;&gt;5 -->
<g id="edge44" class="edge">
<title>10&#45;&gt;5</title>
<path fill="none" stroke="#9e9e9e" d="M582.81,-124.92C579.68,-147.73 577.91,-187.76 598,-213 612.97,-231.81 629.88,-216.43 649,-231 663.86,-242.32 667.41,-247.68 673,-265.5 677.79,-280.77 678.39,-286.43 673,-301.5 666.94,-318.45 654.76,-334.24 643.21,-346.47"/>
<polygon fill="#9e9e9e" stroke="#9e9e9e" points="641.03,-343.7 636.47,-353.27 646,-348.64 641.03,-343.7"/>
<text text-anchor="start" x="665.55" y="-234.2" font-family="Times,serif" font-size="14.00" fill="#0c8599">&#45;67%</text>
</g>
<!-- 10&#45;&gt;9 -->
<g id="edge40" class="edge">
<title>10&#45;&gt;9</title>
<path fill="none" stroke="#9e9e9e" d="M564.18,-124.66C549.88,-137.37 532.44,-156.06 524.5,-177 514.75,-202.72 524.15,-233.5 533.99,-255.15"/>
<polygon fill="#9e9e9e" stroke="#9e9e9e" points="530.73,-256.46 538.26,-263.92 537.02,-253.39 530.73,-256.46"/>
<text text-anchor="start" x="524.5" y="-189.95" font-family="Times,serif" font-size="14.00" fill="#e8590c">+200%</text>
</g>
<!-- 10&#45;&gt;11 -->
<g id="edge42" class="edge">
<title>10&#45;&gt;11</title>
<path fill="none" stroke="#9e9e9e" d="M555.47,-124.25C546.85,-129.58 537.73,-135.84 530,-142.5 475.56,-189.43 458.31,-201.81 425,-265.5 383.69,-344.5 374,-370.35 374,-459.5 374,-638.5 374,-638.5 374,-638.5 374,-660.79 386.2,-682.81 398.16,-699.06"/>
<polygon fill="#9e9e9e" stroke="#9e9e9e" points="395.24,-701.01 404.16,-706.73 400.75,-696.69 395.24,-701.01"/>
<text text-anchor="start" x="375.6" y="-411.2" font-family="Times,serif" font-size="14.00" fill="#e8590c">+725%</text>
</g>
<!-- 10&#45;&gt;22 -->
<g id="edge41" class="edge">
<title>10&#45;&gt;22</title>
<path fill="none" stroke="#9e9e9e" d="M668.94,-119.57C760.94,-133.8 898.54,-157.92 914,-177 973.99,-251.04 834.88,-268.41 793,-354 766.61,-407.93 764.75,-479.89 766.12,-519.26"/>
<polygon fill="#9e9e9e" stroke="#9e9e9e" points="762.62,-519.27 766.57,-529.1 769.61,-518.95 762.62,-519.27"/>
<text text-anchor="start" x="816.95" y="-322.7" font-family="Times,serif" font-size="14.00" fill="#e8590c">+146%</text>
</g>
<!-- 10&#45;&gt;23 -->
<g id="edge50" class="edge">
<title>10&#45;&gt;23</title>
<path fill="none" stroke="#9e9e9e" d="M557.7,-88.62C532.49,-73.58 495.75,-51.66 470.26,-36.45"/>
<polygon fill="#9e9e9e" stroke="#9e9e9e" points="472.1,-33.48 461.72,-31.36 468.52,-39.49 472.1,-33.48"/>
<text text-anchor="start" x="526.49" y="-57.2" font-family="Times,serif" font-size="14.00" fill="#0c8599">&#45;94%</text>
</g>
<!-- 11&#45;&gt;11 -->
<g id="edge17" class="edge">
<title>11&#45;&gt;11</title>
<path fill="none" stroke="#9e9e9e" d="M507.11,-733.84C522.83,-732.85 533.86,-730.23 533.86,-726 533.86,-722.89 527.91,-720.65 518.52,-719.29"/>
<polygon fill="#9e9e9e" stroke="#9e9e9e" points="518.91,-715.81 508.62,-718.31 518.22,-722.78 518.91,-715.81"/>
<text text-anchor="start" x="533.86" y="-720.95" font-family="Times,serif" font-size="14.00" fill="#0c8599">&#45;37%</text>
</g>
<!-- 11&#45;&gt;12 -->
<g id="edge1" class="edge">
<title>11&#45;&gt;12</title>
<path fill="none" stroke="#9e9e9e" d="M411.31,-744.36C404.25,-758.05 395.29,-777.88 391.5,-796.5 388.31,-812.18 388.31,-816.82 391.5,-832.5 394.43,-846.91 400.46,-862.03 406.3,-874.47"/>
<polygon fill="#9e9e9e" stroke="#9e9e9e" points="403.08,-875.86 410.64,-883.28 409.36,-872.76 403.08,-875.86"/>
<text text-anchor="start" x="391.5" y="-809.45" font-family="Times,serif" font-size="14.00" fill="#e8590c">+204%</text>
</g>
<!-- 11&#45;&gt;14 -->
<g id="edge4" class="edge">
<title>11&#45;&gt;14</title>
<path fill="none" stroke="#9e9e9e" d="M365.26,-711.06C341.45,-704.9 313.4,-697.4 288.25,-690 254.18,-679.97 216.35,-667.71 186.22,-657.66"/>
<polygon fill="#9e9e9e" stroke="#9e9e9e" points="187.52,-654.4 176.93,-654.54 185.3,-661.04 187.52,-654.4"/>
<text text-anchor="start" x="288.25" y="-676.7" font-family="Times,serif" font-size="14.00" fill="#e8590c">+63%</text>
</g>
<!-- 21 -->
<g id="node22" class="node">
<title>21</title>
<ellipse fill="none" stroke="black" cx="693" cy="-637.5" rx="113.28" ry="18"/>
<text text-anchor="middle" x="693" y="-632.45" font-family="Times,serif" font-size="14.00">Vendor creates debit memo</text>
</g>
<!-- 11&#45;&gt;21 -->
<g id="edge57" class="edge">
<title>11&#45;&gt;21</title>
<path fill="none" stroke="#ffb300" stroke-width="2.5" stroke-dasharray="5,2" d="M472.98,-710.55C494.42,-704.43 519.47,-697.1 542,-690 573.02,-680.23 607.34,-668.59 635.42,-658.85"/>
<polygon fill="#ffb300" stroke="#ffb300" stroke-width="2.5" points="636.39,-662.22 644.68,-655.62 634.08,-655.61 636.39,-662.22"/>
<text text-anchor="start" x="592.04" y="-676.7" font-family="Times,serif" font-size="14.00" fill="#0c8599">&#45;100%</text>
</g>
<!-- 11&#45;&gt;22 -->
<g id="edge6" class="edge">
<title>11&#45;&gt;22</title>
<path fill="none" stroke="#9e9e9e" d="M425.76,-707.85C435.76,-675.72 462.44,-607.64 514,-585 541.57,-572.89 610.93,-563.81 670.22,-557.93"/>
<polygon fill="#9e9e9e" stroke="#9e9e9e" points="670.42,-561.43 680.03,-556.98 669.74,-554.46 670.42,-561.43"/>
<text text-anchor="start" x="469.82" y="-632.45" font-family="Times,serif" font-size="14.00" fill="#e8590c">+98%</text>
</g>
<!-- 11&#45;&gt;23 -->
<g id="edge24" class="edge">
<title>11&#45;&gt;23</title>
<path fill="none" stroke="#9e9e9e" d="M388.87,-708.74C364.79,-694.03 336,-669.87 336,-638.5 336,-638.5 336,-638.5 336,-503.75 336,-319.02 294.33,-263.33 354,-88.5 359.87,-71.29 362.68,-66.38 376,-54 385.25,-45.41 397.01,-38.24 407.97,-32.68"/>
<polygon fill="#9e9e9e" stroke="#9e9e9e" points="409.24,-35.96 416.77,-28.5 406.23,-29.64 409.24,-35.96"/>
<text text-anchor="start" x="330.81" y="-366.95" font-family="Times,serif" font-size="14.00" fill="#0c8599">&#45;76%</text>
</g>
<!-- 12&#45;&gt;4 -->
<g id="edge16" class="edge">
<title>12&#45;&gt;4</title>
<path fill="none" stroke="#9e9e9e" d="M437,-884.91C448.84,-872.27 465.15,-854.86 478.47,-840.63"/>
<polygon fill="#9e9e9e" stroke="#9e9e9e" points="480.99,-843.06 485.27,-833.36 475.88,-838.27 480.99,-843.06"/>
<text text-anchor="start" x="468.76" y="-853.7" font-family="Times,serif" font-size="14.00" fill="#0c8599">&#45;42%</text>
</g>
<!-- 12&#45;&gt;6 -->
<g id="edge2" class="edge">
<title>12&#45;&gt;6</title>
<path fill="none" stroke="#9e9e9e" d="M396.43,-920.87C376.85,-934.31 349.25,-953.26 327.78,-967.99"/>
<polygon fill="#9e9e9e" stroke="#9e9e9e" points="325.92,-965.03 319.65,-973.58 329.88,-970.8 325.92,-965.03"/>
<text text-anchor="start" x="369.29" y="-942.2" font-family="Times,serif" font-size="14.00" fill="#e8590c">+574%</text>
</g>
<!-- 12&#45;&gt;11 -->
<g id="edge11" class="edge">
<title>12&#45;&gt;11</title>
<path fill="none" stroke="#9e9e9e" d="M393.23,-885.48C375.66,-873.3 354.45,-854.98 344.5,-832.5 338.02,-817.87 338.02,-811.13 344.5,-796.5 352.82,-777.71 369,-761.82 384.35,-750"/>
<polygon fill="#9e9e9e" stroke="#9e9e9e" points="385.99,-753.14 392,-744.41 381.86,-747.48 385.99,-753.14"/>
<text text-anchor="start" x="344.5" y="-809.45" font-family="Times,serif" font-size="14.00" fill="#e8590c">+134%</text>
</g>
<!-- 12&#45;&gt;12 -->
<g id="edge33" class="edge">
<title>12&#45;&gt;12</title>
<path fill="none" stroke="#9e9e9e" d="M510.34,-910.81C526.29,-909.8 537.44,-907.19 537.44,-903 537.44,-899.89 531.3,-897.65 521.61,-896.29"/>
<polygon fill="#9e9e9e" stroke="#9e9e9e" points="522.14,-892.83 511.84,-895.34 521.46,-899.79 522.14,-892.83"/>
<text text-anchor="start" x="537.44" y="-897.95" font-family="Times,serif" font-size="14.00" fill="#555555">0%</text>
</g>
<!-- 12&#45;&gt;14 -->
<g id="edge12" class="edge">
<title>12&#45;&gt;14</title>
<path fill="none" stroke="#9e9e9e" d="M339.26,-892.59C301.17,-886.84 260.99,-878.38 246,-867 179.05,-816.19 147.74,-715.93 135.93,-666.88"/>
<polygon fill="#9e9e9e" stroke="#9e9e9e" points="139.38,-666.28 133.73,-657.32 132.56,-667.85 139.38,-666.28"/>
<text text-anchor="start" x="176" y="-765.2" font-family="Times,serif" font-size="14.00" fill="#e8590c">+81%</text>
</g>
<!-- 12&#45;&gt;22 -->
<g id="edge38" class="edge">
<title>12&#45;&gt;22</title>
<path fill="none" stroke="#9e9e9e" d="M519.75,-901.85C628.12,-900.32 794.25,-893.51 851,-867 870.51,-857.89 871.72,-849.44 885,-832.5 950.62,-748.82 1040,-715.38 994,-619.5 983.4,-597.41 973.25,-595.27 951,-585 923.92,-572.5 892.6,-564.46 863.61,-559.29"/>
<polygon fill="#9e9e9e" stroke="#9e9e9e" points="864.57,-555.9 854.12,-557.7 863.41,-562.81 864.57,-555.9"/>
<text text-anchor="start" x="996.28" y="-720.95" font-family="Times,serif" font-size="14.00" fill="#0c8599">&#45;64%</text>
</g>
<!-- 12&#45;&gt;23 -->
<g id="edge13" class="edge">
<title>12&#45;&gt;23</title>
<path fill="none" stroke="#9e9e9e" d="M346.63,-890.88C304.44,-879.89 260,-858.18 260,-815.5 260,-815.5 260,-815.5 260,-680.75 260,-563.3 240,-534.7 240,-417.25 240,-417.25 240,-417.25 240,-105.5 240,-35.48 344.18,-21.45 402.53,-19.08"/>
<polygon fill="#9e9e9e" stroke="#9e9e9e" points="402.49,-22.58 412.38,-18.79 402.28,-15.58 402.49,-22.58"/>
<text text-anchor="start" x="242.08" y="-455.45" font-family="Times,serif" font-size="14.00" fill="#0c8599">&#45;90%</text>
</g>
<!-- 13&#45;&gt;7 -->
<g id="edge52" class="edge">
<title>13&#45;&gt;7</title>
<path fill="none" stroke="#9e9e9e" d="M1242.45,-531.88C1210.85,-521.04 1167.67,-506.89 1129,-496.5 1102.71,-489.44 1073.73,-482.84 1047.59,-477.32"/>
<polygon fill="#9e9e9e" stroke="#9e9e9e" points="1048.56,-473.95 1038.06,-475.33 1047.13,-480.8 1048.56,-473.95"/>
<text text-anchor="start" x="1181.91" y="-499.7" font-family="Times,serif" font-size="14.00" fill="#e8590c">+33%</text>
</g>
<!-- 14&#45;&gt;6 -->
<g id="edge5" class="edge">
<title>14&#45;&gt;6</title>
<path fill="none" stroke="#9e9e9e" d="M114.43,-655.64C101.08,-672.15 84,-698.47 84,-725 84,-904 84,-904 84,-904 84,-965.4 161.45,-984.15 222.5,-989.4"/>
<polygon fill="#9e9e9e" stroke="#9e9e9e" points="221.95,-992.87 232.18,-990.11 222.46,-985.88 221.95,-992.87"/>
<text text-anchor="start" x="84" y="-809.45" font-family="Times,serif" font-size="14.00" fill="#e8590c">+144%</text>
</g>
<!-- 14&#45;&gt;23 -->
<g id="edge49" class="edge">
<title>14&#45;&gt;23</title>
<path fill="none" stroke="#9e9e9e" d="M140.48,-619.3C149.81,-602.32 162,-575.3 162,-550 162,-550 162,-550 162,-105.5 162,-68.99 192.66,-68.87 226,-54 283.74,-28.25 357.75,-21.21 402.16,-19.42"/>
<polygon fill="#9e9e9e" stroke="#9e9e9e" points="402.2,-22.92 412.08,-19.1 401.98,-15.92 402.2,-22.92"/>
<text text-anchor="start" x="162" y="-322.7" font-family="Times,serif" font-size="14.00" fill="#0c8599">&#45;97%</text>
</g>
<!-- 15 -->
<g id="node16" class="node">
<title>15</title>
<ellipse fill="none" stroke="black" cx="1567" cy="-460.5" rx="106.11" ry="18"/>
<text text-anchor="middle" x="1567" y="-455.45" font-family="Times,serif" font-size="14.00">SRM: Awaiting Approval</text>
</g>
<!-- 18 -->
<g id="node19" class="node">
<title>18</title>
<ellipse fill="none" stroke="black" cx="1575" cy="-372" rx="118.4" ry="18"/>
<text text-anchor="middle" x="1575" y="-366.95" font-family="Times,serif" font-size="14.00">SRM: Document Completed</text>
</g>
<!-- 15&#45;&gt;18 -->
<g id="edge65" class="edge">
<title>15&#45;&gt;18</title>
<path fill="none" stroke="#e53935" stroke-width="2.5" stroke-dasharray="5,2" d="M1568.58,-442.41C1569.59,-431.46 1570.94,-416.94 1572.13,-404"/>
<polygon fill="#e53935" stroke="#e53935" stroke-width="2.5" points="1575.61,-404.4 1573.05,-394.12 1568.64,-403.75 1575.61,-404.4"/>
<text text-anchor="start" x="1571.72" y="-411.2" font-family="Times,serif" font-size="14.00" fill="#555555">—</text>
</g>
<!-- 16 -->
<g id="node17" class="node">
<title>16</title>
<ellipse fill="none" stroke="black" cx="1562" cy="-549" rx="72.34" ry="18"/>
<text text-anchor="middle" x="1562" y="-543.95" font-family="Times,serif" font-size="14.00">SRM: Complete</text>
</g>
<!-- 16&#45;&gt;15 -->
<g id="edge64" class="edge">
<title>16&#45;&gt;15</title>
<path fill="none" stroke="#e53935" stroke-width="2.5" stroke-dasharray="5,2" d="M1562.99,-530.91C1563.62,-519.96 1564.46,-505.44 1565.21,-492.5"/>
<polygon fill="#e53935" stroke="#e53935" stroke-width="2.5" points="1568.7,-492.81 1565.78,-482.63 1561.71,-492.41 1568.7,-492.81"/>
<text text-anchor="start" x="1564.95" y="-499.7" font-family="Times,serif" font-size="14.00" fill="#555555">—</text>
</g>
<!-- 17 -->
<g id="node18" class="node">
<title>17</title>
<ellipse fill="none" stroke="black" cx="1555" cy="-637.5" rx="64.66" ry="18"/>
<text text-anchor="middle" x="1555" y="-632.45" font-family="Times,serif" font-size="14.00">SRM: Created</text>
</g>
<!-- 17&#45;&gt;16 -->
<g id="edge63" class="edge">
<title>17&#45;&gt;16</title>
<path fill="none" stroke="#e53935" stroke-width="2.5" stroke-dasharray="5,2" d="M1556.38,-619.41C1557.27,-608.46 1558.44,-593.94 1559.49,-581"/>
<polygon fill="#e53935" stroke="#e53935" stroke-width="2.5" points="1562.97,-581.37 1560.29,-571.12 1556,-580.81 1562.97,-581.37"/>
<text text-anchor="start" x="1559.13" y="-588.2" font-family="Times,serif" font-size="14.00" fill="#555555">—</text>
</g>
<!-- 19 -->
<g id="node20" class="node">
<title>19</title>
<ellipse fill="none" stroke="black" cx="1545" cy="-283.5" rx="147.57" ry="18"/>
<text text-anchor="middle" x="1545" y="-278.45" font-family="Times,serif" font-size="14.00">SRM: In Transfer to Execution Syst.</text>
</g>
<!-- 18&#45;&gt;19 -->
<g id="edge66" class="edge">
<title>18&#45;&gt;19</title>
<path fill="none" stroke="#e53935" stroke-width="2.5" stroke-dasharray="5,2" d="M1569.07,-353.91C1565.19,-342.73 1560.02,-327.81 1555.46,-314.67"/>
<polygon fill="#e53935" stroke="#e53935" stroke-width="2.5" points="1558.84,-313.73 1552.26,-305.43 1552.23,-316.02 1558.84,-313.73"/>
<text text-anchor="start" x="1562.69" y="-322.7" font-family="Times,serif" font-size="14.00" fill="#555555">—</text>
</g>
<!-- 20 -->
<g id="node21" class="node">
<title>20</title>
<ellipse fill="none" stroke="black" cx="1545" cy="-195" rx="66.19" ry="18"/>
<text text-anchor="middle" x="1545" y="-189.95" font-family="Times,serif" font-size="14.00">SRM: Ordered</text>
</g>
<!-- 19&#45;&gt;20 -->
<g id="edge67" class="edge">
<title>19&#45;&gt;20</title>
<path fill="none" stroke="#e53935" stroke-width="2.5" stroke-dasharray="5,2" d="M1545,-265.41C1545,-254.46 1545,-239.94 1545,-227"/>
<polygon fill="#e53935" stroke="#e53935" stroke-width="2.5" points="1548.5,-227.13 1545,-217.13 1541.5,-227.13 1548.5,-227.13"/>
<text text-anchor="start" x="1545" y="-234.2" font-family="Times,serif" font-size="14.00" fill="#555555">—</text>
</g>
<!-- 21&#45;&gt;12 -->
<g id="edge56" class="edge">
<title>21&#45;&gt;12</title>
<path fill="none" stroke="#ffb300" stroke-width="2.5" stroke-dasharray="5,2" d="M686.13,-655.72C670.72,-692.48 630.13,-779.6 572,-832.5 547.18,-855.09 513.75,-871.5 484.65,-882.68"/>
<polygon fill="#ffb300" stroke="#ffb300" stroke-width="2.5" points="483.8,-879.26 475.62,-886 486.21,-885.84 483.8,-879.26"/>
<text text-anchor="start" x="629.98" y="-765.2" font-family="Times,serif" font-size="14.00" fill="#0c8599">&#45;100%</text>
</g>
<!-- 21&#45;&gt;22 -->
<g id="edge54" class="edge">
<title>21&#45;&gt;22</title>
<path fill="none" stroke="#ffb300" stroke-width="2.5" stroke-dasharray="5,2" d="M693.63,-619.25C694.81,-608.47 697.82,-594.82 705.25,-585 708.5,-580.7 712.44,-576.86 716.75,-573.44"/>
<polygon fill="#ffb300" stroke="#ffb300" stroke-width="2.5" points="718.58,-576.43 724.89,-567.91 714.65,-570.63 718.58,-576.43"/>
<text text-anchor="start" x="705.25" y="-588.2" font-family="Times,serif" font-size="14.00" fill="#0c8599">&#45;100%</text>
</g>
<!-- 22&#45;&gt;5 -->
<g id="edge18" class="edge">
<title>22&#45;&gt;5</title>
<path fill="none" stroke="#9e9e9e" d="M713.28,-533.97C684.69,-523.61 652.07,-506.34 634.5,-478.5 619.93,-455.41 615.99,-424.11 615.27,-401.61"/>
<polygon fill="#9e9e9e" stroke="#9e9e9e" points="618.77,-401.6 615.18,-391.63 611.77,-401.66 618.77,-401.6"/>
<text text-anchor="start" x="634.5" y="-455.45" font-family="Times,serif" font-size="14.00" fill="#e8590c">+180%</text>
</g>
<!-- 22&#45;&gt;7 -->
<g id="edge22" class="edge">
<title>22&#45;&gt;7</title>
<path fill="none" stroke="#9e9e9e" d="M773.86,-530.58C778.6,-519.16 786.41,-504.85 798,-496.5 814.04,-484.94 833.05,-477.03 852.41,-471.64"/>
<polygon fill="#9e9e9e" stroke="#9e9e9e" points="853.21,-475.05 862.04,-469.2 851.49,-468.26 853.21,-475.05"/>
<text text-anchor="start" x="798" y="-499.7" font-family="Times,serif" font-size="14.00" fill="#0c8599">&#45;71%</text>
</g>
<!-- 22&#45;&gt;11 -->
<g id="edge8" class="edge">
<title>22&#45;&gt;11</title>
<path fill="none" stroke="#9e9e9e" d="M695.45,-561.02C647.62,-570.78 585.2,-588.48 537.25,-619.5 519.46,-631.01 521.2,-640.74 506,-655.5 489.15,-671.86 468.84,-688.57 452.29,-701.5"/>
<polygon fill="#9e9e9e" stroke="#9e9e9e" points="450.5,-698.46 444.73,-707.34 454.78,-704 450.5,-698.46"/>
<text text-anchor="start" x="537.25" y="-632.45" font-family="Times,serif" font-size="14.00" fill="#e8590c">+84%</text>
</g>
<!-- 22&#45;&gt;12 -->
<g id="edge7" class="edge">
<title>22&#45;&gt;12</title>
<path fill="none" stroke="#9e9e9e" d="M810,-565.62C838.86,-579.38 872,-602.56 872,-636.5 872,-815.5 872,-815.5 872,-815.5 872,-884.69 664.69,-899.82 531.17,-902.39"/>
<polygon fill="#9e9e9e" stroke="#9e9e9e" points="531.15,-898.89 521.21,-902.56 531.27,-905.89 531.15,-898.89"/>
<text text-anchor="start" x="872" y="-720.95" font-family="Times,serif" font-size="14.00" fill="#e8590c">+225%</text>
</g>
<!-- 22&#45;&gt;21 -->
<g id="edge55" class="edge">
<title>22&#45;&gt;21</title>
<path fill="none" stroke="#ffb300" stroke-width="2.5" stroke-dasharray="5,2" d="M761.87,-567C757.45,-577.68 750.74,-591.31 742,-601.5 738.98,-605.02 735.54,-608.37 731.91,-611.5"/>
<polygon fill="#ffb300" stroke="#ffb300" stroke-width="2.5" points="730.09,-608.48 724.36,-617.39 734.4,-614 730.09,-608.48"/>
<text text-anchor="start" x="752.72" y="-588.2" font-family="Times,serif" font-size="14.00" fill="#0c8599">&#45;100%</text>
</g>
<!-- 24 -->
<g id="node25" class="node">
<title>24</title>
<ellipse fill="none" stroke="black" cx="1406" cy="-726" rx="27" ry="18"/>
<text text-anchor="middle" x="1406" y="-721.33" font-family="Times,serif" font-size="14.00">▶</text>
</g>
<!-- 24&#45;&gt;7 -->
<g id="edge26" class="edge">
<title>24&#45;&gt;7</title>
<path fill="none" stroke="#9e9e9e" d="M1416.49,-708.94C1424.71,-695.34 1435.49,-675 1440,-655.5 1452.69,-600.68 1458.36,-569.15 1417,-531 1370.42,-488.04 1205.96,-471.63 1089.12,-465.37"/>
<polygon fill="#9e9e9e" stroke="#9e9e9e" points="1089.65,-461.89 1079.48,-464.87 1089.29,-468.88 1089.65,-461.89"/>
<text text-anchor="start" x="1449.31" y="-588.2" font-family="Times,serif" font-size="14.00" fill="#0c8599">&#45;22%</text>
</g>
<!-- 24&#45;&gt;8 -->
<g id="edge45" class="edge">
<title>24&#45;&gt;8</title>
<path fill="none" stroke="#9e9e9e" d="M1389.14,-711.86C1372.42,-698.83 1346.4,-678.55 1325.95,-662.62"/>
<polygon fill="#9e9e9e" stroke="#9e9e9e" points="1328.23,-659.96 1318.19,-656.57 1323.93,-665.48 1328.23,-659.96"/>
<text text-anchor="start" x="1360.44" y="-676.7" font-family="Times,serif" font-size="14.00" fill="#e8590c">+35%</text>
</g>
<!-- 24&#45;&gt;17 -->
<g id="edge62" class="edge">
<title>24&#45;&gt;17</title>
<path fill="none" stroke="#e53935" stroke-width="2.5" stroke-dasharray="5,2" d="M1427.36,-714.39C1440.63,-707.66 1457.98,-698.62 1473,-690 1488.38,-681.17 1505,-670.88 1519.24,-661.82"/>
<polygon fill="#e53935" stroke="#e53935" stroke-width="2.5" points="1520.84,-664.95 1527.37,-656.61 1517.06,-659.06 1520.84,-664.95"/>
<text text-anchor="start" x="1500.42" y="-676.7" font-family="Times,serif" font-size="14.00" fill="#555555">—</text>
</g>
<!-- 24&#45;&gt;22 -->
<g id="edge21" class="edge">
<title>24&#45;&gt;22</title>
<path fill="none" stroke="#9e9e9e" d="M1379.11,-722.27C1326.9,-716.15 1209.08,-698.4 1120,-655.5 1073.9,-633.3 1076.2,-604.75 1029,-585 980.58,-564.74 923.1,-555.62 874.42,-551.71"/>
<polygon fill="#9e9e9e" stroke="#9e9e9e" points="874.95,-548.24 864.72,-551 874.44,-555.22 874.95,-548.24"/>
<text text-anchor="start" x="1120" y="-632.45" font-family="Times,serif" font-size="14.00" fill="#0c8599">&#45;62%</text>
</g>
<!-- _legend -->
<g id="node26" class="node">
<title>_legend</title>
<text text-anchor="start" x="680.62" y="-1169.2" font-family="Times,serif" font-weight="bold" font-size="14.00">Legend</text>
<text text-anchor="start" x="568.75" y="-1145.7" font-family="Times,serif" font-size="14.00" fill="#555555">edge label: </text>
<text text-anchor="start" x="631.75" y="-1145.7" font-family="Times,serif" font-size="14.00" fill="#e8590c">over</text>
<text text-anchor="start" x="655.75" y="-1145.7" font-family="Times,serif" font-size="14.00" fill="#555555"> / </text>
<text text-anchor="start" x="667" y="-1145.7" font-family="Times,serif" font-size="14.00" fill="#0c8599">under</text>
<text text-anchor="start" x="697.75" y="-1145.7" font-family="Times,serif" font-size="14.00" fill="#555555">&#45;forecast %</text>
<text text-anchor="start" x="568.75" y="-1121.2" font-family="Times,serif" font-size="14.00" fill="#9e9e9e">─────</text>
<text text-anchor="start" x="624.5" y="-1121.2" font-family="Times,serif" font-size="14.00">matched</text>
<text text-anchor="start" x="568.75" y="-1097.7" font-family="Times,serif" font-size="14.00" fill="#ffb300">– – –</text>
<text text-anchor="start" x="624.5" y="-1097.7" font-family="Times,serif" font-size="14.00">happened — forecast missed it</text>
<text text-anchor="start" x="568.75" y="-1074.2" font-family="Times,serif" font-size="14.00" fill="#e53935">– – –</text>
<text text-anchor="start" x="624.5" y="-1074.2" font-family="Times,serif" font-size="14.00">forecast predicted it — did not happen</text>
</g>
</g>
</svg>
