<?xml version="1.0" encoding="UTF-8" standalone="no"?>
<!DOCTYPE svg PUBLIC "-//W3C//DTD SVG 1.1//EN"
 "http://www.w3.org/Graphics/SVG/1.1/DTD/svg11.dtd">
<!-- Generated by graphviz version 12.2.1 (20241206.2353)
 -->
<!-- Pages: 1 -->
<svg width="1545pt" height="1126pt"
 viewBox="0.00 0.00 1544.57 1125.50" xmlns="http://www.w3.org/2000/svg" xmlns:xlink="http://www.w3.org/1999/xlink">
<g id="graph0" class="graph" transform="scale(1 1) rotate(0) translate(4 1121.5)">
<polygon fill="white" stroke="none" points="-4,4 -4,-1121.5 1540.57,-1121.5 1540.57,4 -4,4"/>
<!-- 0 -->
<g id="node1" class="node">
<title>0</title>
<ellipse fill="none" stroke="black" cx="559" cy="-1099.5" rx="27" ry="18"/>
<text text-anchor="middle" x="559" y="-1094.83" font-family="Times,serif" font-size="14.00">▶</text>
</g>
<!-- 6 -->
<g id="node7" class="node">
<title>6</title>
<ellipse fill="none" stroke="black" cx="293" cy="-922.5" rx="95.37" ry="18"/>
<text text-anchor="middle" x="293" y="-917.45" font-family="Times,serif" font-size="14.00">Vendor creates invoice</text>
</g>
<!-- 0&#45;&gt;6 -->
<g id="edge27" class="edge">
<title>0&#45;&gt;6</title>
<path fill="none" stroke="black" d="M540.3,-1086.19C496.14,-1057.14 384.86,-983.93 327.85,-946.43"/>
<polygon fill="black" stroke="black" points="330.06,-943.69 319.79,-941.12 326.22,-949.54 330.06,-943.69"/>
<text text-anchor="middle" x="455.82" y="-1005.95" font-family="Times,serif" font-size="14.00">3</text>
</g>
<!-- 7 -->
<g id="node8" class="node">
<title>7</title>
<ellipse fill="none" stroke="black" cx="944" cy="-1011" rx="64.66" ry="18"/>
<text text-anchor="middle" x="944" y="-1005.95" font-family="Times,serif" font-size="14.00">SRM: Created</text>
</g>
<!-- 0&#45;&gt;7 -->
<g id="edge9" class="edge">
<title>0&#45;&gt;7</title>
<path fill="none" stroke="black" d="M584.56,-1092.76C644.99,-1079.18 798.03,-1044.8 883.65,-1025.56"/>
<polygon fill="black" stroke="black" points="884.29,-1029 893.28,-1023.4 882.76,-1022.17 884.29,-1029"/>
<text text-anchor="middle" x="789.36" y="-1050.2" font-family="Times,serif" font-size="14.00">2</text>
</g>
<!-- 13 -->
<g id="node14" class="node">
<title>13</title>
<ellipse fill="none" stroke="black" cx="691" cy="-834" rx="114.82" ry="18"/>
<text text-anchor="middle" x="691" y="-828.95" font-family="Times,serif" font-size="14.00">Create Purchase Order Item</text>
</g>
<!-- 0&#45;&gt;13 -->
<g id="edge32" class="edge">
<title>0&#45;&gt;13</title>
<path fill="none" stroke="black" d="M553.91,-1081.37C544.34,-1045.52 527.54,-961.21 562,-904.5 576.22,-881.1 601.28,-865.09 625.56,-854.4"/>
<polygon fill="black" stroke="black" points="626.58,-857.76 634.48,-850.71 623.9,-851.29 626.58,-857.76"/>
<text text-anchor="middle" x="557.03" y="-961.7" font-family="Times,serif" font-size="14.00">1324</text>
</g>
<!-- 22 -->
<g id="node23" class="node">
<title>22</title>
<ellipse fill="none" stroke="black" cx="707" cy="-1011" rx="135.8" ry="18"/>
<text text-anchor="middle" x="707" y="-1005.95" font-family="Times,serif" font-size="14.00">Create Purchase Requisition Item</text>
</g>
<!-- 0&#45;&gt;22 -->
<g id="edge54" class="edge">
<title>0&#45;&gt;22</title>
<path fill="none" stroke="black" d="M578.96,-1086.83C601.76,-1073.51 639.6,-1051.39 668.25,-1034.65"/>
<polygon fill="black" stroke="black" points="669.78,-1037.81 676.65,-1029.74 666.25,-1031.76 669.78,-1037.81"/>
<text text-anchor="middle" x="659.76" y="-1050.2" font-family="Times,serif" font-size="14.00">2339</text>
</g>
<!-- 1 -->
<g id="node2" class="node">
<title>1</title>
<ellipse fill="none" stroke="black" cx="637" cy="-18" rx="27" ry="18"/>
<text text-anchor="middle" x="637" y="-12.95" font-family="Times,serif" font-size="14.00">■</text>
</g>
<!-- 2 -->
<g id="node3" class="node">
<title>2</title>
<ellipse fill="none" stroke="black" cx="316" cy="-460.5" rx="94.86" ry="18"/>
<text text-anchor="middle" x="316" y="-455.45" font-family="Times,serif" font-size="14.00">Record Goods Receipt</text>
</g>
<!-- 2&#45;&gt;1 -->
<g id="edge30" class="edge">
<title>2&#45;&gt;1</title>
<path fill="none" stroke="black" d="M279.82,-443.57C239.83,-423.21 181,-383.89 181,-328.75 181,-328.75 181,-328.75 181,-105.5 181,-20.76 488.83,-16.87 598.65,-18.19"/>
<polygon fill="black" stroke="black" points="598.28,-21.68 608.33,-18.32 598.38,-14.68 598.28,-21.68"/>
<text text-anchor="middle" x="191.12" y="-234.2" font-family="Times,serif" font-size="14.00">105</text>
</g>
<!-- 2&#45;&gt;2 -->
<g id="edge23" class="edge">
<title>2&#45;&gt;2</title>
<path fill="none" stroke="black" d="M402.11,-468.34C417.83,-467.35 428.86,-464.73 428.86,-460.5 428.86,-457.39 422.91,-455.15 413.52,-453.79"/>
<polygon fill="black" stroke="black" points="413.91,-450.31 403.62,-452.81 413.22,-457.28 413.91,-450.31"/>
<text text-anchor="middle" x="435.61" y="-455.45" font-family="Times,serif" font-size="14.00">19</text>
</g>
<!-- 3 -->
<g id="node4" class="node">
<title>3</title>
<ellipse fill="none" stroke="black" cx="496" cy="-372" rx="98.44" ry="18"/>
<text text-anchor="middle" x="496" y="-366.95" font-family="Times,serif" font-size="14.00">Record Invoice Receipt</text>
</g>
<!-- 2&#45;&gt;3 -->
<g id="edge1" class="edge">
<title>2&#45;&gt;3</title>
<path fill="none" stroke="black" d="M365,-444.82C380.74,-439.33 397.97,-432.46 413,-424.5 424.04,-418.66 425.28,-414.81 435.75,-408 442.44,-403.65 449.69,-399.21 456.76,-395.02"/>
<polygon fill="black" stroke="black" points="458.04,-398.33 464.91,-390.27 454.51,-392.28 458.04,-398.33"/>
<text text-anchor="middle" x="445.88" y="-411.2" font-family="Times,serif" font-size="14.00">948</text>
</g>
<!-- 5 -->
<g id="node6" class="node">
<title>5</title>
<ellipse fill="none" stroke="black" cx="385" cy="-195" rx="102.02" ry="18"/>
<text text-anchor="middle" x="385" y="-189.95" font-family="Times,serif" font-size="14.00">Remove Payment Block</text>
</g>
<!-- 2&#45;&gt;5 -->
<g id="edge4" class="edge">
<title>2&#45;&gt;5</title>
<path fill="none" stroke="black" d="M320.53,-442.21C332.18,-397.73 363.27,-279 377.59,-224.3"/>
<polygon fill="black" stroke="black" points="380.93,-225.38 380.07,-214.82 374.15,-223.6 380.93,-225.38"/>
<text text-anchor="middle" x="362.22" y="-322.7" font-family="Times,serif" font-size="14.00">176</text>
</g>
<!-- 2&#45;&gt;6 -->
<g id="edge6" class="edge">
<title>2&#45;&gt;6</title>
<path fill="none" stroke="black" d="M310.35,-478.84C298.99,-514.69 273.74,-599.82 265,-673.5 253.83,-767.71 257.4,-794.12 279,-886.5 279.55,-888.84 280.23,-891.23 280.99,-893.6"/>
<polygon fill="black" stroke="black" points="277.69,-894.79 284.44,-902.97 284.26,-892.37 277.69,-894.79"/>
<text text-anchor="middle" x="278.5" y="-686.45" font-family="Times,serif" font-size="14.00">1145</text>
</g>
<!-- 3&#45;&gt;1 -->
<g id="edge19" class="edge">
<title>3&#45;&gt;1</title>
<path fill="none" stroke="black" d="M526.14,-354.47C533.43,-349.33 540.66,-343.12 546,-336 613.57,-246.02 631.02,-107.38 635.49,-47.81"/>
<polygon fill="black" stroke="black" points="638.98,-48.07 636.16,-37.86 631.99,-47.6 638.98,-48.07"/>
<text text-anchor="middle" x="624.99" y="-189.95" font-family="Times,serif" font-size="14.00">149</text>
</g>
<!-- 3&#45;&gt;2 -->
<g id="edge17" class="edge">
<title>3&#45;&gt;2</title>
<path fill="none" stroke="black" d="M438.51,-387.04C421.86,-392.34 404.06,-399.26 388.75,-408 379.11,-413.5 378.85,-417.8 370,-424.5 364.64,-428.56 358.81,-432.65 353.03,-436.53"/>
<polygon fill="black" stroke="black" points="351.16,-433.57 344.71,-441.98 355,-439.42 351.16,-433.57"/>
<text text-anchor="middle" x="398.88" y="-411.2" font-family="Times,serif" font-size="14.00">117</text>
</g>
<!-- 3&#45;&gt;3 -->
<g id="edge41" class="edge">
<title>3&#45;&gt;3</title>
<path fill="none" stroke="black" d="M585.34,-379.81C601.29,-378.8 612.44,-376.19 612.44,-372 612.44,-368.89 606.3,-366.65 596.61,-365.29"/>
<polygon fill="black" stroke="black" points="597.14,-361.83 586.84,-364.34 596.46,-368.79 597.14,-361.83"/>
<text text-anchor="middle" x="615.81" y="-366.95" font-family="Times,serif" font-size="14.00">4</text>
</g>
<!-- 4 -->
<g id="node5" class="node">
<title>4</title>
<ellipse fill="none" stroke="black" cx="523" cy="-106.5" rx="61.08" ry="18"/>
<text text-anchor="middle" x="523" y="-101.45" font-family="Times,serif" font-size="14.00">Clear Invoice</text>
</g>
<!-- 3&#45;&gt;4 -->
<g id="edge2" class="edge">
<title>3&#45;&gt;4</title>
<path fill="none" stroke="black" d="M516.82,-354.03C521.76,-348.82 526.35,-342.68 529,-336 555.83,-268.43 541.19,-180.55 530.69,-136.03"/>
<polygon fill="black" stroke="black" points="534.1,-135.26 528.3,-126.4 527.31,-136.95 534.1,-135.26"/>
<text text-anchor="middle" x="554.36" y="-234.2" font-family="Times,serif" font-size="14.00">600</text>
</g>
<!-- 3&#45;&gt;5 -->
<g id="edge18" class="edge">
<title>3&#45;&gt;5</title>
<path fill="none" stroke="black" d="M485.15,-353.9C465.76,-323.32 425,-259.06 401.9,-222.65"/>
<polygon fill="black" stroke="black" points="405.01,-221.02 396.7,-214.45 399.1,-224.77 405.01,-221.02"/>
<text text-anchor="middle" x="461.66" y="-278.45" font-family="Times,serif" font-size="14.00">278</text>
</g>
<!-- 3&#45;&gt;6 -->
<g id="edge46" class="edge">
<title>3&#45;&gt;6</title>
<path fill="none" stroke="black" d="M492.35,-390.23C486.81,-412.83 474.36,-452.64 451,-478.5 418.67,-514.3 384.29,-491.92 356,-531 313.87,-589.2 298.52,-813.17 294.32,-893.02"/>
<polygon fill="black" stroke="black" points="290.84,-892.46 293.84,-902.62 297.84,-892.81 290.84,-892.46"/>
<text text-anchor="middle" x="331.36" y="-632.45" font-family="Times,serif" font-size="14.00">21</text>
</g>
<!-- 14 -->
<g id="node15" class="node">
<title>14</title>
<ellipse fill="none" stroke="black" cx="270" cy="-283.5" rx="60.56" ry="18"/>
<text text-anchor="middle" x="270" y="-278.45" font-family="Times,serif" font-size="14.00">Change Price</text>
</g>
<!-- 3&#45;&gt;14 -->
<g id="edge22" class="edge">
<title>3&#45;&gt;14</title>
<path fill="none" stroke="black" d="M463.34,-354.78C441.02,-344.03 410.6,-330.02 383,-319.5 363.99,-312.26 342.77,-305.38 323.9,-299.67"/>
<polygon fill="black" stroke="black" points="325.13,-296.38 314.55,-296.88 323.13,-303.09 325.13,-296.38"/>
<text text-anchor="middle" x="424.23" y="-322.7" font-family="Times,serif" font-size="14.00">7</text>
</g>
<!-- 4&#45;&gt;1 -->
<g id="edge3" class="edge">
<title>4&#45;&gt;1</title>
<path fill="none" stroke="black" d="M544.44,-89.23C563.26,-74.95 590.69,-54.14 610.81,-38.87"/>
<polygon fill="black" stroke="black" points="612.69,-41.84 618.54,-33 608.46,-36.26 612.69,-41.84"/>
<text text-anchor="middle" x="603.71" y="-57.2" font-family="Times,serif" font-size="14.00">1216</text>
</g>
<!-- 4&#45;&gt;3 -->
<g id="edge33" class="edge">
<title>4&#45;&gt;3</title>
<path fill="none" stroke="black" d="M521.22,-124.85C516.67,-169.31 504.54,-287.64 498.93,-342.43"/>
<polygon fill="black" stroke="black" points="495.46,-341.9 497.93,-352.21 502.43,-342.61 495.46,-341.9"/>
<text text-anchor="middle" x="513.5" y="-234.2" font-family="Times,serif" font-size="14.00">3</text>
</g>
<!-- 4&#45;&gt;4 -->
<g id="edge20" class="edge">
<title>4&#45;&gt;4</title>
<path fill="none" stroke="black" d="M578.06,-114.68C591.8,-114.11 602.08,-111.38 602.08,-106.5 602.08,-103.1 597.11,-100.75 589.46,-99.44"/>
<polygon fill="black" stroke="black" points="589.86,-95.96 579.57,-98.47 589.18,-102.93 589.86,-95.96"/>
<text text-anchor="middle" x="605.45" y="-101.45" font-family="Times,serif" font-size="14.00">2</text>
</g>
<!-- 5&#45;&gt;1 -->
<g id="edge59" class="edge">
<title>5&#45;&gt;1</title>
<path fill="none" stroke="black" d="M389.5,-176.9C396.46,-153.72 411.97,-112.46 439.5,-88.5 485.46,-48.5 555.92,-31.08 599.08,-23.83"/>
<polygon fill="black" stroke="black" points="599.39,-27.32 608.73,-22.31 598.3,-20.41 599.39,-27.32"/>
<text text-anchor="middle" x="446.25" y="-101.45" font-family="Times,serif" font-size="14.00">11</text>
</g>
<!-- 5&#45;&gt;4 -->
<g id="edge5" class="edge">
<title>5&#45;&gt;4</title>
<path fill="none" stroke="black" d="M411.61,-177.32C433.4,-163.66 464.41,-144.23 488.17,-129.33"/>
<polygon fill="black" stroke="black" points="489.97,-132.33 496.59,-124.06 486.25,-126.4 489.97,-132.33"/>
<text text-anchor="middle" x="476.49" y="-145.7" font-family="Times,serif" font-size="14.00">351</text>
</g>
<!-- 6&#45;&gt;2 -->
<g id="edge8" class="edge">
<title>6&#45;&gt;2</title>
<path fill="none" stroke="black" d="M261.62,-905.05C238.12,-890.23 210,-866.01 210,-835 210,-835 210,-835 210,-690.5 210,-610.6 263.8,-528.32 294.74,-487.6"/>
<polygon fill="black" stroke="black" points="297.41,-489.87 300.78,-479.83 291.88,-485.58 297.41,-489.87"/>
<text text-anchor="middle" x="223.5" y="-686.45" font-family="Times,serif" font-size="14.00">1747</text>
</g>
<!-- 6&#45;&gt;3 -->
<g id="edge7" class="edge">
<title>6&#45;&gt;3</title>
<path fill="none" stroke="black" d="M300.68,-904.29C302.95,-898.7 305.3,-892.41 307,-886.5 333.67,-794.03 308.66,-762.2 346,-673.5 387.2,-575.64 446.14,-577.7 484,-478.5 493.44,-453.77 496.06,-423.58 496.55,-401.85"/>
<polygon fill="black" stroke="black" points="500.05,-401.97 496.62,-391.94 493.05,-401.92 500.05,-401.97"/>
<text text-anchor="middle" x="389.99" y="-632.45" font-family="Times,serif" font-size="14.00">1021</text>
</g>
<!-- 6&#45;&gt;13 -->
<g id="edge28" class="edge">
<title>6&#45;&gt;13</title>
<path fill="none" stroke="black" d="M355.56,-908.55C376.83,-903.07 400.41,-895.77 421,-886.5 433.23,-881 433.71,-874.73 446.25,-870 485.63,-855.16 530.74,-846.55 571.41,-841.58"/>
<polygon fill="black" stroke="black" points="571.72,-845.07 581.26,-840.45 570.92,-838.12 571.72,-845.07"/>
<text text-anchor="middle" x="449.62" y="-873.2" font-family="Times,serif" font-size="14.00">2</text>
</g>
<!-- 15 -->
<g id="node16" class="node">
<title>15</title>
<ellipse fill="none" stroke="black" cx="140" cy="-549" rx="73.87" ry="18"/>
<text text-anchor="middle" x="140" y="-543.95" font-family="Times,serif" font-size="14.00">Change Quantity</text>
</g>
<!-- 6&#45;&gt;15 -->
<g id="edge24" class="edge">
<title>6&#45;&gt;15</title>
<path fill="none" stroke="black" d="M212.67,-912.46C166.67,-902.31 118,-880.75 118,-835 118,-835 118,-835 118,-636.5 118,-616.48 123.6,-594.64 129.15,-577.91"/>
<polygon fill="black" stroke="black" points="132.39,-579.26 132.41,-568.66 125.79,-576.93 132.39,-579.26"/>
<text text-anchor="middle" x="124.75" y="-740.45" font-family="Times,serif" font-size="14.00">14</text>
</g>
<!-- 8 -->
<g id="node9" class="node">
<title>8</title>
<ellipse fill="none" stroke="black" cx="1101" cy="-922.5" rx="72.34" ry="18"/>
<text text-anchor="middle" x="1101" y="-917.45" font-family="Times,serif" font-size="14.00">SRM: Complete</text>
</g>
<!-- 7&#45;&gt;8 -->
<g id="edge10" class="edge">
<title>7&#45;&gt;8</title>
<path fill="none" stroke="black" d="M972.07,-994.54C997.21,-980.69 1034.31,-960.24 1062.26,-944.84"/>
<polygon fill="black" stroke="black" points="1063.72,-948.04 1070.79,-940.15 1060.34,-941.91 1063.72,-948.04"/>
<text text-anchor="middle" x="1039.94" y="-961.7" font-family="Times,serif" font-size="14.00">2</text>
</g>
<!-- 9 -->
<g id="node10" class="node">
<title>9</title>
<ellipse fill="none" stroke="black" cx="1258" cy="-834" rx="106.11" ry="18"/>
<text text-anchor="middle" x="1258" y="-828.95" font-family="Times,serif" font-size="14.00">SRM: Awaiting Approval</text>
</g>
<!-- 8&#45;&gt;9 -->
<g id="edge11" class="edge">
<title>8&#45;&gt;9</title>
<path fill="none" stroke="black" d="M1129.8,-905.63C1154.55,-891.99 1190.51,-872.18 1218.05,-857.01"/>
<polygon fill="black" stroke="black" points="1219.39,-860.27 1226.46,-852.38 1216.01,-854.14 1219.39,-860.27"/>
<text text-anchor="middle" x="1196.94" y="-873.2" font-family="Times,serif" font-size="14.00">2</text>
</g>
<!-- 10 -->
<g id="node11" class="node">
<title>10</title>
<ellipse fill="none" stroke="black" cx="1374" cy="-745.5" rx="118.4" ry="18"/>
<text text-anchor="middle" x="1374" y="-740.45" font-family="Times,serif" font-size="14.00">SRM: Document Completed</text>
</g>
<!-- 9&#45;&gt;10 -->
<g id="edge12" class="edge">
<title>9&#45;&gt;10</title>
<path fill="none" stroke="black" d="M1280.64,-816.12C1298.09,-803.1 1322.45,-784.94 1341.91,-770.43"/>
<polygon fill="black" stroke="black" points="1343.88,-773.32 1349.81,-764.54 1339.7,-767.71 1343.88,-773.32"/>
<text text-anchor="middle" x="1329.76" y="-784.7" font-family="Times,serif" font-size="14.00">2</text>
</g>
<!-- 11 -->
<g id="node12" class="node">
<title>11</title>
<ellipse fill="none" stroke="black" cx="1389" cy="-637.5" rx="147.57" ry="18"/>
<text text-anchor="middle" x="1389" y="-632.45" font-family="Times,serif" font-size="14.00">SRM: In Transfer to Execution Syst.</text>
</g>
<!-- 10&#45;&gt;11 -->
<g id="edge13" class="edge">
<title>10&#45;&gt;11</title>
<path fill="none" stroke="black" d="M1376.41,-727.47C1378.71,-711.19 1382.23,-686.32 1384.96,-667.02"/>
<polygon fill="black" stroke="black" points="1388.4,-667.73 1386.33,-657.34 1381.47,-666.75 1388.4,-667.73"/>
<text text-anchor="middle" x="1387.1" y="-686.45" font-family="Times,serif" font-size="14.00">1</text>
</g>
<!-- 12 -->
<g id="node13" class="node">
<title>12</title>
<ellipse fill="none" stroke="black" cx="1389" cy="-549" rx="66.19" ry="18"/>
<text text-anchor="middle" x="1389" y="-543.95" font-family="Times,serif" font-size="14.00">SRM: Ordered</text>
</g>
<!-- 11&#45;&gt;12 -->
<g id="edge14" class="edge">
<title>11&#45;&gt;12</title>
<path fill="none" stroke="black" d="M1389,-619.41C1389,-607.76 1389,-592.05 1389,-578.52"/>
<polygon fill="black" stroke="black" points="1392.5,-578.86 1389,-568.86 1385.5,-578.86 1392.5,-578.86"/>
<text text-anchor="middle" x="1392.38" y="-588.2" font-family="Times,serif" font-size="14.00">1</text>
</g>
<!-- 13&#45;&gt;1 -->
<g id="edge51" class="edge">
<title>13&#45;&gt;1</title>
<path fill="none" stroke="black" d="M804.9,-831.29C918.11,-828.32 1083.24,-820.21 1143,-798 1179.2,-784.55 1213,-785.12 1213,-746.5 1213,-746.5 1213,-746.5 1213,-105.5 1213,-50.95 803.83,-26.91 675.21,-20.7"/>
<polygon fill="black" stroke="black" points="675.68,-17.21 665.52,-20.24 675.34,-24.21 675.68,-17.21"/>
<text text-anchor="middle" x="1223.12" y="-411.2" font-family="Times,serif" font-size="14.00">111</text>
</g>
<!-- 13&#45;&gt;2 -->
<g id="edge15" class="edge">
<title>13&#45;&gt;2</title>
<path fill="none" stroke="black" d="M595.25,-823.8C557.85,-818.39 520.66,-810.16 507,-798 444.9,-742.71 485.97,-694.93 451,-619.5 431.42,-577.27 425.22,-566.4 395,-531 380.72,-514.28 362.4,-497.91 347,-485.27"/>
<polygon fill="black" stroke="black" points="349.49,-482.78 339.5,-479.23 345.1,-488.23 349.49,-482.78"/>
<text text-anchor="middle" x="473.02" y="-632.45" font-family="Times,serif" font-size="14.00">654</text>
</g>
<!-- 13&#45;&gt;3 -->
<g id="edge43" class="edge">
<title>13&#45;&gt;3</title>
<path fill="none" stroke="black" d="M622.79,-819.11C592.02,-809.1 558.49,-792.1 540,-763.5 536.49,-758.08 538.45,-537.44 538,-531 534.2,-476 542.66,-459.11 522,-408 520.84,-405.14 519.4,-402.3 517.78,-399.55"/>
<polygon fill="black" stroke="black" points="520.74,-397.68 512.25,-391.35 514.94,-401.6 520.74,-397.68"/>
<text text-anchor="middle" x="544.71" y="-588.2" font-family="Times,serif" font-size="14.00">38</text>
</g>
<!-- 13&#45;&gt;6 -->
<g id="edge16" class="edge">
<title>13&#45;&gt;6</title>
<path fill="none" stroke="black" d="M610.41,-847.22C576.66,-853.03 537.18,-860.75 502,-870 480.18,-875.74 475.73,-880.43 454,-886.5 426.64,-894.15 396.28,-901.13 369.36,-906.81"/>
<polygon fill="black" stroke="black" points="369,-903.31 359.93,-908.77 370.43,-910.16 369,-903.31"/>
<text text-anchor="middle" x="515.5" y="-873.2" font-family="Times,serif" font-size="14.00">1161</text>
</g>
<!-- 13&#45;&gt;14 -->
<g id="edge45" class="edge">
<title>13&#45;&gt;14</title>
<path fill="none" stroke="black" d="M595.4,-823.73C551.53,-818.06 505.27,-809.62 487,-798 421.94,-756.6 423.63,-723.89 388,-655.5 372.57,-625.88 382.3,-611.52 362,-585 349.58,-568.77 221.38,-496.66 212,-478.5 182.86,-422.06 223.75,-348.65 250.33,-310.34"/>
<polygon fill="black" stroke="black" points="252.88,-312.79 255.85,-302.62 247.18,-308.72 252.88,-312.79"/>
<text text-anchor="middle" x="345.61" y="-543.95" font-family="Times,serif" font-size="14.00">49</text>
</g>
<!-- 13&#45;&gt;15 -->
<g id="edge44" class="edge">
<title>13&#45;&gt;15</title>
<path fill="none" stroke="black" d="M580.61,-828.82C509.16,-824.46 423.74,-815.66 392,-798 330.22,-763.63 342.81,-723.67 293,-673.5 254.69,-634.91 204.83,-596.53 172.61,-573.04"/>
<polygon fill="black" stroke="black" points="175,-570.45 164.84,-567.42 170.9,-576.12 175,-570.45"/>
<text text-anchor="middle" x="327.23" y="-686.45" font-family="Times,serif" font-size="14.00">91</text>
</g>
<!-- 16 -->
<g id="node17" class="node">
<title>16</title>
<ellipse fill="none" stroke="black" cx="934" cy="-549" rx="114.82" ry="18"/>
<text text-anchor="middle" x="934" y="-543.95" font-family="Times,serif" font-size="14.00">Delete Purchase Order Item</text>
</g>
<!-- 13&#45;&gt;16 -->
<g id="edge37" class="edge">
<title>13&#45;&gt;16</title>
<path fill="none" stroke="black" d="M788.46,-824.21C826.78,-815.23 866.65,-797.63 888,-763.5 924.59,-705.01 932.41,-621.8 933.86,-578.56"/>
<polygon fill="black" stroke="black" points="937.36,-578.83 934.09,-568.75 930.36,-578.67 937.36,-578.83"/>
<text text-anchor="middle" x="928.92" y="-686.45" font-family="Times,serif" font-size="14.00">69</text>
</g>
<!-- 18 -->
<g id="node19" class="node">
<title>18</title>
<ellipse fill="none" stroke="black" cx="1086" cy="-691.5" rx="109.7" ry="18"/>
<text text-anchor="middle" x="1086" y="-686.45" font-family="Times,serif" font-size="14.00">Change Delivery Indicator</text>
</g>
<!-- 13&#45;&gt;18 -->
<g id="edge38" class="edge">
<title>13&#45;&gt;18</title>
<path fill="none" stroke="black" d="M805.87,-832.88C929.25,-829.95 1113.39,-816.5 1156,-763.5 1166.03,-751.03 1164.41,-741.11 1156,-727.5 1152.91,-722.5 1148.86,-718.19 1144.28,-714.48"/>
<polygon fill="black" stroke="black" points="1146.37,-711.67 1136.14,-708.91 1142.42,-717.45 1146.37,-711.67"/>
<text text-anchor="middle" x="1135.64" y="-784.7" font-family="Times,serif" font-size="14.00">1</text>
</g>
<!-- 19 -->
<g id="node20" class="node">
<title>19</title>
<ellipse fill="none" stroke="black" cx="1053" cy="-745.5" rx="93.83" ry="18"/>
<text text-anchor="middle" x="1053" y="-740.45" font-family="Times,serif" font-size="14.00">Cancel Goods Receipt</text>
</g>
<!-- 13&#45;&gt;19 -->
<g id="edge40" class="edge">
<title>13&#45;&gt;19</title>
<path fill="none" stroke="black" d="M794.81,-825.98C841.43,-820.98 896.71,-812.46 945,-798 969.06,-790.79 994.49,-778.91 1014.62,-768.37"/>
<polygon fill="black" stroke="black" points="1016.13,-771.53 1023.3,-763.72 1012.83,-765.35 1016.13,-771.53"/>
<text text-anchor="middle" x="991.22" y="-784.7" font-family="Times,serif" font-size="14.00">2</text>
</g>
<!-- 20 -->
<g id="node21" class="node">
<title>20</title>
<ellipse fill="none" stroke="black" cx="698" cy="-637.5" rx="117.37" ry="18"/>
<text text-anchor="middle" x="698" y="-632.45" font-family="Times,serif" font-size="14.00">Receive Order Confirmation</text>
</g>
<!-- 13&#45;&gt;20 -->
<g id="edge47" class="edge">
<title>13&#45;&gt;20</title>
<path fill="none" stroke="black" d="M767.6,-820.2C800.62,-810.48 836.14,-793.41 856,-763.5 887.12,-716.62 816.73,-679.29 760.12,-658.03"/>
<polygon fill="black" stroke="black" points="761.39,-654.77 750.8,-654.64 759,-661.35 761.39,-654.77"/>
<text text-anchor="middle" x="873.75" y="-740.45" font-family="Times,serif" font-size="14.00">678</text>
</g>
<!-- 21 -->
<g id="node22" class="node">
<title>21</title>
<ellipse fill="none" stroke="black" cx="698" cy="-745.5" rx="149.11" ry="18"/>
<text text-anchor="middle" x="698" y="-740.45" font-family="Times,serif" font-size="14.00">Change Approval for Purchase Order</text>
</g>
<!-- 13&#45;&gt;21 -->
<g id="edge53" class="edge">
<title>13&#45;&gt;21</title>
<path fill="none" stroke="black" d="M692.38,-815.91C693.33,-804.26 694.6,-788.55 695.69,-775.02"/>
<polygon fill="black" stroke="black" points="699.16,-775.61 696.47,-765.36 692.18,-775.04 699.16,-775.61"/>
<text text-anchor="middle" x="698.5" y="-784.7" font-family="Times,serif" font-size="14.00">2</text>
</g>
<!-- 14&#45;&gt;1 -->
<g id="edge57" class="edge">
<title>14&#45;&gt;1</title>
<path fill="none" stroke="black" d="M266.09,-265.14C262.09,-243.1 258.45,-204.64 274,-177 340.36,-59.06 519.37,-29.08 598.49,-21.52"/>
<polygon fill="black" stroke="black" points="598.7,-25.01 608.35,-20.65 598.09,-18.04 598.7,-25.01"/>
<text text-anchor="middle" x="303.83" y="-145.7" font-family="Times,serif" font-size="14.00">14</text>
</g>
<!-- 14&#45;&gt;2 -->
<g id="edge34" class="edge">
<title>14&#45;&gt;2</title>
<path fill="none" stroke="black" d="M274.56,-301.85C282.5,-332.07 298.95,-394.62 308.56,-431.19"/>
<polygon fill="black" stroke="black" points="305.11,-431.84 311.04,-440.62 311.88,-430.06 305.11,-431.84"/>
<text text-anchor="middle" x="304.32" y="-366.95" font-family="Times,serif" font-size="14.00">14</text>
</g>
<!-- 14&#45;&gt;5 -->
<g id="edge21" class="edge">
<title>14&#45;&gt;5</title>
<path fill="none" stroke="black" d="M291.5,-266.24C304.93,-256.1 322.59,-242.77 338.25,-231 343.21,-227.27 348.48,-223.32 353.62,-219.47"/>
<polygon fill="black" stroke="black" points="355.52,-222.42 361.42,-213.62 351.32,-216.82 355.52,-222.42"/>
<text text-anchor="middle" x="341.62" y="-234.2" font-family="Times,serif" font-size="14.00">7</text>
</g>
<!-- 14&#45;&gt;6 -->
<g id="edge42" class="edge">
<title>14&#45;&gt;6</title>
<path fill="none" stroke="black" d="M217.93,-293.15C149.53,-306.02 38,-332.85 38,-371 38,-835 38,-835 38,-835 38,-871.52 132.97,-895.68 207,-908.97"/>
<polygon fill="black" stroke="black" points="206.27,-912.39 216.72,-910.67 207.48,-905.5 206.27,-912.39"/>
<text text-anchor="middle" x="44.75" y="-588.2" font-family="Times,serif" font-size="14.00">20</text>
</g>
<!-- 15&#45;&gt;1 -->
<g id="edge56" class="edge">
<title>15&#45;&gt;1</title>
<path fill="none" stroke="black" d="M84.27,-536.8C45.22,-525.33 0,-503.07 0,-461.5 0,-461.5 0,-461.5 0,-105.5 0,-44.77 460.47,-24.78 598.41,-20.15"/>
<polygon fill="black" stroke="black" points="598.24,-23.66 608.12,-19.84 598.01,-16.66 598.24,-23.66"/>
<text text-anchor="middle" x="6.75" y="-278.45" font-family="Times,serif" font-size="14.00">14</text>
</g>
<!-- 15&#45;&gt;2 -->
<g id="edge25" class="edge">
<title>15&#45;&gt;2</title>
<path fill="none" stroke="black" d="M160.87,-531.27C175.29,-520.29 195.28,-506.23 214.5,-496.5 227.03,-490.16 240.98,-484.52 254.43,-479.71"/>
<polygon fill="black" stroke="black" points="255.32,-483.11 263.64,-476.54 253.04,-476.49 255.32,-483.11"/>
<text text-anchor="middle" x="221.25" y="-499.7" font-family="Times,serif" font-size="14.00">80</text>
</g>
<!-- 15&#45;&gt;6 -->
<g id="edge29" class="edge">
<title>15&#45;&gt;6</title>
<path fill="none" stroke="black" d="M149.01,-567.04C157.2,-584.11 168,-611.4 168,-636.5 168,-835 168,-835 168,-835 168,-861.05 176.23,-869.53 196,-886.5 204.11,-893.47 213.73,-899.09 223.69,-903.62"/>
<polygon fill="black" stroke="black" points="222.18,-906.78 232.76,-907.37 224.86,-900.31 222.18,-906.78"/>
<text text-anchor="middle" x="174.75" y="-740.45" font-family="Times,serif" font-size="14.00">47</text>
</g>
<!-- 16&#45;&gt;1 -->
<g id="edge26" class="edge">
<title>16&#45;&gt;1</title>
<path fill="none" stroke="black" d="M918.43,-530.86C905.08,-514.35 888,-488.03 888,-461.5 888,-461.5 888,-461.5 888,-105.5 888,-60.95 744.87,-34.36 674.78,-24.01"/>
<polygon fill="black" stroke="black" points="675.28,-20.54 664.89,-22.59 674.29,-27.47 675.28,-20.54"/>
<text text-anchor="middle" x="898.12" y="-278.45" font-family="Times,serif" font-size="14.00">104</text>
</g>
<!-- 17 -->
<g id="node18" class="node">
<title>17</title>
<ellipse fill="none" stroke="black" cx="671" cy="-460.5" rx="97.41" ry="18"/>
<text text-anchor="middle" x="671" y="-455.45" font-family="Times,serif" font-size="14.00">Cancel Invoice Receipt</text>
</g>
<!-- 17&#45;&gt;1 -->
<g id="edge31" class="edge">
<title>17&#45;&gt;1</title>
<path fill="none" stroke="black" d="M675.51,-442.07C679.6,-424.7 685,-397.19 685,-373 685,-373 685,-373 685,-105.5 685,-81.95 671.23,-58.82 658.45,-42.41"/>
<polygon fill="black" stroke="black" points="661.17,-40.22 652.11,-34.74 655.78,-44.68 661.17,-40.22"/>
<text text-anchor="middle" x="688.38" y="-234.2" font-family="Times,serif" font-size="14.00">3</text>
</g>
<!-- 17&#45;&gt;3 -->
<g id="edge36" class="edge">
<title>17&#45;&gt;3</title>
<path fill="none" stroke="black" d="M638.08,-443.23C610.06,-429.38 569.61,-409.38 539.03,-394.27"/>
<polygon fill="black" stroke="black" points="540.94,-391.31 530.42,-390.01 537.84,-397.58 540.94,-391.31"/>
<text text-anchor="middle" x="602.55" y="-411.2" font-family="Times,serif" font-size="14.00">1</text>
</g>
<!-- 17&#45;&gt;4 -->
<g id="edge35" class="edge">
<title>17&#45;&gt;4</title>
<path fill="none" stroke="black" d="M666.01,-442.35C651.51,-393.65 606.63,-251.06 548,-142.5 546.44,-139.6 544.67,-136.67 542.82,-133.79"/>
<polygon fill="black" stroke="black" points="545.76,-131.9 537.21,-125.64 539.99,-135.86 545.76,-131.9"/>
<text text-anchor="middle" x="621.16" y="-278.45" font-family="Times,serif" font-size="14.00">3</text>
</g>
<!-- 18&#45;&gt;1 -->
<g id="edge39" class="edge">
<title>18&#45;&gt;1</title>
<path fill="none" stroke="black" d="M1085.42,-673.11C1084.83,-653.84 1084,-621.83 1084,-594.25 1084,-594.25 1084,-594.25 1084,-105.5 1084,-22.65 784.24,-17.48 675.67,-18.33"/>
<polygon fill="black" stroke="black" points="675.77,-14.83 665.8,-18.43 675.84,-21.83 675.77,-14.83"/>
<text text-anchor="middle" x="1087.38" y="-366.95" font-family="Times,serif" font-size="14.00">1</text>
</g>
<!-- 20&#45;&gt;1 -->
<g id="edge60" class="edge">
<title>20&#45;&gt;1</title>
<path fill="none" stroke="black" d="M711.83,-619.21C738.85,-583.64 796,-498.76 796,-417.25 796,-417.25 796,-417.25 796,-105.5 796,-50.75 722.35,-30.46 675.3,-23.08"/>
<polygon fill="black" stroke="black" points="675.86,-19.62 665.47,-21.68 674.88,-26.55 675.86,-19.62"/>
<text text-anchor="middle" x="799.38" y="-322.7" font-family="Times,serif" font-size="14.00">1</text>
</g>
<!-- 20&#45;&gt;2 -->
<g id="edge50" class="edge">
<title>20&#45;&gt;2</title>
<path fill="none" stroke="black" d="M675.6,-619.34C636.06,-589.88 550.35,-529.64 469,-496.5 446.67,-487.4 421.5,-480.41 398.11,-475.16"/>
<polygon fill="black" stroke="black" points="399.15,-471.81 388.64,-473.12 397.67,-478.65 399.15,-471.81"/>
<text text-anchor="middle" x="607.46" y="-543.95" font-family="Times,serif" font-size="14.00">297</text>
</g>
<!-- 20&#45;&gt;6 -->
<g id="edge49" class="edge">
<title>20&#45;&gt;6</title>
<path fill="none" stroke="black" d="M647.36,-654.16C585.77,-675.2 481.31,-717.51 410.75,-781.5 369.96,-818.49 383.29,-846.93 345,-886.5 340.94,-890.69 336.3,-894.67 331.5,-898.33"/>
<polygon fill="black" stroke="black" points="329.54,-895.43 323.42,-904.08 333.6,-901.13 329.54,-895.43"/>
<text text-anchor="middle" x="420.88" y="-784.7" font-family="Times,serif" font-size="14.00">150</text>
</g>
<!-- 20&#45;&gt;15 -->
<g id="edge52" class="edge">
<title>20&#45;&gt;15</title>
<path fill="none" stroke="black" d="M617.46,-624.01C508.8,-607.17 316.89,-577.42 212.52,-561.24"/>
<polygon fill="black" stroke="black" points="213.08,-557.79 202.66,-559.71 212.01,-564.7 213.08,-557.79"/>
<text text-anchor="middle" x="472.35" y="-588.2" font-family="Times,serif" font-size="14.00">1</text>
</g>
<!-- 20&#45;&gt;16 -->
<g id="edge48" class="edge">
<title>20&#45;&gt;16</title>
<path fill="none" stroke="black" d="M748.31,-620.77C766.28,-614.96 786.63,-608.16 805,-601.5 831.44,-591.91 860.57,-580.37 884.44,-570.64"/>
<polygon fill="black" stroke="black" points="885.68,-573.92 893.61,-566.89 883.03,-567.44 885.68,-573.92"/>
<text text-anchor="middle" x="854.61" y="-588.2" font-family="Times,serif" font-size="14.00">15</text>
</g>
<!-- 21&#45;&gt;20 -->
<g id="edge58" class="edge">
<title>21&#45;&gt;20</title>
<path fill="none" stroke="black" d="M698,-727.47C698,-711.26 698,-686.56 698,-667.29"/>
<polygon fill="black" stroke="black" points="701.5,-667.35 698,-657.35 694.5,-667.35 701.5,-667.35"/>
<text text-anchor="middle" x="701.38" y="-686.45" font-family="Times,serif" font-size="14.00">1</text>
</g>
<!-- 22&#45;&gt;13 -->
<g id="edge55" class="edge">
<title>22&#45;&gt;13</title>
<path fill="none" stroke="black" d="M749.04,-993.56C789.84,-974.96 842.57,-942.29 820,-904.5 806.08,-881.19 781.35,-865.24 757.25,-854.56"/>
<polygon fill="black" stroke="black" points="758.6,-851.33 748.02,-850.74 755.92,-857.8 758.6,-851.33"/>
<text text-anchor="middle" x="838.9" y="-917.45" font-family="Times,serif" font-size="14.00">2308</text>
</g>
<!-- 23 -->
<g id="node24" class="node">
<title>23</title>
<ellipse fill="none" stroke="black" cx="691" cy="-922.5" rx="120.45" ry="18"/>
<text text-anchor="middle" x="691" y="-917.45" font-family="Times,serif" font-size="14.00">Release Purchase Requisition</text>
</g>
<!-- 22&#45;&gt;23 -->
<g id="edge61" class="edge">
<title>22&#45;&gt;23</title>
<path fill="none" stroke="black" d="M703.84,-992.91C701.68,-981.26 698.78,-965.55 696.28,-952.02"/>
<polygon fill="black" stroke="black" points="699.75,-951.54 694.48,-942.34 692.86,-952.81 699.75,-951.54"/>
<text text-anchor="middle" x="707.18" y="-961.7" font-family="Times,serif" font-size="14.00">34</text>
</g>
<!-- 23&#45;&gt;13 -->
<g id="edge62" class="edge">
<title>23&#45;&gt;13</title>
<path fill="none" stroke="black" d="M691,-904.41C691,-892.76 691,-877.05 691,-863.52"/>
<polygon fill="black" stroke="black" points="694.5,-863.86 691,-853.86 687.5,-863.86 694.5,-863.86"/>
<text text-anchor="middle" x="701.12" y="-873.2" font-family="Times,serif" font-size="14.00">189</text>
</g>
</g>
</svg>
